%TF.GenerationSoftware,KiCad,Pcbnew,7.0.8+1*%
%TF.CreationDate,2023-11-05T23:31:33+01:00*%
%TF.ProjectId,QL_qplane,514c5f71-706c-4616-9e65-2e6b69636164,0.1*%
%TF.SameCoordinates,Original*%
%TF.FileFunction,Legend,Top*%
%TF.FilePolarity,Positive*%
%FSLAX46Y46*%
G04 Gerber Fmt 4.6, Leading zero omitted, Abs format (unit mm)*
G04 Created by KiCad (PCBNEW 7.0.8+1) date 2023-11-05 23:31:33*
%MOMM*%
%LPD*%
G01*
G04 APERTURE LIST*
%ADD10C,0.150000*%
%ADD11C,0.300000*%
%ADD12C,0.120000*%
G04 APERTURE END LIST*
D10*
X-73475180Y-177339048D02*
X-72760895Y-177339048D01*
X-72760895Y-177339048D02*
X-72618038Y-177386667D01*
X-72618038Y-177386667D02*
X-72522800Y-177481905D01*
X-72522800Y-177481905D02*
X-72475180Y-177624762D01*
X-72475180Y-177624762D02*
X-72475180Y-177720000D01*
X-72475180Y-176386667D02*
X-72475180Y-176862857D01*
X-72475180Y-176862857D02*
X-73475180Y-176862857D01*
X-72570419Y-175481905D02*
X-72522800Y-175529524D01*
X-72522800Y-175529524D02*
X-72475180Y-175672381D01*
X-72475180Y-175672381D02*
X-72475180Y-175767619D01*
X-72475180Y-175767619D02*
X-72522800Y-175910476D01*
X-72522800Y-175910476D02*
X-72618038Y-176005714D01*
X-72618038Y-176005714D02*
X-72713276Y-176053333D01*
X-72713276Y-176053333D02*
X-72903752Y-176100952D01*
X-72903752Y-176100952D02*
X-73046609Y-176100952D01*
X-73046609Y-176100952D02*
X-73237085Y-176053333D01*
X-73237085Y-176053333D02*
X-73332323Y-176005714D01*
X-73332323Y-176005714D02*
X-73427561Y-175910476D01*
X-73427561Y-175910476D02*
X-73475180Y-175767619D01*
X-73475180Y-175767619D02*
X-73475180Y-175672381D01*
X-73475180Y-175672381D02*
X-73427561Y-175529524D01*
X-73427561Y-175529524D02*
X-73379942Y-175481905D01*
X-73475180Y-174767619D02*
X-72760895Y-174767619D01*
X-72760895Y-174767619D02*
X-72618038Y-174815238D01*
X-72618038Y-174815238D02*
X-72522800Y-174910476D01*
X-72522800Y-174910476D02*
X-72475180Y-175053333D01*
X-72475180Y-175053333D02*
X-72475180Y-175148571D01*
X-72475180Y-173815238D02*
X-72475180Y-174291428D01*
X-72475180Y-174291428D02*
X-73475180Y-174291428D01*
X-72570419Y-172910476D02*
X-72522800Y-172958095D01*
X-72522800Y-172958095D02*
X-72475180Y-173100952D01*
X-72475180Y-173100952D02*
X-72475180Y-173196190D01*
X-72475180Y-173196190D02*
X-72522800Y-173339047D01*
X-72522800Y-173339047D02*
X-72618038Y-173434285D01*
X-72618038Y-173434285D02*
X-72713276Y-173481904D01*
X-72713276Y-173481904D02*
X-72903752Y-173529523D01*
X-72903752Y-173529523D02*
X-73046609Y-173529523D01*
X-73046609Y-173529523D02*
X-73237085Y-173481904D01*
X-73237085Y-173481904D02*
X-73332323Y-173434285D01*
X-73332323Y-173434285D02*
X-73427561Y-173339047D01*
X-73427561Y-173339047D02*
X-73475180Y-173196190D01*
X-73475180Y-173196190D02*
X-73475180Y-173100952D01*
X-73475180Y-173100952D02*
X-73427561Y-172958095D01*
X-73427561Y-172958095D02*
X-73379942Y-172910476D01*
X-73475180Y-172196190D02*
X-72760895Y-172196190D01*
X-72760895Y-172196190D02*
X-72618038Y-172243809D01*
X-72618038Y-172243809D02*
X-72522800Y-172339047D01*
X-72522800Y-172339047D02*
X-72475180Y-172481904D01*
X-72475180Y-172481904D02*
X-72475180Y-172577142D01*
X-72475180Y-171243809D02*
X-72475180Y-171719999D01*
X-72475180Y-171719999D02*
X-73475180Y-171719999D01*
X-72570419Y-170339047D02*
X-72522800Y-170386666D01*
X-72522800Y-170386666D02*
X-72475180Y-170529523D01*
X-72475180Y-170529523D02*
X-72475180Y-170624761D01*
X-72475180Y-170624761D02*
X-72522800Y-170767618D01*
X-72522800Y-170767618D02*
X-72618038Y-170862856D01*
X-72618038Y-170862856D02*
X-72713276Y-170910475D01*
X-72713276Y-170910475D02*
X-72903752Y-170958094D01*
X-72903752Y-170958094D02*
X-73046609Y-170958094D01*
X-73046609Y-170958094D02*
X-73237085Y-170910475D01*
X-73237085Y-170910475D02*
X-73332323Y-170862856D01*
X-73332323Y-170862856D02*
X-73427561Y-170767618D01*
X-73427561Y-170767618D02*
X-73475180Y-170624761D01*
X-73475180Y-170624761D02*
X-73475180Y-170529523D01*
X-73475180Y-170529523D02*
X-73427561Y-170386666D01*
X-73427561Y-170386666D02*
X-73379942Y-170339047D01*
X-73475180Y-169624761D02*
X-72760895Y-169624761D01*
X-72760895Y-169624761D02*
X-72618038Y-169672380D01*
X-72618038Y-169672380D02*
X-72522800Y-169767618D01*
X-72522800Y-169767618D02*
X-72475180Y-169910475D01*
X-72475180Y-169910475D02*
X-72475180Y-170005713D01*
X-72475180Y-168672380D02*
X-72475180Y-169148570D01*
X-72475180Y-169148570D02*
X-73475180Y-169148570D01*
X-72570419Y-167767618D02*
X-72522800Y-167815237D01*
X-72522800Y-167815237D02*
X-72475180Y-167958094D01*
X-72475180Y-167958094D02*
X-72475180Y-168053332D01*
X-72475180Y-168053332D02*
X-72522800Y-168196189D01*
X-72522800Y-168196189D02*
X-72618038Y-168291427D01*
X-72618038Y-168291427D02*
X-72713276Y-168339046D01*
X-72713276Y-168339046D02*
X-72903752Y-168386665D01*
X-72903752Y-168386665D02*
X-73046609Y-168386665D01*
X-73046609Y-168386665D02*
X-73237085Y-168339046D01*
X-73237085Y-168339046D02*
X-73332323Y-168291427D01*
X-73332323Y-168291427D02*
X-73427561Y-168196189D01*
X-73427561Y-168196189D02*
X-73475180Y-168053332D01*
X-73475180Y-168053332D02*
X-73475180Y-167958094D01*
X-73475180Y-167958094D02*
X-73427561Y-167815237D01*
X-73427561Y-167815237D02*
X-73379942Y-167767618D01*
D11*
X-165165600Y-194277143D02*
X-165070361Y-193991429D01*
X-165070361Y-193991429D02*
X-165070361Y-193515238D01*
X-165070361Y-193515238D02*
X-165165600Y-193324762D01*
X-165165600Y-193324762D02*
X-165260838Y-193229524D01*
X-165260838Y-193229524D02*
X-165451314Y-193134286D01*
X-165451314Y-193134286D02*
X-165641790Y-193134286D01*
X-165641790Y-193134286D02*
X-165832266Y-193229524D01*
X-165832266Y-193229524D02*
X-165927504Y-193324762D01*
X-165927504Y-193324762D02*
X-166022742Y-193515238D01*
X-166022742Y-193515238D02*
X-166117980Y-193896191D01*
X-166117980Y-193896191D02*
X-166213219Y-194086667D01*
X-166213219Y-194086667D02*
X-166308457Y-194181905D01*
X-166308457Y-194181905D02*
X-166498933Y-194277143D01*
X-166498933Y-194277143D02*
X-166689409Y-194277143D01*
X-166689409Y-194277143D02*
X-166879885Y-194181905D01*
X-166879885Y-194181905D02*
X-166975123Y-194086667D01*
X-166975123Y-194086667D02*
X-167070361Y-193896191D01*
X-167070361Y-193896191D02*
X-167070361Y-193420000D01*
X-167070361Y-193420000D02*
X-166975123Y-193134286D01*
X-165070361Y-192277143D02*
X-167070361Y-192277143D01*
X-165070361Y-191324762D02*
X-167070361Y-191324762D01*
X-167070361Y-191324762D02*
X-165070361Y-190181905D01*
X-165070361Y-190181905D02*
X-167070361Y-190181905D01*
X-165260838Y-188086667D02*
X-165165600Y-188181905D01*
X-165165600Y-188181905D02*
X-165070361Y-188467619D01*
X-165070361Y-188467619D02*
X-165070361Y-188658095D01*
X-165070361Y-188658095D02*
X-165165600Y-188943810D01*
X-165165600Y-188943810D02*
X-165356076Y-189134286D01*
X-165356076Y-189134286D02*
X-165546552Y-189229524D01*
X-165546552Y-189229524D02*
X-165927504Y-189324762D01*
X-165927504Y-189324762D02*
X-166213219Y-189324762D01*
X-166213219Y-189324762D02*
X-166594171Y-189229524D01*
X-166594171Y-189229524D02*
X-166784647Y-189134286D01*
X-166784647Y-189134286D02*
X-166975123Y-188943810D01*
X-166975123Y-188943810D02*
X-167070361Y-188658095D01*
X-167070361Y-188658095D02*
X-167070361Y-188467619D01*
X-167070361Y-188467619D02*
X-166975123Y-188181905D01*
X-166975123Y-188181905D02*
X-166879885Y-188086667D01*
X-165070361Y-186277143D02*
X-165070361Y-187229524D01*
X-165070361Y-187229524D02*
X-167070361Y-187229524D01*
X-165641790Y-185705714D02*
X-165641790Y-184753333D01*
X-165070361Y-185896190D02*
X-167070361Y-185229524D01*
X-167070361Y-185229524D02*
X-165070361Y-184562857D01*
X-165070361Y-183896190D02*
X-167070361Y-183896190D01*
X-165070361Y-181800952D02*
X-166022742Y-182467619D01*
X-165070361Y-182943809D02*
X-167070361Y-182943809D01*
X-167070361Y-182943809D02*
X-167070361Y-182181904D01*
X-167070361Y-182181904D02*
X-166975123Y-181991428D01*
X-166975123Y-181991428D02*
X-166879885Y-181896190D01*
X-166879885Y-181896190D02*
X-166689409Y-181800952D01*
X-166689409Y-181800952D02*
X-166403695Y-181800952D01*
X-166403695Y-181800952D02*
X-166213219Y-181896190D01*
X-166213219Y-181896190D02*
X-166117980Y-181991428D01*
X-166117980Y-181991428D02*
X-166022742Y-182181904D01*
X-166022742Y-182181904D02*
X-166022742Y-182943809D01*
X-164879885Y-178086666D02*
X-164975123Y-178277142D01*
X-164975123Y-178277142D02*
X-165165600Y-178467618D01*
X-165165600Y-178467618D02*
X-165451314Y-178753332D01*
X-165451314Y-178753332D02*
X-165546552Y-178943809D01*
X-165546552Y-178943809D02*
X-165546552Y-179134285D01*
X-165070361Y-179039047D02*
X-165165600Y-179229523D01*
X-165165600Y-179229523D02*
X-165356076Y-179419999D01*
X-165356076Y-179419999D02*
X-165737028Y-179515237D01*
X-165737028Y-179515237D02*
X-166403695Y-179515237D01*
X-166403695Y-179515237D02*
X-166784647Y-179419999D01*
X-166784647Y-179419999D02*
X-166975123Y-179229523D01*
X-166975123Y-179229523D02*
X-167070361Y-179039047D01*
X-167070361Y-179039047D02*
X-167070361Y-178658094D01*
X-167070361Y-178658094D02*
X-166975123Y-178467618D01*
X-166975123Y-178467618D02*
X-166784647Y-178277142D01*
X-166784647Y-178277142D02*
X-166403695Y-178181904D01*
X-166403695Y-178181904D02*
X-165737028Y-178181904D01*
X-165737028Y-178181904D02*
X-165356076Y-178277142D01*
X-165356076Y-178277142D02*
X-165165600Y-178467618D01*
X-165165600Y-178467618D02*
X-165070361Y-178658094D01*
X-165070361Y-178658094D02*
X-165070361Y-179039047D01*
X-165070361Y-176372380D02*
X-165070361Y-177324761D01*
X-165070361Y-177324761D02*
X-167070361Y-177324761D01*
X-163183695Y-209800954D02*
X-161850361Y-209800954D01*
X-163945600Y-210277145D02*
X-162517028Y-210753335D01*
X-162517028Y-210753335D02*
X-162517028Y-209515240D01*
X-161945600Y-207324763D02*
X-161850361Y-207039049D01*
X-161850361Y-207039049D02*
X-161850361Y-206562858D01*
X-161850361Y-206562858D02*
X-161945600Y-206372382D01*
X-161945600Y-206372382D02*
X-162040838Y-206277144D01*
X-162040838Y-206277144D02*
X-162231314Y-206181906D01*
X-162231314Y-206181906D02*
X-162421790Y-206181906D01*
X-162421790Y-206181906D02*
X-162612266Y-206277144D01*
X-162612266Y-206277144D02*
X-162707504Y-206372382D01*
X-162707504Y-206372382D02*
X-162802742Y-206562858D01*
X-162802742Y-206562858D02*
X-162897980Y-206943811D01*
X-162897980Y-206943811D02*
X-162993219Y-207134287D01*
X-162993219Y-207134287D02*
X-163088457Y-207229525D01*
X-163088457Y-207229525D02*
X-163278933Y-207324763D01*
X-163278933Y-207324763D02*
X-163469409Y-207324763D01*
X-163469409Y-207324763D02*
X-163659885Y-207229525D01*
X-163659885Y-207229525D02*
X-163755123Y-207134287D01*
X-163755123Y-207134287D02*
X-163850361Y-206943811D01*
X-163850361Y-206943811D02*
X-163850361Y-206467620D01*
X-163850361Y-206467620D02*
X-163755123Y-206181906D01*
X-161850361Y-204372382D02*
X-161850361Y-205324763D01*
X-161850361Y-205324763D02*
X-163850361Y-205324763D01*
X-163850361Y-203324763D02*
X-163850361Y-202943810D01*
X-163850361Y-202943810D02*
X-163755123Y-202753334D01*
X-163755123Y-202753334D02*
X-163564647Y-202562858D01*
X-163564647Y-202562858D02*
X-163183695Y-202467620D01*
X-163183695Y-202467620D02*
X-162517028Y-202467620D01*
X-162517028Y-202467620D02*
X-162136076Y-202562858D01*
X-162136076Y-202562858D02*
X-161945600Y-202753334D01*
X-161945600Y-202753334D02*
X-161850361Y-202943810D01*
X-161850361Y-202943810D02*
X-161850361Y-203324763D01*
X-161850361Y-203324763D02*
X-161945600Y-203515239D01*
X-161945600Y-203515239D02*
X-162136076Y-203705715D01*
X-162136076Y-203705715D02*
X-162517028Y-203800953D01*
X-162517028Y-203800953D02*
X-163183695Y-203800953D01*
X-163183695Y-203800953D02*
X-163564647Y-203705715D01*
X-163564647Y-203705715D02*
X-163755123Y-203515239D01*
X-163755123Y-203515239D02*
X-163850361Y-203324763D01*
X-163850361Y-201896191D02*
X-163850361Y-200753334D01*
X-161850361Y-201324763D02*
X-163850361Y-201324763D01*
X-162897980Y-197896190D02*
X-162802742Y-197610476D01*
X-162802742Y-197610476D02*
X-162707504Y-197515238D01*
X-162707504Y-197515238D02*
X-162517028Y-197420000D01*
X-162517028Y-197420000D02*
X-162231314Y-197420000D01*
X-162231314Y-197420000D02*
X-162040838Y-197515238D01*
X-162040838Y-197515238D02*
X-161945600Y-197610476D01*
X-161945600Y-197610476D02*
X-161850361Y-197800952D01*
X-161850361Y-197800952D02*
X-161850361Y-198562857D01*
X-161850361Y-198562857D02*
X-163850361Y-198562857D01*
X-163850361Y-198562857D02*
X-163850361Y-197896190D01*
X-163850361Y-197896190D02*
X-163755123Y-197705714D01*
X-163755123Y-197705714D02*
X-163659885Y-197610476D01*
X-163659885Y-197610476D02*
X-163469409Y-197515238D01*
X-163469409Y-197515238D02*
X-163278933Y-197515238D01*
X-163278933Y-197515238D02*
X-163088457Y-197610476D01*
X-163088457Y-197610476D02*
X-162993219Y-197705714D01*
X-162993219Y-197705714D02*
X-162897980Y-197896190D01*
X-162897980Y-197896190D02*
X-162897980Y-198562857D01*
X-162421790Y-196658095D02*
X-162421790Y-195705714D01*
X-161850361Y-196848571D02*
X-163850361Y-196181905D01*
X-163850361Y-196181905D02*
X-161850361Y-195515238D01*
X-162040838Y-193705714D02*
X-161945600Y-193800952D01*
X-161945600Y-193800952D02*
X-161850361Y-194086666D01*
X-161850361Y-194086666D02*
X-161850361Y-194277142D01*
X-161850361Y-194277142D02*
X-161945600Y-194562857D01*
X-161945600Y-194562857D02*
X-162136076Y-194753333D01*
X-162136076Y-194753333D02*
X-162326552Y-194848571D01*
X-162326552Y-194848571D02*
X-162707504Y-194943809D01*
X-162707504Y-194943809D02*
X-162993219Y-194943809D01*
X-162993219Y-194943809D02*
X-163374171Y-194848571D01*
X-163374171Y-194848571D02*
X-163564647Y-194753333D01*
X-163564647Y-194753333D02*
X-163755123Y-194562857D01*
X-163755123Y-194562857D02*
X-163850361Y-194277142D01*
X-163850361Y-194277142D02*
X-163850361Y-194086666D01*
X-163850361Y-194086666D02*
X-163755123Y-193800952D01*
X-163755123Y-193800952D02*
X-163659885Y-193705714D01*
X-161850361Y-192848571D02*
X-163850361Y-192848571D01*
X-161850361Y-191705714D02*
X-162993219Y-192562857D01*
X-163850361Y-191705714D02*
X-162707504Y-192848571D01*
X-161850361Y-190848571D02*
X-163850361Y-190848571D01*
X-163850361Y-190848571D02*
X-163850361Y-190086666D01*
X-163850361Y-190086666D02*
X-163755123Y-189896190D01*
X-163755123Y-189896190D02*
X-163659885Y-189800952D01*
X-163659885Y-189800952D02*
X-163469409Y-189705714D01*
X-163469409Y-189705714D02*
X-163183695Y-189705714D01*
X-163183695Y-189705714D02*
X-162993219Y-189800952D01*
X-162993219Y-189800952D02*
X-162897980Y-189896190D01*
X-162897980Y-189896190D02*
X-162802742Y-190086666D01*
X-162802742Y-190086666D02*
X-162802742Y-190848571D01*
X-161850361Y-187896190D02*
X-161850361Y-188848571D01*
X-161850361Y-188848571D02*
X-163850361Y-188848571D01*
X-162421790Y-187324761D02*
X-162421790Y-186372380D01*
X-161850361Y-187515237D02*
X-163850361Y-186848571D01*
X-163850361Y-186848571D02*
X-161850361Y-186181904D01*
X-161850361Y-185515237D02*
X-163850361Y-185515237D01*
X-163850361Y-185515237D02*
X-161850361Y-184372380D01*
X-161850361Y-184372380D02*
X-163850361Y-184372380D01*
X-162897980Y-183419999D02*
X-162897980Y-182753332D01*
X-161850361Y-182467618D02*
X-161850361Y-183419999D01*
X-161850361Y-183419999D02*
X-163850361Y-183419999D01*
X-163850361Y-183419999D02*
X-163850361Y-182467618D01*
X-162612266Y-180086665D02*
X-162612266Y-178562856D01*
X-161850361Y-179324760D02*
X-163374171Y-179324760D01*
X-163850361Y-176277141D02*
X-163850361Y-174943808D01*
X-163850361Y-174943808D02*
X-161850361Y-175800951D01*
X-163850361Y-173324760D02*
X-163850361Y-173705713D01*
X-163850361Y-173705713D02*
X-163755123Y-173896189D01*
X-163755123Y-173896189D02*
X-163659885Y-173991427D01*
X-163659885Y-173991427D02*
X-163374171Y-174181903D01*
X-163374171Y-174181903D02*
X-162993219Y-174277141D01*
X-162993219Y-174277141D02*
X-162231314Y-174277141D01*
X-162231314Y-174277141D02*
X-162040838Y-174181903D01*
X-162040838Y-174181903D02*
X-161945600Y-174086665D01*
X-161945600Y-174086665D02*
X-161850361Y-173896189D01*
X-161850361Y-173896189D02*
X-161850361Y-173515236D01*
X-161850361Y-173515236D02*
X-161945600Y-173324760D01*
X-161945600Y-173324760D02*
X-162040838Y-173229522D01*
X-162040838Y-173229522D02*
X-162231314Y-173134284D01*
X-162231314Y-173134284D02*
X-162707504Y-173134284D01*
X-162707504Y-173134284D02*
X-162897980Y-173229522D01*
X-162897980Y-173229522D02*
X-162993219Y-173324760D01*
X-162993219Y-173324760D02*
X-163088457Y-173515236D01*
X-163088457Y-173515236D02*
X-163088457Y-173896189D01*
X-163088457Y-173896189D02*
X-162993219Y-174086665D01*
X-162993219Y-174086665D02*
X-162897980Y-174181903D01*
X-162897980Y-174181903D02*
X-162707504Y-174277141D01*
X-162993219Y-171991427D02*
X-163088457Y-172181903D01*
X-163088457Y-172181903D02*
X-163183695Y-172277141D01*
X-163183695Y-172277141D02*
X-163374171Y-172372379D01*
X-163374171Y-172372379D02*
X-163469409Y-172372379D01*
X-163469409Y-172372379D02*
X-163659885Y-172277141D01*
X-163659885Y-172277141D02*
X-163755123Y-172181903D01*
X-163755123Y-172181903D02*
X-163850361Y-171991427D01*
X-163850361Y-171991427D02*
X-163850361Y-171610474D01*
X-163850361Y-171610474D02*
X-163755123Y-171419998D01*
X-163755123Y-171419998D02*
X-163659885Y-171324760D01*
X-163659885Y-171324760D02*
X-163469409Y-171229522D01*
X-163469409Y-171229522D02*
X-163374171Y-171229522D01*
X-163374171Y-171229522D02*
X-163183695Y-171324760D01*
X-163183695Y-171324760D02*
X-163088457Y-171419998D01*
X-163088457Y-171419998D02*
X-162993219Y-171610474D01*
X-162993219Y-171610474D02*
X-162993219Y-171991427D01*
X-162993219Y-171991427D02*
X-162897980Y-172181903D01*
X-162897980Y-172181903D02*
X-162802742Y-172277141D01*
X-162802742Y-172277141D02*
X-162612266Y-172372379D01*
X-162612266Y-172372379D02*
X-162231314Y-172372379D01*
X-162231314Y-172372379D02*
X-162040838Y-172277141D01*
X-162040838Y-172277141D02*
X-161945600Y-172181903D01*
X-161945600Y-172181903D02*
X-161850361Y-171991427D01*
X-161850361Y-171991427D02*
X-161850361Y-171610474D01*
X-161850361Y-171610474D02*
X-161945600Y-171419998D01*
X-161945600Y-171419998D02*
X-162040838Y-171324760D01*
X-162040838Y-171324760D02*
X-162231314Y-171229522D01*
X-162231314Y-171229522D02*
X-162612266Y-171229522D01*
X-162612266Y-171229522D02*
X-162802742Y-171324760D01*
X-162802742Y-171324760D02*
X-162897980Y-171419998D01*
X-162897980Y-171419998D02*
X-162993219Y-171610474D01*
X-161850361Y-170372379D02*
X-163850361Y-170372379D01*
X-162612266Y-170181903D02*
X-161850361Y-169610474D01*
X-163183695Y-169610474D02*
X-162421790Y-170372379D01*
X-162897980Y-168086664D02*
X-162802742Y-167800950D01*
X-162802742Y-167800950D02*
X-162707504Y-167705712D01*
X-162707504Y-167705712D02*
X-162517028Y-167610474D01*
X-162517028Y-167610474D02*
X-162231314Y-167610474D01*
X-162231314Y-167610474D02*
X-162040838Y-167705712D01*
X-162040838Y-167705712D02*
X-161945600Y-167800950D01*
X-161945600Y-167800950D02*
X-161850361Y-167991426D01*
X-161850361Y-167991426D02*
X-161850361Y-168753331D01*
X-161850361Y-168753331D02*
X-163850361Y-168753331D01*
X-163850361Y-168753331D02*
X-163850361Y-168086664D01*
X-163850361Y-168086664D02*
X-163755123Y-167896188D01*
X-163755123Y-167896188D02*
X-163659885Y-167800950D01*
X-163659885Y-167800950D02*
X-163469409Y-167705712D01*
X-163469409Y-167705712D02*
X-163278933Y-167705712D01*
X-163278933Y-167705712D02*
X-163088457Y-167800950D01*
X-163088457Y-167800950D02*
X-162993219Y-167896188D01*
X-162993219Y-167896188D02*
X-162897980Y-168086664D01*
X-162897980Y-168086664D02*
X-162897980Y-168753331D01*
X-161850361Y-164086664D02*
X-162802742Y-164753331D01*
X-161850361Y-165229521D02*
X-163850361Y-165229521D01*
X-163850361Y-165229521D02*
X-163850361Y-164467616D01*
X-163850361Y-164467616D02*
X-163755123Y-164277140D01*
X-163755123Y-164277140D02*
X-163659885Y-164181902D01*
X-163659885Y-164181902D02*
X-163469409Y-164086664D01*
X-163469409Y-164086664D02*
X-163183695Y-164086664D01*
X-163183695Y-164086664D02*
X-162993219Y-164181902D01*
X-162993219Y-164181902D02*
X-162897980Y-164277140D01*
X-162897980Y-164277140D02*
X-162802742Y-164467616D01*
X-162802742Y-164467616D02*
X-162802742Y-165229521D01*
X-162421790Y-163324759D02*
X-162421790Y-162372378D01*
X-161850361Y-163515235D02*
X-163850361Y-162848569D01*
X-163850361Y-162848569D02*
X-161850361Y-162181902D01*
X-161850361Y-161515235D02*
X-163850361Y-161515235D01*
X-163850361Y-161515235D02*
X-162421790Y-160848568D01*
X-162421790Y-160848568D02*
X-163850361Y-160181902D01*
X-163850361Y-160181902D02*
X-161850361Y-160181902D01*
D10*
X-141721847Y-200595475D02*
X-141055180Y-200404999D01*
X-141055180Y-200404999D02*
X-141531371Y-200214523D01*
X-141531371Y-200214523D02*
X-141055180Y-200024047D01*
X-141055180Y-200024047D02*
X-141721847Y-199833571D01*
X-141721847Y-199547856D02*
X-141055180Y-199357380D01*
X-141055180Y-199357380D02*
X-141531371Y-199166904D01*
X-141531371Y-199166904D02*
X-141055180Y-198976428D01*
X-141055180Y-198976428D02*
X-141721847Y-198785952D01*
X-141721847Y-198500237D02*
X-141055180Y-198309761D01*
X-141055180Y-198309761D02*
X-141531371Y-198119285D01*
X-141531371Y-198119285D02*
X-141055180Y-197928809D01*
X-141055180Y-197928809D02*
X-141721847Y-197738333D01*
X-141150419Y-197357380D02*
X-141102800Y-197309761D01*
X-141102800Y-197309761D02*
X-141055180Y-197357380D01*
X-141055180Y-197357380D02*
X-141102800Y-197404999D01*
X-141102800Y-197404999D02*
X-141150419Y-197357380D01*
X-141150419Y-197357380D02*
X-141055180Y-197357380D01*
X-141721847Y-196976428D02*
X-141055180Y-196738333D01*
X-141055180Y-196738333D02*
X-141721847Y-196500238D01*
X-141055180Y-195690714D02*
X-141578990Y-195690714D01*
X-141578990Y-195690714D02*
X-141674228Y-195738333D01*
X-141674228Y-195738333D02*
X-141721847Y-195833571D01*
X-141721847Y-195833571D02*
X-141721847Y-196024047D01*
X-141721847Y-196024047D02*
X-141674228Y-196119285D01*
X-141102800Y-195690714D02*
X-141055180Y-195785952D01*
X-141055180Y-195785952D02*
X-141055180Y-196024047D01*
X-141055180Y-196024047D02*
X-141102800Y-196119285D01*
X-141102800Y-196119285D02*
X-141198038Y-196166904D01*
X-141198038Y-196166904D02*
X-141293276Y-196166904D01*
X-141293276Y-196166904D02*
X-141388514Y-196119285D01*
X-141388514Y-196119285D02*
X-141436133Y-196024047D01*
X-141436133Y-196024047D02*
X-141436133Y-195785952D01*
X-141436133Y-195785952D02*
X-141483752Y-195690714D01*
X-141436133Y-195214523D02*
X-141436133Y-194452619D01*
X-141055180Y-193547857D02*
X-142055180Y-193547857D01*
X-141102800Y-193547857D02*
X-141055180Y-193643095D01*
X-141055180Y-193643095D02*
X-141055180Y-193833571D01*
X-141055180Y-193833571D02*
X-141102800Y-193928809D01*
X-141102800Y-193928809D02*
X-141150419Y-193976428D01*
X-141150419Y-193976428D02*
X-141245657Y-194024047D01*
X-141245657Y-194024047D02*
X-141531371Y-194024047D01*
X-141531371Y-194024047D02*
X-141626609Y-193976428D01*
X-141626609Y-193976428D02*
X-141674228Y-193928809D01*
X-141674228Y-193928809D02*
X-141721847Y-193833571D01*
X-141721847Y-193833571D02*
X-141721847Y-193643095D01*
X-141721847Y-193643095D02*
X-141674228Y-193547857D01*
X-141102800Y-192690714D02*
X-141055180Y-192785952D01*
X-141055180Y-192785952D02*
X-141055180Y-192976428D01*
X-141055180Y-192976428D02*
X-141102800Y-193071666D01*
X-141102800Y-193071666D02*
X-141198038Y-193119285D01*
X-141198038Y-193119285D02*
X-141578990Y-193119285D01*
X-141578990Y-193119285D02*
X-141674228Y-193071666D01*
X-141674228Y-193071666D02*
X-141721847Y-192976428D01*
X-141721847Y-192976428D02*
X-141721847Y-192785952D01*
X-141721847Y-192785952D02*
X-141674228Y-192690714D01*
X-141674228Y-192690714D02*
X-141578990Y-192643095D01*
X-141578990Y-192643095D02*
X-141483752Y-192643095D01*
X-141483752Y-192643095D02*
X-141388514Y-193119285D01*
X-141436133Y-192214523D02*
X-141436133Y-191452619D01*
X-141055180Y-190976428D02*
X-141721847Y-190976428D01*
X-141531371Y-190976428D02*
X-141626609Y-190928809D01*
X-141626609Y-190928809D02*
X-141674228Y-190881190D01*
X-141674228Y-190881190D02*
X-141721847Y-190785952D01*
X-141721847Y-190785952D02*
X-141721847Y-190690714D01*
X-141102800Y-189976428D02*
X-141055180Y-190071666D01*
X-141055180Y-190071666D02*
X-141055180Y-190262142D01*
X-141055180Y-190262142D02*
X-141102800Y-190357380D01*
X-141102800Y-190357380D02*
X-141198038Y-190404999D01*
X-141198038Y-190404999D02*
X-141578990Y-190404999D01*
X-141578990Y-190404999D02*
X-141674228Y-190357380D01*
X-141674228Y-190357380D02*
X-141721847Y-190262142D01*
X-141721847Y-190262142D02*
X-141721847Y-190071666D01*
X-141721847Y-190071666D02*
X-141674228Y-189976428D01*
X-141674228Y-189976428D02*
X-141578990Y-189928809D01*
X-141578990Y-189928809D02*
X-141483752Y-189928809D01*
X-141483752Y-189928809D02*
X-141388514Y-190404999D01*
X-141721847Y-189643094D02*
X-141721847Y-189262142D01*
X-142055180Y-189500237D02*
X-141198038Y-189500237D01*
X-141198038Y-189500237D02*
X-141102800Y-189452618D01*
X-141102800Y-189452618D02*
X-141055180Y-189357380D01*
X-141055180Y-189357380D02*
X-141055180Y-189262142D01*
X-141055180Y-188928808D02*
X-141721847Y-188928808D01*
X-141531371Y-188928808D02*
X-141626609Y-188881189D01*
X-141626609Y-188881189D02*
X-141674228Y-188833570D01*
X-141674228Y-188833570D02*
X-141721847Y-188738332D01*
X-141721847Y-188738332D02*
X-141721847Y-188643094D01*
X-141055180Y-188166903D02*
X-141102800Y-188262141D01*
X-141102800Y-188262141D02*
X-141150419Y-188309760D01*
X-141150419Y-188309760D02*
X-141245657Y-188357379D01*
X-141245657Y-188357379D02*
X-141531371Y-188357379D01*
X-141531371Y-188357379D02*
X-141626609Y-188309760D01*
X-141626609Y-188309760D02*
X-141674228Y-188262141D01*
X-141674228Y-188262141D02*
X-141721847Y-188166903D01*
X-141721847Y-188166903D02*
X-141721847Y-188024046D01*
X-141721847Y-188024046D02*
X-141674228Y-187928808D01*
X-141674228Y-187928808D02*
X-141626609Y-187881189D01*
X-141626609Y-187881189D02*
X-141531371Y-187833570D01*
X-141531371Y-187833570D02*
X-141245657Y-187833570D01*
X-141245657Y-187833570D02*
X-141150419Y-187881189D01*
X-141150419Y-187881189D02*
X-141102800Y-187928808D01*
X-141102800Y-187928808D02*
X-141055180Y-188024046D01*
X-141055180Y-188024046D02*
X-141055180Y-188166903D01*
X-141150419Y-187404998D02*
X-141102800Y-187357379D01*
X-141102800Y-187357379D02*
X-141055180Y-187404998D01*
X-141055180Y-187404998D02*
X-141102800Y-187452617D01*
X-141102800Y-187452617D02*
X-141150419Y-187404998D01*
X-141150419Y-187404998D02*
X-141055180Y-187404998D01*
X-141102800Y-186500237D02*
X-141055180Y-186595475D01*
X-141055180Y-186595475D02*
X-141055180Y-186785951D01*
X-141055180Y-186785951D02*
X-141102800Y-186881189D01*
X-141102800Y-186881189D02*
X-141150419Y-186928808D01*
X-141150419Y-186928808D02*
X-141245657Y-186976427D01*
X-141245657Y-186976427D02*
X-141531371Y-186976427D01*
X-141531371Y-186976427D02*
X-141626609Y-186928808D01*
X-141626609Y-186928808D02*
X-141674228Y-186881189D01*
X-141674228Y-186881189D02*
X-141721847Y-186785951D01*
X-141721847Y-186785951D02*
X-141721847Y-186595475D01*
X-141721847Y-186595475D02*
X-141674228Y-186500237D01*
X-141055180Y-185928808D02*
X-141102800Y-186024046D01*
X-141102800Y-186024046D02*
X-141150419Y-186071665D01*
X-141150419Y-186071665D02*
X-141245657Y-186119284D01*
X-141245657Y-186119284D02*
X-141531371Y-186119284D01*
X-141531371Y-186119284D02*
X-141626609Y-186071665D01*
X-141626609Y-186071665D02*
X-141674228Y-186024046D01*
X-141674228Y-186024046D02*
X-141721847Y-185928808D01*
X-141721847Y-185928808D02*
X-141721847Y-185785951D01*
X-141721847Y-185785951D02*
X-141674228Y-185690713D01*
X-141674228Y-185690713D02*
X-141626609Y-185643094D01*
X-141626609Y-185643094D02*
X-141531371Y-185595475D01*
X-141531371Y-185595475D02*
X-141245657Y-185595475D01*
X-141245657Y-185595475D02*
X-141150419Y-185643094D01*
X-141150419Y-185643094D02*
X-141102800Y-185690713D01*
X-141102800Y-185690713D02*
X-141055180Y-185785951D01*
X-141055180Y-185785951D02*
X-141055180Y-185928808D01*
X-141055180Y-185166903D02*
X-141721847Y-185166903D01*
X-141626609Y-185166903D02*
X-141674228Y-185119284D01*
X-141674228Y-185119284D02*
X-141721847Y-185024046D01*
X-141721847Y-185024046D02*
X-141721847Y-184881189D01*
X-141721847Y-184881189D02*
X-141674228Y-184785951D01*
X-141674228Y-184785951D02*
X-141578990Y-184738332D01*
X-141578990Y-184738332D02*
X-141055180Y-184738332D01*
X-141578990Y-184738332D02*
X-141674228Y-184690713D01*
X-141674228Y-184690713D02*
X-141721847Y-184595475D01*
X-141721847Y-184595475D02*
X-141721847Y-184452618D01*
X-141721847Y-184452618D02*
X-141674228Y-184357379D01*
X-141674228Y-184357379D02*
X-141578990Y-184309760D01*
X-141578990Y-184309760D02*
X-141055180Y-184309760D01*
X-135594228Y-201619287D02*
X-135641847Y-201666906D01*
X-135641847Y-201666906D02*
X-135784704Y-201762144D01*
X-135784704Y-201762144D02*
X-135879942Y-201809763D01*
X-135879942Y-201809763D02*
X-136022800Y-201857382D01*
X-136022800Y-201857382D02*
X-136260895Y-201905001D01*
X-136260895Y-201905001D02*
X-136451371Y-201905001D01*
X-136451371Y-201905001D02*
X-136689466Y-201857382D01*
X-136689466Y-201857382D02*
X-136832323Y-201809763D01*
X-136832323Y-201809763D02*
X-136927561Y-201762144D01*
X-136927561Y-201762144D02*
X-137070419Y-201666906D01*
X-137070419Y-201666906D02*
X-137118038Y-201619287D01*
X-136070419Y-200666906D02*
X-136022800Y-200714525D01*
X-136022800Y-200714525D02*
X-135975180Y-200857382D01*
X-135975180Y-200857382D02*
X-135975180Y-200952620D01*
X-135975180Y-200952620D02*
X-136022800Y-201095477D01*
X-136022800Y-201095477D02*
X-136118038Y-201190715D01*
X-136118038Y-201190715D02*
X-136213276Y-201238334D01*
X-136213276Y-201238334D02*
X-136403752Y-201285953D01*
X-136403752Y-201285953D02*
X-136546609Y-201285953D01*
X-136546609Y-201285953D02*
X-136737085Y-201238334D01*
X-136737085Y-201238334D02*
X-136832323Y-201190715D01*
X-136832323Y-201190715D02*
X-136927561Y-201095477D01*
X-136927561Y-201095477D02*
X-136975180Y-200952620D01*
X-136975180Y-200952620D02*
X-136975180Y-200857382D01*
X-136975180Y-200857382D02*
X-136927561Y-200714525D01*
X-136927561Y-200714525D02*
X-136879942Y-200666906D01*
X-135594228Y-200333572D02*
X-135641847Y-200285953D01*
X-135641847Y-200285953D02*
X-135784704Y-200190715D01*
X-135784704Y-200190715D02*
X-135879942Y-200143096D01*
X-135879942Y-200143096D02*
X-136022800Y-200095477D01*
X-136022800Y-200095477D02*
X-136260895Y-200047858D01*
X-136260895Y-200047858D02*
X-136451371Y-200047858D01*
X-136451371Y-200047858D02*
X-136689466Y-200095477D01*
X-136689466Y-200095477D02*
X-136832323Y-200143096D01*
X-136832323Y-200143096D02*
X-136927561Y-200190715D01*
X-136927561Y-200190715D02*
X-137070419Y-200285953D01*
X-137070419Y-200285953D02*
X-137118038Y-200333572D01*
X-136879942Y-198857381D02*
X-136927561Y-198809762D01*
X-136927561Y-198809762D02*
X-136975180Y-198714524D01*
X-136975180Y-198714524D02*
X-136975180Y-198476429D01*
X-136975180Y-198476429D02*
X-136927561Y-198381191D01*
X-136927561Y-198381191D02*
X-136879942Y-198333572D01*
X-136879942Y-198333572D02*
X-136784704Y-198285953D01*
X-136784704Y-198285953D02*
X-136689466Y-198285953D01*
X-136689466Y-198285953D02*
X-136546609Y-198333572D01*
X-136546609Y-198333572D02*
X-135975180Y-198905000D01*
X-135975180Y-198905000D02*
X-135975180Y-198285953D01*
X-136975180Y-197666905D02*
X-136975180Y-197571667D01*
X-136975180Y-197571667D02*
X-136927561Y-197476429D01*
X-136927561Y-197476429D02*
X-136879942Y-197428810D01*
X-136879942Y-197428810D02*
X-136784704Y-197381191D01*
X-136784704Y-197381191D02*
X-136594228Y-197333572D01*
X-136594228Y-197333572D02*
X-136356133Y-197333572D01*
X-136356133Y-197333572D02*
X-136165657Y-197381191D01*
X-136165657Y-197381191D02*
X-136070419Y-197428810D01*
X-136070419Y-197428810D02*
X-136022800Y-197476429D01*
X-136022800Y-197476429D02*
X-135975180Y-197571667D01*
X-135975180Y-197571667D02*
X-135975180Y-197666905D01*
X-135975180Y-197666905D02*
X-136022800Y-197762143D01*
X-136022800Y-197762143D02*
X-136070419Y-197809762D01*
X-136070419Y-197809762D02*
X-136165657Y-197857381D01*
X-136165657Y-197857381D02*
X-136356133Y-197905000D01*
X-136356133Y-197905000D02*
X-136594228Y-197905000D01*
X-136594228Y-197905000D02*
X-136784704Y-197857381D01*
X-136784704Y-197857381D02*
X-136879942Y-197809762D01*
X-136879942Y-197809762D02*
X-136927561Y-197762143D01*
X-136927561Y-197762143D02*
X-136975180Y-197666905D01*
X-136879942Y-196952619D02*
X-136927561Y-196905000D01*
X-136927561Y-196905000D02*
X-136975180Y-196809762D01*
X-136975180Y-196809762D02*
X-136975180Y-196571667D01*
X-136975180Y-196571667D02*
X-136927561Y-196476429D01*
X-136927561Y-196476429D02*
X-136879942Y-196428810D01*
X-136879942Y-196428810D02*
X-136784704Y-196381191D01*
X-136784704Y-196381191D02*
X-136689466Y-196381191D01*
X-136689466Y-196381191D02*
X-136546609Y-196428810D01*
X-136546609Y-196428810D02*
X-135975180Y-197000238D01*
X-135975180Y-197000238D02*
X-135975180Y-196381191D01*
X-136975180Y-196047857D02*
X-136975180Y-195428810D01*
X-136975180Y-195428810D02*
X-136594228Y-195762143D01*
X-136594228Y-195762143D02*
X-136594228Y-195619286D01*
X-136594228Y-195619286D02*
X-136546609Y-195524048D01*
X-136546609Y-195524048D02*
X-136498990Y-195476429D01*
X-136498990Y-195476429D02*
X-136403752Y-195428810D01*
X-136403752Y-195428810D02*
X-136165657Y-195428810D01*
X-136165657Y-195428810D02*
X-136070419Y-195476429D01*
X-136070419Y-195476429D02*
X-136022800Y-195524048D01*
X-136022800Y-195524048D02*
X-135975180Y-195619286D01*
X-135975180Y-195619286D02*
X-135975180Y-195905000D01*
X-135975180Y-195905000D02*
X-136022800Y-196000238D01*
X-136022800Y-196000238D02*
X-136070419Y-196047857D01*
X-136260895Y-194285952D02*
X-136260895Y-193809762D01*
X-135975180Y-194381190D02*
X-136975180Y-194047857D01*
X-136975180Y-194047857D02*
X-135975180Y-193714524D01*
X-135975180Y-193238333D02*
X-136022800Y-193333571D01*
X-136022800Y-193333571D02*
X-136118038Y-193381190D01*
X-136118038Y-193381190D02*
X-136975180Y-193381190D01*
X-136641847Y-192952618D02*
X-135975180Y-192714523D01*
X-135975180Y-192714523D02*
X-136641847Y-192476428D01*
X-135975180Y-191666904D02*
X-136498990Y-191666904D01*
X-136498990Y-191666904D02*
X-136594228Y-191714523D01*
X-136594228Y-191714523D02*
X-136641847Y-191809761D01*
X-136641847Y-191809761D02*
X-136641847Y-192000237D01*
X-136641847Y-192000237D02*
X-136594228Y-192095475D01*
X-136022800Y-191666904D02*
X-135975180Y-191762142D01*
X-135975180Y-191762142D02*
X-135975180Y-192000237D01*
X-135975180Y-192000237D02*
X-136022800Y-192095475D01*
X-136022800Y-192095475D02*
X-136118038Y-192143094D01*
X-136118038Y-192143094D02*
X-136213276Y-192143094D01*
X-136213276Y-192143094D02*
X-136308514Y-192095475D01*
X-136308514Y-192095475D02*
X-136356133Y-192000237D01*
X-136356133Y-192000237D02*
X-136356133Y-191762142D01*
X-136356133Y-191762142D02*
X-136403752Y-191666904D01*
X-135975180Y-191190713D02*
X-136641847Y-191190713D01*
X-136451371Y-191190713D02*
X-136546609Y-191143094D01*
X-136546609Y-191143094D02*
X-136594228Y-191095475D01*
X-136594228Y-191095475D02*
X-136641847Y-191000237D01*
X-136641847Y-191000237D02*
X-136641847Y-190904999D01*
X-135975180Y-190428808D02*
X-136022800Y-190524046D01*
X-136022800Y-190524046D02*
X-136070419Y-190571665D01*
X-136070419Y-190571665D02*
X-136165657Y-190619284D01*
X-136165657Y-190619284D02*
X-136451371Y-190619284D01*
X-136451371Y-190619284D02*
X-136546609Y-190571665D01*
X-136546609Y-190571665D02*
X-136594228Y-190524046D01*
X-136594228Y-190524046D02*
X-136641847Y-190428808D01*
X-136641847Y-190428808D02*
X-136641847Y-190285951D01*
X-136641847Y-190285951D02*
X-136594228Y-190190713D01*
X-136594228Y-190190713D02*
X-136546609Y-190143094D01*
X-136546609Y-190143094D02*
X-136451371Y-190095475D01*
X-136451371Y-190095475D02*
X-136165657Y-190095475D01*
X-136165657Y-190095475D02*
X-136070419Y-190143094D01*
X-136070419Y-190143094D02*
X-136022800Y-190190713D01*
X-136022800Y-190190713D02*
X-135975180Y-190285951D01*
X-135975180Y-190285951D02*
X-135975180Y-190428808D01*
X-136260895Y-188952617D02*
X-136260895Y-188476427D01*
X-135975180Y-189047855D02*
X-136975180Y-188714522D01*
X-136975180Y-188714522D02*
X-135975180Y-188381189D01*
X-135975180Y-187904998D02*
X-136022800Y-188000236D01*
X-136022800Y-188000236D02*
X-136118038Y-188047855D01*
X-136118038Y-188047855D02*
X-136975180Y-188047855D01*
X-136022800Y-187143093D02*
X-135975180Y-187238331D01*
X-135975180Y-187238331D02*
X-135975180Y-187428807D01*
X-135975180Y-187428807D02*
X-136022800Y-187524045D01*
X-136022800Y-187524045D02*
X-136118038Y-187571664D01*
X-136118038Y-187571664D02*
X-136498990Y-187571664D01*
X-136498990Y-187571664D02*
X-136594228Y-187524045D01*
X-136594228Y-187524045D02*
X-136641847Y-187428807D01*
X-136641847Y-187428807D02*
X-136641847Y-187238331D01*
X-136641847Y-187238331D02*
X-136594228Y-187143093D01*
X-136594228Y-187143093D02*
X-136498990Y-187095474D01*
X-136498990Y-187095474D02*
X-136403752Y-187095474D01*
X-136403752Y-187095474D02*
X-136308514Y-187571664D01*
X-135975180Y-186238331D02*
X-136498990Y-186238331D01*
X-136498990Y-186238331D02*
X-136594228Y-186285950D01*
X-136594228Y-186285950D02*
X-136641847Y-186381188D01*
X-136641847Y-186381188D02*
X-136641847Y-186571664D01*
X-136641847Y-186571664D02*
X-136594228Y-186666902D01*
X-136022800Y-186238331D02*
X-135975180Y-186333569D01*
X-135975180Y-186333569D02*
X-135975180Y-186571664D01*
X-135975180Y-186571664D02*
X-136022800Y-186666902D01*
X-136022800Y-186666902D02*
X-136118038Y-186714521D01*
X-136118038Y-186714521D02*
X-136213276Y-186714521D01*
X-136213276Y-186714521D02*
X-136308514Y-186666902D01*
X-136308514Y-186666902D02*
X-136356133Y-186571664D01*
X-136356133Y-186571664D02*
X-136356133Y-186333569D01*
X-136356133Y-186333569D02*
X-136403752Y-186238331D01*
X-136498990Y-184666902D02*
X-136498990Y-185000235D01*
X-135975180Y-185000235D02*
X-136975180Y-185000235D01*
X-136975180Y-185000235D02*
X-136975180Y-184524045D01*
X-135975180Y-183714521D02*
X-136975180Y-183714521D01*
X-136022800Y-183714521D02*
X-135975180Y-183809759D01*
X-135975180Y-183809759D02*
X-135975180Y-184000235D01*
X-135975180Y-184000235D02*
X-136022800Y-184095473D01*
X-136022800Y-184095473D02*
X-136070419Y-184143092D01*
X-136070419Y-184143092D02*
X-136165657Y-184190711D01*
X-136165657Y-184190711D02*
X-136451371Y-184190711D01*
X-136451371Y-184190711D02*
X-136546609Y-184143092D01*
X-136546609Y-184143092D02*
X-136594228Y-184095473D01*
X-136594228Y-184095473D02*
X-136641847Y-184000235D01*
X-136641847Y-184000235D02*
X-136641847Y-183809759D01*
X-136641847Y-183809759D02*
X-136594228Y-183714521D01*
X-136641847Y-183333568D02*
X-136641847Y-182809759D01*
X-136641847Y-182809759D02*
X-135975180Y-183333568D01*
X-135975180Y-183333568D02*
X-135975180Y-182809759D01*
X88383905Y-52905819D02*
X88383905Y-51905819D01*
X88383905Y-51905819D02*
X88764857Y-51905819D01*
X88764857Y-51905819D02*
X88860095Y-51953438D01*
X88860095Y-51953438D02*
X88907714Y-52001057D01*
X88907714Y-52001057D02*
X88955333Y-52096295D01*
X88955333Y-52096295D02*
X88955333Y-52239152D01*
X88955333Y-52239152D02*
X88907714Y-52334390D01*
X88907714Y-52334390D02*
X88860095Y-52382009D01*
X88860095Y-52382009D02*
X88764857Y-52429628D01*
X88764857Y-52429628D02*
X88383905Y-52429628D01*
X89526762Y-52334390D02*
X89431524Y-52286771D01*
X89431524Y-52286771D02*
X89383905Y-52239152D01*
X89383905Y-52239152D02*
X89336286Y-52143914D01*
X89336286Y-52143914D02*
X89336286Y-52096295D01*
X89336286Y-52096295D02*
X89383905Y-52001057D01*
X89383905Y-52001057D02*
X89431524Y-51953438D01*
X89431524Y-51953438D02*
X89526762Y-51905819D01*
X89526762Y-51905819D02*
X89717238Y-51905819D01*
X89717238Y-51905819D02*
X89812476Y-51953438D01*
X89812476Y-51953438D02*
X89860095Y-52001057D01*
X89860095Y-52001057D02*
X89907714Y-52096295D01*
X89907714Y-52096295D02*
X89907714Y-52143914D01*
X89907714Y-52143914D02*
X89860095Y-52239152D01*
X89860095Y-52239152D02*
X89812476Y-52286771D01*
X89812476Y-52286771D02*
X89717238Y-52334390D01*
X89717238Y-52334390D02*
X89526762Y-52334390D01*
X89526762Y-52334390D02*
X89431524Y-52382009D01*
X89431524Y-52382009D02*
X89383905Y-52429628D01*
X89383905Y-52429628D02*
X89336286Y-52524866D01*
X89336286Y-52524866D02*
X89336286Y-52715342D01*
X89336286Y-52715342D02*
X89383905Y-52810580D01*
X89383905Y-52810580D02*
X89431524Y-52858200D01*
X89431524Y-52858200D02*
X89526762Y-52905819D01*
X89526762Y-52905819D02*
X89717238Y-52905819D01*
X89717238Y-52905819D02*
X89812476Y-52858200D01*
X89812476Y-52858200D02*
X89860095Y-52810580D01*
X89860095Y-52810580D02*
X89907714Y-52715342D01*
X89907714Y-52715342D02*
X89907714Y-52524866D01*
X89907714Y-52524866D02*
X89860095Y-52429628D01*
X89860095Y-52429628D02*
X89812476Y-52382009D01*
X89812476Y-52382009D02*
X89717238Y-52334390D01*
X112259905Y-53159819D02*
X112259905Y-52159819D01*
X112259905Y-52159819D02*
X112640857Y-52159819D01*
X112640857Y-52159819D02*
X112736095Y-52207438D01*
X112736095Y-52207438D02*
X112783714Y-52255057D01*
X112783714Y-52255057D02*
X112831333Y-52350295D01*
X112831333Y-52350295D02*
X112831333Y-52493152D01*
X112831333Y-52493152D02*
X112783714Y-52588390D01*
X112783714Y-52588390D02*
X112736095Y-52636009D01*
X112736095Y-52636009D02*
X112640857Y-52683628D01*
X112640857Y-52683628D02*
X112259905Y-52683628D01*
X113307524Y-53159819D02*
X113498000Y-53159819D01*
X113498000Y-53159819D02*
X113593238Y-53112200D01*
X113593238Y-53112200D02*
X113640857Y-53064580D01*
X113640857Y-53064580D02*
X113736095Y-52921723D01*
X113736095Y-52921723D02*
X113783714Y-52731247D01*
X113783714Y-52731247D02*
X113783714Y-52350295D01*
X113783714Y-52350295D02*
X113736095Y-52255057D01*
X113736095Y-52255057D02*
X113688476Y-52207438D01*
X113688476Y-52207438D02*
X113593238Y-52159819D01*
X113593238Y-52159819D02*
X113402762Y-52159819D01*
X113402762Y-52159819D02*
X113307524Y-52207438D01*
X113307524Y-52207438D02*
X113259905Y-52255057D01*
X113259905Y-52255057D02*
X113212286Y-52350295D01*
X113212286Y-52350295D02*
X113212286Y-52588390D01*
X113212286Y-52588390D02*
X113259905Y-52683628D01*
X113259905Y-52683628D02*
X113307524Y-52731247D01*
X113307524Y-52731247D02*
X113402762Y-52778866D01*
X113402762Y-52778866D02*
X113593238Y-52778866D01*
X113593238Y-52778866D02*
X113688476Y-52731247D01*
X113688476Y-52731247D02*
X113736095Y-52683628D01*
X113736095Y-52683628D02*
X113783714Y-52588390D01*
X76114819Y-130103476D02*
X75638628Y-130436809D01*
X76114819Y-130674904D02*
X75114819Y-130674904D01*
X75114819Y-130674904D02*
X75114819Y-130293952D01*
X75114819Y-130293952D02*
X75162438Y-130198714D01*
X75162438Y-130198714D02*
X75210057Y-130151095D01*
X75210057Y-130151095D02*
X75305295Y-130103476D01*
X75305295Y-130103476D02*
X75448152Y-130103476D01*
X75448152Y-130103476D02*
X75543390Y-130151095D01*
X75543390Y-130151095D02*
X75591009Y-130198714D01*
X75591009Y-130198714D02*
X75638628Y-130293952D01*
X75638628Y-130293952D02*
X75638628Y-130674904D01*
X76114819Y-129674904D02*
X75114819Y-129674904D01*
X75114819Y-129674904D02*
X76114819Y-129103476D01*
X76114819Y-129103476D02*
X75114819Y-129103476D01*
X75114819Y-128722523D02*
X75114819Y-128103476D01*
X75114819Y-128103476D02*
X75495771Y-128436809D01*
X75495771Y-128436809D02*
X75495771Y-128293952D01*
X75495771Y-128293952D02*
X75543390Y-128198714D01*
X75543390Y-128198714D02*
X75591009Y-128151095D01*
X75591009Y-128151095D02*
X75686247Y-128103476D01*
X75686247Y-128103476D02*
X75924342Y-128103476D01*
X75924342Y-128103476D02*
X76019580Y-128151095D01*
X76019580Y-128151095D02*
X76067200Y-128198714D01*
X76067200Y-128198714D02*
X76114819Y-128293952D01*
X76114819Y-128293952D02*
X76114819Y-128579666D01*
X76114819Y-128579666D02*
X76067200Y-128674904D01*
X76067200Y-128674904D02*
X76019580Y-128722523D01*
X145869580Y-68365666D02*
X145917200Y-68413285D01*
X145917200Y-68413285D02*
X145964819Y-68556142D01*
X145964819Y-68556142D02*
X145964819Y-68651380D01*
X145964819Y-68651380D02*
X145917200Y-68794237D01*
X145917200Y-68794237D02*
X145821961Y-68889475D01*
X145821961Y-68889475D02*
X145726723Y-68937094D01*
X145726723Y-68937094D02*
X145536247Y-68984713D01*
X145536247Y-68984713D02*
X145393390Y-68984713D01*
X145393390Y-68984713D02*
X145202914Y-68937094D01*
X145202914Y-68937094D02*
X145107676Y-68889475D01*
X145107676Y-68889475D02*
X145012438Y-68794237D01*
X145012438Y-68794237D02*
X144964819Y-68651380D01*
X144964819Y-68651380D02*
X144964819Y-68556142D01*
X144964819Y-68556142D02*
X145012438Y-68413285D01*
X145012438Y-68413285D02*
X145060057Y-68365666D01*
X145393390Y-67794237D02*
X145345771Y-67889475D01*
X145345771Y-67889475D02*
X145298152Y-67937094D01*
X145298152Y-67937094D02*
X145202914Y-67984713D01*
X145202914Y-67984713D02*
X145155295Y-67984713D01*
X145155295Y-67984713D02*
X145060057Y-67937094D01*
X145060057Y-67937094D02*
X145012438Y-67889475D01*
X145012438Y-67889475D02*
X144964819Y-67794237D01*
X144964819Y-67794237D02*
X144964819Y-67603761D01*
X144964819Y-67603761D02*
X145012438Y-67508523D01*
X145012438Y-67508523D02*
X145060057Y-67460904D01*
X145060057Y-67460904D02*
X145155295Y-67413285D01*
X145155295Y-67413285D02*
X145202914Y-67413285D01*
X145202914Y-67413285D02*
X145298152Y-67460904D01*
X145298152Y-67460904D02*
X145345771Y-67508523D01*
X145345771Y-67508523D02*
X145393390Y-67603761D01*
X145393390Y-67603761D02*
X145393390Y-67794237D01*
X145393390Y-67794237D02*
X145441009Y-67889475D01*
X145441009Y-67889475D02*
X145488628Y-67937094D01*
X145488628Y-67937094D02*
X145583866Y-67984713D01*
X145583866Y-67984713D02*
X145774342Y-67984713D01*
X145774342Y-67984713D02*
X145869580Y-67937094D01*
X145869580Y-67937094D02*
X145917200Y-67889475D01*
X145917200Y-67889475D02*
X145964819Y-67794237D01*
X145964819Y-67794237D02*
X145964819Y-67603761D01*
X145964819Y-67603761D02*
X145917200Y-67508523D01*
X145917200Y-67508523D02*
X145869580Y-67460904D01*
X145869580Y-67460904D02*
X145774342Y-67413285D01*
X145774342Y-67413285D02*
X145583866Y-67413285D01*
X145583866Y-67413285D02*
X145488628Y-67460904D01*
X145488628Y-67460904D02*
X145441009Y-67508523D01*
X145441009Y-67508523D02*
X145393390Y-67603761D01*
X162334819Y-76255476D02*
X161858628Y-76588809D01*
X162334819Y-76826904D02*
X161334819Y-76826904D01*
X161334819Y-76826904D02*
X161334819Y-76445952D01*
X161334819Y-76445952D02*
X161382438Y-76350714D01*
X161382438Y-76350714D02*
X161430057Y-76303095D01*
X161430057Y-76303095D02*
X161525295Y-76255476D01*
X161525295Y-76255476D02*
X161668152Y-76255476D01*
X161668152Y-76255476D02*
X161763390Y-76303095D01*
X161763390Y-76303095D02*
X161811009Y-76350714D01*
X161811009Y-76350714D02*
X161858628Y-76445952D01*
X161858628Y-76445952D02*
X161858628Y-76826904D01*
X162334819Y-75826904D02*
X161334819Y-75826904D01*
X161334819Y-75826904D02*
X162334819Y-75255476D01*
X162334819Y-75255476D02*
X161334819Y-75255476D01*
X161668152Y-74350714D02*
X162334819Y-74350714D01*
X161287200Y-74588809D02*
X162001485Y-74826904D01*
X162001485Y-74826904D02*
X162001485Y-74207857D01*
X76019580Y-117462857D02*
X76067200Y-117510476D01*
X76067200Y-117510476D02*
X76114819Y-117653333D01*
X76114819Y-117653333D02*
X76114819Y-117748571D01*
X76114819Y-117748571D02*
X76067200Y-117891428D01*
X76067200Y-117891428D02*
X75971961Y-117986666D01*
X75971961Y-117986666D02*
X75876723Y-118034285D01*
X75876723Y-118034285D02*
X75686247Y-118081904D01*
X75686247Y-118081904D02*
X75543390Y-118081904D01*
X75543390Y-118081904D02*
X75352914Y-118034285D01*
X75352914Y-118034285D02*
X75257676Y-117986666D01*
X75257676Y-117986666D02*
X75162438Y-117891428D01*
X75162438Y-117891428D02*
X75114819Y-117748571D01*
X75114819Y-117748571D02*
X75114819Y-117653333D01*
X75114819Y-117653333D02*
X75162438Y-117510476D01*
X75162438Y-117510476D02*
X75210057Y-117462857D01*
X76114819Y-116510476D02*
X76114819Y-117081904D01*
X76114819Y-116796190D02*
X75114819Y-116796190D01*
X75114819Y-116796190D02*
X75257676Y-116891428D01*
X75257676Y-116891428D02*
X75352914Y-116986666D01*
X75352914Y-116986666D02*
X75400533Y-117081904D01*
X75114819Y-115891428D02*
X75114819Y-115796190D01*
X75114819Y-115796190D02*
X75162438Y-115700952D01*
X75162438Y-115700952D02*
X75210057Y-115653333D01*
X75210057Y-115653333D02*
X75305295Y-115605714D01*
X75305295Y-115605714D02*
X75495771Y-115558095D01*
X75495771Y-115558095D02*
X75733866Y-115558095D01*
X75733866Y-115558095D02*
X75924342Y-115605714D01*
X75924342Y-115605714D02*
X76019580Y-115653333D01*
X76019580Y-115653333D02*
X76067200Y-115700952D01*
X76067200Y-115700952D02*
X76114819Y-115796190D01*
X76114819Y-115796190D02*
X76114819Y-115891428D01*
X76114819Y-115891428D02*
X76067200Y-115986666D01*
X76067200Y-115986666D02*
X76019580Y-116034285D01*
X76019580Y-116034285D02*
X75924342Y-116081904D01*
X75924342Y-116081904D02*
X75733866Y-116129523D01*
X75733866Y-116129523D02*
X75495771Y-116129523D01*
X75495771Y-116129523D02*
X75305295Y-116081904D01*
X75305295Y-116081904D02*
X75210057Y-116034285D01*
X75210057Y-116034285D02*
X75162438Y-115986666D01*
X75162438Y-115986666D02*
X75114819Y-115891428D01*
X89338819Y-56086333D02*
X90053104Y-56086333D01*
X90053104Y-56086333D02*
X90195961Y-56133952D01*
X90195961Y-56133952D02*
X90291200Y-56229190D01*
X90291200Y-56229190D02*
X90338819Y-56372047D01*
X90338819Y-56372047D02*
X90338819Y-56467285D01*
X90338819Y-55086333D02*
X90338819Y-55657761D01*
X90338819Y-55372047D02*
X89338819Y-55372047D01*
X89338819Y-55372047D02*
X89481676Y-55467285D01*
X89481676Y-55467285D02*
X89576914Y-55562523D01*
X89576914Y-55562523D02*
X89624533Y-55657761D01*
X161998580Y-143803666D02*
X162046200Y-143851285D01*
X162046200Y-143851285D02*
X162093819Y-143994142D01*
X162093819Y-143994142D02*
X162093819Y-144089380D01*
X162093819Y-144089380D02*
X162046200Y-144232237D01*
X162046200Y-144232237D02*
X161950961Y-144327475D01*
X161950961Y-144327475D02*
X161855723Y-144375094D01*
X161855723Y-144375094D02*
X161665247Y-144422713D01*
X161665247Y-144422713D02*
X161522390Y-144422713D01*
X161522390Y-144422713D02*
X161331914Y-144375094D01*
X161331914Y-144375094D02*
X161236676Y-144327475D01*
X161236676Y-144327475D02*
X161141438Y-144232237D01*
X161141438Y-144232237D02*
X161093819Y-144089380D01*
X161093819Y-144089380D02*
X161093819Y-143994142D01*
X161093819Y-143994142D02*
X161141438Y-143851285D01*
X161141438Y-143851285D02*
X161189057Y-143803666D01*
X161093819Y-143470332D02*
X161093819Y-142803666D01*
X161093819Y-142803666D02*
X162093819Y-143232237D01*
X76019580Y-64301666D02*
X76067200Y-64349285D01*
X76067200Y-64349285D02*
X76114819Y-64492142D01*
X76114819Y-64492142D02*
X76114819Y-64587380D01*
X76114819Y-64587380D02*
X76067200Y-64730237D01*
X76067200Y-64730237D02*
X75971961Y-64825475D01*
X75971961Y-64825475D02*
X75876723Y-64873094D01*
X75876723Y-64873094D02*
X75686247Y-64920713D01*
X75686247Y-64920713D02*
X75543390Y-64920713D01*
X75543390Y-64920713D02*
X75352914Y-64873094D01*
X75352914Y-64873094D02*
X75257676Y-64825475D01*
X75257676Y-64825475D02*
X75162438Y-64730237D01*
X75162438Y-64730237D02*
X75114819Y-64587380D01*
X75114819Y-64587380D02*
X75114819Y-64492142D01*
X75114819Y-64492142D02*
X75162438Y-64349285D01*
X75162438Y-64349285D02*
X75210057Y-64301666D01*
X76114819Y-63825475D02*
X76114819Y-63634999D01*
X76114819Y-63634999D02*
X76067200Y-63539761D01*
X76067200Y-63539761D02*
X76019580Y-63492142D01*
X76019580Y-63492142D02*
X75876723Y-63396904D01*
X75876723Y-63396904D02*
X75686247Y-63349285D01*
X75686247Y-63349285D02*
X75305295Y-63349285D01*
X75305295Y-63349285D02*
X75210057Y-63396904D01*
X75210057Y-63396904D02*
X75162438Y-63444523D01*
X75162438Y-63444523D02*
X75114819Y-63539761D01*
X75114819Y-63539761D02*
X75114819Y-63730237D01*
X75114819Y-63730237D02*
X75162438Y-63825475D01*
X75162438Y-63825475D02*
X75210057Y-63873094D01*
X75210057Y-63873094D02*
X75305295Y-63920713D01*
X75305295Y-63920713D02*
X75543390Y-63920713D01*
X75543390Y-63920713D02*
X75638628Y-63873094D01*
X75638628Y-63873094D02*
X75686247Y-63825475D01*
X75686247Y-63825475D02*
X75733866Y-63730237D01*
X75733866Y-63730237D02*
X75733866Y-63539761D01*
X75733866Y-63539761D02*
X75686247Y-63444523D01*
X75686247Y-63444523D02*
X75638628Y-63396904D01*
X75638628Y-63396904D02*
X75543390Y-63349285D01*
X157664819Y-55578333D02*
X158379104Y-55578333D01*
X158379104Y-55578333D02*
X158521961Y-55625952D01*
X158521961Y-55625952D02*
X158617200Y-55721190D01*
X158617200Y-55721190D02*
X158664819Y-55864047D01*
X158664819Y-55864047D02*
X158664819Y-55959285D01*
X157998152Y-54673571D02*
X158664819Y-54673571D01*
X157617200Y-54911666D02*
X158331485Y-55149761D01*
X158331485Y-55149761D02*
X158331485Y-54530714D01*
X76114819Y-101020476D02*
X75638628Y-101353809D01*
X76114819Y-101591904D02*
X75114819Y-101591904D01*
X75114819Y-101591904D02*
X75114819Y-101210952D01*
X75114819Y-101210952D02*
X75162438Y-101115714D01*
X75162438Y-101115714D02*
X75210057Y-101068095D01*
X75210057Y-101068095D02*
X75305295Y-101020476D01*
X75305295Y-101020476D02*
X75448152Y-101020476D01*
X75448152Y-101020476D02*
X75543390Y-101068095D01*
X75543390Y-101068095D02*
X75591009Y-101115714D01*
X75591009Y-101115714D02*
X75638628Y-101210952D01*
X75638628Y-101210952D02*
X75638628Y-101591904D01*
X76114819Y-100591904D02*
X75114819Y-100591904D01*
X75114819Y-100591904D02*
X76114819Y-100020476D01*
X76114819Y-100020476D02*
X75114819Y-100020476D01*
X75210057Y-99591904D02*
X75162438Y-99544285D01*
X75162438Y-99544285D02*
X75114819Y-99449047D01*
X75114819Y-99449047D02*
X75114819Y-99210952D01*
X75114819Y-99210952D02*
X75162438Y-99115714D01*
X75162438Y-99115714D02*
X75210057Y-99068095D01*
X75210057Y-99068095D02*
X75305295Y-99020476D01*
X75305295Y-99020476D02*
X75400533Y-99020476D01*
X75400533Y-99020476D02*
X75543390Y-99068095D01*
X75543390Y-99068095D02*
X76114819Y-99639523D01*
X76114819Y-99639523D02*
X76114819Y-99020476D01*
X76114819Y-81335476D02*
X75638628Y-81668809D01*
X76114819Y-81906904D02*
X75114819Y-81906904D01*
X75114819Y-81906904D02*
X75114819Y-81525952D01*
X75114819Y-81525952D02*
X75162438Y-81430714D01*
X75162438Y-81430714D02*
X75210057Y-81383095D01*
X75210057Y-81383095D02*
X75305295Y-81335476D01*
X75305295Y-81335476D02*
X75448152Y-81335476D01*
X75448152Y-81335476D02*
X75543390Y-81383095D01*
X75543390Y-81383095D02*
X75591009Y-81430714D01*
X75591009Y-81430714D02*
X75638628Y-81525952D01*
X75638628Y-81525952D02*
X75638628Y-81906904D01*
X76114819Y-80906904D02*
X75114819Y-80906904D01*
X75114819Y-80906904D02*
X76114819Y-80335476D01*
X76114819Y-80335476D02*
X75114819Y-80335476D01*
X76114819Y-79335476D02*
X76114819Y-79906904D01*
X76114819Y-79621190D02*
X75114819Y-79621190D01*
X75114819Y-79621190D02*
X75257676Y-79716428D01*
X75257676Y-79716428D02*
X75352914Y-79811666D01*
X75352914Y-79811666D02*
X75400533Y-79906904D01*
X129978819Y-56086333D02*
X130693104Y-56086333D01*
X130693104Y-56086333D02*
X130835961Y-56133952D01*
X130835961Y-56133952D02*
X130931200Y-56229190D01*
X130931200Y-56229190D02*
X130978819Y-56372047D01*
X130978819Y-56372047D02*
X130978819Y-56467285D01*
X129978819Y-55705380D02*
X129978819Y-55086333D01*
X129978819Y-55086333D02*
X130359771Y-55419666D01*
X130359771Y-55419666D02*
X130359771Y-55276809D01*
X130359771Y-55276809D02*
X130407390Y-55181571D01*
X130407390Y-55181571D02*
X130455009Y-55133952D01*
X130455009Y-55133952D02*
X130550247Y-55086333D01*
X130550247Y-55086333D02*
X130788342Y-55086333D01*
X130788342Y-55086333D02*
X130883580Y-55133952D01*
X130883580Y-55133952D02*
X130931200Y-55181571D01*
X130931200Y-55181571D02*
X130978819Y-55276809D01*
X130978819Y-55276809D02*
X130978819Y-55562523D01*
X130978819Y-55562523D02*
X130931200Y-55657761D01*
X130931200Y-55657761D02*
X130883580Y-55705380D01*
X96593580Y-68365666D02*
X96641200Y-68413285D01*
X96641200Y-68413285D02*
X96688819Y-68556142D01*
X96688819Y-68556142D02*
X96688819Y-68651380D01*
X96688819Y-68651380D02*
X96641200Y-68794237D01*
X96641200Y-68794237D02*
X96545961Y-68889475D01*
X96545961Y-68889475D02*
X96450723Y-68937094D01*
X96450723Y-68937094D02*
X96260247Y-68984713D01*
X96260247Y-68984713D02*
X96117390Y-68984713D01*
X96117390Y-68984713D02*
X95926914Y-68937094D01*
X95926914Y-68937094D02*
X95831676Y-68889475D01*
X95831676Y-68889475D02*
X95736438Y-68794237D01*
X95736438Y-68794237D02*
X95688819Y-68651380D01*
X95688819Y-68651380D02*
X95688819Y-68556142D01*
X95688819Y-68556142D02*
X95736438Y-68413285D01*
X95736438Y-68413285D02*
X95784057Y-68365666D01*
X95688819Y-68032332D02*
X95688819Y-67413285D01*
X95688819Y-67413285D02*
X96069771Y-67746618D01*
X96069771Y-67746618D02*
X96069771Y-67603761D01*
X96069771Y-67603761D02*
X96117390Y-67508523D01*
X96117390Y-67508523D02*
X96165009Y-67460904D01*
X96165009Y-67460904D02*
X96260247Y-67413285D01*
X96260247Y-67413285D02*
X96498342Y-67413285D01*
X96498342Y-67413285D02*
X96593580Y-67460904D01*
X96593580Y-67460904D02*
X96641200Y-67508523D01*
X96641200Y-67508523D02*
X96688819Y-67603761D01*
X96688819Y-67603761D02*
X96688819Y-67889475D01*
X96688819Y-67889475D02*
X96641200Y-67984713D01*
X96641200Y-67984713D02*
X96593580Y-68032332D01*
X162474819Y-128579476D02*
X161998628Y-128912809D01*
X162474819Y-129150904D02*
X161474819Y-129150904D01*
X161474819Y-129150904D02*
X161474819Y-128769952D01*
X161474819Y-128769952D02*
X161522438Y-128674714D01*
X161522438Y-128674714D02*
X161570057Y-128627095D01*
X161570057Y-128627095D02*
X161665295Y-128579476D01*
X161665295Y-128579476D02*
X161808152Y-128579476D01*
X161808152Y-128579476D02*
X161903390Y-128627095D01*
X161903390Y-128627095D02*
X161951009Y-128674714D01*
X161951009Y-128674714D02*
X161998628Y-128769952D01*
X161998628Y-128769952D02*
X161998628Y-129150904D01*
X162474819Y-128150904D02*
X161474819Y-128150904D01*
X161474819Y-128150904D02*
X162474819Y-127579476D01*
X162474819Y-127579476D02*
X161474819Y-127579476D01*
X161474819Y-126674714D02*
X161474819Y-126865190D01*
X161474819Y-126865190D02*
X161522438Y-126960428D01*
X161522438Y-126960428D02*
X161570057Y-127008047D01*
X161570057Y-127008047D02*
X161712914Y-127103285D01*
X161712914Y-127103285D02*
X161903390Y-127150904D01*
X161903390Y-127150904D02*
X162284342Y-127150904D01*
X162284342Y-127150904D02*
X162379580Y-127103285D01*
X162379580Y-127103285D02*
X162427200Y-127055666D01*
X162427200Y-127055666D02*
X162474819Y-126960428D01*
X162474819Y-126960428D02*
X162474819Y-126769952D01*
X162474819Y-126769952D02*
X162427200Y-126674714D01*
X162427200Y-126674714D02*
X162379580Y-126627095D01*
X162379580Y-126627095D02*
X162284342Y-126579476D01*
X162284342Y-126579476D02*
X162046247Y-126579476D01*
X162046247Y-126579476D02*
X161951009Y-126627095D01*
X161951009Y-126627095D02*
X161903390Y-126674714D01*
X161903390Y-126674714D02*
X161855771Y-126769952D01*
X161855771Y-126769952D02*
X161855771Y-126960428D01*
X161855771Y-126960428D02*
X161903390Y-127055666D01*
X161903390Y-127055666D02*
X161951009Y-127103285D01*
X161951009Y-127103285D02*
X162046247Y-127150904D01*
X76019580Y-146565857D02*
X76067200Y-146613476D01*
X76067200Y-146613476D02*
X76114819Y-146756333D01*
X76114819Y-146756333D02*
X76114819Y-146851571D01*
X76114819Y-146851571D02*
X76067200Y-146994428D01*
X76067200Y-146994428D02*
X75971961Y-147089666D01*
X75971961Y-147089666D02*
X75876723Y-147137285D01*
X75876723Y-147137285D02*
X75686247Y-147184904D01*
X75686247Y-147184904D02*
X75543390Y-147184904D01*
X75543390Y-147184904D02*
X75352914Y-147137285D01*
X75352914Y-147137285D02*
X75257676Y-147089666D01*
X75257676Y-147089666D02*
X75162438Y-146994428D01*
X75162438Y-146994428D02*
X75114819Y-146851571D01*
X75114819Y-146851571D02*
X75114819Y-146756333D01*
X75114819Y-146756333D02*
X75162438Y-146613476D01*
X75162438Y-146613476D02*
X75210057Y-146565857D01*
X76114819Y-145613476D02*
X76114819Y-146184904D01*
X76114819Y-145899190D02*
X75114819Y-145899190D01*
X75114819Y-145899190D02*
X75257676Y-145994428D01*
X75257676Y-145994428D02*
X75352914Y-146089666D01*
X75352914Y-146089666D02*
X75400533Y-146184904D01*
X76114819Y-144661095D02*
X76114819Y-145232523D01*
X76114819Y-144946809D02*
X75114819Y-144946809D01*
X75114819Y-144946809D02*
X75257676Y-145042047D01*
X75257676Y-145042047D02*
X75352914Y-145137285D01*
X75352914Y-145137285D02*
X75400533Y-145232523D01*
X111024819Y-70883666D02*
X110548628Y-71216999D01*
X111024819Y-71455094D02*
X110024819Y-71455094D01*
X110024819Y-71455094D02*
X110024819Y-71074142D01*
X110024819Y-71074142D02*
X110072438Y-70978904D01*
X110072438Y-70978904D02*
X110120057Y-70931285D01*
X110120057Y-70931285D02*
X110215295Y-70883666D01*
X110215295Y-70883666D02*
X110358152Y-70883666D01*
X110358152Y-70883666D02*
X110453390Y-70931285D01*
X110453390Y-70931285D02*
X110501009Y-70978904D01*
X110501009Y-70978904D02*
X110548628Y-71074142D01*
X110548628Y-71074142D02*
X110548628Y-71455094D01*
X111024819Y-69931285D02*
X111024819Y-70502713D01*
X111024819Y-70216999D02*
X110024819Y-70216999D01*
X110024819Y-70216999D02*
X110167676Y-70312237D01*
X110167676Y-70312237D02*
X110262914Y-70407475D01*
X110262914Y-70407475D02*
X110310533Y-70502713D01*
X162474819Y-105973476D02*
X161998628Y-106306809D01*
X162474819Y-106544904D02*
X161474819Y-106544904D01*
X161474819Y-106544904D02*
X161474819Y-106163952D01*
X161474819Y-106163952D02*
X161522438Y-106068714D01*
X161522438Y-106068714D02*
X161570057Y-106021095D01*
X161570057Y-106021095D02*
X161665295Y-105973476D01*
X161665295Y-105973476D02*
X161808152Y-105973476D01*
X161808152Y-105973476D02*
X161903390Y-106021095D01*
X161903390Y-106021095D02*
X161951009Y-106068714D01*
X161951009Y-106068714D02*
X161998628Y-106163952D01*
X161998628Y-106163952D02*
X161998628Y-106544904D01*
X162474819Y-105544904D02*
X161474819Y-105544904D01*
X161474819Y-105544904D02*
X162474819Y-104973476D01*
X162474819Y-104973476D02*
X161474819Y-104973476D01*
X161474819Y-104021095D02*
X161474819Y-104497285D01*
X161474819Y-104497285D02*
X161951009Y-104544904D01*
X161951009Y-104544904D02*
X161903390Y-104497285D01*
X161903390Y-104497285D02*
X161855771Y-104402047D01*
X161855771Y-104402047D02*
X161855771Y-104163952D01*
X161855771Y-104163952D02*
X161903390Y-104068714D01*
X161903390Y-104068714D02*
X161951009Y-104021095D01*
X161951009Y-104021095D02*
X162046247Y-103973476D01*
X162046247Y-103973476D02*
X162284342Y-103973476D01*
X162284342Y-103973476D02*
X162379580Y-104021095D01*
X162379580Y-104021095D02*
X162427200Y-104068714D01*
X162427200Y-104068714D02*
X162474819Y-104163952D01*
X162474819Y-104163952D02*
X162474819Y-104402047D01*
X162474819Y-104402047D02*
X162427200Y-104497285D01*
X162427200Y-104497285D02*
X162379580Y-104544904D01*
X117929580Y-68365666D02*
X117977200Y-68413285D01*
X117977200Y-68413285D02*
X118024819Y-68556142D01*
X118024819Y-68556142D02*
X118024819Y-68651380D01*
X118024819Y-68651380D02*
X117977200Y-68794237D01*
X117977200Y-68794237D02*
X117881961Y-68889475D01*
X117881961Y-68889475D02*
X117786723Y-68937094D01*
X117786723Y-68937094D02*
X117596247Y-68984713D01*
X117596247Y-68984713D02*
X117453390Y-68984713D01*
X117453390Y-68984713D02*
X117262914Y-68937094D01*
X117262914Y-68937094D02*
X117167676Y-68889475D01*
X117167676Y-68889475D02*
X117072438Y-68794237D01*
X117072438Y-68794237D02*
X117024819Y-68651380D01*
X117024819Y-68651380D02*
X117024819Y-68556142D01*
X117024819Y-68556142D02*
X117072438Y-68413285D01*
X117072438Y-68413285D02*
X117120057Y-68365666D01*
X117358152Y-67508523D02*
X118024819Y-67508523D01*
X116977200Y-67746618D02*
X117691485Y-67984713D01*
X117691485Y-67984713D02*
X117691485Y-67365666D01*
X109658819Y-56086333D02*
X110373104Y-56086333D01*
X110373104Y-56086333D02*
X110515961Y-56133952D01*
X110515961Y-56133952D02*
X110611200Y-56229190D01*
X110611200Y-56229190D02*
X110658819Y-56372047D01*
X110658819Y-56372047D02*
X110658819Y-56467285D01*
X109754057Y-55657761D02*
X109706438Y-55610142D01*
X109706438Y-55610142D02*
X109658819Y-55514904D01*
X109658819Y-55514904D02*
X109658819Y-55276809D01*
X109658819Y-55276809D02*
X109706438Y-55181571D01*
X109706438Y-55181571D02*
X109754057Y-55133952D01*
X109754057Y-55133952D02*
X109849295Y-55086333D01*
X109849295Y-55086333D02*
X109944533Y-55086333D01*
X109944533Y-55086333D02*
X110087390Y-55133952D01*
X110087390Y-55133952D02*
X110658819Y-55705380D01*
X110658819Y-55705380D02*
X110658819Y-55086333D01*
X133189580Y-69321666D02*
X133237200Y-69369285D01*
X133237200Y-69369285D02*
X133284819Y-69512142D01*
X133284819Y-69512142D02*
X133284819Y-69607380D01*
X133284819Y-69607380D02*
X133237200Y-69750237D01*
X133237200Y-69750237D02*
X133141961Y-69845475D01*
X133141961Y-69845475D02*
X133046723Y-69893094D01*
X133046723Y-69893094D02*
X132856247Y-69940713D01*
X132856247Y-69940713D02*
X132713390Y-69940713D01*
X132713390Y-69940713D02*
X132522914Y-69893094D01*
X132522914Y-69893094D02*
X132427676Y-69845475D01*
X132427676Y-69845475D02*
X132332438Y-69750237D01*
X132332438Y-69750237D02*
X132284819Y-69607380D01*
X132284819Y-69607380D02*
X132284819Y-69512142D01*
X132284819Y-69512142D02*
X132332438Y-69369285D01*
X132332438Y-69369285D02*
X132380057Y-69321666D01*
X132380057Y-68940713D02*
X132332438Y-68893094D01*
X132332438Y-68893094D02*
X132284819Y-68797856D01*
X132284819Y-68797856D02*
X132284819Y-68559761D01*
X132284819Y-68559761D02*
X132332438Y-68464523D01*
X132332438Y-68464523D02*
X132380057Y-68416904D01*
X132380057Y-68416904D02*
X132475295Y-68369285D01*
X132475295Y-68369285D02*
X132570533Y-68369285D01*
X132570533Y-68369285D02*
X132713390Y-68416904D01*
X132713390Y-68416904D02*
X133284819Y-68988332D01*
X133284819Y-68988332D02*
X133284819Y-68369285D01*
X162379580Y-89975666D02*
X162427200Y-90023285D01*
X162427200Y-90023285D02*
X162474819Y-90166142D01*
X162474819Y-90166142D02*
X162474819Y-90261380D01*
X162474819Y-90261380D02*
X162427200Y-90404237D01*
X162427200Y-90404237D02*
X162331961Y-90499475D01*
X162331961Y-90499475D02*
X162236723Y-90547094D01*
X162236723Y-90547094D02*
X162046247Y-90594713D01*
X162046247Y-90594713D02*
X161903390Y-90594713D01*
X161903390Y-90594713D02*
X161712914Y-90547094D01*
X161712914Y-90547094D02*
X161617676Y-90499475D01*
X161617676Y-90499475D02*
X161522438Y-90404237D01*
X161522438Y-90404237D02*
X161474819Y-90261380D01*
X161474819Y-90261380D02*
X161474819Y-90166142D01*
X161474819Y-90166142D02*
X161522438Y-90023285D01*
X161522438Y-90023285D02*
X161570057Y-89975666D01*
X161474819Y-89118523D02*
X161474819Y-89308999D01*
X161474819Y-89308999D02*
X161522438Y-89404237D01*
X161522438Y-89404237D02*
X161570057Y-89451856D01*
X161570057Y-89451856D02*
X161712914Y-89547094D01*
X161712914Y-89547094D02*
X161903390Y-89594713D01*
X161903390Y-89594713D02*
X162284342Y-89594713D01*
X162284342Y-89594713D02*
X162379580Y-89547094D01*
X162379580Y-89547094D02*
X162427200Y-89499475D01*
X162427200Y-89499475D02*
X162474819Y-89404237D01*
X162474819Y-89404237D02*
X162474819Y-89213761D01*
X162474819Y-89213761D02*
X162427200Y-89118523D01*
X162427200Y-89118523D02*
X162379580Y-89070904D01*
X162379580Y-89070904D02*
X162284342Y-89023285D01*
X162284342Y-89023285D02*
X162046247Y-89023285D01*
X162046247Y-89023285D02*
X161951009Y-89070904D01*
X161951009Y-89070904D02*
X161903390Y-89118523D01*
X161903390Y-89118523D02*
X161855771Y-89213761D01*
X161855771Y-89213761D02*
X161855771Y-89404237D01*
X161855771Y-89404237D02*
X161903390Y-89499475D01*
X161903390Y-89499475D02*
X161951009Y-89547094D01*
X161951009Y-89547094D02*
X162046247Y-89594713D01*
X92021580Y-71921666D02*
X92069200Y-71969285D01*
X92069200Y-71969285D02*
X92116819Y-72112142D01*
X92116819Y-72112142D02*
X92116819Y-72207380D01*
X92116819Y-72207380D02*
X92069200Y-72350237D01*
X92069200Y-72350237D02*
X91973961Y-72445475D01*
X91973961Y-72445475D02*
X91878723Y-72493094D01*
X91878723Y-72493094D02*
X91688247Y-72540713D01*
X91688247Y-72540713D02*
X91545390Y-72540713D01*
X91545390Y-72540713D02*
X91354914Y-72493094D01*
X91354914Y-72493094D02*
X91259676Y-72445475D01*
X91259676Y-72445475D02*
X91164438Y-72350237D01*
X91164438Y-72350237D02*
X91116819Y-72207380D01*
X91116819Y-72207380D02*
X91116819Y-72112142D01*
X91116819Y-72112142D02*
X91164438Y-71969285D01*
X91164438Y-71969285D02*
X91212057Y-71921666D01*
X92116819Y-70969285D02*
X92116819Y-71540713D01*
X92116819Y-71254999D02*
X91116819Y-71254999D01*
X91116819Y-71254999D02*
X91259676Y-71350237D01*
X91259676Y-71350237D02*
X91354914Y-71445475D01*
X91354914Y-71445475D02*
X91402533Y-71540713D01*
X162125580Y-59241666D02*
X162173200Y-59289285D01*
X162173200Y-59289285D02*
X162220819Y-59432142D01*
X162220819Y-59432142D02*
X162220819Y-59527380D01*
X162220819Y-59527380D02*
X162173200Y-59670237D01*
X162173200Y-59670237D02*
X162077961Y-59765475D01*
X162077961Y-59765475D02*
X161982723Y-59813094D01*
X161982723Y-59813094D02*
X161792247Y-59860713D01*
X161792247Y-59860713D02*
X161649390Y-59860713D01*
X161649390Y-59860713D02*
X161458914Y-59813094D01*
X161458914Y-59813094D02*
X161363676Y-59765475D01*
X161363676Y-59765475D02*
X161268438Y-59670237D01*
X161268438Y-59670237D02*
X161220819Y-59527380D01*
X161220819Y-59527380D02*
X161220819Y-59432142D01*
X161220819Y-59432142D02*
X161268438Y-59289285D01*
X161268438Y-59289285D02*
X161316057Y-59241666D01*
X161220819Y-58336904D02*
X161220819Y-58813094D01*
X161220819Y-58813094D02*
X161697009Y-58860713D01*
X161697009Y-58860713D02*
X161649390Y-58813094D01*
X161649390Y-58813094D02*
X161601771Y-58717856D01*
X161601771Y-58717856D02*
X161601771Y-58479761D01*
X161601771Y-58479761D02*
X161649390Y-58384523D01*
X161649390Y-58384523D02*
X161697009Y-58336904D01*
X161697009Y-58336904D02*
X161792247Y-58289285D01*
X161792247Y-58289285D02*
X162030342Y-58289285D01*
X162030342Y-58289285D02*
X162125580Y-58336904D01*
X162125580Y-58336904D02*
X162173200Y-58384523D01*
X162173200Y-58384523D02*
X162220819Y-58479761D01*
X162220819Y-58479761D02*
X162220819Y-58717856D01*
X162220819Y-58717856D02*
X162173200Y-58813094D01*
X162173200Y-58813094D02*
X162125580Y-58860713D01*
D12*
%TO.C,P8*%
X77514200Y-41224200D02*
X77514200Y-48895000D01*
X77514200Y-48895000D02*
X88385400Y-48895000D01*
X77514200Y-50622200D02*
X101034600Y-50622200D01*
X77514200Y-51485800D02*
X77514200Y-50622200D01*
X77514200Y-51485800D02*
X101034600Y-51485800D01*
X78631800Y-41224200D02*
X78631800Y-41824200D01*
X78631800Y-41824200D02*
X80231800Y-41824200D01*
X80231800Y-41824200D02*
X80231800Y-41224200D01*
X81476600Y-51485800D02*
X81476600Y-48911800D01*
X82594200Y-41224200D02*
X82594200Y-41824200D01*
X82594200Y-41824200D02*
X84194200Y-41824200D01*
X84194200Y-41824200D02*
X84194200Y-41224200D01*
X85439000Y-51485800D02*
X85439000Y-48911000D01*
X86505800Y-41215800D02*
X86505800Y-41815800D01*
X86505800Y-41815800D02*
X88105800Y-41815800D01*
X88105800Y-41815800D02*
X88105800Y-41215800D01*
X89249000Y-51435000D02*
X89249000Y-49758600D01*
X90112600Y-48895000D02*
X101034600Y-48895000D01*
X90519000Y-41215800D02*
X90519000Y-41815800D01*
X90519000Y-41815800D02*
X92119000Y-41815800D01*
X92119000Y-41815800D02*
X92119000Y-41215800D01*
X93211400Y-51485800D02*
X93211400Y-48911000D01*
X94430600Y-41215800D02*
X94430600Y-41815800D01*
X94430600Y-41815800D02*
X96030600Y-41815800D01*
X96030600Y-41815800D02*
X96030600Y-41215800D01*
X97377000Y-51485800D02*
X97377000Y-48911000D01*
X98443800Y-41215800D02*
X98443800Y-41815800D01*
X98443800Y-41815800D02*
X100043800Y-41815800D01*
X100043800Y-41815800D02*
X100043800Y-41215800D01*
X101034600Y-41224200D02*
X77514200Y-41224200D01*
X101034600Y-51485800D02*
X101034600Y-41224200D01*
X77514200Y-50622200D02*
G75*
G03*
X77514200Y-48895000I0J863600D01*
G01*
%TO.C,P9*%
X101136200Y-41224200D02*
X101136200Y-48895000D01*
X101136200Y-48895000D02*
X112007400Y-48895000D01*
X101136200Y-50622200D02*
X124656600Y-50622200D01*
X101136200Y-51485800D02*
X101136200Y-50622200D01*
X101136200Y-51485800D02*
X124656600Y-51485800D01*
X102253800Y-41224200D02*
X102253800Y-41824200D01*
X102253800Y-41824200D02*
X103853800Y-41824200D01*
X103853800Y-41824200D02*
X103853800Y-41224200D01*
X105098600Y-51485800D02*
X105098600Y-48911800D01*
X106216200Y-41224200D02*
X106216200Y-41824200D01*
X106216200Y-41824200D02*
X107816200Y-41824200D01*
X107816200Y-41824200D02*
X107816200Y-41224200D01*
X109061000Y-51485800D02*
X109061000Y-48911000D01*
X110127800Y-41215800D02*
X110127800Y-41815800D01*
X110127800Y-41815800D02*
X111727800Y-41815800D01*
X111727800Y-41815800D02*
X111727800Y-41215800D01*
X112871000Y-51435000D02*
X112871000Y-49758600D01*
X113734600Y-48895000D02*
X124656600Y-48895000D01*
X114141000Y-41215800D02*
X114141000Y-41815800D01*
X114141000Y-41815800D02*
X115741000Y-41815800D01*
X115741000Y-41815800D02*
X115741000Y-41215800D01*
X116833400Y-51485800D02*
X116833400Y-48911000D01*
X118052600Y-41215800D02*
X118052600Y-41815800D01*
X118052600Y-41815800D02*
X119652600Y-41815800D01*
X119652600Y-41815800D02*
X119652600Y-41215800D01*
X120999000Y-51485800D02*
X120999000Y-48911000D01*
X122065800Y-41215800D02*
X122065800Y-41815800D01*
X122065800Y-41815800D02*
X123665800Y-41815800D01*
X123665800Y-41815800D02*
X123665800Y-41215800D01*
X124656600Y-41224200D02*
X101136200Y-41224200D01*
X124656600Y-51485800D02*
X124656600Y-41224200D01*
X101136200Y-50622200D02*
G75*
G03*
X101136200Y-48895000I0J863600D01*
G01*
%TO.C,RN3*%
X76800000Y-143045000D02*
X79600000Y-143045000D01*
X79600000Y-143045000D02*
X79600000Y-119845000D01*
X76800000Y-140335000D02*
X79600000Y-140335000D01*
X76800000Y-119845000D02*
X76800000Y-143045000D01*
X79600000Y-119845000D02*
X76800000Y-119845000D01*
%TO.C,J6*%
X142030781Y-47625000D02*
G75*
G03*
X142030781Y-47625000I-1600781J0D01*
G01*
%TO.C,C8*%
X146985000Y-61310225D02*
X146985000Y-61810225D01*
X147235000Y-61560225D02*
X146735000Y-61560225D01*
X148090000Y-64115000D02*
X142930000Y-64115000D01*
X148090000Y-64155000D02*
X142930000Y-64155000D01*
X148089000Y-64195000D02*
X142931000Y-64195000D01*
X148088000Y-64235000D02*
X142932000Y-64235000D01*
X148086000Y-64275000D02*
X142934000Y-64275000D01*
X148083000Y-64315000D02*
X142937000Y-64315000D01*
X148079000Y-64355000D02*
X146550000Y-64355000D01*
X144470000Y-64355000D02*
X142941000Y-64355000D01*
X148075000Y-64395000D02*
X146550000Y-64395000D01*
X144470000Y-64395000D02*
X142945000Y-64395000D01*
X148071000Y-64435000D02*
X146550000Y-64435000D01*
X144470000Y-64435000D02*
X142949000Y-64435000D01*
X148066000Y-64475000D02*
X146550000Y-64475000D01*
X144470000Y-64475000D02*
X142954000Y-64475000D01*
X148060000Y-64515000D02*
X146550000Y-64515000D01*
X144470000Y-64515000D02*
X142960000Y-64515000D01*
X148053000Y-64555000D02*
X146550000Y-64555000D01*
X144470000Y-64555000D02*
X142967000Y-64555000D01*
X148046000Y-64595000D02*
X146550000Y-64595000D01*
X144470000Y-64595000D02*
X142974000Y-64595000D01*
X148038000Y-64635000D02*
X146550000Y-64635000D01*
X144470000Y-64635000D02*
X142982000Y-64635000D01*
X148030000Y-64675000D02*
X146550000Y-64675000D01*
X144470000Y-64675000D02*
X142990000Y-64675000D01*
X148021000Y-64715000D02*
X146550000Y-64715000D01*
X144470000Y-64715000D02*
X142999000Y-64715000D01*
X148011000Y-64755000D02*
X146550000Y-64755000D01*
X144470000Y-64755000D02*
X143009000Y-64755000D01*
X148001000Y-64795000D02*
X146550000Y-64795000D01*
X144470000Y-64795000D02*
X143019000Y-64795000D01*
X147990000Y-64836000D02*
X146550000Y-64836000D01*
X144470000Y-64836000D02*
X143030000Y-64836000D01*
X147978000Y-64876000D02*
X146550000Y-64876000D01*
X144470000Y-64876000D02*
X143042000Y-64876000D01*
X147965000Y-64916000D02*
X146550000Y-64916000D01*
X144470000Y-64916000D02*
X143055000Y-64916000D01*
X147952000Y-64956000D02*
X146550000Y-64956000D01*
X144470000Y-64956000D02*
X143068000Y-64956000D01*
X147938000Y-64996000D02*
X146550000Y-64996000D01*
X144470000Y-64996000D02*
X143082000Y-64996000D01*
X147924000Y-65036000D02*
X146550000Y-65036000D01*
X144470000Y-65036000D02*
X143096000Y-65036000D01*
X147908000Y-65076000D02*
X146550000Y-65076000D01*
X144470000Y-65076000D02*
X143112000Y-65076000D01*
X147892000Y-65116000D02*
X146550000Y-65116000D01*
X144470000Y-65116000D02*
X143128000Y-65116000D01*
X147875000Y-65156000D02*
X146550000Y-65156000D01*
X144470000Y-65156000D02*
X143145000Y-65156000D01*
X147858000Y-65196000D02*
X146550000Y-65196000D01*
X144470000Y-65196000D02*
X143162000Y-65196000D01*
X147839000Y-65236000D02*
X146550000Y-65236000D01*
X144470000Y-65236000D02*
X143181000Y-65236000D01*
X147820000Y-65276000D02*
X146550000Y-65276000D01*
X144470000Y-65276000D02*
X143200000Y-65276000D01*
X147800000Y-65316000D02*
X146550000Y-65316000D01*
X144470000Y-65316000D02*
X143220000Y-65316000D01*
X147778000Y-65356000D02*
X146550000Y-65356000D01*
X144470000Y-65356000D02*
X143242000Y-65356000D01*
X147757000Y-65396000D02*
X146550000Y-65396000D01*
X144470000Y-65396000D02*
X143263000Y-65396000D01*
X147734000Y-65436000D02*
X146550000Y-65436000D01*
X144470000Y-65436000D02*
X143286000Y-65436000D01*
X147710000Y-65476000D02*
X146550000Y-65476000D01*
X144470000Y-65476000D02*
X143310000Y-65476000D01*
X147685000Y-65516000D02*
X146550000Y-65516000D01*
X144470000Y-65516000D02*
X143335000Y-65516000D01*
X147659000Y-65556000D02*
X146550000Y-65556000D01*
X144470000Y-65556000D02*
X143361000Y-65556000D01*
X147632000Y-65596000D02*
X146550000Y-65596000D01*
X144470000Y-65596000D02*
X143388000Y-65596000D01*
X147605000Y-65636000D02*
X146550000Y-65636000D01*
X144470000Y-65636000D02*
X143415000Y-65636000D01*
X147575000Y-65676000D02*
X146550000Y-65676000D01*
X144470000Y-65676000D02*
X143445000Y-65676000D01*
X147545000Y-65716000D02*
X146550000Y-65716000D01*
X144470000Y-65716000D02*
X143475000Y-65716000D01*
X147514000Y-65756000D02*
X146550000Y-65756000D01*
X144470000Y-65756000D02*
X143506000Y-65756000D01*
X147481000Y-65796000D02*
X146550000Y-65796000D01*
X144470000Y-65796000D02*
X143539000Y-65796000D01*
X147447000Y-65836000D02*
X146550000Y-65836000D01*
X144470000Y-65836000D02*
X143573000Y-65836000D01*
X147411000Y-65876000D02*
X146550000Y-65876000D01*
X144470000Y-65876000D02*
X143609000Y-65876000D01*
X147374000Y-65916000D02*
X146550000Y-65916000D01*
X144470000Y-65916000D02*
X143646000Y-65916000D01*
X147336000Y-65956000D02*
X146550000Y-65956000D01*
X144470000Y-65956000D02*
X143684000Y-65956000D01*
X147295000Y-65996000D02*
X146550000Y-65996000D01*
X144470000Y-65996000D02*
X143725000Y-65996000D01*
X147253000Y-66036000D02*
X146550000Y-66036000D01*
X144470000Y-66036000D02*
X143767000Y-66036000D01*
X147209000Y-66076000D02*
X146550000Y-66076000D01*
X144470000Y-66076000D02*
X143811000Y-66076000D01*
X147163000Y-66116000D02*
X146550000Y-66116000D01*
X144470000Y-66116000D02*
X143857000Y-66116000D01*
X147115000Y-66156000D02*
X146550000Y-66156000D01*
X144470000Y-66156000D02*
X143905000Y-66156000D01*
X147064000Y-66196000D02*
X146550000Y-66196000D01*
X144470000Y-66196000D02*
X143956000Y-66196000D01*
X147010000Y-66236000D02*
X146550000Y-66236000D01*
X144470000Y-66236000D02*
X144010000Y-66236000D01*
X146953000Y-66276000D02*
X146550000Y-66276000D01*
X144470000Y-66276000D02*
X144067000Y-66276000D01*
X146893000Y-66316000D02*
X146550000Y-66316000D01*
X144470000Y-66316000D02*
X144127000Y-66316000D01*
X146829000Y-66356000D02*
X146550000Y-66356000D01*
X144470000Y-66356000D02*
X144191000Y-66356000D01*
X146761000Y-66396000D02*
X146550000Y-66396000D01*
X144470000Y-66396000D02*
X144259000Y-66396000D01*
X146688000Y-66436000D02*
X144332000Y-66436000D01*
X146608000Y-66476000D02*
X144412000Y-66476000D01*
X146521000Y-66516000D02*
X144499000Y-66516000D01*
X146425000Y-66556000D02*
X144595000Y-66556000D01*
X146315000Y-66596000D02*
X144705000Y-66596000D01*
X146187000Y-66636000D02*
X144833000Y-66636000D01*
X146028000Y-66676000D02*
X144992000Y-66676000D01*
X145794000Y-66716000D02*
X145226000Y-66716000D01*
X148130000Y-64115000D02*
G75*
G03*
X148130000Y-64115000I-2620000J0D01*
G01*
%TO.C,RN4*%
X160880000Y-62695000D02*
X158080000Y-62695000D01*
X158080000Y-62695000D02*
X158080000Y-85895000D01*
X160880000Y-65405000D02*
X158080000Y-65405000D01*
X160880000Y-85895000D02*
X160880000Y-62695000D01*
X158080000Y-85895000D02*
X160880000Y-85895000D01*
%TO.C,C10*%
X76830000Y-119440000D02*
X79570000Y-119440000D01*
X76830000Y-119440000D02*
X76830000Y-114200000D01*
X79570000Y-119440000D02*
X79570000Y-114200000D01*
X76830000Y-114200000D02*
X79570000Y-114200000D01*
%TO.C,J8*%
X136950781Y-47625000D02*
G75*
G03*
X136950781Y-47625000I-1600781J0D01*
G01*
%TO.C,J1*%
X79270000Y-62565000D02*
X79270000Y-63165000D01*
X79270000Y-63165000D02*
X79950000Y-62865000D01*
X79950000Y-62865000D02*
X79270000Y-62565000D01*
X80140000Y-54625000D02*
X88960000Y-54625000D01*
X80140000Y-149845000D02*
X80140000Y-54625000D01*
X81450000Y-59734000D02*
X85150000Y-59734000D01*
X81450000Y-144735000D02*
X81450000Y-59734000D01*
X85150000Y-59734000D02*
X85150000Y-60734000D01*
X85150000Y-60734000D02*
X87650000Y-60734000D01*
X85150000Y-143735000D02*
X85150000Y-144735000D01*
X85150000Y-144735000D02*
X81450000Y-144735000D01*
X87650000Y-60734000D02*
X87650000Y-143735000D01*
X87650000Y-143735000D02*
X85150000Y-143735000D01*
X88960000Y-54625000D02*
X88960000Y-149845000D01*
X88960000Y-149845000D02*
X80140000Y-149845000D01*
%TO.C,J5*%
X130600781Y-47625000D02*
G75*
G03*
X130600781Y-47625000I-1600781J0D01*
G01*
%TO.C,C7*%
X160850000Y-140870000D02*
X158110000Y-140870000D01*
X160850000Y-140870000D02*
X160850000Y-146110000D01*
X158110000Y-140870000D02*
X158110000Y-146110000D01*
X160850000Y-146110000D02*
X158110000Y-146110000D01*
%TO.C,C9*%
X79570000Y-61515000D02*
X76830000Y-61515000D01*
X79570000Y-61515000D02*
X79570000Y-66755000D01*
X76830000Y-61515000D02*
X76830000Y-66755000D01*
X79570000Y-66755000D02*
X76830000Y-66755000D01*
%TO.C,J4*%
X158160000Y-141854200D02*
X158160000Y-141254200D01*
X158160000Y-141254200D02*
X157480000Y-141554200D01*
X157480000Y-141554200D02*
X158160000Y-141854200D01*
X157290000Y-149794200D02*
X148970000Y-149794200D01*
X157290000Y-54574200D02*
X157290000Y-149794200D01*
X156130000Y-144685200D02*
X153130000Y-144685200D01*
X156130000Y-59684200D02*
X156130000Y-144685200D01*
X153130000Y-144685200D02*
X153130000Y-143685200D01*
X153130000Y-143685200D02*
X150130000Y-143685200D01*
X153130000Y-60684200D02*
X153130000Y-59684200D01*
X153130000Y-59684200D02*
X156130000Y-59684200D01*
X150130000Y-143685200D02*
X150130000Y-60684200D01*
X150130000Y-60684200D02*
X153130000Y-60684200D01*
X148970000Y-149794200D02*
X148970000Y-54574200D01*
X148970000Y-54574200D02*
X157290000Y-54574200D01*
%TO.C,RN2*%
X76800000Y-113835000D02*
X79600000Y-113835000D01*
X79600000Y-113835000D02*
X79600000Y-90635000D01*
X76800000Y-111125000D02*
X79600000Y-111125000D01*
X76800000Y-90635000D02*
X76800000Y-113835000D01*
X79600000Y-90635000D02*
X76800000Y-90635000D01*
%TO.C,RN1*%
X79600000Y-67140000D02*
X76800000Y-67140000D01*
X76800000Y-67140000D02*
X76800000Y-90340000D01*
X79600000Y-69850000D02*
X76800000Y-69850000D01*
X79600000Y-90340000D02*
X79600000Y-67140000D01*
X76800000Y-90340000D02*
X79600000Y-90340000D01*
%TO.C,J3*%
X119910000Y-62565000D02*
X119910000Y-63165000D01*
X119910000Y-63165000D02*
X120590000Y-62865000D01*
X120590000Y-62865000D02*
X119910000Y-62565000D01*
X120780000Y-54625000D02*
X129600000Y-54625000D01*
X120780000Y-149845000D02*
X120780000Y-54625000D01*
X122090000Y-59734000D02*
X125790000Y-59734000D01*
X122090000Y-144735000D02*
X122090000Y-59734000D01*
X125790000Y-59734000D02*
X125790000Y-60734000D01*
X125790000Y-60734000D02*
X128290000Y-60734000D01*
X125790000Y-143735000D02*
X125790000Y-144735000D01*
X125790000Y-144735000D02*
X122090000Y-144735000D01*
X128290000Y-60734000D02*
X128290000Y-143735000D01*
X128290000Y-143735000D02*
X125790000Y-143735000D01*
X129600000Y-54625000D02*
X129600000Y-149845000D01*
X129600000Y-149845000D02*
X120780000Y-149845000D01*
%TO.C,C3*%
X97455000Y-61310225D02*
X97455000Y-61810225D01*
X97705000Y-61560225D02*
X97205000Y-61560225D01*
X98560000Y-64115000D02*
X93400000Y-64115000D01*
X98560000Y-64155000D02*
X93400000Y-64155000D01*
X98559000Y-64195000D02*
X93401000Y-64195000D01*
X98558000Y-64235000D02*
X93402000Y-64235000D01*
X98556000Y-64275000D02*
X93404000Y-64275000D01*
X98553000Y-64315000D02*
X93407000Y-64315000D01*
X98549000Y-64355000D02*
X97020000Y-64355000D01*
X94940000Y-64355000D02*
X93411000Y-64355000D01*
X98545000Y-64395000D02*
X97020000Y-64395000D01*
X94940000Y-64395000D02*
X93415000Y-64395000D01*
X98541000Y-64435000D02*
X97020000Y-64435000D01*
X94940000Y-64435000D02*
X93419000Y-64435000D01*
X98536000Y-64475000D02*
X97020000Y-64475000D01*
X94940000Y-64475000D02*
X93424000Y-64475000D01*
X98530000Y-64515000D02*
X97020000Y-64515000D01*
X94940000Y-64515000D02*
X93430000Y-64515000D01*
X98523000Y-64555000D02*
X97020000Y-64555000D01*
X94940000Y-64555000D02*
X93437000Y-64555000D01*
X98516000Y-64595000D02*
X97020000Y-64595000D01*
X94940000Y-64595000D02*
X93444000Y-64595000D01*
X98508000Y-64635000D02*
X97020000Y-64635000D01*
X94940000Y-64635000D02*
X93452000Y-64635000D01*
X98500000Y-64675000D02*
X97020000Y-64675000D01*
X94940000Y-64675000D02*
X93460000Y-64675000D01*
X98491000Y-64715000D02*
X97020000Y-64715000D01*
X94940000Y-64715000D02*
X93469000Y-64715000D01*
X98481000Y-64755000D02*
X97020000Y-64755000D01*
X94940000Y-64755000D02*
X93479000Y-64755000D01*
X98471000Y-64795000D02*
X97020000Y-64795000D01*
X94940000Y-64795000D02*
X93489000Y-64795000D01*
X98460000Y-64836000D02*
X97020000Y-64836000D01*
X94940000Y-64836000D02*
X93500000Y-64836000D01*
X98448000Y-64876000D02*
X97020000Y-64876000D01*
X94940000Y-64876000D02*
X93512000Y-64876000D01*
X98435000Y-64916000D02*
X97020000Y-64916000D01*
X94940000Y-64916000D02*
X93525000Y-64916000D01*
X98422000Y-64956000D02*
X97020000Y-64956000D01*
X94940000Y-64956000D02*
X93538000Y-64956000D01*
X98408000Y-64996000D02*
X97020000Y-64996000D01*
X94940000Y-64996000D02*
X93552000Y-64996000D01*
X98394000Y-65036000D02*
X97020000Y-65036000D01*
X94940000Y-65036000D02*
X93566000Y-65036000D01*
X98378000Y-65076000D02*
X97020000Y-65076000D01*
X94940000Y-65076000D02*
X93582000Y-65076000D01*
X98362000Y-65116000D02*
X97020000Y-65116000D01*
X94940000Y-65116000D02*
X93598000Y-65116000D01*
X98345000Y-65156000D02*
X97020000Y-65156000D01*
X94940000Y-65156000D02*
X93615000Y-65156000D01*
X98328000Y-65196000D02*
X97020000Y-65196000D01*
X94940000Y-65196000D02*
X93632000Y-65196000D01*
X98309000Y-65236000D02*
X97020000Y-65236000D01*
X94940000Y-65236000D02*
X93651000Y-65236000D01*
X98290000Y-65276000D02*
X97020000Y-65276000D01*
X94940000Y-65276000D02*
X93670000Y-65276000D01*
X98270000Y-65316000D02*
X97020000Y-65316000D01*
X94940000Y-65316000D02*
X93690000Y-65316000D01*
X98248000Y-65356000D02*
X97020000Y-65356000D01*
X94940000Y-65356000D02*
X93712000Y-65356000D01*
X98227000Y-65396000D02*
X97020000Y-65396000D01*
X94940000Y-65396000D02*
X93733000Y-65396000D01*
X98204000Y-65436000D02*
X97020000Y-65436000D01*
X94940000Y-65436000D02*
X93756000Y-65436000D01*
X98180000Y-65476000D02*
X97020000Y-65476000D01*
X94940000Y-65476000D02*
X93780000Y-65476000D01*
X98155000Y-65516000D02*
X97020000Y-65516000D01*
X94940000Y-65516000D02*
X93805000Y-65516000D01*
X98129000Y-65556000D02*
X97020000Y-65556000D01*
X94940000Y-65556000D02*
X93831000Y-65556000D01*
X98102000Y-65596000D02*
X97020000Y-65596000D01*
X94940000Y-65596000D02*
X93858000Y-65596000D01*
X98075000Y-65636000D02*
X97020000Y-65636000D01*
X94940000Y-65636000D02*
X93885000Y-65636000D01*
X98045000Y-65676000D02*
X97020000Y-65676000D01*
X94940000Y-65676000D02*
X93915000Y-65676000D01*
X98015000Y-65716000D02*
X97020000Y-65716000D01*
X94940000Y-65716000D02*
X93945000Y-65716000D01*
X97984000Y-65756000D02*
X97020000Y-65756000D01*
X94940000Y-65756000D02*
X93976000Y-65756000D01*
X97951000Y-65796000D02*
X97020000Y-65796000D01*
X94940000Y-65796000D02*
X94009000Y-65796000D01*
X97917000Y-65836000D02*
X97020000Y-65836000D01*
X94940000Y-65836000D02*
X94043000Y-65836000D01*
X97881000Y-65876000D02*
X97020000Y-65876000D01*
X94940000Y-65876000D02*
X94079000Y-65876000D01*
X97844000Y-65916000D02*
X97020000Y-65916000D01*
X94940000Y-65916000D02*
X94116000Y-65916000D01*
X97806000Y-65956000D02*
X97020000Y-65956000D01*
X94940000Y-65956000D02*
X94154000Y-65956000D01*
X97765000Y-65996000D02*
X97020000Y-65996000D01*
X94940000Y-65996000D02*
X94195000Y-65996000D01*
X97723000Y-66036000D02*
X97020000Y-66036000D01*
X94940000Y-66036000D02*
X94237000Y-66036000D01*
X97679000Y-66076000D02*
X97020000Y-66076000D01*
X94940000Y-66076000D02*
X94281000Y-66076000D01*
X97633000Y-66116000D02*
X97020000Y-66116000D01*
X94940000Y-66116000D02*
X94327000Y-66116000D01*
X97585000Y-66156000D02*
X97020000Y-66156000D01*
X94940000Y-66156000D02*
X94375000Y-66156000D01*
X97534000Y-66196000D02*
X97020000Y-66196000D01*
X94940000Y-66196000D02*
X94426000Y-66196000D01*
X97480000Y-66236000D02*
X97020000Y-66236000D01*
X94940000Y-66236000D02*
X94480000Y-66236000D01*
X97423000Y-66276000D02*
X97020000Y-66276000D01*
X94940000Y-66276000D02*
X94537000Y-66276000D01*
X97363000Y-66316000D02*
X97020000Y-66316000D01*
X94940000Y-66316000D02*
X94597000Y-66316000D01*
X97299000Y-66356000D02*
X97020000Y-66356000D01*
X94940000Y-66356000D02*
X94661000Y-66356000D01*
X97231000Y-66396000D02*
X97020000Y-66396000D01*
X94940000Y-66396000D02*
X94729000Y-66396000D01*
X97158000Y-66436000D02*
X94802000Y-66436000D01*
X97078000Y-66476000D02*
X94882000Y-66476000D01*
X96991000Y-66516000D02*
X94969000Y-66516000D01*
X96895000Y-66556000D02*
X95065000Y-66556000D01*
X96785000Y-66596000D02*
X95175000Y-66596000D01*
X96657000Y-66636000D02*
X95303000Y-66636000D01*
X96498000Y-66676000D02*
X95462000Y-66676000D01*
X96264000Y-66716000D02*
X95696000Y-66716000D01*
X98600000Y-64115000D02*
G75*
G03*
X98600000Y-64115000I-2620000J0D01*
G01*
%TO.C,J10*%
X101041000Y-49530000D02*
G75*
G03*
X101041000Y-49530000I-1251000J0D01*
G01*
%TO.C,RN6*%
X158080000Y-140505000D02*
X160880000Y-140505000D01*
X160880000Y-140505000D02*
X160880000Y-117305000D01*
X158080000Y-137795000D02*
X160880000Y-137795000D01*
X158080000Y-117305000D02*
X158080000Y-140505000D01*
X160880000Y-117305000D02*
X158080000Y-117305000D01*
%TO.C,C11*%
X79570000Y-143410000D02*
X76830000Y-143410000D01*
X79570000Y-143410000D02*
X79570000Y-148650000D01*
X76830000Y-143410000D02*
X76830000Y-148650000D01*
X79570000Y-148650000D02*
X76830000Y-148650000D01*
%TO.C,R1*%
X112490000Y-75819000D02*
X112490000Y-72637000D01*
X111570000Y-72637000D02*
X113410000Y-72637000D01*
X113410000Y-72637000D02*
X113410000Y-68797000D01*
X111570000Y-68797000D02*
X111570000Y-72637000D01*
X113410000Y-68797000D02*
X111570000Y-68797000D01*
X112490000Y-66599000D02*
X112490000Y-68797000D01*
%TO.C,RN5*%
X160880000Y-93175000D02*
X158080000Y-93175000D01*
X158080000Y-93175000D02*
X158080000Y-116375000D01*
X160880000Y-95885000D02*
X158080000Y-95885000D01*
X160880000Y-116375000D02*
X160880000Y-93175000D01*
X158080000Y-116375000D02*
X160880000Y-116375000D01*
%TO.C,J11*%
X103581000Y-49530000D02*
G75*
G03*
X103581000Y-49530000I-1251000J0D01*
G01*
%TO.C,J9*%
X98501000Y-49530000D02*
G75*
G03*
X98501000Y-49530000I-1251000J0D01*
G01*
%TO.C,C4*%
X119045000Y-61310225D02*
X119045000Y-61810225D01*
X119295000Y-61560225D02*
X118795000Y-61560225D01*
X120150000Y-64115000D02*
X114990000Y-64115000D01*
X120150000Y-64155000D02*
X114990000Y-64155000D01*
X120149000Y-64195000D02*
X114991000Y-64195000D01*
X120148000Y-64235000D02*
X114992000Y-64235000D01*
X120146000Y-64275000D02*
X114994000Y-64275000D01*
X120143000Y-64315000D02*
X114997000Y-64315000D01*
X120139000Y-64355000D02*
X118610000Y-64355000D01*
X116530000Y-64355000D02*
X115001000Y-64355000D01*
X120135000Y-64395000D02*
X118610000Y-64395000D01*
X116530000Y-64395000D02*
X115005000Y-64395000D01*
X120131000Y-64435000D02*
X118610000Y-64435000D01*
X116530000Y-64435000D02*
X115009000Y-64435000D01*
X120126000Y-64475000D02*
X118610000Y-64475000D01*
X116530000Y-64475000D02*
X115014000Y-64475000D01*
X120120000Y-64515000D02*
X118610000Y-64515000D01*
X116530000Y-64515000D02*
X115020000Y-64515000D01*
X120113000Y-64555000D02*
X118610000Y-64555000D01*
X116530000Y-64555000D02*
X115027000Y-64555000D01*
X120106000Y-64595000D02*
X118610000Y-64595000D01*
X116530000Y-64595000D02*
X115034000Y-64595000D01*
X120098000Y-64635000D02*
X118610000Y-64635000D01*
X116530000Y-64635000D02*
X115042000Y-64635000D01*
X120090000Y-64675000D02*
X118610000Y-64675000D01*
X116530000Y-64675000D02*
X115050000Y-64675000D01*
X120081000Y-64715000D02*
X118610000Y-64715000D01*
X116530000Y-64715000D02*
X115059000Y-64715000D01*
X120071000Y-64755000D02*
X118610000Y-64755000D01*
X116530000Y-64755000D02*
X115069000Y-64755000D01*
X120061000Y-64795000D02*
X118610000Y-64795000D01*
X116530000Y-64795000D02*
X115079000Y-64795000D01*
X120050000Y-64836000D02*
X118610000Y-64836000D01*
X116530000Y-64836000D02*
X115090000Y-64836000D01*
X120038000Y-64876000D02*
X118610000Y-64876000D01*
X116530000Y-64876000D02*
X115102000Y-64876000D01*
X120025000Y-64916000D02*
X118610000Y-64916000D01*
X116530000Y-64916000D02*
X115115000Y-64916000D01*
X120012000Y-64956000D02*
X118610000Y-64956000D01*
X116530000Y-64956000D02*
X115128000Y-64956000D01*
X119998000Y-64996000D02*
X118610000Y-64996000D01*
X116530000Y-64996000D02*
X115142000Y-64996000D01*
X119984000Y-65036000D02*
X118610000Y-65036000D01*
X116530000Y-65036000D02*
X115156000Y-65036000D01*
X119968000Y-65076000D02*
X118610000Y-65076000D01*
X116530000Y-65076000D02*
X115172000Y-65076000D01*
X119952000Y-65116000D02*
X118610000Y-65116000D01*
X116530000Y-65116000D02*
X115188000Y-65116000D01*
X119935000Y-65156000D02*
X118610000Y-65156000D01*
X116530000Y-65156000D02*
X115205000Y-65156000D01*
X119918000Y-65196000D02*
X118610000Y-65196000D01*
X116530000Y-65196000D02*
X115222000Y-65196000D01*
X119899000Y-65236000D02*
X118610000Y-65236000D01*
X116530000Y-65236000D02*
X115241000Y-65236000D01*
X119880000Y-65276000D02*
X118610000Y-65276000D01*
X116530000Y-65276000D02*
X115260000Y-65276000D01*
X119860000Y-65316000D02*
X118610000Y-65316000D01*
X116530000Y-65316000D02*
X115280000Y-65316000D01*
X119838000Y-65356000D02*
X118610000Y-65356000D01*
X116530000Y-65356000D02*
X115302000Y-65356000D01*
X119817000Y-65396000D02*
X118610000Y-65396000D01*
X116530000Y-65396000D02*
X115323000Y-65396000D01*
X119794000Y-65436000D02*
X118610000Y-65436000D01*
X116530000Y-65436000D02*
X115346000Y-65436000D01*
X119770000Y-65476000D02*
X118610000Y-65476000D01*
X116530000Y-65476000D02*
X115370000Y-65476000D01*
X119745000Y-65516000D02*
X118610000Y-65516000D01*
X116530000Y-65516000D02*
X115395000Y-65516000D01*
X119719000Y-65556000D02*
X118610000Y-65556000D01*
X116530000Y-65556000D02*
X115421000Y-65556000D01*
X119692000Y-65596000D02*
X118610000Y-65596000D01*
X116530000Y-65596000D02*
X115448000Y-65596000D01*
X119665000Y-65636000D02*
X118610000Y-65636000D01*
X116530000Y-65636000D02*
X115475000Y-65636000D01*
X119635000Y-65676000D02*
X118610000Y-65676000D01*
X116530000Y-65676000D02*
X115505000Y-65676000D01*
X119605000Y-65716000D02*
X118610000Y-65716000D01*
X116530000Y-65716000D02*
X115535000Y-65716000D01*
X119574000Y-65756000D02*
X118610000Y-65756000D01*
X116530000Y-65756000D02*
X115566000Y-65756000D01*
X119541000Y-65796000D02*
X118610000Y-65796000D01*
X116530000Y-65796000D02*
X115599000Y-65796000D01*
X119507000Y-65836000D02*
X118610000Y-65836000D01*
X116530000Y-65836000D02*
X115633000Y-65836000D01*
X119471000Y-65876000D02*
X118610000Y-65876000D01*
X116530000Y-65876000D02*
X115669000Y-65876000D01*
X119434000Y-65916000D02*
X118610000Y-65916000D01*
X116530000Y-65916000D02*
X115706000Y-65916000D01*
X119396000Y-65956000D02*
X118610000Y-65956000D01*
X116530000Y-65956000D02*
X115744000Y-65956000D01*
X119355000Y-65996000D02*
X118610000Y-65996000D01*
X116530000Y-65996000D02*
X115785000Y-65996000D01*
X119313000Y-66036000D02*
X118610000Y-66036000D01*
X116530000Y-66036000D02*
X115827000Y-66036000D01*
X119269000Y-66076000D02*
X118610000Y-66076000D01*
X116530000Y-66076000D02*
X115871000Y-66076000D01*
X119223000Y-66116000D02*
X118610000Y-66116000D01*
X116530000Y-66116000D02*
X115917000Y-66116000D01*
X119175000Y-66156000D02*
X118610000Y-66156000D01*
X116530000Y-66156000D02*
X115965000Y-66156000D01*
X119124000Y-66196000D02*
X118610000Y-66196000D01*
X116530000Y-66196000D02*
X116016000Y-66196000D01*
X119070000Y-66236000D02*
X118610000Y-66236000D01*
X116530000Y-66236000D02*
X116070000Y-66236000D01*
X119013000Y-66276000D02*
X118610000Y-66276000D01*
X116530000Y-66276000D02*
X116127000Y-66276000D01*
X118953000Y-66316000D02*
X118610000Y-66316000D01*
X116530000Y-66316000D02*
X116187000Y-66316000D01*
X118889000Y-66356000D02*
X118610000Y-66356000D01*
X116530000Y-66356000D02*
X116251000Y-66356000D01*
X118821000Y-66396000D02*
X118610000Y-66396000D01*
X116530000Y-66396000D02*
X116319000Y-66396000D01*
X118748000Y-66436000D02*
X116392000Y-66436000D01*
X118668000Y-66476000D02*
X116472000Y-66476000D01*
X118581000Y-66516000D02*
X116559000Y-66516000D01*
X118485000Y-66556000D02*
X116655000Y-66556000D01*
X118375000Y-66596000D02*
X116765000Y-66596000D01*
X118247000Y-66636000D02*
X116893000Y-66636000D01*
X118088000Y-66676000D02*
X117052000Y-66676000D01*
X117854000Y-66716000D02*
X117286000Y-66716000D01*
X120190000Y-64115000D02*
G75*
G03*
X120190000Y-64115000I-2620000J0D01*
G01*
%TO.C,J2*%
X99590000Y-62565000D02*
X99590000Y-63165000D01*
X99590000Y-63165000D02*
X100270000Y-62865000D01*
X100270000Y-62865000D02*
X99590000Y-62565000D01*
X100460000Y-54625000D02*
X109280000Y-54625000D01*
X100460000Y-149845000D02*
X100460000Y-54625000D01*
X101770000Y-59734000D02*
X105470000Y-59734000D01*
X101770000Y-144735000D02*
X101770000Y-59734000D01*
X105470000Y-59734000D02*
X105470000Y-60734000D01*
X105470000Y-60734000D02*
X107970000Y-60734000D01*
X105470000Y-143735000D02*
X105470000Y-144735000D01*
X105470000Y-144735000D02*
X101770000Y-144735000D01*
X107970000Y-60734000D02*
X107970000Y-143735000D01*
X107970000Y-143735000D02*
X105470000Y-143735000D01*
X109280000Y-54625000D02*
X109280000Y-149845000D01*
X109280000Y-149845000D02*
X100460000Y-149845000D01*
%TO.C,C2*%
X135634775Y-66880000D02*
X135134775Y-66880000D01*
X135384775Y-67130000D02*
X135384775Y-66630000D01*
X132830000Y-67985000D02*
X132830000Y-62825000D01*
X132790000Y-67985000D02*
X132790000Y-62825000D01*
X132750000Y-67984000D02*
X132750000Y-62826000D01*
X132710000Y-67983000D02*
X132710000Y-62827000D01*
X132670000Y-67981000D02*
X132670000Y-62829000D01*
X132630000Y-67978000D02*
X132630000Y-62832000D01*
X132590000Y-67974000D02*
X132590000Y-66445000D01*
X132590000Y-64365000D02*
X132590000Y-62836000D01*
X132550000Y-67970000D02*
X132550000Y-66445000D01*
X132550000Y-64365000D02*
X132550000Y-62840000D01*
X132510000Y-67966000D02*
X132510000Y-66445000D01*
X132510000Y-64365000D02*
X132510000Y-62844000D01*
X132470000Y-67961000D02*
X132470000Y-66445000D01*
X132470000Y-64365000D02*
X132470000Y-62849000D01*
X132430000Y-67955000D02*
X132430000Y-66445000D01*
X132430000Y-64365000D02*
X132430000Y-62855000D01*
X132390000Y-67948000D02*
X132390000Y-66445000D01*
X132390000Y-64365000D02*
X132390000Y-62862000D01*
X132350000Y-67941000D02*
X132350000Y-66445000D01*
X132350000Y-64365000D02*
X132350000Y-62869000D01*
X132310000Y-67933000D02*
X132310000Y-66445000D01*
X132310000Y-64365000D02*
X132310000Y-62877000D01*
X132270000Y-67925000D02*
X132270000Y-66445000D01*
X132270000Y-64365000D02*
X132270000Y-62885000D01*
X132230000Y-67916000D02*
X132230000Y-66445000D01*
X132230000Y-64365000D02*
X132230000Y-62894000D01*
X132190000Y-67906000D02*
X132190000Y-66445000D01*
X132190000Y-64365000D02*
X132190000Y-62904000D01*
X132150000Y-67896000D02*
X132150000Y-66445000D01*
X132150000Y-64365000D02*
X132150000Y-62914000D01*
X132109000Y-67885000D02*
X132109000Y-66445000D01*
X132109000Y-64365000D02*
X132109000Y-62925000D01*
X132069000Y-67873000D02*
X132069000Y-66445000D01*
X132069000Y-64365000D02*
X132069000Y-62937000D01*
X132029000Y-67860000D02*
X132029000Y-66445000D01*
X132029000Y-64365000D02*
X132029000Y-62950000D01*
X131989000Y-67847000D02*
X131989000Y-66445000D01*
X131989000Y-64365000D02*
X131989000Y-62963000D01*
X131949000Y-67833000D02*
X131949000Y-66445000D01*
X131949000Y-64365000D02*
X131949000Y-62977000D01*
X131909000Y-67819000D02*
X131909000Y-66445000D01*
X131909000Y-64365000D02*
X131909000Y-62991000D01*
X131869000Y-67803000D02*
X131869000Y-66445000D01*
X131869000Y-64365000D02*
X131869000Y-63007000D01*
X131829000Y-67787000D02*
X131829000Y-66445000D01*
X131829000Y-64365000D02*
X131829000Y-63023000D01*
X131789000Y-67770000D02*
X131789000Y-66445000D01*
X131789000Y-64365000D02*
X131789000Y-63040000D01*
X131749000Y-67753000D02*
X131749000Y-66445000D01*
X131749000Y-64365000D02*
X131749000Y-63057000D01*
X131709000Y-67734000D02*
X131709000Y-66445000D01*
X131709000Y-64365000D02*
X131709000Y-63076000D01*
X131669000Y-67715000D02*
X131669000Y-66445000D01*
X131669000Y-64365000D02*
X131669000Y-63095000D01*
X131629000Y-67695000D02*
X131629000Y-66445000D01*
X131629000Y-64365000D02*
X131629000Y-63115000D01*
X131589000Y-67673000D02*
X131589000Y-66445000D01*
X131589000Y-64365000D02*
X131589000Y-63137000D01*
X131549000Y-67652000D02*
X131549000Y-66445000D01*
X131549000Y-64365000D02*
X131549000Y-63158000D01*
X131509000Y-67629000D02*
X131509000Y-66445000D01*
X131509000Y-64365000D02*
X131509000Y-63181000D01*
X131469000Y-67605000D02*
X131469000Y-66445000D01*
X131469000Y-64365000D02*
X131469000Y-63205000D01*
X131429000Y-67580000D02*
X131429000Y-66445000D01*
X131429000Y-64365000D02*
X131429000Y-63230000D01*
X131389000Y-67554000D02*
X131389000Y-66445000D01*
X131389000Y-64365000D02*
X131389000Y-63256000D01*
X131349000Y-67527000D02*
X131349000Y-66445000D01*
X131349000Y-64365000D02*
X131349000Y-63283000D01*
X131309000Y-67500000D02*
X131309000Y-66445000D01*
X131309000Y-64365000D02*
X131309000Y-63310000D01*
X131269000Y-67470000D02*
X131269000Y-66445000D01*
X131269000Y-64365000D02*
X131269000Y-63340000D01*
X131229000Y-67440000D02*
X131229000Y-66445000D01*
X131229000Y-64365000D02*
X131229000Y-63370000D01*
X131189000Y-67409000D02*
X131189000Y-66445000D01*
X131189000Y-64365000D02*
X131189000Y-63401000D01*
X131149000Y-67376000D02*
X131149000Y-66445000D01*
X131149000Y-64365000D02*
X131149000Y-63434000D01*
X131109000Y-67342000D02*
X131109000Y-66445000D01*
X131109000Y-64365000D02*
X131109000Y-63468000D01*
X131069000Y-67306000D02*
X131069000Y-66445000D01*
X131069000Y-64365000D02*
X131069000Y-63504000D01*
X131029000Y-67269000D02*
X131029000Y-66445000D01*
X131029000Y-64365000D02*
X131029000Y-63541000D01*
X130989000Y-67231000D02*
X130989000Y-66445000D01*
X130989000Y-64365000D02*
X130989000Y-63579000D01*
X130949000Y-67190000D02*
X130949000Y-66445000D01*
X130949000Y-64365000D02*
X130949000Y-63620000D01*
X130909000Y-67148000D02*
X130909000Y-66445000D01*
X130909000Y-64365000D02*
X130909000Y-63662000D01*
X130869000Y-67104000D02*
X130869000Y-66445000D01*
X130869000Y-64365000D02*
X130869000Y-63706000D01*
X130829000Y-67058000D02*
X130829000Y-66445000D01*
X130829000Y-64365000D02*
X130829000Y-63752000D01*
X130789000Y-67010000D02*
X130789000Y-66445000D01*
X130789000Y-64365000D02*
X130789000Y-63800000D01*
X130749000Y-66959000D02*
X130749000Y-66445000D01*
X130749000Y-64365000D02*
X130749000Y-63851000D01*
X130709000Y-66905000D02*
X130709000Y-66445000D01*
X130709000Y-64365000D02*
X130709000Y-63905000D01*
X130669000Y-66848000D02*
X130669000Y-66445000D01*
X130669000Y-64365000D02*
X130669000Y-63962000D01*
X130629000Y-66788000D02*
X130629000Y-66445000D01*
X130629000Y-64365000D02*
X130629000Y-64022000D01*
X130589000Y-66724000D02*
X130589000Y-66445000D01*
X130589000Y-64365000D02*
X130589000Y-64086000D01*
X130549000Y-66656000D02*
X130549000Y-66445000D01*
X130549000Y-64365000D02*
X130549000Y-64154000D01*
X130509000Y-66583000D02*
X130509000Y-64227000D01*
X130469000Y-66503000D02*
X130469000Y-64307000D01*
X130429000Y-66416000D02*
X130429000Y-64394000D01*
X130389000Y-66320000D02*
X130389000Y-64490000D01*
X130349000Y-66210000D02*
X130349000Y-64600000D01*
X130309000Y-66082000D02*
X130309000Y-64728000D01*
X130269000Y-65923000D02*
X130269000Y-64887000D01*
X130229000Y-65689000D02*
X130229000Y-65121000D01*
X135450000Y-65405000D02*
G75*
G03*
X135450000Y-65405000I-2620000J0D01*
G01*
%TO.C,J7*%
X147110781Y-47625000D02*
G75*
G03*
X147110781Y-47625000I-1600781J0D01*
G01*
%TO.C,C6*%
X158110000Y-92175000D02*
X160850000Y-92175000D01*
X158110000Y-92175000D02*
X158110000Y-86935000D01*
X160850000Y-92175000D02*
X160850000Y-86935000D01*
X158110000Y-86935000D02*
X160850000Y-86935000D01*
%TO.C,C1*%
X90060000Y-70769775D02*
X90060000Y-70269775D01*
X89810000Y-70519775D02*
X90310000Y-70519775D01*
X88955000Y-67965000D02*
X94115000Y-67965000D01*
X88955000Y-67925000D02*
X94115000Y-67925000D01*
X88956000Y-67885000D02*
X94114000Y-67885000D01*
X88957000Y-67845000D02*
X94113000Y-67845000D01*
X88959000Y-67805000D02*
X94111000Y-67805000D01*
X88962000Y-67765000D02*
X94108000Y-67765000D01*
X88966000Y-67725000D02*
X90495000Y-67725000D01*
X92575000Y-67725000D02*
X94104000Y-67725000D01*
X88970000Y-67685000D02*
X90495000Y-67685000D01*
X92575000Y-67685000D02*
X94100000Y-67685000D01*
X88974000Y-67645000D02*
X90495000Y-67645000D01*
X92575000Y-67645000D02*
X94096000Y-67645000D01*
X88979000Y-67605000D02*
X90495000Y-67605000D01*
X92575000Y-67605000D02*
X94091000Y-67605000D01*
X88985000Y-67565000D02*
X90495000Y-67565000D01*
X92575000Y-67565000D02*
X94085000Y-67565000D01*
X88992000Y-67525000D02*
X90495000Y-67525000D01*
X92575000Y-67525000D02*
X94078000Y-67525000D01*
X88999000Y-67485000D02*
X90495000Y-67485000D01*
X92575000Y-67485000D02*
X94071000Y-67485000D01*
X89007000Y-67445000D02*
X90495000Y-67445000D01*
X92575000Y-67445000D02*
X94063000Y-67445000D01*
X89015000Y-67405000D02*
X90495000Y-67405000D01*
X92575000Y-67405000D02*
X94055000Y-67405000D01*
X89024000Y-67365000D02*
X90495000Y-67365000D01*
X92575000Y-67365000D02*
X94046000Y-67365000D01*
X89034000Y-67325000D02*
X90495000Y-67325000D01*
X92575000Y-67325000D02*
X94036000Y-67325000D01*
X89044000Y-67285000D02*
X90495000Y-67285000D01*
X92575000Y-67285000D02*
X94026000Y-67285000D01*
X89055000Y-67244000D02*
X90495000Y-67244000D01*
X92575000Y-67244000D02*
X94015000Y-67244000D01*
X89067000Y-67204000D02*
X90495000Y-67204000D01*
X92575000Y-67204000D02*
X94003000Y-67204000D01*
X89080000Y-67164000D02*
X90495000Y-67164000D01*
X92575000Y-67164000D02*
X93990000Y-67164000D01*
X89093000Y-67124000D02*
X90495000Y-67124000D01*
X92575000Y-67124000D02*
X93977000Y-67124000D01*
X89107000Y-67084000D02*
X90495000Y-67084000D01*
X92575000Y-67084000D02*
X93963000Y-67084000D01*
X89121000Y-67044000D02*
X90495000Y-67044000D01*
X92575000Y-67044000D02*
X93949000Y-67044000D01*
X89137000Y-67004000D02*
X90495000Y-67004000D01*
X92575000Y-67004000D02*
X93933000Y-67004000D01*
X89153000Y-66964000D02*
X90495000Y-66964000D01*
X92575000Y-66964000D02*
X93917000Y-66964000D01*
X89170000Y-66924000D02*
X90495000Y-66924000D01*
X92575000Y-66924000D02*
X93900000Y-66924000D01*
X89187000Y-66884000D02*
X90495000Y-66884000D01*
X92575000Y-66884000D02*
X93883000Y-66884000D01*
X89206000Y-66844000D02*
X90495000Y-66844000D01*
X92575000Y-66844000D02*
X93864000Y-66844000D01*
X89225000Y-66804000D02*
X90495000Y-66804000D01*
X92575000Y-66804000D02*
X93845000Y-66804000D01*
X89245000Y-66764000D02*
X90495000Y-66764000D01*
X92575000Y-66764000D02*
X93825000Y-66764000D01*
X89267000Y-66724000D02*
X90495000Y-66724000D01*
X92575000Y-66724000D02*
X93803000Y-66724000D01*
X89288000Y-66684000D02*
X90495000Y-66684000D01*
X92575000Y-66684000D02*
X93782000Y-66684000D01*
X89311000Y-66644000D02*
X90495000Y-66644000D01*
X92575000Y-66644000D02*
X93759000Y-66644000D01*
X89335000Y-66604000D02*
X90495000Y-66604000D01*
X92575000Y-66604000D02*
X93735000Y-66604000D01*
X89360000Y-66564000D02*
X90495000Y-66564000D01*
X92575000Y-66564000D02*
X93710000Y-66564000D01*
X89386000Y-66524000D02*
X90495000Y-66524000D01*
X92575000Y-66524000D02*
X93684000Y-66524000D01*
X89413000Y-66484000D02*
X90495000Y-66484000D01*
X92575000Y-66484000D02*
X93657000Y-66484000D01*
X89440000Y-66444000D02*
X90495000Y-66444000D01*
X92575000Y-66444000D02*
X93630000Y-66444000D01*
X89470000Y-66404000D02*
X90495000Y-66404000D01*
X92575000Y-66404000D02*
X93600000Y-66404000D01*
X89500000Y-66364000D02*
X90495000Y-66364000D01*
X92575000Y-66364000D02*
X93570000Y-66364000D01*
X89531000Y-66324000D02*
X90495000Y-66324000D01*
X92575000Y-66324000D02*
X93539000Y-66324000D01*
X89564000Y-66284000D02*
X90495000Y-66284000D01*
X92575000Y-66284000D02*
X93506000Y-66284000D01*
X89598000Y-66244000D02*
X90495000Y-66244000D01*
X92575000Y-66244000D02*
X93472000Y-66244000D01*
X89634000Y-66204000D02*
X90495000Y-66204000D01*
X92575000Y-66204000D02*
X93436000Y-66204000D01*
X89671000Y-66164000D02*
X90495000Y-66164000D01*
X92575000Y-66164000D02*
X93399000Y-66164000D01*
X89709000Y-66124000D02*
X90495000Y-66124000D01*
X92575000Y-66124000D02*
X93361000Y-66124000D01*
X89750000Y-66084000D02*
X90495000Y-66084000D01*
X92575000Y-66084000D02*
X93320000Y-66084000D01*
X89792000Y-66044000D02*
X90495000Y-66044000D01*
X92575000Y-66044000D02*
X93278000Y-66044000D01*
X89836000Y-66004000D02*
X90495000Y-66004000D01*
X92575000Y-66004000D02*
X93234000Y-66004000D01*
X89882000Y-65964000D02*
X90495000Y-65964000D01*
X92575000Y-65964000D02*
X93188000Y-65964000D01*
X89930000Y-65924000D02*
X90495000Y-65924000D01*
X92575000Y-65924000D02*
X93140000Y-65924000D01*
X89981000Y-65884000D02*
X90495000Y-65884000D01*
X92575000Y-65884000D02*
X93089000Y-65884000D01*
X90035000Y-65844000D02*
X90495000Y-65844000D01*
X92575000Y-65844000D02*
X93035000Y-65844000D01*
X90092000Y-65804000D02*
X90495000Y-65804000D01*
X92575000Y-65804000D02*
X92978000Y-65804000D01*
X90152000Y-65764000D02*
X90495000Y-65764000D01*
X92575000Y-65764000D02*
X92918000Y-65764000D01*
X90216000Y-65724000D02*
X90495000Y-65724000D01*
X92575000Y-65724000D02*
X92854000Y-65724000D01*
X90284000Y-65684000D02*
X90495000Y-65684000D01*
X92575000Y-65684000D02*
X92786000Y-65684000D01*
X90357000Y-65644000D02*
X92713000Y-65644000D01*
X90437000Y-65604000D02*
X92633000Y-65604000D01*
X90524000Y-65564000D02*
X92546000Y-65564000D01*
X90620000Y-65524000D02*
X92450000Y-65524000D01*
X90730000Y-65484000D02*
X92340000Y-65484000D01*
X90858000Y-65444000D02*
X92212000Y-65444000D01*
X91017000Y-65404000D02*
X92053000Y-65404000D01*
X91251000Y-65364000D02*
X91819000Y-65364000D01*
X94155000Y-67965000D02*
G75*
G03*
X94155000Y-67965000I-2620000J0D01*
G01*
%TO.C,J12*%
X106121000Y-49530000D02*
G75*
G03*
X106121000Y-49530000I-1251000J0D01*
G01*
%TO.C,C5*%
X158110000Y-61695000D02*
X160850000Y-61695000D01*
X158110000Y-61695000D02*
X158110000Y-56455000D01*
X160850000Y-61695000D02*
X160850000Y-56455000D01*
X158110000Y-56455000D02*
X160850000Y-56455000D01*
%TD*%
M02*
