%TF.GenerationSoftware,KiCad,Pcbnew,7.0.8+1*%
%TF.CreationDate,2023-11-05T23:31:33+01:00*%
%TF.ProjectId,QL_qplane,514c5f71-706c-4616-9e65-2e6b69636164,0.1*%
%TF.SameCoordinates,Original*%
%TF.FileFunction,Soldermask,Top*%
%TF.FilePolarity,Negative*%
%FSLAX46Y46*%
G04 Gerber Fmt 4.6, Leading zero omitted, Abs format (unit mm)*
G04 Created by KiCad (PCBNEW 7.0.8+1) date 2023-11-05 23:31:33*
%MOMM*%
%LPD*%
G01*
G04 APERTURE LIST*
G04 Aperture macros list*
%AMRoundRect*
0 Rectangle with rounded corners*
0 $1 Rounding radius*
0 $2 $3 $4 $5 $6 $7 $8 $9 X,Y pos of 4 corners*
0 Add a 4 corners polygon primitive as box body*
4,1,4,$2,$3,$4,$5,$6,$7,$8,$9,$2,$3,0*
0 Add four circle primitives for the rounded corners*
1,1,$1+$1,$2,$3*
1,1,$1+$1,$4,$5*
1,1,$1+$1,$6,$7*
1,1,$1+$1,$8,$9*
0 Add four rect primitives between the rounded corners*
20,1,$1+$1,$2,$3,$4,$5,0*
20,1,$1+$1,$4,$5,$6,$7,0*
20,1,$1+$1,$6,$7,$8,$9,0*
20,1,$1+$1,$8,$9,$2,$3,0*%
G04 Aperture macros list end*
%ADD10RoundRect,0.431034X-1.068966X-1.318966X1.068966X-1.318966X1.068966X1.318966X-1.068966X1.318966X0*%
%ADD11O,3.000000X3.500000*%
%ADD12R,1.600000X1.600000*%
%ADD13O,1.600000X1.600000*%
%ADD14C,2.600000*%
%ADD15C,1.600000*%
%ADD16C,2.850000*%
%ADD17RoundRect,0.249999X-0.525001X-0.525001X0.525001X-0.525001X0.525001X0.525001X-0.525001X0.525001X0*%
%ADD18C,1.550000*%
%ADD19RoundRect,0.249999X0.525001X0.525001X-0.525001X0.525001X-0.525001X-0.525001X0.525001X-0.525001X0*%
%ADD20C,3.200000*%
%ADD21C,2.000000*%
%ADD22C,1.400000*%
%ADD23O,1.400000X1.400000*%
G04 APERTURE END LIST*
D10*
%TO.C,P8*%
X79343000Y-46355000D03*
D11*
X83305400Y-46355000D03*
X87267800Y-46355000D03*
X91230200Y-46355000D03*
X95192600Y-46355000D03*
X99155000Y-46355000D03*
%TD*%
D10*
%TO.C,P9*%
X102965000Y-46355000D03*
D11*
X106927400Y-46355000D03*
X110889800Y-46355000D03*
X114852200Y-46355000D03*
X118814600Y-46355000D03*
X122777000Y-46355000D03*
%TD*%
D12*
%TO.C,RN3*%
X78200000Y-141605000D03*
D13*
X78200000Y-139065000D03*
X78200000Y-136525000D03*
X78200000Y-133985000D03*
X78200000Y-131445000D03*
X78200000Y-128905000D03*
X78200000Y-126365000D03*
X78200000Y-123825000D03*
X78200000Y-121285000D03*
%TD*%
D14*
%TO.C,J6*%
X140430000Y-47625000D03*
%TD*%
D12*
%TO.C,C8*%
X145510000Y-62865000D03*
D15*
X145510000Y-65365000D03*
%TD*%
D12*
%TO.C,RN4*%
X159480000Y-64135000D03*
D13*
X159480000Y-66675000D03*
X159480000Y-69215000D03*
X159480000Y-71755000D03*
X159480000Y-74295000D03*
X159480000Y-76835000D03*
X159480000Y-79375000D03*
X159480000Y-81915000D03*
X159480000Y-84455000D03*
%TD*%
D15*
%TO.C,C10*%
X78200000Y-118070000D03*
X78200000Y-115570000D03*
%TD*%
D14*
%TO.C,J8*%
X135350000Y-47625000D03*
%TD*%
D16*
%TO.C,J1*%
X85520000Y-57235000D03*
X85520000Y-147235000D03*
D17*
X83280000Y-62865000D03*
D18*
X83280000Y-65405000D03*
X83280000Y-67945000D03*
X83280000Y-70485000D03*
X83280000Y-73025000D03*
X83280000Y-75565000D03*
X83280000Y-78105000D03*
X83280000Y-80645000D03*
X83280000Y-83185000D03*
X83280000Y-85725000D03*
X83280000Y-88265000D03*
X83280000Y-90805000D03*
X83280000Y-93345000D03*
X83280000Y-95885000D03*
X83280000Y-98425000D03*
X83280000Y-100965000D03*
X83280000Y-103505000D03*
X83280000Y-106045000D03*
X83280000Y-108585000D03*
X83280000Y-111125000D03*
X83280000Y-113665000D03*
X83280000Y-116205000D03*
X83280000Y-118745000D03*
X83280000Y-121285000D03*
X83280000Y-123825000D03*
X83280000Y-126365000D03*
X83280000Y-128905000D03*
X83280000Y-131445000D03*
X83280000Y-133985000D03*
X83280000Y-136525000D03*
X83280000Y-139065000D03*
X83280000Y-141605000D03*
X85820000Y-62865000D03*
X85820000Y-65405000D03*
X85820000Y-67945000D03*
X85820000Y-70485000D03*
X85820000Y-73025000D03*
X85820000Y-75565000D03*
X85820000Y-78105000D03*
X85820000Y-80645000D03*
X85820000Y-83185000D03*
X85820000Y-85725000D03*
X85820000Y-88265000D03*
X85820000Y-90805000D03*
X85820000Y-93345000D03*
X85820000Y-95885000D03*
X85820000Y-98425000D03*
X85820000Y-100965000D03*
X85820000Y-103505000D03*
X85820000Y-106045000D03*
X85820000Y-108585000D03*
X85820000Y-111125000D03*
X85820000Y-113665000D03*
X85820000Y-116205000D03*
X85820000Y-118745000D03*
X85820000Y-121285000D03*
X85820000Y-123825000D03*
X85820000Y-126365000D03*
X85820000Y-128905000D03*
X85820000Y-131445000D03*
X85820000Y-133985000D03*
X85820000Y-136525000D03*
X85820000Y-139065000D03*
X85820000Y-141605000D03*
%TD*%
D14*
%TO.C,J5*%
X129000000Y-47625000D03*
%TD*%
D15*
%TO.C,C7*%
X159480000Y-142240000D03*
X159480000Y-144740000D03*
%TD*%
%TO.C,C9*%
X78200000Y-62885000D03*
X78200000Y-65385000D03*
%TD*%
D16*
%TO.C,J4*%
X152160000Y-147184200D03*
X152160000Y-57184200D03*
D19*
X154400000Y-141554200D03*
D18*
X154400000Y-139014200D03*
X154400000Y-136474200D03*
X154400000Y-133934200D03*
X154400000Y-131394200D03*
X154400000Y-128854200D03*
X154400000Y-126314200D03*
X154400000Y-123774200D03*
X154400000Y-121234200D03*
X154400000Y-118694200D03*
X154400000Y-116154200D03*
X154400000Y-113614200D03*
X154400000Y-111074200D03*
X154400000Y-108534200D03*
X154400000Y-105994200D03*
X154400000Y-103454200D03*
X154400000Y-100914200D03*
X154400000Y-98374200D03*
X154400000Y-95834200D03*
X154400000Y-93294200D03*
X154400000Y-90754200D03*
X154400000Y-88214200D03*
X154400000Y-85674200D03*
X154400000Y-83134200D03*
X154400000Y-80594200D03*
X154400000Y-78054200D03*
X154400000Y-75514200D03*
X154400000Y-72974200D03*
X154400000Y-70434200D03*
X154400000Y-67894200D03*
X154400000Y-65354200D03*
X154400000Y-62814200D03*
X151860000Y-141554200D03*
X151860000Y-139014200D03*
X151860000Y-136474200D03*
X151860000Y-133934200D03*
X151860000Y-131394200D03*
X151860000Y-128854200D03*
X151860000Y-126314200D03*
X151860000Y-123774200D03*
X151860000Y-121234200D03*
X151860000Y-118694200D03*
X151860000Y-116154200D03*
X151860000Y-113614200D03*
X151860000Y-111074200D03*
X151860000Y-108534200D03*
X151860000Y-105994200D03*
X151860000Y-103454200D03*
X151860000Y-100914200D03*
X151860000Y-98374200D03*
X151860000Y-95834200D03*
X151860000Y-93294200D03*
X151860000Y-90754200D03*
X151860000Y-88214200D03*
X151860000Y-85674200D03*
X151860000Y-83134200D03*
X151860000Y-80594200D03*
X151860000Y-78054200D03*
X151860000Y-75514200D03*
X151860000Y-72974200D03*
X151860000Y-70434200D03*
X151860000Y-67894200D03*
X151860000Y-65354200D03*
X151860000Y-62814200D03*
%TD*%
D20*
%TO.C,H3*%
X94710000Y-57785000D03*
%TD*%
D12*
%TO.C,RN2*%
X78200000Y-112395000D03*
D13*
X78200000Y-109855000D03*
X78200000Y-107315000D03*
X78200000Y-104775000D03*
X78200000Y-102235000D03*
X78200000Y-99695000D03*
X78200000Y-97155000D03*
X78200000Y-94615000D03*
X78200000Y-92075000D03*
%TD*%
D12*
%TO.C,RN1*%
X78200000Y-68580000D03*
D13*
X78200000Y-71120000D03*
X78200000Y-73660000D03*
X78200000Y-76200000D03*
X78200000Y-78740000D03*
X78200000Y-81280000D03*
X78200000Y-83820000D03*
X78200000Y-86360000D03*
X78200000Y-88900000D03*
%TD*%
D16*
%TO.C,J3*%
X126160000Y-57235000D03*
X126160000Y-147235000D03*
D17*
X123920000Y-62865000D03*
D18*
X123920000Y-65405000D03*
X123920000Y-67945000D03*
X123920000Y-70485000D03*
X123920000Y-73025000D03*
X123920000Y-75565000D03*
X123920000Y-78105000D03*
X123920000Y-80645000D03*
X123920000Y-83185000D03*
X123920000Y-85725000D03*
X123920000Y-88265000D03*
X123920000Y-90805000D03*
X123920000Y-93345000D03*
X123920000Y-95885000D03*
X123920000Y-98425000D03*
X123920000Y-100965000D03*
X123920000Y-103505000D03*
X123920000Y-106045000D03*
X123920000Y-108585000D03*
X123920000Y-111125000D03*
X123920000Y-113665000D03*
X123920000Y-116205000D03*
X123920000Y-118745000D03*
X123920000Y-121285000D03*
X123920000Y-123825000D03*
X123920000Y-126365000D03*
X123920000Y-128905000D03*
X123920000Y-131445000D03*
X123920000Y-133985000D03*
X123920000Y-136525000D03*
X123920000Y-139065000D03*
X123920000Y-141605000D03*
X126460000Y-62865000D03*
X126460000Y-65405000D03*
X126460000Y-67945000D03*
X126460000Y-70485000D03*
X126460000Y-73025000D03*
X126460000Y-75565000D03*
X126460000Y-78105000D03*
X126460000Y-80645000D03*
X126460000Y-83185000D03*
X126460000Y-85725000D03*
X126460000Y-88265000D03*
X126460000Y-90805000D03*
X126460000Y-93345000D03*
X126460000Y-95885000D03*
X126460000Y-98425000D03*
X126460000Y-100965000D03*
X126460000Y-103505000D03*
X126460000Y-106045000D03*
X126460000Y-108585000D03*
X126460000Y-111125000D03*
X126460000Y-113665000D03*
X126460000Y-116205000D03*
X126460000Y-118745000D03*
X126460000Y-121285000D03*
X126460000Y-123825000D03*
X126460000Y-126365000D03*
X126460000Y-128905000D03*
X126460000Y-131445000D03*
X126460000Y-133985000D03*
X126460000Y-136525000D03*
X126460000Y-139065000D03*
X126460000Y-141605000D03*
%TD*%
D12*
%TO.C,C3*%
X95980000Y-62865000D03*
D15*
X95980000Y-65365000D03*
%TD*%
D21*
%TO.C,J10*%
X99790000Y-49530000D03*
%TD*%
D12*
%TO.C,RN6*%
X159480000Y-139065000D03*
D13*
X159480000Y-136525000D03*
X159480000Y-133985000D03*
X159480000Y-131445000D03*
X159480000Y-128905000D03*
X159480000Y-126365000D03*
X159480000Y-123825000D03*
X159480000Y-121285000D03*
X159480000Y-118745000D03*
%TD*%
D15*
%TO.C,C11*%
X78200000Y-144780000D03*
X78200000Y-147280000D03*
%TD*%
D22*
%TO.C,R1*%
X112490000Y-76835000D03*
D23*
X112490000Y-65659000D03*
%TD*%
D12*
%TO.C,RN5*%
X159480000Y-94615000D03*
D13*
X159480000Y-97155000D03*
X159480000Y-99695000D03*
X159480000Y-102235000D03*
X159480000Y-104775000D03*
X159480000Y-107315000D03*
X159480000Y-109855000D03*
X159480000Y-112395000D03*
X159480000Y-114935000D03*
%TD*%
D21*
%TO.C,J11*%
X102330000Y-49530000D03*
%TD*%
%TO.C,J9*%
X97250000Y-49530000D03*
%TD*%
D12*
%TO.C,C4*%
X117570000Y-62865000D03*
D15*
X117570000Y-65365000D03*
%TD*%
D16*
%TO.C,J2*%
X105840000Y-57235000D03*
X105840000Y-147235000D03*
D17*
X103600000Y-62865000D03*
D18*
X103600000Y-65405000D03*
X103600000Y-67945000D03*
X103600000Y-70485000D03*
X103600000Y-73025000D03*
X103600000Y-75565000D03*
X103600000Y-78105000D03*
X103600000Y-80645000D03*
X103600000Y-83185000D03*
X103600000Y-85725000D03*
X103600000Y-88265000D03*
X103600000Y-90805000D03*
X103600000Y-93345000D03*
X103600000Y-95885000D03*
X103600000Y-98425000D03*
X103600000Y-100965000D03*
X103600000Y-103505000D03*
X103600000Y-106045000D03*
X103600000Y-108585000D03*
X103600000Y-111125000D03*
X103600000Y-113665000D03*
X103600000Y-116205000D03*
X103600000Y-118745000D03*
X103600000Y-121285000D03*
X103600000Y-123825000D03*
X103600000Y-126365000D03*
X103600000Y-128905000D03*
X103600000Y-131445000D03*
X103600000Y-133985000D03*
X103600000Y-136525000D03*
X103600000Y-139065000D03*
X103600000Y-141605000D03*
X106140000Y-62865000D03*
X106140000Y-65405000D03*
X106140000Y-67945000D03*
X106140000Y-70485000D03*
X106140000Y-73025000D03*
X106140000Y-75565000D03*
X106140000Y-78105000D03*
X106140000Y-80645000D03*
X106140000Y-83185000D03*
X106140000Y-85725000D03*
X106140000Y-88265000D03*
X106140000Y-90805000D03*
X106140000Y-93345000D03*
X106140000Y-95885000D03*
X106140000Y-98425000D03*
X106140000Y-100965000D03*
X106140000Y-103505000D03*
X106140000Y-106045000D03*
X106140000Y-108585000D03*
X106140000Y-111125000D03*
X106140000Y-113665000D03*
X106140000Y-116205000D03*
X106140000Y-118745000D03*
X106140000Y-121285000D03*
X106140000Y-123825000D03*
X106140000Y-126365000D03*
X106140000Y-128905000D03*
X106140000Y-131445000D03*
X106140000Y-133985000D03*
X106140000Y-136525000D03*
X106140000Y-139065000D03*
X106140000Y-141605000D03*
%TD*%
D12*
%TO.C,C2*%
X134080000Y-65405000D03*
D15*
X131580000Y-65405000D03*
%TD*%
D20*
%TO.C,H1*%
X94710000Y-144145000D03*
%TD*%
D14*
%TO.C,J7*%
X145510000Y-47625000D03*
%TD*%
D15*
%TO.C,C6*%
X159480000Y-90805000D03*
X159480000Y-88305000D03*
%TD*%
D12*
%TO.C,C1*%
X91535000Y-69215000D03*
D15*
X91535000Y-66715000D03*
%TD*%
D20*
%TO.C,H4*%
X139160000Y-57785000D03*
%TD*%
%TO.C,H2*%
X139160000Y-144145000D03*
%TD*%
D21*
%TO.C,J12*%
X104870000Y-49530000D03*
%TD*%
D15*
%TO.C,C5*%
X159480000Y-60325000D03*
X159480000Y-57825000D03*
%TD*%
M02*
