M48
; DRILL file {KiCad 7.0.8+1} date dom 05 nov 2023 23:31:28
; FORMAT={-:-/ absolute / inch / decimal}
; #@! TF.CreationDate,2023-11-05T23:31:28+01:00
; #@! TF.GenerationSoftware,Kicad,Pcbnew,7.0.8+1
; #@! TF.FileFunction,Plated,1,2,PTH
FMAT,2
INCH
; #@! TA.AperFunction,Plated,PTH,ComponentDrill
T1C0.0276
; #@! TA.AperFunction,Plated,PTH,ComponentDrill
T2C0.0315
; #@! TA.AperFunction,Plated,PTH,ComponentDrill
T3C0.0394
; #@! TA.AperFunction,Plated,PTH,ComponentDrill
T4C0.0512
; #@! TA.AperFunction,Plated,PTH,ComponentDrill
T5C0.0787
%
G90
G05
T1
X4.4287Y-2.585
X4.4287Y-3.025
T2
X3.0787Y-2.4758
X3.0787Y-2.5742
X3.0787Y-2.7
X3.0787Y-2.8
X3.0787Y-2.9
X3.0787Y-3.0
X3.0787Y-3.1
X3.0787Y-3.2
X3.0787Y-3.3
X3.0787Y-3.4
X3.0787Y-3.5
X3.0787Y-3.625
X3.0787Y-3.725
X3.0787Y-3.825
X3.0787Y-3.925
X3.0787Y-4.025
X3.0787Y-4.125
X3.0787Y-4.225
X3.0787Y-4.325
X3.0787Y-4.425
X3.0787Y-4.55
X3.0787Y-4.6484
X3.0787Y-4.775
X3.0787Y-4.875
X3.0787Y-4.975
X3.0787Y-5.075
X3.0787Y-5.175
X3.0787Y-5.275
X3.0787Y-5.375
X3.0787Y-5.475
X3.0787Y-5.575
X3.0787Y-5.7
X3.0787Y-5.7984
X3.6037Y-2.6266
X3.6037Y-2.725
X3.7787Y-2.475
X3.7787Y-2.5734
X4.6287Y-2.475
X4.6287Y-2.5734
X5.1803Y-2.575
X5.2787Y-2.575
X5.7287Y-2.475
X5.7287Y-2.5734
X6.2787Y-2.2766
X6.2787Y-2.375
X6.2787Y-2.525
X6.2787Y-2.625
X6.2787Y-2.725
X6.2787Y-2.825
X6.2787Y-2.925
X6.2787Y-3.025
X6.2787Y-3.125
X6.2787Y-3.225
X6.2787Y-3.325
X6.2787Y-3.4766
X6.2787Y-3.575
X6.2787Y-3.725
X6.2787Y-3.825
X6.2787Y-3.925
X6.2787Y-4.025
X6.2787Y-4.125
X6.2787Y-4.225
X6.2787Y-4.325
X6.2787Y-4.425
X6.2787Y-4.525
X6.2787Y-4.675
X6.2787Y-4.775
X6.2787Y-4.875
X6.2787Y-4.975
X6.2787Y-5.075
X6.2787Y-5.175
X6.2787Y-5.275
X6.2787Y-5.375
X6.2787Y-5.475
X6.2787Y-5.6
X6.2787Y-5.6984
T3
X3.2787Y-2.475
X3.2787Y-2.575
X3.2787Y-2.675
X3.2787Y-2.775
X3.2787Y-2.875
X3.2787Y-2.975
X3.2787Y-3.075
X3.2787Y-3.175
X3.2787Y-3.275
X3.2787Y-3.375
X3.2787Y-3.475
X3.2787Y-3.575
X3.2787Y-3.675
X3.2787Y-3.775
X3.2787Y-3.875
X3.2787Y-3.975
X3.2787Y-4.075
X3.2787Y-4.175
X3.2787Y-4.275
X3.2787Y-4.375
X3.2787Y-4.475
X3.2787Y-4.575
X3.2787Y-4.675
X3.2787Y-4.775
X3.2787Y-4.875
X3.2787Y-4.975
X3.2787Y-5.075
X3.2787Y-5.175
X3.2787Y-5.275
X3.2787Y-5.375
X3.2787Y-5.475
X3.2787Y-5.575
X3.3787Y-2.475
X3.3787Y-2.575
X3.3787Y-2.675
X3.3787Y-2.775
X3.3787Y-2.875
X3.3787Y-2.975
X3.3787Y-3.075
X3.3787Y-3.175
X3.3787Y-3.275
X3.3787Y-3.375
X3.3787Y-3.475
X3.3787Y-3.575
X3.3787Y-3.675
X3.3787Y-3.775
X3.3787Y-3.875
X3.3787Y-3.975
X3.3787Y-4.075
X3.3787Y-4.175
X3.3787Y-4.275
X3.3787Y-4.375
X3.3787Y-4.475
X3.3787Y-4.575
X3.3787Y-4.675
X3.3787Y-4.775
X3.3787Y-4.875
X3.3787Y-4.975
X3.3787Y-5.075
X3.3787Y-5.175
X3.3787Y-5.275
X3.3787Y-5.375
X3.3787Y-5.475
X3.3787Y-5.575
X3.8287Y-1.95
X3.9287Y-1.95
X4.0287Y-1.95
X4.0787Y-2.475
X4.0787Y-2.575
X4.0787Y-2.675
X4.0787Y-2.775
X4.0787Y-2.875
X4.0787Y-2.975
X4.0787Y-3.075
X4.0787Y-3.175
X4.0787Y-3.275
X4.0787Y-3.375
X4.0787Y-3.475
X4.0787Y-3.575
X4.0787Y-3.675
X4.0787Y-3.775
X4.0787Y-3.875
X4.0787Y-3.975
X4.0787Y-4.075
X4.0787Y-4.175
X4.0787Y-4.275
X4.0787Y-4.375
X4.0787Y-4.475
X4.0787Y-4.575
X4.0787Y-4.675
X4.0787Y-4.775
X4.0787Y-4.875
X4.0787Y-4.975
X4.0787Y-5.075
X4.0787Y-5.175
X4.0787Y-5.275
X4.0787Y-5.375
X4.0787Y-5.475
X4.0787Y-5.575
X4.1287Y-1.95
X4.1787Y-2.475
X4.1787Y-2.575
X4.1787Y-2.675
X4.1787Y-2.775
X4.1787Y-2.875
X4.1787Y-2.975
X4.1787Y-3.075
X4.1787Y-3.175
X4.1787Y-3.275
X4.1787Y-3.375
X4.1787Y-3.475
X4.1787Y-3.575
X4.1787Y-3.675
X4.1787Y-3.775
X4.1787Y-3.875
X4.1787Y-3.975
X4.1787Y-4.075
X4.1787Y-4.175
X4.1787Y-4.275
X4.1787Y-4.375
X4.1787Y-4.475
X4.1787Y-4.575
X4.1787Y-4.675
X4.1787Y-4.775
X4.1787Y-4.875
X4.1787Y-4.975
X4.1787Y-5.075
X4.1787Y-5.175
X4.1787Y-5.275
X4.1787Y-5.375
X4.1787Y-5.475
X4.1787Y-5.575
X4.8787Y-2.475
X4.8787Y-2.575
X4.8787Y-2.675
X4.8787Y-2.775
X4.8787Y-2.875
X4.8787Y-2.975
X4.8787Y-3.075
X4.8787Y-3.175
X4.8787Y-3.275
X4.8787Y-3.375
X4.8787Y-3.475
X4.8787Y-3.575
X4.8787Y-3.675
X4.8787Y-3.775
X4.8787Y-3.875
X4.8787Y-3.975
X4.8787Y-4.075
X4.8787Y-4.175
X4.8787Y-4.275
X4.8787Y-4.375
X4.8787Y-4.475
X4.8787Y-4.575
X4.8787Y-4.675
X4.8787Y-4.775
X4.8787Y-4.875
X4.8787Y-4.975
X4.8787Y-5.075
X4.8787Y-5.175
X4.8787Y-5.275
X4.8787Y-5.375
X4.8787Y-5.475
X4.8787Y-5.575
X4.9787Y-2.475
X4.9787Y-2.575
X4.9787Y-2.675
X4.9787Y-2.775
X4.9787Y-2.875
X4.9787Y-2.975
X4.9787Y-3.075
X4.9787Y-3.175
X4.9787Y-3.275
X4.9787Y-3.375
X4.9787Y-3.475
X4.9787Y-3.575
X4.9787Y-3.675
X4.9787Y-3.775
X4.9787Y-3.875
X4.9787Y-3.975
X4.9787Y-4.075
X4.9787Y-4.175
X4.9787Y-4.275
X4.9787Y-4.375
X4.9787Y-4.475
X4.9787Y-4.575
X4.9787Y-4.675
X4.9787Y-4.775
X4.9787Y-4.875
X4.9787Y-4.975
X4.9787Y-5.075
X4.9787Y-5.175
X4.9787Y-5.275
X4.9787Y-5.375
X4.9787Y-5.475
X4.9787Y-5.575
X5.9787Y-2.473
X5.9787Y-2.573
X5.9787Y-2.673
X5.9787Y-2.773
X5.9787Y-2.873
X5.9787Y-2.973
X5.9787Y-3.073
X5.9787Y-3.173
X5.9787Y-3.273
X5.9787Y-3.373
X5.9787Y-3.473
X5.9787Y-3.573
X5.9787Y-3.673
X5.9787Y-3.773
X5.9787Y-3.873
X5.9787Y-3.973
X5.9787Y-4.073
X5.9787Y-4.173
X5.9787Y-4.273
X5.9787Y-4.373
X5.9787Y-4.473
X5.9787Y-4.573
X5.9787Y-4.673
X5.9787Y-4.773
X5.9787Y-4.873
X5.9787Y-4.973
X5.9787Y-5.073
X5.9787Y-5.173
X5.9787Y-5.273
X5.9787Y-5.373
X5.9787Y-5.473
X5.9787Y-5.573
X6.0787Y-2.473
X6.0787Y-2.573
X6.0787Y-2.673
X6.0787Y-2.773
X6.0787Y-2.873
X6.0787Y-2.973
X6.0787Y-3.073
X6.0787Y-3.173
X6.0787Y-3.273
X6.0787Y-3.373
X6.0787Y-3.473
X6.0787Y-3.573
X6.0787Y-3.673
X6.0787Y-3.773
X6.0787Y-3.873
X6.0787Y-3.973
X6.0787Y-4.073
X6.0787Y-4.173
X6.0787Y-4.273
X6.0787Y-4.373
X6.0787Y-4.473
X6.0787Y-4.573
X6.0787Y-4.673
X6.0787Y-4.773
X6.0787Y-4.873
X6.0787Y-4.973
X6.0787Y-5.073
X6.0787Y-5.173
X6.0787Y-5.273
X6.0787Y-5.373
X6.0787Y-5.473
X6.0787Y-5.573
T4
X5.0787Y-1.875
X5.3287Y-1.875
X5.5287Y-1.875
X5.7287Y-1.875
T5
X3.1237Y-1.825
X3.2797Y-1.825
X3.4357Y-1.825
X3.5917Y-1.825
X3.7477Y-1.825
X3.9037Y-1.825
X4.0537Y-1.825
X4.2097Y-1.825
X4.3657Y-1.825
X4.5217Y-1.825
X4.6777Y-1.825
X4.8337Y-1.825
T0
M30
