%TF.GenerationSoftware,KiCad,Pcbnew,7.0.8+1*%
%TF.CreationDate,2023-11-05T23:31:33+01:00*%
%TF.ProjectId,QL_qplane,514c5f71-706c-4616-9e65-2e6b69636164,0.1*%
%TF.SameCoordinates,Original*%
%TF.FileFunction,Copper,L2,Bot*%
%TF.FilePolarity,Positive*%
%FSLAX46Y46*%
G04 Gerber Fmt 4.6, Leading zero omitted, Abs format (unit mm)*
G04 Created by KiCad (PCBNEW 7.0.8+1) date 2023-11-05 23:31:33*
%MOMM*%
%LPD*%
G01*
G04 APERTURE LIST*
G04 Aperture macros list*
%AMRoundRect*
0 Rectangle with rounded corners*
0 $1 Rounding radius*
0 $2 $3 $4 $5 $6 $7 $8 $9 X,Y pos of 4 corners*
0 Add a 4 corners polygon primitive as box body*
4,1,4,$2,$3,$4,$5,$6,$7,$8,$9,$2,$3,0*
0 Add four circle primitives for the rounded corners*
1,1,$1+$1,$2,$3*
1,1,$1+$1,$4,$5*
1,1,$1+$1,$6,$7*
1,1,$1+$1,$8,$9*
0 Add four rect primitives between the rounded corners*
20,1,$1+$1,$2,$3,$4,$5,0*
20,1,$1+$1,$4,$5,$6,$7,0*
20,1,$1+$1,$6,$7,$8,$9,0*
20,1,$1+$1,$8,$9,$2,$3,0*%
G04 Aperture macros list end*
%TA.AperFunction,NonConductor*%
%ADD10C,0.200000*%
%TD*%
%ADD11C,0.400000*%
%TA.AperFunction,NonConductor*%
%ADD12C,0.400000*%
%TD*%
%TA.AperFunction,ComponentPad*%
%ADD13RoundRect,0.431034X-1.068966X-1.318966X1.068966X-1.318966X1.068966X1.318966X-1.068966X1.318966X0*%
%TD*%
%TA.AperFunction,ComponentPad*%
%ADD14O,3.000000X3.500000*%
%TD*%
%TA.AperFunction,ComponentPad*%
%ADD15R,1.600000X1.600000*%
%TD*%
%TA.AperFunction,ComponentPad*%
%ADD16O,1.600000X1.600000*%
%TD*%
%TA.AperFunction,ComponentPad*%
%ADD17C,2.600000*%
%TD*%
%TA.AperFunction,ComponentPad*%
%ADD18C,1.600000*%
%TD*%
%TA.AperFunction,ComponentPad*%
%ADD19RoundRect,0.249999X-0.525001X-0.525001X0.525001X-0.525001X0.525001X0.525001X-0.525001X0.525001X0*%
%TD*%
%TA.AperFunction,ComponentPad*%
%ADD20C,1.550000*%
%TD*%
%TA.AperFunction,ComponentPad*%
%ADD21RoundRect,0.249999X0.525001X0.525001X-0.525001X0.525001X-0.525001X-0.525001X0.525001X-0.525001X0*%
%TD*%
%TA.AperFunction,ComponentPad*%
%ADD22C,2.000000*%
%TD*%
%TA.AperFunction,ComponentPad*%
%ADD23C,1.400000*%
%TD*%
%TA.AperFunction,ComponentPad*%
%ADD24O,1.400000X1.400000*%
%TD*%
%TA.AperFunction,Conductor*%
%ADD25C,0.250000*%
%TD*%
%TA.AperFunction,Conductor*%
%ADD26C,1.000000*%
%TD*%
%TA.AperFunction,Conductor*%
%ADD27C,0.750000*%
%TD*%
G04 APERTURE END LIST*
D10*
X80524100Y-48475900D02*
X76079100Y-48475900D01*
X80524100Y-54444900D02*
X80524100Y-48475900D01*
X78796900Y-49999900D02*
X78796900Y-49441100D01*
X78415900Y-49974500D02*
X78415900Y-48856900D01*
X80270100Y-54190900D02*
X76358500Y-54190900D01*
X77958700Y-48831500D02*
X76409300Y-49974500D01*
X76358500Y-50304618D02*
X80270100Y-50304618D01*
X76079100Y-48475900D02*
X76079100Y-54444900D01*
X80244700Y-49999900D02*
X78796900Y-49999900D01*
X77958700Y-49974500D02*
X77958700Y-48831500D01*
X76079100Y-54444900D02*
X80524100Y-54444900D01*
X77679300Y-50304700D02*
X77679300Y-53200300D01*
X80244700Y-49441100D02*
X80244700Y-48856900D01*
X80244700Y-48856900D02*
X78796900Y-48856900D01*
X78796900Y-49441100D02*
X80244700Y-49441100D01*
X80270100Y-54190900D02*
X80270100Y-50304618D01*
X77679300Y-53200300D02*
X80244700Y-53200300D01*
X76409300Y-49974500D02*
X76409300Y-48831500D01*
X76358500Y-54190900D02*
X76358500Y-50304618D01*
X76358483Y-50304618D02*
G75*
G03*
X80270100Y-54190900I3911617J25418D01*
G01*
D11*
D12*
X150916585Y-41551800D02*
X151345157Y-41408942D01*
X151345157Y-41408942D02*
X152059442Y-41408942D01*
X152059442Y-41408942D02*
X152345157Y-41551800D01*
X152345157Y-41551800D02*
X152488014Y-41694657D01*
X152488014Y-41694657D02*
X152630871Y-41980371D01*
X152630871Y-41980371D02*
X152630871Y-42266085D01*
X152630871Y-42266085D02*
X152488014Y-42551800D01*
X152488014Y-42551800D02*
X152345157Y-42694657D01*
X152345157Y-42694657D02*
X152059442Y-42837514D01*
X152059442Y-42837514D02*
X151488014Y-42980371D01*
X151488014Y-42980371D02*
X151202299Y-43123228D01*
X151202299Y-43123228D02*
X151059442Y-43266085D01*
X151059442Y-43266085D02*
X150916585Y-43551800D01*
X150916585Y-43551800D02*
X150916585Y-43837514D01*
X150916585Y-43837514D02*
X151059442Y-44123228D01*
X151059442Y-44123228D02*
X151202299Y-44266085D01*
X151202299Y-44266085D02*
X151488014Y-44408942D01*
X151488014Y-44408942D02*
X152202299Y-44408942D01*
X152202299Y-44408942D02*
X152630871Y-44266085D01*
X154488014Y-44408942D02*
X155059442Y-44408942D01*
X155059442Y-44408942D02*
X155345157Y-44266085D01*
X155345157Y-44266085D02*
X155630871Y-43980371D01*
X155630871Y-43980371D02*
X155773728Y-43408942D01*
X155773728Y-43408942D02*
X155773728Y-42408942D01*
X155773728Y-42408942D02*
X155630871Y-41837514D01*
X155630871Y-41837514D02*
X155345157Y-41551800D01*
X155345157Y-41551800D02*
X155059442Y-41408942D01*
X155059442Y-41408942D02*
X154488014Y-41408942D01*
X154488014Y-41408942D02*
X154202300Y-41551800D01*
X154202300Y-41551800D02*
X153916585Y-41837514D01*
X153916585Y-41837514D02*
X153773728Y-42408942D01*
X153773728Y-42408942D02*
X153773728Y-43408942D01*
X153773728Y-43408942D02*
X153916585Y-43980371D01*
X153916585Y-43980371D02*
X154202300Y-44266085D01*
X154202300Y-44266085D02*
X154488014Y-44408942D01*
X158488014Y-41408942D02*
X157059442Y-41408942D01*
X157059442Y-41408942D02*
X157059442Y-44408942D01*
X159488013Y-41408942D02*
X159488013Y-44408942D01*
X159488013Y-44408942D02*
X160202299Y-44408942D01*
X160202299Y-44408942D02*
X160630870Y-44266085D01*
X160630870Y-44266085D02*
X160916585Y-43980371D01*
X160916585Y-43980371D02*
X161059442Y-43694657D01*
X161059442Y-43694657D02*
X161202299Y-43123228D01*
X161202299Y-43123228D02*
X161202299Y-42694657D01*
X161202299Y-42694657D02*
X161059442Y-42123228D01*
X161059442Y-42123228D02*
X160916585Y-41837514D01*
X160916585Y-41837514D02*
X160630870Y-41551800D01*
X160630870Y-41551800D02*
X160202299Y-41408942D01*
X160202299Y-41408942D02*
X159488013Y-41408942D01*
D13*
%TO.P,P8,1,Pin_1*%
%TO.N,/POWER_GOOD*%
X79343000Y-46355000D03*
D14*
%TO.P,P8,2,Pin_2*%
%TO.N,+5V*%
X83305400Y-46355000D03*
%TO.P,P8,3,Pin_3*%
%TO.N,+12V*%
X87267800Y-46355000D03*
%TO.P,P8,4,Pin_4*%
%TO.N,-12V*%
X91230200Y-46355000D03*
%TO.P,P8,5,Pin_5*%
%TO.N,GND*%
X95192600Y-46355000D03*
%TO.P,P8,6,Pin_6*%
X99155000Y-46355000D03*
%TD*%
D13*
%TO.P,P9,1,Pin_1*%
%TO.N,GND*%
X102965000Y-46355000D03*
D14*
%TO.P,P9,2,Pin_2*%
X106927400Y-46355000D03*
%TO.P,P9,3,Pin_3*%
%TO.N,-5V*%
X110889800Y-46355000D03*
%TO.P,P9,4,Pin_4*%
%TO.N,+5V*%
X114852200Y-46355000D03*
%TO.P,P9,5,Pin_5*%
X118814600Y-46355000D03*
%TO.P,P9,6,Pin_6*%
X122777000Y-46355000D03*
%TD*%
D15*
%TO.P,RN3,1,common*%
%TO.N,+5V*%
X78200000Y-141605000D03*
D16*
%TO.P,RN3,2,R1*%
%TO.N,/D2*%
X78200000Y-139065000D03*
%TO.P,RN3,3,R2*%
%TO.N,/D1*%
X78200000Y-136525000D03*
%TO.P,RN3,4,R3*%
%TO.N,/D0*%
X78200000Y-133985000D03*
%TO.P,RN3,5,R4*%
%TO.N,/AS*%
X78200000Y-131445000D03*
%TO.P,RN3,6,R5*%
%TO.N,/DS*%
X78200000Y-128905000D03*
%TO.P,RN3,7,R6*%
%TO.N,/RW*%
X78200000Y-126365000D03*
%TO.P,RN3,8,R7*%
%TO.N,/DTACK*%
X78200000Y-123825000D03*
%TO.P,RN3,9,R8*%
%TO.N,/CLKCPU*%
X78200000Y-121285000D03*
%TD*%
D17*
%TO.P,J6,1,Pin_1*%
%TO.N,+9V*%
X140430000Y-47625000D03*
%TD*%
D15*
%TO.P,C8,1*%
%TO.N,+9V*%
X145510000Y-62865000D03*
D18*
%TO.P,C8,2*%
%TO.N,GND*%
X145510000Y-65365000D03*
%TD*%
D15*
%TO.P,RN4,1,common*%
%TO.N,+5V*%
X159480000Y-64135000D03*
D16*
%TO.P,RN4,2,R1*%
%TO.N,/EXTINT*%
X159480000Y-66675000D03*
%TO.P,RN4,3,R2*%
%TO.N,/IPL1*%
X159480000Y-69215000D03*
%TO.P,RN4,4,R3*%
%TO.N,/BERR*%
X159480000Y-71755000D03*
%TO.P,RN4,5,R4*%
%TO.N,/DBG*%
X159480000Y-74295000D03*
%TO.P,RN4,6,R5*%
%TO.N,/A3*%
X159480000Y-76835000D03*
%TO.P,RN4,7,R6*%
%TO.N,/A4*%
X159480000Y-79375000D03*
%TO.P,RN4,8,R7*%
%TO.N,/A5*%
X159480000Y-81915000D03*
%TO.P,RN4,9,R8*%
%TO.N,/A6*%
X159480000Y-84455000D03*
%TD*%
D18*
%TO.P,C10,1*%
%TO.N,GND*%
X78200000Y-118070000D03*
%TO.P,C10,2*%
%TO.N,+5V*%
X78200000Y-115570000D03*
%TD*%
D17*
%TO.P,J8,1,Pin_1*%
%TO.N,unconnected-(J8-Pin_1-Pad1)*%
X135350000Y-47625000D03*
%TD*%
D19*
%TO.P,J1,a1,Vin*%
%TO.N,+9V*%
X83280000Y-62865000D03*
D20*
%TO.P,J1,a2,-12V*%
%TO.N,-12V*%
X83280000Y-65405000D03*
%TO.P,J1,a3,+12V*%
%TO.N,+12V*%
X83280000Y-67945000D03*
%TO.P,J1,a4,SP0*%
%TO.N,/SP0*%
X83280000Y-70485000D03*
%TO.P,J1,a5,SP1*%
%TO.N,/SP1*%
X83280000Y-73025000D03*
%TO.P,J1,a6,~{DSMC}*%
%TO.N,/DSMC*%
X83280000Y-75565000D03*
%TO.P,J1,a7,SP2*%
%TO.N,/SP2*%
X83280000Y-78105000D03*
%TO.P,J1,a8,~{DBG}*%
%TO.N,/DBG*%
X83280000Y-80645000D03*
%TO.P,J1,a9,A3*%
%TO.N,/A3*%
X83280000Y-83185000D03*
%TO.P,J1,a10,A4*%
%TO.N,/A4*%
X83280000Y-85725000D03*
%TO.P,J1,a11,A5*%
%TO.N,/A5*%
X83280000Y-88265000D03*
%TO.P,J1,a12,A6*%
%TO.N,/A6*%
X83280000Y-90805000D03*
%TO.P,J1,a13,A7*%
%TO.N,/A7*%
X83280000Y-93345000D03*
%TO.P,J1,a14,A8*%
%TO.N,/A8*%
X83280000Y-95885000D03*
%TO.P,J1,a15,A9*%
%TO.N,/A9*%
X83280000Y-98425000D03*
%TO.P,J1,a16,A10*%
%TO.N,/A10*%
X83280000Y-100965000D03*
%TO.P,J1,a17,A11*%
%TO.N,/A11*%
X83280000Y-103505000D03*
%TO.P,J1,a18,A12*%
%TO.N,/A12*%
X83280000Y-106045000D03*
%TO.P,J1,a19,A13*%
%TO.N,/A13*%
X83280000Y-108585000D03*
%TO.P,J1,a20,A14*%
%TO.N,/A14*%
X83280000Y-111125000D03*
%TO.P,J1,a21,RED*%
%TO.N,/RED*%
X83280000Y-113665000D03*
%TO.P,J1,a22,CLKCPU*%
%TO.N,/CLKCPU*%
X83280000Y-116205000D03*
%TO.P,J1,a23,A16*%
%TO.N,/A16*%
X83280000Y-118745000D03*
%TO.P,J1,a24,A17*%
%TO.N,/A17*%
X83280000Y-121285000D03*
%TO.P,J1,a25,A18*%
%TO.N,/A18*%
X83280000Y-123825000D03*
%TO.P,J1,a26,A19*%
%TO.N,/A19*%
X83280000Y-126365000D03*
%TO.P,J1,a27,D7*%
%TO.N,/D7*%
X83280000Y-128905000D03*
%TO.P,J1,a28,D6*%
%TO.N,/D6*%
X83280000Y-131445000D03*
%TO.P,J1,a29,D5*%
%TO.N,/D5*%
X83280000Y-133985000D03*
%TO.P,J1,a30,D4*%
%TO.N,/D4*%
X83280000Y-136525000D03*
%TO.P,J1,a31,D3*%
%TO.N,/D3*%
X83280000Y-139065000D03*
%TO.P,J1,a32,GND*%
%TO.N,GND*%
X83280000Y-141605000D03*
%TO.P,J1,b1,Vin*%
%TO.N,+9V*%
X85820000Y-62865000D03*
%TO.P,J1,b2,Vin*%
X85820000Y-65405000D03*
%TO.P,J1,b3,~{EXTINT}*%
%TO.N,/EXTINT*%
X85820000Y-67945000D03*
%TO.P,J1,b4,~{IPL1}*%
%TO.N,/IPL1*%
X85820000Y-70485000D03*
%TO.P,J1,b5,~{BERR}*%
%TO.N,/BERR*%
X85820000Y-73025000D03*
%TO.P,J1,b6,~{IPLO}*%
%TO.N,/IPL0*%
X85820000Y-75565000D03*
%TO.P,J1,b7,SP3*%
%TO.N,/SP3*%
X85820000Y-78105000D03*
%TO.P,J1,b8,A2*%
%TO.N,/A2*%
X85820000Y-80645000D03*
%TO.P,J1,b9,G9*%
%TO.N,/A1*%
X85820000Y-83185000D03*
%TO.P,J1,b10,ROMOEH*%
%TO.N,/ROMOE*%
X85820000Y-85725000D03*
%TO.P,J1,b11,A0*%
%TO.N,/A0*%
X85820000Y-88265000D03*
%TO.P,J1,b12,FC0*%
%TO.N,/FC0*%
X85820000Y-90805000D03*
%TO.P,J1,b13,FC1*%
%TO.N,/FC1*%
X85820000Y-93345000D03*
%TO.P,J1,b14,FC2*%
%TO.N,/FC2*%
X85820000Y-95885000D03*
%TO.P,J1,b15,BLUE*%
%TO.N,/BLUE*%
X85820000Y-98425000D03*
%TO.P,J1,b16,GREEN*%
%TO.N,/GREEN*%
X85820000Y-100965000D03*
%TO.P,J1,b17,~{VPA}*%
%TO.N,/VPA*%
X85820000Y-103505000D03*
%TO.P,J1,b18,VSYNCH*%
%TO.N,/VSYNC*%
X85820000Y-106045000D03*
%TO.P,J1,b19,E*%
%TO.N,/E*%
X85820000Y-108585000D03*
%TO.P,J1,b20,~{CSYNC}*%
%TO.N,/CSYNC*%
X85820000Y-111125000D03*
%TO.P,J1,b21,~{RESETCPU}*%
%TO.N,/RESET*%
X85820000Y-113665000D03*
%TO.P,J1,b22,A15*%
%TO.N,/A15*%
X85820000Y-116205000D03*
%TO.P,J1,b23,~{BR}*%
%TO.N,/BR*%
X85820000Y-118745000D03*
%TO.P,J1,b24,~{BG}*%
%TO.N,/BG*%
X85820000Y-121285000D03*
%TO.P,J1,b25,~{DTACK}*%
%TO.N,/DTACK*%
X85820000Y-123825000D03*
%TO.P,J1,b26,~{DRW}*%
%TO.N,/RW*%
X85820000Y-126365000D03*
%TO.P,J1,b27,~{DS}*%
%TO.N,/DS*%
X85820000Y-128905000D03*
%TO.P,J1,b28,~{AS}*%
%TO.N,/AS*%
X85820000Y-131445000D03*
%TO.P,J1,b29,D0*%
%TO.N,/D0*%
X85820000Y-133985000D03*
%TO.P,J1,b30,D1*%
%TO.N,/D1*%
X85820000Y-136525000D03*
%TO.P,J1,b31,D2*%
%TO.N,/D2*%
X85820000Y-139065000D03*
%TO.P,J1,b32,GND*%
%TO.N,GND*%
X85820000Y-141605000D03*
%TD*%
D17*
%TO.P,J5,1,Pin_1*%
%TO.N,+5V*%
X129000000Y-47625000D03*
%TD*%
D18*
%TO.P,C7,1*%
%TO.N,+5V*%
X159480000Y-142240000D03*
%TO.P,C7,2*%
%TO.N,GND*%
X159480000Y-144740000D03*
%TD*%
%TO.P,C9,1*%
%TO.N,GND*%
X78200000Y-62885000D03*
%TO.P,C9,2*%
%TO.N,+5V*%
X78200000Y-65385000D03*
%TD*%
D21*
%TO.P,J4,a1,Vin*%
%TO.N,GND*%
X154400000Y-141554200D03*
D20*
%TO.P,J4,a2,-12V*%
%TO.N,/D3*%
X154400000Y-139014200D03*
%TO.P,J4,a3,+12V*%
%TO.N,/D4*%
X154400000Y-136474200D03*
%TO.P,J4,a4,SP0*%
%TO.N,/D5*%
X154400000Y-133934200D03*
%TO.P,J4,a5,SP1*%
%TO.N,/D6*%
X154400000Y-131394200D03*
%TO.P,J4,a6,~{DSMC}*%
%TO.N,/D7*%
X154400000Y-128854200D03*
%TO.P,J4,a7,SP2*%
%TO.N,/A19*%
X154400000Y-126314200D03*
%TO.P,J4,a8,~{DBG}*%
%TO.N,/A18*%
X154400000Y-123774200D03*
%TO.P,J4,a9,A3*%
%TO.N,/A17*%
X154400000Y-121234200D03*
%TO.P,J4,a10,A4*%
%TO.N,/A16*%
X154400000Y-118694200D03*
%TO.P,J4,a11,A5*%
%TO.N,/CLKCPU*%
X154400000Y-116154200D03*
%TO.P,J4,a12,A6*%
%TO.N,/RED*%
X154400000Y-113614200D03*
%TO.P,J4,a13,A7*%
%TO.N,/A14*%
X154400000Y-111074200D03*
%TO.P,J4,a14,A8*%
%TO.N,/A13*%
X154400000Y-108534200D03*
%TO.P,J4,a15,A9*%
%TO.N,/A12*%
X154400000Y-105994200D03*
%TO.P,J4,a16,A10*%
%TO.N,/A11*%
X154400000Y-103454200D03*
%TO.P,J4,a17,A11*%
%TO.N,/A10*%
X154400000Y-100914200D03*
%TO.P,J4,a18,A12*%
%TO.N,/A9*%
X154400000Y-98374200D03*
%TO.P,J4,a19,A13*%
%TO.N,/A8*%
X154400000Y-95834200D03*
%TO.P,J4,a20,A14*%
%TO.N,/A7*%
X154400000Y-93294200D03*
%TO.P,J4,a21,RED*%
%TO.N,/A6*%
X154400000Y-90754200D03*
%TO.P,J4,a22,CLKCPU*%
%TO.N,/A5*%
X154400000Y-88214200D03*
%TO.P,J4,a23,A16*%
%TO.N,/A4*%
X154400000Y-85674200D03*
%TO.P,J4,a24,A17*%
%TO.N,/A3*%
X154400000Y-83134200D03*
%TO.P,J4,a25,A18*%
%TO.N,/DBG*%
X154400000Y-80594200D03*
%TO.P,J4,a26,A19*%
%TO.N,/SP2*%
X154400000Y-78054200D03*
%TO.P,J4,a27,D7*%
%TO.N,/DSMC*%
X154400000Y-75514200D03*
%TO.P,J4,a28,D6*%
%TO.N,/SP1*%
X154400000Y-72974200D03*
%TO.P,J4,a29,D5*%
%TO.N,/SP0*%
X154400000Y-70434200D03*
%TO.P,J4,a30,D4*%
%TO.N,+12V*%
X154400000Y-67894200D03*
%TO.P,J4,a31,D3*%
%TO.N,-12V*%
X154400000Y-65354200D03*
%TO.P,J4,a32,GND*%
%TO.N,+9V*%
X154400000Y-62814200D03*
%TO.P,J4,b1,Vin*%
%TO.N,GND*%
X151860000Y-141554200D03*
%TO.P,J4,b2,Vin*%
%TO.N,/D2*%
X151860000Y-139014200D03*
%TO.P,J4,b3,~{EXTINT}*%
%TO.N,/D1*%
X151860000Y-136474200D03*
%TO.P,J4,b4,~{IPL1}*%
%TO.N,/D0*%
X151860000Y-133934200D03*
%TO.P,J4,b5,~{BERR}*%
%TO.N,/AS*%
X151860000Y-131394200D03*
%TO.P,J4,b6,~{IPLO}*%
%TO.N,/DS*%
X151860000Y-128854200D03*
%TO.P,J4,b7,SP3*%
%TO.N,/RW*%
X151860000Y-126314200D03*
%TO.P,J4,b8,A2*%
%TO.N,/DTACK*%
X151860000Y-123774200D03*
%TO.P,J4,b9,G9*%
%TO.N,/BG*%
X151860000Y-121234200D03*
%TO.P,J4,b10,ROMOEH*%
%TO.N,/BR*%
X151860000Y-118694200D03*
%TO.P,J4,b11,A0*%
%TO.N,/A15*%
X151860000Y-116154200D03*
%TO.P,J4,b12,FC0*%
%TO.N,/RESET*%
X151860000Y-113614200D03*
%TO.P,J4,b13,FC1*%
%TO.N,/CSYNC*%
X151860000Y-111074200D03*
%TO.P,J4,b14,FC2*%
%TO.N,/E*%
X151860000Y-108534200D03*
%TO.P,J4,b15,BLUE*%
%TO.N,/VSYNC*%
X151860000Y-105994200D03*
%TO.P,J4,b16,GREEN*%
%TO.N,/VPA*%
X151860000Y-103454200D03*
%TO.P,J4,b17,~{VPA}*%
%TO.N,/GREEN*%
X151860000Y-100914200D03*
%TO.P,J4,b18,VSYNCH*%
%TO.N,/BLUE*%
X151860000Y-98374200D03*
%TO.P,J4,b19,E*%
%TO.N,/FC2*%
X151860000Y-95834200D03*
%TO.P,J4,b20,~{CSYNC}*%
%TO.N,/FC1*%
X151860000Y-93294200D03*
%TO.P,J4,b21,~{RESETCPU}*%
%TO.N,/FC0*%
X151860000Y-90754200D03*
%TO.P,J4,b22,A15*%
%TO.N,/A0*%
X151860000Y-88214200D03*
%TO.P,J4,b23,~{BR}*%
%TO.N,/ROMOE*%
X151860000Y-85674200D03*
%TO.P,J4,b24,~{BG}*%
%TO.N,/A1*%
X151860000Y-83134200D03*
%TO.P,J4,b25,~{DTACK}*%
%TO.N,/A2*%
X151860000Y-80594200D03*
%TO.P,J4,b26,~{DRW}*%
%TO.N,/SP3*%
X151860000Y-78054200D03*
%TO.P,J4,b27,~{DS}*%
%TO.N,/IPL0*%
X151860000Y-75514200D03*
%TO.P,J4,b28,~{AS}*%
%TO.N,/BERR*%
X151860000Y-72974200D03*
%TO.P,J4,b29,D0*%
%TO.N,/IPL1*%
X151860000Y-70434200D03*
%TO.P,J4,b30,D1*%
%TO.N,/EXTINT*%
X151860000Y-67894200D03*
%TO.P,J4,b31,D2*%
%TO.N,+9V*%
X151860000Y-65354200D03*
%TO.P,J4,b32,GND*%
X151860000Y-62814200D03*
%TD*%
D15*
%TO.P,RN2,1,common*%
%TO.N,+5V*%
X78200000Y-112395000D03*
D16*
%TO.P,RN2,2,R1*%
%TO.N,/A15*%
X78200000Y-109855000D03*
%TO.P,RN2,3,R2*%
%TO.N,/RED*%
X78200000Y-107315000D03*
%TO.P,RN2,4,R3*%
%TO.N,/RESET*%
X78200000Y-104775000D03*
%TO.P,RN2,5,R4*%
%TO.N,/CSYNC*%
X78200000Y-102235000D03*
%TO.P,RN2,6,R5*%
%TO.N,/VSYNC*%
X78200000Y-99695000D03*
%TO.P,RN2,7,R6*%
%TO.N,/VPA*%
X78200000Y-97155000D03*
%TO.P,RN2,8,R7*%
%TO.N,/GREEN*%
X78200000Y-94615000D03*
%TO.P,RN2,9,R8*%
%TO.N,/BLUE*%
X78200000Y-92075000D03*
%TD*%
D15*
%TO.P,RN1,1,common*%
%TO.N,+5V*%
X78200000Y-68580000D03*
D16*
%TO.P,RN1,2,R1*%
%TO.N,/IPL0*%
X78200000Y-71120000D03*
%TO.P,RN1,3,R2*%
%TO.N,/A2*%
X78200000Y-73660000D03*
%TO.P,RN1,4,R3*%
%TO.N,/A1*%
X78200000Y-76200000D03*
%TO.P,RN1,5,R4*%
%TO.N,/A0*%
X78200000Y-78740000D03*
%TO.P,RN1,6,R5*%
%TO.N,/FC0*%
X78200000Y-81280000D03*
%TO.P,RN1,7,R6*%
%TO.N,/FC1*%
X78200000Y-83820000D03*
%TO.P,RN1,8,R7*%
%TO.N,/A7*%
X78200000Y-86360000D03*
%TO.P,RN1,9,R8*%
%TO.N,/FC2*%
X78200000Y-88900000D03*
%TD*%
D19*
%TO.P,J3,a1,Vin*%
%TO.N,+9V*%
X123920000Y-62865000D03*
D20*
%TO.P,J3,a2,-12V*%
%TO.N,-12V*%
X123920000Y-65405000D03*
%TO.P,J3,a3,+12V*%
%TO.N,+12V*%
X123920000Y-67945000D03*
%TO.P,J3,a4,SP0*%
%TO.N,/SP0*%
X123920000Y-70485000D03*
%TO.P,J3,a5,SP1*%
%TO.N,/SP1*%
X123920000Y-73025000D03*
%TO.P,J3,a6,~{DSMC}*%
%TO.N,/DSMC*%
X123920000Y-75565000D03*
%TO.P,J3,a7,SP2*%
%TO.N,/SP2*%
X123920000Y-78105000D03*
%TO.P,J3,a8,~{DBG}*%
%TO.N,/DBG*%
X123920000Y-80645000D03*
%TO.P,J3,a9,A3*%
%TO.N,/A3*%
X123920000Y-83185000D03*
%TO.P,J3,a10,A4*%
%TO.N,/A4*%
X123920000Y-85725000D03*
%TO.P,J3,a11,A5*%
%TO.N,/A5*%
X123920000Y-88265000D03*
%TO.P,J3,a12,A6*%
%TO.N,/A6*%
X123920000Y-90805000D03*
%TO.P,J3,a13,A7*%
%TO.N,/A7*%
X123920000Y-93345000D03*
%TO.P,J3,a14,A8*%
%TO.N,/A8*%
X123920000Y-95885000D03*
%TO.P,J3,a15,A9*%
%TO.N,/A9*%
X123920000Y-98425000D03*
%TO.P,J3,a16,A10*%
%TO.N,/A10*%
X123920000Y-100965000D03*
%TO.P,J3,a17,A11*%
%TO.N,/A11*%
X123920000Y-103505000D03*
%TO.P,J3,a18,A12*%
%TO.N,/A12*%
X123920000Y-106045000D03*
%TO.P,J3,a19,A13*%
%TO.N,/A13*%
X123920000Y-108585000D03*
%TO.P,J3,a20,A14*%
%TO.N,/A14*%
X123920000Y-111125000D03*
%TO.P,J3,a21,RED*%
%TO.N,/RED*%
X123920000Y-113665000D03*
%TO.P,J3,a22,CLKCPU*%
%TO.N,/CLKCPU*%
X123920000Y-116205000D03*
%TO.P,J3,a23,A16*%
%TO.N,/A16*%
X123920000Y-118745000D03*
%TO.P,J3,a24,A17*%
%TO.N,/A17*%
X123920000Y-121285000D03*
%TO.P,J3,a25,A18*%
%TO.N,/A18*%
X123920000Y-123825000D03*
%TO.P,J3,a26,A19*%
%TO.N,/A19*%
X123920000Y-126365000D03*
%TO.P,J3,a27,D7*%
%TO.N,/D7*%
X123920000Y-128905000D03*
%TO.P,J3,a28,D6*%
%TO.N,/D6*%
X123920000Y-131445000D03*
%TO.P,J3,a29,D5*%
%TO.N,/D5*%
X123920000Y-133985000D03*
%TO.P,J3,a30,D4*%
%TO.N,/D4*%
X123920000Y-136525000D03*
%TO.P,J3,a31,D3*%
%TO.N,/D3*%
X123920000Y-139065000D03*
%TO.P,J3,a32,GND*%
%TO.N,GND*%
X123920000Y-141605000D03*
%TO.P,J3,b1,Vin*%
%TO.N,+9V*%
X126460000Y-62865000D03*
%TO.P,J3,b2,Vin*%
X126460000Y-65405000D03*
%TO.P,J3,b3,~{EXTINT}*%
%TO.N,/EXTINT*%
X126460000Y-67945000D03*
%TO.P,J3,b4,~{IPL1}*%
%TO.N,/IPL1*%
X126460000Y-70485000D03*
%TO.P,J3,b5,~{BERR}*%
%TO.N,/BERR*%
X126460000Y-73025000D03*
%TO.P,J3,b6,~{IPLO}*%
%TO.N,/IPL0*%
X126460000Y-75565000D03*
%TO.P,J3,b7,SP3*%
%TO.N,/SP3*%
X126460000Y-78105000D03*
%TO.P,J3,b8,A2*%
%TO.N,/A2*%
X126460000Y-80645000D03*
%TO.P,J3,b9,G9*%
%TO.N,/A1*%
X126460000Y-83185000D03*
%TO.P,J3,b10,ROMOEH*%
%TO.N,/ROMOE*%
X126460000Y-85725000D03*
%TO.P,J3,b11,A0*%
%TO.N,/A0*%
X126460000Y-88265000D03*
%TO.P,J3,b12,FC0*%
%TO.N,/FC0*%
X126460000Y-90805000D03*
%TO.P,J3,b13,FC1*%
%TO.N,/FC1*%
X126460000Y-93345000D03*
%TO.P,J3,b14,FC2*%
%TO.N,/FC2*%
X126460000Y-95885000D03*
%TO.P,J3,b15,BLUE*%
%TO.N,/BLUE*%
X126460000Y-98425000D03*
%TO.P,J3,b16,GREEN*%
%TO.N,/GREEN*%
X126460000Y-100965000D03*
%TO.P,J3,b17,~{VPA}*%
%TO.N,/VPA*%
X126460000Y-103505000D03*
%TO.P,J3,b18,VSYNCH*%
%TO.N,/VSYNC*%
X126460000Y-106045000D03*
%TO.P,J3,b19,E*%
%TO.N,/E*%
X126460000Y-108585000D03*
%TO.P,J3,b20,~{CSYNC}*%
%TO.N,/CSYNC*%
X126460000Y-111125000D03*
%TO.P,J3,b21,~{RESETCPU}*%
%TO.N,/RESET*%
X126460000Y-113665000D03*
%TO.P,J3,b22,A15*%
%TO.N,/A15*%
X126460000Y-116205000D03*
%TO.P,J3,b23,~{BR}*%
%TO.N,/BR*%
X126460000Y-118745000D03*
%TO.P,J3,b24,~{BG}*%
%TO.N,/BG*%
X126460000Y-121285000D03*
%TO.P,J3,b25,~{DTACK}*%
%TO.N,/DTACK*%
X126460000Y-123825000D03*
%TO.P,J3,b26,~{DRW}*%
%TO.N,/RW*%
X126460000Y-126365000D03*
%TO.P,J3,b27,~{DS}*%
%TO.N,/DS*%
X126460000Y-128905000D03*
%TO.P,J3,b28,~{AS}*%
%TO.N,/AS*%
X126460000Y-131445000D03*
%TO.P,J3,b29,D0*%
%TO.N,/D0*%
X126460000Y-133985000D03*
%TO.P,J3,b30,D1*%
%TO.N,/D1*%
X126460000Y-136525000D03*
%TO.P,J3,b31,D2*%
%TO.N,/D2*%
X126460000Y-139065000D03*
%TO.P,J3,b32,GND*%
%TO.N,GND*%
X126460000Y-141605000D03*
%TD*%
D15*
%TO.P,C3,1*%
%TO.N,+9V*%
X95980000Y-62865000D03*
D18*
%TO.P,C3,2*%
%TO.N,GND*%
X95980000Y-65365000D03*
%TD*%
D22*
%TO.P,J10,1,Pin_1*%
%TO.N,GND*%
X99790000Y-49530000D03*
%TD*%
D15*
%TO.P,RN6,1,common*%
%TO.N,+5V*%
X159480000Y-139065000D03*
D16*
%TO.P,RN6,2,R1*%
%TO.N,/D3*%
X159480000Y-136525000D03*
%TO.P,RN6,3,R2*%
%TO.N,/D4*%
X159480000Y-133985000D03*
%TO.P,RN6,4,R3*%
%TO.N,/D5*%
X159480000Y-131445000D03*
%TO.P,RN6,5,R4*%
%TO.N,/D6*%
X159480000Y-128905000D03*
%TO.P,RN6,6,R5*%
%TO.N,/D7*%
X159480000Y-126365000D03*
%TO.P,RN6,7,R6*%
%TO.N,/A19*%
X159480000Y-123825000D03*
%TO.P,RN6,8,R7*%
%TO.N,/A18*%
X159480000Y-121285000D03*
%TO.P,RN6,9,R8*%
%TO.N,/A17*%
X159480000Y-118745000D03*
%TD*%
D18*
%TO.P,C11,1*%
%TO.N,+5V*%
X78200000Y-144780000D03*
%TO.P,C11,2*%
%TO.N,GND*%
X78200000Y-147280000D03*
%TD*%
D23*
%TO.P,R1,1*%
%TO.N,/DSMC*%
X112490000Y-76835000D03*
D24*
%TO.P,R1,2*%
%TO.N,GND*%
X112490000Y-65659000D03*
%TD*%
D15*
%TO.P,RN5,1,common*%
%TO.N,+5V*%
X159480000Y-94615000D03*
D16*
%TO.P,RN5,2,R1*%
%TO.N,/A8*%
X159480000Y-97155000D03*
%TO.P,RN5,3,R2*%
%TO.N,/A9*%
X159480000Y-99695000D03*
%TO.P,RN5,4,R3*%
%TO.N,/A10*%
X159480000Y-102235000D03*
%TO.P,RN5,5,R4*%
%TO.N,/A11*%
X159480000Y-104775000D03*
%TO.P,RN5,6,R5*%
%TO.N,/A12*%
X159480000Y-107315000D03*
%TO.P,RN5,7,R6*%
%TO.N,/A13*%
X159480000Y-109855000D03*
%TO.P,RN5,8,R7*%
%TO.N,/A14*%
X159480000Y-112395000D03*
%TO.P,RN5,9,R8*%
%TO.N,/A16*%
X159480000Y-114935000D03*
%TD*%
D22*
%TO.P,J11,1,Pin_1*%
%TO.N,GND*%
X102330000Y-49530000D03*
%TD*%
%TO.P,J9,1,Pin_1*%
%TO.N,GND*%
X97250000Y-49530000D03*
%TD*%
D15*
%TO.P,C4,1*%
%TO.N,+9V*%
X117570000Y-62865000D03*
D18*
%TO.P,C4,2*%
%TO.N,GND*%
X117570000Y-65365000D03*
%TD*%
D19*
%TO.P,J2,a1,Vin*%
%TO.N,+9V*%
X103600000Y-62865000D03*
D20*
%TO.P,J2,a2,-12V*%
%TO.N,-12V*%
X103600000Y-65405000D03*
%TO.P,J2,a3,+12V*%
%TO.N,+12V*%
X103600000Y-67945000D03*
%TO.P,J2,a4,SP0*%
%TO.N,/SP0*%
X103600000Y-70485000D03*
%TO.P,J2,a5,SP1*%
%TO.N,/SP1*%
X103600000Y-73025000D03*
%TO.P,J2,a6,~{DSMC}*%
%TO.N,/DSMC*%
X103600000Y-75565000D03*
%TO.P,J2,a7,SP2*%
%TO.N,/SP2*%
X103600000Y-78105000D03*
%TO.P,J2,a8,~{DBG}*%
%TO.N,/DBG*%
X103600000Y-80645000D03*
%TO.P,J2,a9,A3*%
%TO.N,/A3*%
X103600000Y-83185000D03*
%TO.P,J2,a10,A4*%
%TO.N,/A4*%
X103600000Y-85725000D03*
%TO.P,J2,a11,A5*%
%TO.N,/A5*%
X103600000Y-88265000D03*
%TO.P,J2,a12,A6*%
%TO.N,/A6*%
X103600000Y-90805000D03*
%TO.P,J2,a13,A7*%
%TO.N,/A7*%
X103600000Y-93345000D03*
%TO.P,J2,a14,A8*%
%TO.N,/A8*%
X103600000Y-95885000D03*
%TO.P,J2,a15,A9*%
%TO.N,/A9*%
X103600000Y-98425000D03*
%TO.P,J2,a16,A10*%
%TO.N,/A10*%
X103600000Y-100965000D03*
%TO.P,J2,a17,A11*%
%TO.N,/A11*%
X103600000Y-103505000D03*
%TO.P,J2,a18,A12*%
%TO.N,/A12*%
X103600000Y-106045000D03*
%TO.P,J2,a19,A13*%
%TO.N,/A13*%
X103600000Y-108585000D03*
%TO.P,J2,a20,A14*%
%TO.N,/A14*%
X103600000Y-111125000D03*
%TO.P,J2,a21,RED*%
%TO.N,/RED*%
X103600000Y-113665000D03*
%TO.P,J2,a22,CLKCPU*%
%TO.N,/CLKCPU*%
X103600000Y-116205000D03*
%TO.P,J2,a23,A16*%
%TO.N,/A16*%
X103600000Y-118745000D03*
%TO.P,J2,a24,A17*%
%TO.N,/A17*%
X103600000Y-121285000D03*
%TO.P,J2,a25,A18*%
%TO.N,/A18*%
X103600000Y-123825000D03*
%TO.P,J2,a26,A19*%
%TO.N,/A19*%
X103600000Y-126365000D03*
%TO.P,J2,a27,D7*%
%TO.N,/D7*%
X103600000Y-128905000D03*
%TO.P,J2,a28,D6*%
%TO.N,/D6*%
X103600000Y-131445000D03*
%TO.P,J2,a29,D5*%
%TO.N,/D5*%
X103600000Y-133985000D03*
%TO.P,J2,a30,D4*%
%TO.N,/D4*%
X103600000Y-136525000D03*
%TO.P,J2,a31,D3*%
%TO.N,/D3*%
X103600000Y-139065000D03*
%TO.P,J2,a32,GND*%
%TO.N,GND*%
X103600000Y-141605000D03*
%TO.P,J2,b1,Vin*%
%TO.N,+9V*%
X106140000Y-62865000D03*
%TO.P,J2,b2,Vin*%
X106140000Y-65405000D03*
%TO.P,J2,b3,~{EXTINT}*%
%TO.N,/EXTINT*%
X106140000Y-67945000D03*
%TO.P,J2,b4,~{IPL1}*%
%TO.N,/IPL1*%
X106140000Y-70485000D03*
%TO.P,J2,b5,~{BERR}*%
%TO.N,/BERR*%
X106140000Y-73025000D03*
%TO.P,J2,b6,~{IPLO}*%
%TO.N,/IPL0*%
X106140000Y-75565000D03*
%TO.P,J2,b7,SP3*%
%TO.N,/SP3*%
X106140000Y-78105000D03*
%TO.P,J2,b8,A2*%
%TO.N,/A2*%
X106140000Y-80645000D03*
%TO.P,J2,b9,G9*%
%TO.N,/A1*%
X106140000Y-83185000D03*
%TO.P,J2,b10,ROMOEH*%
%TO.N,/ROMOE*%
X106140000Y-85725000D03*
%TO.P,J2,b11,A0*%
%TO.N,/A0*%
X106140000Y-88265000D03*
%TO.P,J2,b12,FC0*%
%TO.N,/FC0*%
X106140000Y-90805000D03*
%TO.P,J2,b13,FC1*%
%TO.N,/FC1*%
X106140000Y-93345000D03*
%TO.P,J2,b14,FC2*%
%TO.N,/FC2*%
X106140000Y-95885000D03*
%TO.P,J2,b15,BLUE*%
%TO.N,/BLUE*%
X106140000Y-98425000D03*
%TO.P,J2,b16,GREEN*%
%TO.N,/GREEN*%
X106140000Y-100965000D03*
%TO.P,J2,b17,~{VPA}*%
%TO.N,/VPA*%
X106140000Y-103505000D03*
%TO.P,J2,b18,VSYNCH*%
%TO.N,/VSYNC*%
X106140000Y-106045000D03*
%TO.P,J2,b19,E*%
%TO.N,/E*%
X106140000Y-108585000D03*
%TO.P,J2,b20,~{CSYNC}*%
%TO.N,/CSYNC*%
X106140000Y-111125000D03*
%TO.P,J2,b21,~{RESETCPU}*%
%TO.N,/RESET*%
X106140000Y-113665000D03*
%TO.P,J2,b22,A15*%
%TO.N,/A15*%
X106140000Y-116205000D03*
%TO.P,J2,b23,~{BR}*%
%TO.N,/BR*%
X106140000Y-118745000D03*
%TO.P,J2,b24,~{BG}*%
%TO.N,/BG*%
X106140000Y-121285000D03*
%TO.P,J2,b25,~{DTACK}*%
%TO.N,/DTACK*%
X106140000Y-123825000D03*
%TO.P,J2,b26,~{DRW}*%
%TO.N,/RW*%
X106140000Y-126365000D03*
%TO.P,J2,b27,~{DS}*%
%TO.N,/DS*%
X106140000Y-128905000D03*
%TO.P,J2,b28,~{AS}*%
%TO.N,/AS*%
X106140000Y-131445000D03*
%TO.P,J2,b29,D0*%
%TO.N,/D0*%
X106140000Y-133985000D03*
%TO.P,J2,b30,D1*%
%TO.N,/D1*%
X106140000Y-136525000D03*
%TO.P,J2,b31,D2*%
%TO.N,/D2*%
X106140000Y-139065000D03*
%TO.P,J2,b32,GND*%
%TO.N,GND*%
X106140000Y-141605000D03*
%TD*%
D15*
%TO.P,C2,1*%
%TO.N,-12V*%
X134080000Y-65405000D03*
D18*
%TO.P,C2,2*%
%TO.N,GND*%
X131580000Y-65405000D03*
%TD*%
D17*
%TO.P,J7,1,Pin_1*%
%TO.N,+12V*%
X145510000Y-47625000D03*
%TD*%
D18*
%TO.P,C6,1*%
%TO.N,+5V*%
X159480000Y-90805000D03*
%TO.P,C6,2*%
%TO.N,GND*%
X159480000Y-88305000D03*
%TD*%
D15*
%TO.P,C1,1*%
%TO.N,+12V*%
X91535000Y-69215000D03*
D18*
%TO.P,C1,2*%
%TO.N,GND*%
X91535000Y-66715000D03*
%TD*%
D22*
%TO.P,J12,1,Pin_1*%
%TO.N,GND*%
X104870000Y-49530000D03*
%TD*%
D18*
%TO.P,C5,1*%
%TO.N,+5V*%
X159480000Y-60325000D03*
%TO.P,C5,2*%
%TO.N,GND*%
X159480000Y-57825000D03*
%TD*%
D25*
%TO.N,/A8*%
X154400000Y-95834200D02*
X158159200Y-95834200D01*
X158159200Y-95834200D02*
X159480000Y-97155000D01*
%TO.N,/DBG*%
X159480000Y-74295000D02*
X158210000Y-74295000D01*
X158210000Y-74295000D02*
X155670000Y-76835000D01*
X155670000Y-79375000D02*
X153130000Y-81915000D01*
X155670000Y-76835000D02*
X155670000Y-79375000D01*
X153130000Y-81915000D02*
X126181256Y-81915000D01*
X126181256Y-81915000D02*
X124911256Y-80645000D01*
X124911256Y-80645000D02*
X123920000Y-80645000D01*
%TO.N,/A6*%
X159480000Y-84455000D02*
X158210000Y-85725000D01*
X158210000Y-85725000D02*
X158210000Y-86995000D01*
X158210000Y-86995000D02*
X153130000Y-92075000D01*
X153130000Y-92075000D02*
X126181256Y-92075000D01*
X126181256Y-92075000D02*
X124911256Y-90805000D01*
X124911256Y-90805000D02*
X123920000Y-90805000D01*
%TO.N,/A5*%
X159480000Y-81915000D02*
X158210000Y-83185000D01*
X158210000Y-83985000D02*
X154400000Y-87795000D01*
X158210000Y-83185000D02*
X158210000Y-83985000D01*
X154400000Y-88265000D02*
X153130000Y-89535000D01*
X124695000Y-88265000D02*
X123920000Y-88265000D01*
X153130000Y-89535000D02*
X125965000Y-89535000D01*
X125965000Y-89535000D02*
X124695000Y-88265000D01*
%TO.N,/A4*%
X159480000Y-79375000D02*
X158210000Y-80645000D01*
X158210000Y-80645000D02*
X158210000Y-81445000D01*
X158210000Y-81445000D02*
X154400000Y-85255000D01*
X154400000Y-85725000D02*
X153130000Y-86995000D01*
X124695000Y-85725000D02*
X123920000Y-85725000D01*
X153130000Y-86995000D02*
X125965000Y-86995000D01*
X125965000Y-86995000D02*
X124695000Y-85725000D01*
%TO.N,/A3*%
X159480000Y-76835000D02*
X156940000Y-79375000D01*
X156940000Y-79375000D02*
X156940000Y-80645000D01*
X156940000Y-80645000D02*
X153130000Y-84455000D01*
X153130000Y-84455000D02*
X126181256Y-84455000D01*
X126181256Y-84455000D02*
X124911256Y-83185000D01*
X124911256Y-83185000D02*
X123920000Y-83185000D01*
%TO.N,/BERR*%
X159480000Y-71755000D02*
X156010000Y-71755000D01*
X156010000Y-71755000D02*
X155840000Y-71925000D01*
%TO.N,/IPL1*%
X159480000Y-69215000D02*
X156010000Y-69215000D01*
X156010000Y-69215000D02*
X155840000Y-69385000D01*
%TO.N,/EXTINT*%
X154121256Y-66675000D02*
X159480000Y-66675000D01*
%TO.N,/A12*%
X123920000Y-106045000D02*
X124695000Y-106045000D01*
X124695000Y-106045000D02*
X125965000Y-107315000D01*
X154400000Y-106045000D02*
X158210000Y-106045000D01*
X125965000Y-107315000D02*
X153130000Y-107315000D01*
X153130000Y-107315000D02*
X154400000Y-106045000D01*
X158210000Y-106045000D02*
X159480000Y-107315000D01*
%TO.N,/A13*%
X123920000Y-108585000D02*
X124695000Y-108585000D01*
X124695000Y-108585000D02*
X125965000Y-109855000D01*
X125965000Y-109855000D02*
X153130000Y-109855000D01*
X153130000Y-109855000D02*
X154400000Y-108585000D01*
X154400000Y-108585000D02*
X158210000Y-108585000D01*
X158210000Y-108585000D02*
X159480000Y-109855000D01*
%TO.N,/A14*%
X123920000Y-111125000D02*
X124695000Y-111125000D01*
X124695000Y-111125000D02*
X125965000Y-112395000D01*
X125965000Y-112395000D02*
X153130000Y-112395000D01*
X153130000Y-112395000D02*
X154400000Y-111125000D01*
X154400000Y-111125000D02*
X158210000Y-111125000D01*
X158210000Y-111125000D02*
X159480000Y-112395000D01*
%TO.N,/A16*%
X123920000Y-118745000D02*
X124695000Y-118745000D01*
X124695000Y-118745000D02*
X125965000Y-120015000D01*
X125965000Y-120015000D02*
X153130000Y-120015000D01*
X153130000Y-120015000D02*
X158210000Y-114935000D01*
X158210000Y-114935000D02*
X159480000Y-114935000D01*
%TO.N,/A11*%
X123920000Y-103505000D02*
X124911256Y-103505000D01*
X124911256Y-103505000D02*
X126181256Y-104775000D01*
X126181256Y-104775000D02*
X153130000Y-104775000D01*
X153130000Y-104775000D02*
X154400000Y-103505000D01*
X154400000Y-103505000D02*
X158210000Y-103505000D01*
X158210000Y-103505000D02*
X159480000Y-104775000D01*
%TO.N,/A10*%
X154400000Y-100914200D02*
X158159200Y-100914200D01*
X158159200Y-100914200D02*
X159480000Y-102235000D01*
X123920000Y-100965000D02*
X124911256Y-100965000D01*
X124911256Y-100965000D02*
X126181256Y-102235000D01*
X126181256Y-102235000D02*
X153130000Y-102235000D01*
X153130000Y-102235000D02*
X154400000Y-100965000D01*
%TO.N,/A9*%
X123920000Y-98425000D02*
X124695000Y-98425000D01*
X124695000Y-98425000D02*
X125965000Y-99695000D01*
X125965000Y-99695000D02*
X153130000Y-99695000D01*
X153130000Y-99695000D02*
X154400000Y-98425000D01*
X154400000Y-98425000D02*
X158210000Y-98425000D01*
X158210000Y-98425000D02*
X159480000Y-99695000D01*
%TO.N,/A17*%
X123920000Y-121285000D02*
X124695000Y-121285000D01*
X124695000Y-121285000D02*
X125965000Y-122555000D01*
X125965000Y-122555000D02*
X153130000Y-122555000D01*
X153130000Y-122555000D02*
X156940000Y-118745000D01*
X156940000Y-118745000D02*
X159480000Y-118745000D01*
%TO.N,/A18*%
X123920000Y-123825000D02*
X124911256Y-123825000D01*
X124911256Y-123825000D02*
X126011256Y-124925000D01*
X126011256Y-124925000D02*
X153300000Y-124925000D01*
X153300000Y-124925000D02*
X156940000Y-121285000D01*
X156940000Y-121285000D02*
X159480000Y-121285000D01*
%TO.N,/A19*%
X123920000Y-126365000D02*
X124695000Y-126365000D01*
X124695000Y-126365000D02*
X125965000Y-127635000D01*
X125965000Y-127635000D02*
X153130000Y-127635000D01*
X153130000Y-127635000D02*
X156940000Y-123825000D01*
X156940000Y-123825000D02*
X159480000Y-123825000D01*
%TO.N,/D7*%
X123920000Y-128905000D02*
X124695000Y-128905000D01*
X124695000Y-128905000D02*
X125965000Y-130175000D01*
X125965000Y-130175000D02*
X153130000Y-130175000D01*
X153130000Y-130175000D02*
X156940000Y-126365000D01*
X156940000Y-126365000D02*
X159480000Y-126365000D01*
%TO.N,/D6*%
X123920000Y-131445000D02*
X124695000Y-131445000D01*
X124695000Y-131445000D02*
X125965000Y-132715000D01*
X125965000Y-132715000D02*
X153130000Y-132715000D01*
X153130000Y-132715000D02*
X156940000Y-128905000D01*
X156940000Y-128905000D02*
X159480000Y-128905000D01*
%TO.N,/D5*%
X123920000Y-133985000D02*
X124695000Y-133985000D01*
X124695000Y-133985000D02*
X125965000Y-135255000D01*
X125965000Y-135255000D02*
X153130000Y-135255000D01*
X153130000Y-135255000D02*
X156940000Y-131445000D01*
X156940000Y-131445000D02*
X159480000Y-131445000D01*
%TO.N,/D4*%
X123920000Y-136525000D02*
X124695000Y-136525000D01*
X124695000Y-136525000D02*
X125965000Y-137795000D01*
X125965000Y-137795000D02*
X153130000Y-137795000D01*
X153130000Y-137795000D02*
X156940000Y-133985000D01*
X156940000Y-133985000D02*
X159480000Y-133985000D01*
%TO.N,/D3*%
X123920000Y-139065000D02*
X125190000Y-140335000D01*
X125190000Y-140335000D02*
X153130000Y-140335000D01*
X153130000Y-140335000D02*
X156940000Y-136525000D01*
X156940000Y-136525000D02*
X159480000Y-136525000D01*
D26*
%TO.N,-12V*%
X154400000Y-65354200D02*
X156686000Y-63068200D01*
X156686000Y-63068200D02*
X156686000Y-54737000D01*
X94456000Y-52451000D02*
X91230200Y-49225200D01*
X156686000Y-54737000D02*
X145764000Y-43815000D01*
X145764000Y-43815000D02*
X135350000Y-43815000D01*
X135350000Y-43815000D02*
X132810000Y-46355000D01*
X132810000Y-46355000D02*
X132810000Y-49403000D01*
X132810000Y-49403000D02*
X131286000Y-50927000D01*
X131286000Y-50927000D02*
X108934000Y-50927000D01*
X108934000Y-50927000D02*
X107410000Y-52451000D01*
X107410000Y-52451000D02*
X94456000Y-52451000D01*
X91230200Y-49225200D02*
X91230200Y-46355000D01*
D27*
%TO.N,GND*%
X95192600Y-47472600D02*
X97250000Y-49530000D01*
X97250000Y-49530000D02*
X104870000Y-49530000D01*
X95192600Y-46355000D02*
X106927400Y-46355000D01*
X102965000Y-48895000D02*
X102965000Y-46355000D01*
X106927400Y-47472600D02*
X104870000Y-49530000D01*
X102330000Y-49530000D02*
X102965000Y-48895000D01*
X99790000Y-49530000D02*
X99155000Y-48895000D01*
X99155000Y-48895000D02*
X99155000Y-46355000D01*
X95192600Y-46355000D02*
X95192600Y-48107600D01*
D25*
%TO.N,/D7*%
X83280000Y-128905000D02*
X84550000Y-130175000D01*
X102330000Y-128905000D02*
X103600000Y-128905000D01*
X122650000Y-128905000D02*
X121380000Y-130175000D01*
X104870000Y-130175000D02*
X103600000Y-128905000D01*
X101060000Y-130175000D02*
X102330000Y-128905000D01*
X123920000Y-128905000D02*
X122650000Y-128905000D01*
X121380000Y-130175000D02*
X104870000Y-130175000D01*
X84550000Y-130175000D02*
X101060000Y-130175000D01*
%TO.N,/D6*%
X84550000Y-132715000D02*
X83280000Y-131445000D01*
X122650000Y-131445000D02*
X123920000Y-131445000D01*
X104870000Y-132715000D02*
X121380000Y-132715000D01*
X101060000Y-132715000D02*
X84550000Y-132715000D01*
X103600000Y-131445000D02*
X102330000Y-131445000D01*
X103600000Y-131445000D02*
X104870000Y-132715000D01*
X121380000Y-132715000D02*
X122650000Y-131445000D01*
X102330000Y-131445000D02*
X101060000Y-132715000D01*
%TO.N,/D5*%
X84550000Y-135255000D02*
X83280000Y-133985000D01*
X122650000Y-133985000D02*
X123920000Y-133985000D01*
X103600000Y-133985000D02*
X104870000Y-135255000D01*
X104870000Y-135255000D02*
X121380000Y-135255000D01*
X121380000Y-135255000D02*
X122650000Y-133985000D01*
X103600000Y-133985000D02*
X102330000Y-133985000D01*
X101060000Y-135255000D02*
X84550000Y-135255000D01*
X102330000Y-133985000D02*
X101060000Y-135255000D01*
%TO.N,/D4*%
X101060000Y-137795000D02*
X102330000Y-136525000D01*
X84550000Y-137795000D02*
X101060000Y-137795000D01*
X121380000Y-137795000D02*
X122650000Y-136525000D01*
X103600000Y-136525000D02*
X104870000Y-137795000D01*
X122650000Y-136525000D02*
X123920000Y-136525000D01*
X104870000Y-137795000D02*
X121380000Y-137795000D01*
X83280000Y-136525000D02*
X84550000Y-137795000D01*
X102330000Y-136525000D02*
X103600000Y-136525000D01*
%TO.N,/D3*%
X101060000Y-140335000D02*
X102330000Y-139065000D01*
X104870000Y-140335000D02*
X121380000Y-140335000D01*
X83280000Y-139065000D02*
X84550000Y-140335000D01*
X84550000Y-140335000D02*
X101060000Y-140335000D01*
X103600000Y-139065000D02*
X104870000Y-140335000D01*
X122650000Y-139065000D02*
X123920000Y-139065000D01*
X102330000Y-139065000D02*
X103600000Y-139065000D01*
X121380000Y-140335000D02*
X122650000Y-139065000D01*
%TO.N,/RW*%
X106140000Y-126365000D02*
X121380000Y-126365000D01*
X104108000Y-125265000D02*
X102160000Y-125265000D01*
X83558744Y-125095000D02*
X80740000Y-125095000D01*
X121380000Y-126365000D02*
X122480000Y-125265000D01*
X80740000Y-125095000D02*
X79470000Y-126365000D01*
X106140000Y-126365000D02*
X105208000Y-126365000D01*
X122480000Y-125265000D02*
X125360000Y-125265000D01*
X85820000Y-126365000D02*
X84828744Y-126365000D01*
X105208000Y-126365000D02*
X104108000Y-125265000D01*
X126460000Y-126365000D02*
X151860000Y-126365000D01*
X79470000Y-126365000D02*
X78200000Y-126365000D01*
X85820000Y-126365000D02*
X101060000Y-126365000D01*
X102160000Y-125265000D02*
X101060000Y-126365000D01*
X84828744Y-126365000D02*
X83558744Y-125095000D01*
X125360000Y-125265000D02*
X126460000Y-126365000D01*
%TO.N,/D0*%
X125360000Y-132885000D02*
X126460000Y-133985000D01*
X151860000Y-133985000D02*
X126460000Y-133985000D01*
X102160000Y-132885000D02*
X101060000Y-133985000D01*
X104108000Y-132885000D02*
X102160000Y-132885000D01*
X79470000Y-133985000D02*
X78200000Y-133985000D01*
X106140000Y-133985000D02*
X121380000Y-133985000D01*
X105208000Y-133985000D02*
X104108000Y-132885000D01*
X85820000Y-133985000D02*
X85045000Y-133985000D01*
X106140000Y-133985000D02*
X105208000Y-133985000D01*
X85045000Y-133985000D02*
X83775000Y-132715000D01*
X80740000Y-132715000D02*
X79470000Y-133985000D01*
X83775000Y-132715000D02*
X80740000Y-132715000D01*
X101060000Y-133985000D02*
X85820000Y-133985000D01*
X122480000Y-132885000D02*
X125360000Y-132885000D01*
X121380000Y-133985000D02*
X122480000Y-132885000D01*
%TO.N,/D1*%
X126460000Y-136525000D02*
X151860000Y-136525000D01*
X84828744Y-136525000D02*
X83558744Y-135255000D01*
X122480000Y-135425000D02*
X125360000Y-135425000D01*
X105148744Y-136525000D02*
X104048744Y-135425000D01*
X121380000Y-136525000D02*
X122480000Y-135425000D01*
X80740000Y-135255000D02*
X79470000Y-136525000D01*
X102160000Y-135425000D02*
X101060000Y-136525000D01*
X85820000Y-136525000D02*
X84828744Y-136525000D01*
X79470000Y-136525000D02*
X78200000Y-136525000D01*
X83558744Y-135255000D02*
X80740000Y-135255000D01*
X106140000Y-136525000D02*
X105148744Y-136525000D01*
X104048744Y-135425000D02*
X102160000Y-135425000D01*
X106140000Y-136525000D02*
X121380000Y-136525000D01*
X125360000Y-135425000D02*
X126460000Y-136525000D01*
X101060000Y-136525000D02*
X85820000Y-136525000D01*
%TO.N,/D2*%
X105208000Y-139065000D02*
X104108000Y-137965000D01*
X151860000Y-139065000D02*
X126460000Y-139065000D01*
X79470000Y-139065000D02*
X78200000Y-139065000D01*
X80740000Y-137795000D02*
X79470000Y-139065000D01*
X101060000Y-139065000D02*
X85820000Y-139065000D01*
X83775000Y-137795000D02*
X80740000Y-137795000D01*
X85045000Y-139065000D02*
X83775000Y-137795000D01*
X122650000Y-137795000D02*
X121380000Y-139065000D01*
X104108000Y-137965000D02*
X102160000Y-137965000D01*
X102160000Y-137965000D02*
X101060000Y-139065000D01*
X125190000Y-137795000D02*
X122650000Y-137795000D01*
X106140000Y-139065000D02*
X105208000Y-139065000D01*
X121380000Y-139065000D02*
X106140000Y-139065000D01*
X126460000Y-139065000D02*
X125190000Y-137795000D01*
X85820000Y-139065000D02*
X85045000Y-139065000D01*
%TO.N,/SP0*%
X101060000Y-71755000D02*
X102330000Y-70485000D01*
X122650000Y-70485000D02*
X123920000Y-70485000D01*
X102330000Y-70485000D02*
X103600000Y-70485000D01*
X104870000Y-71755000D02*
X121380000Y-71755000D01*
X84550000Y-71755000D02*
X101060000Y-71755000D01*
X121380000Y-71755000D02*
X122650000Y-70485000D01*
X126181256Y-71755000D02*
X153130000Y-71755000D01*
X103600000Y-70485000D02*
X104870000Y-71755000D01*
X124911256Y-70485000D02*
X126181256Y-71755000D01*
X153130000Y-71755000D02*
X154400000Y-70485000D01*
X123920000Y-70485000D02*
X124911256Y-70485000D01*
X83280000Y-70485000D02*
X84550000Y-71755000D01*
%TO.N,/SP1*%
X124695000Y-73025000D02*
X125965000Y-74295000D01*
X153130000Y-74295000D02*
X154400000Y-73025000D01*
X83280000Y-73025000D02*
X84550000Y-74295000D01*
X125965000Y-74295000D02*
X153130000Y-74295000D01*
X104870000Y-74295000D02*
X121380000Y-74295000D01*
X84550000Y-74295000D02*
X101060000Y-74295000D01*
X121380000Y-74295000D02*
X122650000Y-73025000D01*
X102330000Y-73025000D02*
X103600000Y-73025000D01*
X103600000Y-73025000D02*
X104870000Y-74295000D01*
X123920000Y-73025000D02*
X124695000Y-73025000D01*
X122650000Y-73025000D02*
X123920000Y-73025000D01*
X101060000Y-74295000D02*
X102330000Y-73025000D01*
%TO.N,/DSMC*%
X102330000Y-75565000D02*
X103600000Y-75565000D01*
X125965000Y-76835000D02*
X153130000Y-76835000D01*
X123920000Y-75565000D02*
X124695000Y-75565000D01*
X153130000Y-76835000D02*
X154400000Y-75565000D01*
X83280000Y-75565000D02*
X84550000Y-76835000D01*
X84550000Y-76835000D02*
X101060000Y-76835000D01*
X121380000Y-76835000D02*
X104870000Y-76835000D01*
X122650000Y-75565000D02*
X121380000Y-76835000D01*
X101060000Y-76835000D02*
X102330000Y-75565000D01*
X124695000Y-75565000D02*
X125965000Y-76835000D01*
X123920000Y-75565000D02*
X122650000Y-75565000D01*
X104870000Y-76835000D02*
X103600000Y-75565000D01*
%TO.N,/SP2*%
X123145000Y-78105000D02*
X121875000Y-79375000D01*
X104870000Y-79375000D02*
X103600000Y-78105000D01*
X102330000Y-78105000D02*
X103600000Y-78105000D01*
X123920000Y-78105000D02*
X123145000Y-78105000D01*
X83280000Y-78105000D02*
X84550000Y-79375000D01*
X123920000Y-78105000D02*
X124695000Y-78105000D01*
X125965000Y-79375000D02*
X153130000Y-79375000D01*
X124695000Y-78105000D02*
X125965000Y-79375000D01*
X84550000Y-79375000D02*
X101060000Y-79375000D01*
X121875000Y-79375000D02*
X104870000Y-79375000D01*
X101060000Y-79375000D02*
X102330000Y-78105000D01*
X153130000Y-79375000D02*
X154400000Y-78105000D01*
%TO.N,/SP3*%
X125360000Y-77005000D02*
X126460000Y-78105000D01*
X101060000Y-78105000D02*
X85820000Y-78105000D01*
X122480000Y-77005000D02*
X125360000Y-77005000D01*
X106140000Y-78105000D02*
X121380000Y-78105000D01*
X105208000Y-78105000D02*
X104108000Y-77005000D01*
X104108000Y-77005000D02*
X102160000Y-77005000D01*
X102160000Y-77005000D02*
X101060000Y-78105000D01*
X121380000Y-78105000D02*
X122480000Y-77005000D01*
X106140000Y-78105000D02*
X105208000Y-78105000D01*
X151860000Y-78105000D02*
X126460000Y-78105000D01*
%TO.N,/VPA*%
X106140000Y-103505000D02*
X105208000Y-103505000D01*
X105208000Y-103505000D02*
X104108000Y-102405000D01*
X85045000Y-103505000D02*
X83775000Y-102235000D01*
X80740000Y-100965000D02*
X82010000Y-102235000D01*
X101060000Y-103505000D02*
X102160000Y-102405000D01*
X102160000Y-102405000D02*
X104108000Y-102405000D01*
X126460000Y-103505000D02*
X125190000Y-102235000D01*
X122650000Y-102235000D02*
X121380000Y-103505000D01*
X80740000Y-99695000D02*
X80740000Y-100965000D01*
X125190000Y-102235000D02*
X122650000Y-102235000D01*
X126460000Y-103505000D02*
X151860000Y-103505000D01*
X85820000Y-103505000D02*
X101060000Y-103505000D01*
X83775000Y-102235000D02*
X82010000Y-102235000D01*
X85820000Y-103505000D02*
X85045000Y-103505000D01*
X121380000Y-103505000D02*
X106140000Y-103505000D01*
X78200000Y-97155000D02*
X80740000Y-99695000D01*
%TO.N,/E*%
X121380000Y-108585000D02*
X122480000Y-107485000D01*
X125360000Y-107485000D02*
X126460000Y-108585000D01*
X106140000Y-108585000D02*
X121380000Y-108585000D01*
X122480000Y-107485000D02*
X125360000Y-107485000D01*
X105208000Y-108585000D02*
X104108000Y-107485000D01*
X102160000Y-107485000D02*
X101060000Y-108585000D01*
X106140000Y-108585000D02*
X105208000Y-108585000D01*
X126460000Y-108585000D02*
X151860000Y-108585000D01*
X101060000Y-108585000D02*
X85820000Y-108585000D01*
X104108000Y-107485000D02*
X102160000Y-107485000D01*
%TO.N,/RESET*%
X80105000Y-107636122D02*
X80105000Y-106680000D01*
X83001256Y-112395000D02*
X80896939Y-110290683D01*
X102160000Y-112565000D02*
X104108000Y-112565000D01*
X80105000Y-106680000D02*
X78200000Y-104775000D01*
X85820000Y-113665000D02*
X101060000Y-113665000D01*
X80896939Y-110290683D02*
X80896939Y-108428061D01*
X126460000Y-113665000D02*
X151860000Y-113665000D01*
X80896939Y-108428061D02*
X80105000Y-107636122D01*
X101060000Y-113665000D02*
X102160000Y-112565000D01*
X121380000Y-113665000D02*
X122480000Y-112565000D01*
X84828744Y-113665000D02*
X83558744Y-112395000D01*
X105208000Y-113665000D02*
X104108000Y-112565000D01*
X122480000Y-112565000D02*
X125360000Y-112565000D01*
X85820000Y-113665000D02*
X84828744Y-113665000D01*
X106140000Y-113665000D02*
X105208000Y-113665000D01*
X125360000Y-112565000D02*
X126460000Y-113665000D01*
X106140000Y-113665000D02*
X121380000Y-113665000D01*
X83558744Y-112395000D02*
X83001256Y-112395000D01*
%TO.N,/DS*%
X151860000Y-128905000D02*
X126460000Y-128905000D01*
X80740000Y-127635000D02*
X79470000Y-128905000D01*
X85820000Y-128905000D02*
X84828744Y-128905000D01*
X122480000Y-127805000D02*
X125360000Y-127805000D01*
X85820000Y-128905000D02*
X101060000Y-128905000D01*
X125360000Y-127805000D02*
X126460000Y-128905000D01*
X79470000Y-128905000D02*
X78200000Y-128905000D01*
X106140000Y-128905000D02*
X121380000Y-128905000D01*
X83558744Y-127635000D02*
X80740000Y-127635000D01*
X105208000Y-128905000D02*
X104108000Y-127805000D01*
X121380000Y-128905000D02*
X122480000Y-127805000D01*
X106140000Y-128905000D02*
X105208000Y-128905000D01*
X102160000Y-127805000D02*
X101060000Y-128905000D01*
X84828744Y-128905000D02*
X83558744Y-127635000D01*
X104108000Y-127805000D02*
X102160000Y-127805000D01*
%TO.N,/AS*%
X106140000Y-131445000D02*
X121380000Y-131445000D01*
X85820000Y-131445000D02*
X101060000Y-131445000D01*
X121380000Y-131445000D02*
X122480000Y-130345000D01*
X79470000Y-131445000D02*
X78200000Y-131445000D01*
X80740000Y-130175000D02*
X79470000Y-131445000D01*
X104108000Y-130345000D02*
X102160000Y-130345000D01*
X125360000Y-130345000D02*
X126460000Y-131445000D01*
X122480000Y-130345000D02*
X125360000Y-130345000D01*
X151860000Y-131445000D02*
X126460000Y-131445000D01*
X85820000Y-131445000D02*
X84828744Y-131445000D01*
X83558744Y-130175000D02*
X80740000Y-130175000D01*
X84828744Y-131445000D02*
X83558744Y-130175000D01*
X106140000Y-131445000D02*
X105208000Y-131445000D01*
X105208000Y-131445000D02*
X104108000Y-130345000D01*
X102160000Y-130345000D02*
X101060000Y-131445000D01*
%TO.N,/DTACK*%
X105148744Y-123825000D02*
X104048744Y-122725000D01*
X106140000Y-123825000D02*
X105148744Y-123825000D01*
X121380000Y-123825000D02*
X122480000Y-122725000D01*
X101060000Y-123825000D02*
X85820000Y-123825000D01*
X79470000Y-123825000D02*
X78200000Y-123825000D01*
X83558744Y-122555000D02*
X80740000Y-122555000D01*
X125360000Y-122725000D02*
X126460000Y-123825000D01*
X106140000Y-123825000D02*
X121380000Y-123825000D01*
X85820000Y-123825000D02*
X84828744Y-123825000D01*
X151860000Y-123825000D02*
X126460000Y-123825000D01*
X80740000Y-122555000D02*
X79470000Y-123825000D01*
X102160000Y-122725000D02*
X101060000Y-123825000D01*
X122480000Y-122725000D02*
X125360000Y-122725000D01*
X104048744Y-122725000D02*
X102160000Y-122725000D01*
X84828744Y-123825000D02*
X83558744Y-122555000D01*
%TO.N,/BG*%
X125360000Y-120185000D02*
X126460000Y-121285000D01*
X104048744Y-120185000D02*
X105148744Y-121285000D01*
X85820000Y-121285000D02*
X101060000Y-121285000D01*
X151860000Y-121285000D02*
X126460000Y-121285000D01*
X101060000Y-121285000D02*
X102160000Y-120185000D01*
X106140000Y-121285000D02*
X121380000Y-121285000D01*
X122480000Y-120185000D02*
X125360000Y-120185000D01*
X121380000Y-121285000D02*
X122480000Y-120185000D01*
X105148744Y-121285000D02*
X106140000Y-121285000D01*
X102160000Y-120185000D02*
X104048744Y-120185000D01*
%TO.N,/BR*%
X125360000Y-117645000D02*
X126460000Y-118745000D01*
X102160000Y-117645000D02*
X104362000Y-117645000D01*
X101060000Y-118745000D02*
X102160000Y-117645000D01*
X106140000Y-118745000D02*
X121380000Y-118745000D01*
X126460000Y-118745000D02*
X151860000Y-118745000D01*
X105462000Y-118745000D02*
X104362000Y-117645000D01*
X85820000Y-118745000D02*
X101060000Y-118745000D01*
X106140000Y-118745000D02*
X105462000Y-118745000D01*
X121380000Y-118745000D02*
X122480000Y-117645000D01*
X122480000Y-117645000D02*
X125360000Y-117645000D01*
%TO.N,/CSYNC*%
X82010000Y-107315000D02*
X82010000Y-108863744D01*
X85820000Y-111125000D02*
X101060000Y-111125000D01*
X105208000Y-111125000D02*
X104108000Y-110025000D01*
X126460000Y-111125000D02*
X151860000Y-111125000D01*
X102160000Y-110025000D02*
X104108000Y-110025000D01*
X121380000Y-111125000D02*
X122480000Y-110025000D01*
X106140000Y-111125000D02*
X105208000Y-111125000D01*
X80740000Y-104775000D02*
X80740000Y-106045000D01*
X82010000Y-108863744D02*
X83001256Y-109855000D01*
X125360000Y-110025000D02*
X126460000Y-111125000D01*
X83775000Y-109855000D02*
X85045000Y-111125000D01*
X106140000Y-111125000D02*
X121380000Y-111125000D01*
X78200000Y-102235000D02*
X80740000Y-104775000D01*
X83001256Y-109855000D02*
X83775000Y-109855000D01*
X101060000Y-111125000D02*
X102160000Y-110025000D01*
X122480000Y-110025000D02*
X125360000Y-110025000D01*
X85045000Y-111125000D02*
X85820000Y-111125000D01*
X80740000Y-106045000D02*
X82010000Y-107315000D01*
%TO.N,/VSYNC*%
X102160000Y-104945000D02*
X104108000Y-104945000D01*
X126460000Y-106045000D02*
X151860000Y-106045000D01*
X84828744Y-106045000D02*
X85820000Y-106045000D01*
X80105000Y-101600000D02*
X80105000Y-102870000D01*
X78200000Y-99695000D02*
X80105000Y-101600000D01*
X85820000Y-106045000D02*
X101060000Y-106045000D01*
X121380000Y-106045000D02*
X122650000Y-104775000D01*
X106140000Y-106045000D02*
X121380000Y-106045000D01*
X83558744Y-104775000D02*
X84828744Y-106045000D01*
X101060000Y-106045000D02*
X102160000Y-104945000D01*
X80105000Y-102870000D02*
X82010000Y-104775000D01*
X125190000Y-104775000D02*
X126460000Y-106045000D01*
X106140000Y-106045000D02*
X105208000Y-106045000D01*
X105208000Y-106045000D02*
X104108000Y-104945000D01*
X122650000Y-104775000D02*
X125190000Y-104775000D01*
X82010000Y-104775000D02*
X83558744Y-104775000D01*
%TO.N,/GREEN*%
X106140000Y-100965000D02*
X105208000Y-100965000D01*
X125360000Y-99865000D02*
X126460000Y-100965000D01*
X85820000Y-100965000D02*
X101060000Y-100965000D01*
X106140000Y-100965000D02*
X121380000Y-100965000D01*
X80740000Y-98425000D02*
X82010000Y-99695000D01*
X121380000Y-100965000D02*
X122480000Y-99865000D01*
X80740000Y-97155000D02*
X78200000Y-94615000D01*
X101060000Y-100965000D02*
X102160000Y-99865000D01*
X126460000Y-100965000D02*
X151860000Y-100965000D01*
X80740000Y-97155000D02*
X80740000Y-98425000D01*
X102160000Y-99865000D02*
X104108000Y-99865000D01*
X122480000Y-99865000D02*
X125360000Y-99865000D01*
X105208000Y-100965000D02*
X104108000Y-99865000D01*
X83913604Y-99695000D02*
X82010000Y-99695000D01*
X85183604Y-100965000D02*
X83913604Y-99695000D01*
%TO.N,/BLUE*%
X122480000Y-97325000D02*
X125360000Y-97325000D01*
X101060000Y-98425000D02*
X102160000Y-97325000D01*
X121380000Y-98425000D02*
X122480000Y-97325000D01*
X105208000Y-98425000D02*
X104108000Y-97325000D01*
X106140000Y-98425000D02*
X105208000Y-98425000D01*
X80740000Y-94615000D02*
X80740000Y-95885000D01*
X102160000Y-97325000D02*
X104108000Y-97325000D01*
X80740000Y-95885000D02*
X82010000Y-97155000D01*
X126460000Y-98425000D02*
X151860000Y-98425000D01*
X85820000Y-98425000D02*
X84828744Y-98425000D01*
X106140000Y-98425000D02*
X121380000Y-98425000D01*
X83558744Y-97155000D02*
X82010000Y-97155000D01*
X84828744Y-98425000D02*
X83558744Y-97155000D01*
X125360000Y-97325000D02*
X126460000Y-98425000D01*
X78200000Y-92075000D02*
X80740000Y-94615000D01*
X85820000Y-98425000D02*
X101060000Y-98425000D01*
%TO.N,/FC2*%
X85820000Y-95885000D02*
X101060000Y-95885000D01*
X102160000Y-94785000D02*
X104108000Y-94785000D01*
X121380000Y-95885000D02*
X122480000Y-94785000D01*
X81065000Y-93035000D02*
X81065000Y-93655000D01*
X105208000Y-95885000D02*
X104108000Y-94785000D01*
X84828744Y-95885000D02*
X85820000Y-95885000D01*
X82025000Y-94615000D02*
X83558744Y-94615000D01*
X79470000Y-91440000D02*
X81065000Y-93035000D01*
X79470000Y-90170000D02*
X79470000Y-91440000D01*
X106140000Y-95885000D02*
X105208000Y-95885000D01*
X101060000Y-95885000D02*
X102160000Y-94785000D01*
X122480000Y-94785000D02*
X125360000Y-94785000D01*
X83558744Y-94615000D02*
X84828744Y-95885000D01*
X81065000Y-93655000D02*
X82025000Y-94615000D01*
X151860000Y-95885000D02*
X126460000Y-95885000D01*
X125360000Y-94785000D02*
X126460000Y-95885000D01*
X106140000Y-95885000D02*
X121380000Y-95885000D01*
X78200000Y-88900000D02*
X79470000Y-90170000D01*
%TO.N,/FC1*%
X85045000Y-93345000D02*
X85820000Y-93345000D01*
X106140000Y-93345000D02*
X105208000Y-93345000D01*
X102160000Y-92245000D02*
X104108000Y-92245000D01*
X83001256Y-92075000D02*
X83775000Y-92075000D01*
X81375000Y-90448744D02*
X83001256Y-92075000D01*
X106140000Y-93345000D02*
X121380000Y-93345000D01*
X80105000Y-85725000D02*
X80105000Y-87630000D01*
X121380000Y-93345000D02*
X122650000Y-92075000D01*
X125190000Y-92075000D02*
X126460000Y-93345000D01*
X105208000Y-93345000D02*
X104108000Y-92245000D01*
X101060000Y-93345000D02*
X102160000Y-92245000D01*
X80105000Y-87630000D02*
X81375000Y-88900000D01*
X126460000Y-93345000D02*
X151860000Y-93345000D01*
X85820000Y-93345000D02*
X101060000Y-93345000D01*
X83775000Y-92075000D02*
X85045000Y-93345000D01*
X81375000Y-88900000D02*
X81375000Y-90448744D01*
X122650000Y-92075000D02*
X125190000Y-92075000D01*
X78200000Y-83820000D02*
X80105000Y-85725000D01*
%TO.N,/FC0*%
X106140000Y-90805000D02*
X121380000Y-90805000D01*
X85820000Y-90805000D02*
X101060000Y-90805000D01*
X80740000Y-87273744D02*
X80740000Y-83820000D01*
X101060000Y-90805000D02*
X102160000Y-89705000D01*
X121380000Y-90805000D02*
X122480000Y-89705000D01*
X80740000Y-87273744D02*
X82831256Y-89365000D01*
X105208000Y-90805000D02*
X104108000Y-89705000D01*
X122480000Y-89705000D02*
X125360000Y-89705000D01*
X125360000Y-89705000D02*
X126460000Y-90805000D01*
X106140000Y-90805000D02*
X105208000Y-90805000D01*
X80740000Y-83820000D02*
X78200000Y-81280000D01*
X82831256Y-89365000D02*
X83605000Y-89365000D01*
X126460000Y-90805000D02*
X151860000Y-90805000D01*
X83605000Y-89365000D02*
X85045000Y-90805000D01*
X85045000Y-90805000D02*
X85820000Y-90805000D01*
X102160000Y-89705000D02*
X104108000Y-89705000D01*
%TO.N,/ROMOE*%
X106140000Y-85725000D02*
X105208000Y-85725000D01*
X101060000Y-85725000D02*
X102160000Y-84625000D01*
X121380000Y-85725000D02*
X122480000Y-84625000D01*
X106140000Y-85725000D02*
X121380000Y-85725000D01*
X105208000Y-85725000D02*
X104108000Y-84625000D01*
X85820000Y-85725000D02*
X101060000Y-85725000D01*
X125360000Y-84625000D02*
X126460000Y-85725000D01*
X102160000Y-84625000D02*
X104108000Y-84625000D01*
X126460000Y-85725000D02*
X151860000Y-85725000D01*
X122480000Y-84625000D02*
X125360000Y-84625000D01*
%TO.N,/IPL0*%
X83558744Y-74295000D02*
X81375000Y-74295000D01*
X102160000Y-74465000D02*
X104108000Y-74465000D01*
X106140000Y-75565000D02*
X105208000Y-75565000D01*
X126460000Y-75565000D02*
X151860000Y-75565000D01*
X84828744Y-75565000D02*
X83558744Y-74295000D01*
X121380000Y-75565000D02*
X122480000Y-74465000D01*
X122480000Y-74465000D02*
X125360000Y-74465000D01*
X106140000Y-75565000D02*
X121380000Y-75565000D01*
X125360000Y-74465000D02*
X126460000Y-75565000D01*
X81375000Y-74295000D02*
X78200000Y-71120000D01*
X105208000Y-75565000D02*
X104108000Y-74465000D01*
X101060000Y-75565000D02*
X102160000Y-74465000D01*
X85820000Y-75565000D02*
X101060000Y-75565000D01*
X85820000Y-75565000D02*
X84828744Y-75565000D01*
%TO.N,/BERR*%
X101060000Y-73025000D02*
X102160000Y-71925000D01*
X126460000Y-73025000D02*
X151860000Y-73025000D01*
X152851256Y-73025000D02*
X153951256Y-71925000D01*
X106140000Y-73025000D02*
X105208000Y-73025000D01*
X122480000Y-71925000D02*
X121380000Y-73025000D01*
X125360000Y-71925000D02*
X122480000Y-71925000D01*
X85820000Y-73025000D02*
X101060000Y-73025000D01*
X105208000Y-73025000D02*
X104108000Y-71925000D01*
X151860000Y-73025000D02*
X152851256Y-73025000D01*
X102160000Y-71925000D02*
X104108000Y-71925000D01*
X106140000Y-73025000D02*
X121380000Y-73025000D01*
X153951256Y-71925000D02*
X155840000Y-71925000D01*
X126460000Y-73025000D02*
X125360000Y-71925000D01*
%TO.N,/IPL1*%
X153951256Y-69385000D02*
X155840000Y-69385000D01*
X85820000Y-70485000D02*
X101060000Y-70485000D01*
X102160000Y-69385000D02*
X104108000Y-69385000D01*
X121380000Y-70485000D02*
X106140000Y-70485000D01*
X101060000Y-70485000D02*
X102160000Y-69385000D01*
X124447652Y-69385000D02*
X122480000Y-69385000D01*
X105208000Y-70485000D02*
X104108000Y-69385000D01*
X152851256Y-70485000D02*
X153951256Y-69385000D01*
X126460000Y-70485000D02*
X151860000Y-70485000D01*
X122480000Y-69385000D02*
X121380000Y-70485000D01*
X126460000Y-70485000D02*
X125547652Y-70485000D01*
X151860000Y-70485000D02*
X152851256Y-70485000D01*
X125547652Y-70485000D02*
X124447652Y-69385000D01*
X106140000Y-70485000D02*
X105208000Y-70485000D01*
%TO.N,/EXTINT*%
X125468744Y-67945000D02*
X124198744Y-66675000D01*
X106140000Y-67945000D02*
X105208000Y-67945000D01*
X152851256Y-67945000D02*
X154121256Y-66675000D01*
X119094000Y-67945000D02*
X106140000Y-67945000D01*
X99620000Y-66845000D02*
X98520000Y-67945000D01*
X124198744Y-66675000D02*
X120364000Y-66675000D01*
X105208000Y-67945000D02*
X104108000Y-66845000D01*
X104108000Y-66845000D02*
X99620000Y-66845000D01*
X126460000Y-67945000D02*
X125468744Y-67945000D01*
X120364000Y-66675000D02*
X119094000Y-67945000D01*
X98520000Y-67945000D02*
X85820000Y-67945000D01*
X151860000Y-67945000D02*
X152851256Y-67945000D01*
X126460000Y-67945000D02*
X151860000Y-67945000D01*
%TO.N,/CLKCPU*%
X84550000Y-117475000D02*
X101060000Y-117475000D01*
X80740000Y-117475000D02*
X82010000Y-116205000D01*
X104870000Y-117475000D02*
X103600000Y-116205000D01*
X121380000Y-117475000D02*
X104870000Y-117475000D01*
X101060000Y-117475000D02*
X102330000Y-116205000D01*
X83280000Y-116205000D02*
X84550000Y-117475000D01*
X79470000Y-121285000D02*
X80740000Y-120015000D01*
X125965000Y-117475000D02*
X153130000Y-117475000D01*
X124695000Y-116205000D02*
X125965000Y-117475000D01*
X123920000Y-116205000D02*
X122650000Y-116205000D01*
X102330000Y-116205000D02*
X103600000Y-116205000D01*
X122650000Y-116205000D02*
X121380000Y-117475000D01*
X123920000Y-116205000D02*
X124695000Y-116205000D01*
X82010000Y-116205000D02*
X83280000Y-116205000D01*
X78200000Y-121285000D02*
X79470000Y-121285000D01*
X80740000Y-120015000D02*
X80740000Y-117475000D01*
X153130000Y-117475000D02*
X154400000Y-116205000D01*
%TO.N,/RED*%
X80105000Y-110176122D02*
X80105000Y-109220000D01*
X121380000Y-114935000D02*
X104870000Y-114935000D01*
X80105000Y-109220000D02*
X78200000Y-107315000D01*
X83280000Y-113351122D02*
X80105000Y-110176122D01*
X123920000Y-113665000D02*
X124695000Y-113665000D01*
X83280000Y-113665000D02*
X84550000Y-114935000D01*
X84550000Y-114935000D02*
X101060000Y-114935000D01*
X123920000Y-113665000D02*
X122650000Y-113665000D01*
X153130000Y-114935000D02*
X154400000Y-113665000D01*
X102330000Y-113665000D02*
X103600000Y-113665000D01*
X125965000Y-114935000D02*
X153130000Y-114935000D01*
X122650000Y-113665000D02*
X121380000Y-114935000D01*
X104870000Y-114935000D02*
X103600000Y-113665000D01*
X124695000Y-113665000D02*
X125965000Y-114935000D01*
X101060000Y-114935000D02*
X102330000Y-113665000D01*
%TO.N,/DBG*%
X101060000Y-81915000D02*
X102330000Y-80645000D01*
X83280000Y-80645000D02*
X84550000Y-81915000D01*
X102330000Y-80645000D02*
X103600000Y-80645000D01*
X123920000Y-80645000D02*
X122650000Y-80645000D01*
X104870000Y-81915000D02*
X103600000Y-80645000D01*
X122650000Y-80645000D02*
X121380000Y-81915000D01*
X84550000Y-81915000D02*
X101060000Y-81915000D01*
X121380000Y-81915000D02*
X104870000Y-81915000D01*
%TO.N,-12V*%
X125190000Y-66675000D02*
X123920000Y-65405000D01*
X107537000Y-66675000D02*
X104870000Y-66675000D01*
D26*
X97060000Y-66865000D02*
X94900000Y-66865000D01*
X130651000Y-66905000D02*
X132580000Y-66905000D01*
D25*
X84550000Y-66675000D02*
X87090000Y-66675000D01*
D26*
X103600000Y-65405000D02*
X98520000Y-65405000D01*
X146589000Y-66675000D02*
X146399000Y-66865000D01*
X132937000Y-66548000D02*
X134080000Y-65405000D01*
X150463000Y-66675000D02*
X146589000Y-66675000D01*
X132937000Y-66675000D02*
X135985000Y-66675000D01*
X110968104Y-66675000D02*
X111347000Y-67053896D01*
X130421000Y-66675000D02*
X130651000Y-66905000D01*
X111347000Y-67053896D02*
X118461104Y-67053896D01*
X94900000Y-66865000D02*
X93440000Y-65405000D01*
X88360000Y-65405000D02*
X87090000Y-66675000D01*
X135985000Y-66675000D02*
X135350000Y-66675000D01*
D25*
X104870000Y-66675000D02*
X103600000Y-65405000D01*
D26*
X107537000Y-66675000D02*
X110968104Y-66675000D01*
D25*
X83280000Y-65405000D02*
X84550000Y-66675000D01*
D26*
X135350000Y-66675000D02*
X134080000Y-65405000D01*
D25*
X153130000Y-66675000D02*
X150463000Y-66675000D01*
D26*
X132580000Y-66905000D02*
X134080000Y-65405000D01*
D25*
X127857000Y-66675000D02*
X125190000Y-66675000D01*
D26*
X98520000Y-65405000D02*
X97060000Y-66865000D01*
X93440000Y-65405000D02*
X88360000Y-65405000D01*
X144431000Y-66675000D02*
X135985000Y-66675000D01*
X120110000Y-65405000D02*
X123920000Y-65405000D01*
X132937000Y-66675000D02*
X132937000Y-66548000D01*
X146399000Y-66865000D02*
X144621000Y-66865000D01*
X127857000Y-66675000D02*
X130421000Y-66675000D01*
X118461104Y-67053896D02*
X120110000Y-65405000D01*
X144621000Y-66865000D02*
X144431000Y-66675000D01*
D25*
X154400000Y-65405000D02*
X153130000Y-66675000D01*
%TO.N,/A3*%
X102330000Y-83185000D02*
X103600000Y-83185000D01*
X84550000Y-84455000D02*
X101060000Y-84455000D01*
X121380000Y-84455000D02*
X104870000Y-84455000D01*
X122650000Y-83185000D02*
X121380000Y-84455000D01*
X123920000Y-83185000D02*
X122650000Y-83185000D01*
X104870000Y-84455000D02*
X103600000Y-83185000D01*
X83280000Y-83185000D02*
X84550000Y-84455000D01*
X101060000Y-84455000D02*
X102330000Y-83185000D01*
%TO.N,/A4*%
X101060000Y-86995000D02*
X102330000Y-85725000D01*
X122650000Y-85725000D02*
X121380000Y-86995000D01*
X121380000Y-86995000D02*
X104870000Y-86995000D01*
X102330000Y-85725000D02*
X103600000Y-85725000D01*
X84550000Y-86995000D02*
X101060000Y-86995000D01*
X123920000Y-85725000D02*
X122650000Y-85725000D01*
X83280000Y-85725000D02*
X84550000Y-86995000D01*
X104870000Y-86995000D02*
X103600000Y-85725000D01*
%TO.N,/A5*%
X84550000Y-89535000D02*
X101060000Y-89535000D01*
X122650000Y-88265000D02*
X121380000Y-89535000D01*
X102330000Y-88265000D02*
X103600000Y-88265000D01*
X123920000Y-88265000D02*
X122650000Y-88265000D01*
X83280000Y-88265000D02*
X84550000Y-89535000D01*
X104870000Y-89535000D02*
X103600000Y-88265000D01*
X101060000Y-89535000D02*
X102330000Y-88265000D01*
X121380000Y-89535000D02*
X104870000Y-89535000D01*
%TO.N,/A6*%
X102330000Y-90805000D02*
X103600000Y-90805000D01*
X122650000Y-90805000D02*
X121380000Y-92075000D01*
X84550000Y-92075000D02*
X101060000Y-92075000D01*
X123920000Y-90805000D02*
X122650000Y-90805000D01*
X83280000Y-90805000D02*
X84550000Y-92075000D01*
X101060000Y-92075000D02*
X102330000Y-90805000D01*
X121380000Y-92075000D02*
X104870000Y-92075000D01*
X104870000Y-92075000D02*
X103600000Y-90805000D01*
%TO.N,/A7*%
X123920000Y-93345000D02*
X124695000Y-93345000D01*
X125965000Y-94615000D02*
X153130000Y-94615000D01*
X121380000Y-94615000D02*
X104870000Y-94615000D01*
X82010000Y-92710000D02*
X82645000Y-92710000D01*
X122650000Y-93345000D02*
X121380000Y-94615000D01*
X102330000Y-93345000D02*
X103600000Y-93345000D01*
X124695000Y-93345000D02*
X125965000Y-94615000D01*
X101060000Y-94615000D02*
X102330000Y-93345000D01*
X83280000Y-93345000D02*
X84550000Y-94615000D01*
X82645000Y-92710000D02*
X83280000Y-93345000D01*
X84550000Y-94615000D02*
X101060000Y-94615000D01*
X80105000Y-90805000D02*
X82010000Y-92710000D01*
X80105000Y-88265000D02*
X80105000Y-90805000D01*
X78200000Y-86360000D02*
X80105000Y-88265000D01*
X104870000Y-94615000D02*
X103600000Y-93345000D01*
X153130000Y-94615000D02*
X154400000Y-93345000D01*
X123920000Y-93345000D02*
X122650000Y-93345000D01*
%TO.N,/A8*%
X101060000Y-97155000D02*
X102330000Y-95885000D01*
X102330000Y-95885000D02*
X103600000Y-95885000D01*
X123920000Y-95885000D02*
X122650000Y-95885000D01*
X83280000Y-95885000D02*
X84550000Y-97155000D01*
X123920000Y-95885000D02*
X124695000Y-95885000D01*
X121380000Y-97155000D02*
X104870000Y-97155000D01*
X153130000Y-97155000D02*
X154400000Y-95885000D01*
X124695000Y-95885000D02*
X125965000Y-97155000D01*
X125965000Y-97155000D02*
X153130000Y-97155000D01*
X122650000Y-95885000D02*
X121380000Y-97155000D01*
X84550000Y-97155000D02*
X101060000Y-97155000D01*
X104870000Y-97155000D02*
X103600000Y-95885000D01*
%TO.N,/A9*%
X83280000Y-98425000D02*
X84550000Y-99695000D01*
X121380000Y-99695000D02*
X104870000Y-99695000D01*
X104870000Y-99695000D02*
X103600000Y-98425000D01*
X84550000Y-99695000D02*
X101060000Y-99695000D01*
X102330000Y-98425000D02*
X103600000Y-98425000D01*
X123920000Y-98425000D02*
X122650000Y-98425000D01*
X122650000Y-98425000D02*
X121380000Y-99695000D01*
X101060000Y-99695000D02*
X102330000Y-98425000D01*
%TO.N,/A10*%
X102330000Y-100965000D02*
X103600000Y-100965000D01*
X101060000Y-102235000D02*
X102330000Y-100965000D01*
X104870000Y-102235000D02*
X103600000Y-100965000D01*
X123920000Y-100965000D02*
X122650000Y-100965000D01*
X84550000Y-102235000D02*
X101060000Y-102235000D01*
X122650000Y-100965000D02*
X121380000Y-102235000D01*
X83280000Y-100965000D02*
X84550000Y-102235000D01*
X121380000Y-102235000D02*
X104870000Y-102235000D01*
%TO.N,/A11*%
X104870000Y-104775000D02*
X103600000Y-103505000D01*
X102330000Y-103505000D02*
X103600000Y-103505000D01*
X121380000Y-104775000D02*
X104870000Y-104775000D01*
X122650000Y-103505000D02*
X121380000Y-104775000D01*
X123920000Y-103505000D02*
X122650000Y-103505000D01*
X84550000Y-104775000D02*
X101060000Y-104775000D01*
X83280000Y-103505000D02*
X84550000Y-104775000D01*
X101060000Y-104775000D02*
X102330000Y-103505000D01*
%TO.N,/A12*%
X122650000Y-106045000D02*
X121380000Y-107315000D01*
X101060000Y-107315000D02*
X102330000Y-106045000D01*
X123920000Y-106045000D02*
X122650000Y-106045000D01*
X121380000Y-107315000D02*
X104870000Y-107315000D01*
X83280000Y-106045000D02*
X84550000Y-107315000D01*
X102330000Y-106045000D02*
X103600000Y-106045000D01*
X104870000Y-107315000D02*
X103600000Y-106045000D01*
X84550000Y-107315000D02*
X101060000Y-107315000D01*
%TO.N,/A13*%
X83280000Y-108585000D02*
X84550000Y-109855000D01*
X101060000Y-109855000D02*
X102330000Y-108585000D01*
X121380000Y-109855000D02*
X104870000Y-109855000D01*
X122650000Y-108585000D02*
X121380000Y-109855000D01*
X123920000Y-108585000D02*
X122650000Y-108585000D01*
X84550000Y-109855000D02*
X101060000Y-109855000D01*
X102330000Y-108585000D02*
X103600000Y-108585000D01*
X104870000Y-109855000D02*
X103600000Y-108585000D01*
%TO.N,/A14*%
X84550000Y-112395000D02*
X101060000Y-112395000D01*
X83280000Y-111125000D02*
X84550000Y-112395000D01*
X101060000Y-112395000D02*
X102330000Y-111125000D01*
X123920000Y-111125000D02*
X122650000Y-111125000D01*
X102330000Y-111125000D02*
X103600000Y-111125000D01*
X121380000Y-112395000D02*
X104870000Y-112395000D01*
X104870000Y-112395000D02*
X103600000Y-111125000D01*
X122650000Y-111125000D02*
X121380000Y-112395000D01*
%TO.N,/A16*%
X102330000Y-118745000D02*
X103600000Y-118745000D01*
X122650000Y-118745000D02*
X123920000Y-118745000D01*
X84550000Y-120015000D02*
X101060000Y-120015000D01*
X104870000Y-120015000D02*
X121380000Y-120015000D01*
X83280000Y-118745000D02*
X84550000Y-120015000D01*
X103600000Y-118745000D02*
X104870000Y-120015000D01*
X101060000Y-120015000D02*
X102330000Y-118745000D01*
X121380000Y-120015000D02*
X122650000Y-118745000D01*
%TO.N,/A17*%
X101060000Y-122555000D02*
X102330000Y-121285000D01*
X104870000Y-122555000D02*
X121380000Y-122555000D01*
X122650000Y-121285000D02*
X123920000Y-121285000D01*
X103600000Y-121285000D02*
X104870000Y-122555000D01*
X121380000Y-122555000D02*
X122650000Y-121285000D01*
X102330000Y-121285000D02*
X103600000Y-121285000D01*
X84550000Y-122555000D02*
X83280000Y-121285000D01*
X101060000Y-122555000D02*
X84550000Y-122555000D01*
%TO.N,/A18*%
X121380000Y-125095000D02*
X122650000Y-123825000D01*
X83280000Y-123825000D02*
X84550000Y-125095000D01*
X101060000Y-125095000D02*
X102330000Y-123825000D01*
X122650000Y-123825000D02*
X123920000Y-123825000D01*
X103600000Y-123825000D02*
X104870000Y-125095000D01*
X84550000Y-125095000D02*
X101060000Y-125095000D01*
X102330000Y-123825000D02*
X103600000Y-123825000D01*
X104870000Y-125095000D02*
X121380000Y-125095000D01*
%TO.N,/A19*%
X83280000Y-126365000D02*
X84550000Y-127635000D01*
X122650000Y-126365000D02*
X123920000Y-126365000D01*
X103600000Y-126365000D02*
X104870000Y-127635000D01*
X104870000Y-127635000D02*
X121380000Y-127635000D01*
X84550000Y-127635000D02*
X101060000Y-127635000D01*
X102330000Y-126365000D02*
X103600000Y-126365000D01*
X121380000Y-127635000D02*
X122650000Y-126365000D01*
X101060000Y-127635000D02*
X102330000Y-126365000D01*
%TO.N,/A2*%
X83775000Y-79375000D02*
X82645000Y-79375000D01*
X105208000Y-80645000D02*
X104108000Y-79545000D01*
X101060000Y-80645000D02*
X102160000Y-79545000D01*
X85820000Y-80645000D02*
X101060000Y-80645000D01*
X102160000Y-79545000D02*
X104108000Y-79545000D01*
X85045000Y-80645000D02*
X83775000Y-79375000D01*
X122480000Y-79545000D02*
X125360000Y-79545000D01*
X78200000Y-73660000D02*
X81375000Y-76835000D01*
X126460000Y-80645000D02*
X151860000Y-80645000D01*
X106140000Y-80645000D02*
X121380000Y-80645000D01*
X106140000Y-80645000D02*
X105208000Y-80645000D01*
X81375000Y-78105000D02*
X82645000Y-79375000D01*
X121380000Y-80645000D02*
X122480000Y-79545000D01*
X125360000Y-79545000D02*
X126460000Y-80645000D01*
X81375000Y-76835000D02*
X81375000Y-78105000D01*
X85820000Y-80645000D02*
X85045000Y-80645000D01*
%TO.N,/A1*%
X83558744Y-81915000D02*
X82010000Y-81915000D01*
X106140000Y-83185000D02*
X105208000Y-83185000D01*
X84828744Y-83185000D02*
X83558744Y-81915000D01*
X125360000Y-82085000D02*
X126460000Y-83185000D01*
X101060000Y-83185000D02*
X102160000Y-82085000D01*
X85820000Y-83185000D02*
X101060000Y-83185000D01*
X80740000Y-80645000D02*
X80740000Y-78740000D01*
X85820000Y-83185000D02*
X84828744Y-83185000D01*
X80740000Y-78740000D02*
X78200000Y-76200000D01*
X106140000Y-83185000D02*
X121380000Y-83185000D01*
X151860000Y-83185000D02*
X126460000Y-83185000D01*
X122480000Y-82085000D02*
X125360000Y-82085000D01*
X82010000Y-81915000D02*
X80740000Y-80645000D01*
X121380000Y-83185000D02*
X122480000Y-82085000D01*
X105208000Y-83185000D02*
X104108000Y-82085000D01*
X102160000Y-82085000D02*
X104108000Y-82085000D01*
%TO.N,/A0*%
X80105000Y-81915000D02*
X81375000Y-83185000D01*
X121380000Y-88265000D02*
X122650000Y-86995000D01*
X83558744Y-86995000D02*
X84828744Y-88265000D01*
X81375000Y-85368744D02*
X83001256Y-86995000D01*
X78200000Y-78740000D02*
X80105000Y-80645000D01*
X85820000Y-88265000D02*
X101060000Y-88265000D01*
X81375000Y-83185000D02*
X81375000Y-85368744D01*
X80105000Y-80645000D02*
X80105000Y-81915000D01*
X122650000Y-86995000D02*
X125190000Y-86995000D01*
X102160000Y-87165000D02*
X104108000Y-87165000D01*
X105208000Y-88265000D02*
X104108000Y-87165000D01*
X126460000Y-88265000D02*
X151860000Y-88265000D01*
X101060000Y-88265000D02*
X102160000Y-87165000D01*
X106140000Y-88265000D02*
X121380000Y-88265000D01*
X106140000Y-88265000D02*
X105208000Y-88265000D01*
X125190000Y-86995000D02*
X126460000Y-88265000D01*
X84828744Y-88265000D02*
X85820000Y-88265000D01*
X83001256Y-86995000D02*
X83558744Y-86995000D01*
%TO.N,/A15*%
X102160000Y-115105000D02*
X104108000Y-115105000D01*
X84828744Y-116205000D02*
X83558744Y-114935000D01*
X82010000Y-114935000D02*
X82010000Y-113665000D01*
X106140000Y-116205000D02*
X105208000Y-116205000D01*
X85820000Y-116205000D02*
X84828744Y-116205000D01*
X121380000Y-116205000D02*
X122480000Y-115105000D01*
X101060000Y-116205000D02*
X102160000Y-115105000D01*
X83558744Y-114935000D02*
X82010000Y-114935000D01*
X126460000Y-116205000D02*
X151860000Y-116205000D01*
X82010000Y-113665000D02*
X78200000Y-109855000D01*
X106140000Y-116205000D02*
X121380000Y-116205000D01*
X125360000Y-115105000D02*
X126460000Y-116205000D01*
X122480000Y-115105000D02*
X125360000Y-115105000D01*
X85820000Y-116205000D02*
X101060000Y-116205000D01*
X105208000Y-116205000D02*
X104108000Y-115105000D01*
%TO.N,+12V*%
X84550000Y-69215000D02*
X83280000Y-67945000D01*
D26*
X136620000Y-51435000D02*
X137890000Y-50165000D01*
X139160000Y-45085000D02*
X142970000Y-45085000D01*
D25*
X125190000Y-69215000D02*
X123920000Y-67945000D01*
D26*
X85820000Y-53975000D02*
X80740000Y-59055000D01*
X127730000Y-69166317D02*
X150590000Y-69215000D01*
X134080000Y-51435000D02*
X136620000Y-51435000D01*
X87267800Y-52527200D02*
X85820000Y-53975000D01*
X137890000Y-50165000D02*
X137890000Y-46355000D01*
D25*
X87090000Y-69215000D02*
X84550000Y-69215000D01*
D26*
X132810000Y-52705000D02*
X134080000Y-51435000D01*
D25*
X107410000Y-69215000D02*
X104870000Y-69215000D01*
D26*
X137890000Y-46355000D02*
X139160000Y-45085000D01*
D25*
X153130000Y-69215000D02*
X154400000Y-67945000D01*
D26*
X80740000Y-59055000D02*
X80740000Y-65405000D01*
D25*
X104870000Y-69215000D02*
X103600000Y-67945000D01*
D26*
X87267800Y-46355000D02*
X87267800Y-52527200D01*
X142970000Y-45085000D02*
X145510000Y-47625000D01*
X80740000Y-65405000D02*
X83280000Y-67945000D01*
X120110000Y-69215000D02*
X121380000Y-67945000D01*
X99790000Y-69215000D02*
X101060000Y-67945000D01*
D25*
X127730000Y-69166317D02*
X125190000Y-69215000D01*
D26*
X87090000Y-69215000D02*
X99790000Y-69215000D01*
D25*
X150590000Y-69215000D02*
X153130000Y-69215000D01*
X87267800Y-46355000D02*
X87267800Y-48099877D01*
D26*
X87267800Y-48099877D02*
X93142923Y-53975000D01*
X108680000Y-53975000D02*
X109950000Y-52705000D01*
X93142923Y-53975000D02*
X108680000Y-53975000D01*
X121380000Y-67945000D02*
X123920000Y-67945000D01*
X109950000Y-52705000D02*
X132810000Y-52705000D01*
X107410000Y-69215000D02*
X120110000Y-69215000D01*
X101060000Y-67945000D02*
X103600000Y-67945000D01*
%TD*%
%TA.AperFunction,Conductor*%
%TO.N,+12V*%
G36*
X87517800Y-48052800D02*
G01*
X87517800Y-48592228D01*
X87553161Y-48589699D01*
X87832695Y-48528890D01*
X87875435Y-48512949D01*
X87945126Y-48507965D01*
X88006447Y-48541447D01*
X88006450Y-48541450D01*
X88562845Y-49097845D01*
X88588514Y-49137543D01*
X88588601Y-49137498D01*
X88589101Y-49138451D01*
X88591103Y-49141547D01*
X88592085Y-49144137D01*
X88598324Y-49156024D01*
X88601399Y-49162857D01*
X88624181Y-49222928D01*
X88660681Y-49275807D01*
X88664558Y-49282221D01*
X88670796Y-49294107D01*
X88679700Y-49304158D01*
X88684320Y-49310055D01*
X88720815Y-49362927D01*
X88768907Y-49405534D01*
X88774204Y-49410831D01*
X88783102Y-49420874D01*
X88783106Y-49420878D01*
X88783110Y-49420882D01*
X88794167Y-49428514D01*
X88800056Y-49433129D01*
X88848149Y-49475735D01*
X88848153Y-49475737D01*
X88859877Y-49481889D01*
X88905054Y-49505600D01*
X88911449Y-49509468D01*
X88922499Y-49517095D01*
X88935048Y-49521854D01*
X88941882Y-49524930D01*
X88998779Y-49554792D01*
X89005789Y-49557451D01*
X89004819Y-49560006D01*
X89051108Y-49586108D01*
X93228319Y-53763319D01*
X93261804Y-53824642D01*
X93256820Y-53894334D01*
X93214948Y-53950267D01*
X93149484Y-53974684D01*
X93140638Y-53975000D01*
X88461600Y-53975000D01*
X88461598Y-53975000D01*
X88461593Y-53975001D01*
X85041012Y-55085580D01*
X84971170Y-55087560D01*
X84911346Y-55051466D01*
X84880531Y-54988759D01*
X84888511Y-54919346D01*
X84915036Y-54879963D01*
X87090000Y-52705000D01*
X87090000Y-47625000D01*
X87517800Y-48052800D01*
G37*
%TD.AperFunction*%
%TD*%
%TA.AperFunction,Conductor*%
%TO.N,+9V*%
G36*
X85360507Y-63074844D02*
G01*
X85438239Y-63195798D01*
X85546900Y-63289952D01*
X85677685Y-63349680D01*
X85687466Y-63351086D01*
X85112476Y-63926074D01*
X85112477Y-63926075D01*
X85180061Y-63973397D01*
X85285614Y-64022618D01*
X85338053Y-64068790D01*
X85357205Y-64135984D01*
X85336989Y-64202865D01*
X85285614Y-64247382D01*
X85180065Y-64296600D01*
X85112477Y-64343924D01*
X85687466Y-64918913D01*
X85677685Y-64920320D01*
X85546900Y-64980048D01*
X85438239Y-65074202D01*
X85360507Y-65195156D01*
X85336923Y-65275476D01*
X84758924Y-64697477D01*
X84711600Y-64765065D01*
X84667071Y-64860557D01*
X84620898Y-64912996D01*
X84553705Y-64932148D01*
X84486824Y-64911932D01*
X84442308Y-64860557D01*
X84395790Y-64760799D01*
X84266974Y-64576831D01*
X84108169Y-64418026D01*
X84108164Y-64418022D01*
X84108161Y-64418020D01*
X83982396Y-64329957D01*
X83938771Y-64275380D01*
X83931579Y-64205882D01*
X83963102Y-64143527D01*
X84014517Y-64110677D01*
X84124117Y-64074360D01*
X84124130Y-64074354D01*
X84273340Y-63982319D01*
X84273344Y-63982316D01*
X84397316Y-63858344D01*
X84397319Y-63858340D01*
X84489354Y-63709130D01*
X84489360Y-63709117D01*
X84529011Y-63589458D01*
X84568783Y-63532013D01*
X84633299Y-63505189D01*
X84702075Y-63517504D01*
X84748292Y-63557338D01*
X84758923Y-63572521D01*
X84758924Y-63572522D01*
X85336923Y-62994523D01*
X85360507Y-63074844D01*
G37*
%TD.AperFunction*%
%TA.AperFunction,Conductor*%
G36*
X105680507Y-63074844D02*
G01*
X105758239Y-63195798D01*
X105866900Y-63289952D01*
X105997685Y-63349680D01*
X106007466Y-63351086D01*
X105432476Y-63926074D01*
X105432477Y-63926075D01*
X105500061Y-63973397D01*
X105605614Y-64022618D01*
X105658053Y-64068790D01*
X105677205Y-64135984D01*
X105656989Y-64202865D01*
X105605614Y-64247382D01*
X105500065Y-64296600D01*
X105432477Y-64343924D01*
X106007466Y-64918913D01*
X105997685Y-64920320D01*
X105866900Y-64980048D01*
X105758239Y-65074202D01*
X105680507Y-65195156D01*
X105656923Y-65275476D01*
X105078924Y-64697477D01*
X105031600Y-64765065D01*
X104987071Y-64860557D01*
X104940898Y-64912996D01*
X104873705Y-64932148D01*
X104806824Y-64911932D01*
X104762308Y-64860557D01*
X104715790Y-64760799D01*
X104586974Y-64576831D01*
X104428169Y-64418026D01*
X104428164Y-64418022D01*
X104428161Y-64418020D01*
X104302396Y-64329957D01*
X104258771Y-64275380D01*
X104251579Y-64205882D01*
X104283102Y-64143527D01*
X104334517Y-64110677D01*
X104444117Y-64074360D01*
X104444130Y-64074354D01*
X104593340Y-63982319D01*
X104593344Y-63982316D01*
X104717316Y-63858344D01*
X104717319Y-63858340D01*
X104809354Y-63709130D01*
X104809360Y-63709117D01*
X104849011Y-63589458D01*
X104888783Y-63532013D01*
X104953299Y-63505189D01*
X105022075Y-63517504D01*
X105068292Y-63557338D01*
X105078923Y-63572521D01*
X105078924Y-63572522D01*
X105656923Y-62994523D01*
X105680507Y-63074844D01*
G37*
%TD.AperFunction*%
%TA.AperFunction,Conductor*%
G36*
X126000507Y-63074844D02*
G01*
X126078239Y-63195798D01*
X126186900Y-63289952D01*
X126317685Y-63349680D01*
X126327466Y-63351086D01*
X125752476Y-63926074D01*
X125752477Y-63926075D01*
X125820061Y-63973397D01*
X125925614Y-64022618D01*
X125978053Y-64068790D01*
X125997205Y-64135984D01*
X125976989Y-64202865D01*
X125925614Y-64247382D01*
X125820065Y-64296600D01*
X125752477Y-64343924D01*
X126327466Y-64918913D01*
X126317685Y-64920320D01*
X126186900Y-64980048D01*
X126078239Y-65074202D01*
X126000507Y-65195156D01*
X125976923Y-65275476D01*
X125398924Y-64697477D01*
X125351600Y-64765065D01*
X125307071Y-64860557D01*
X125260898Y-64912996D01*
X125193705Y-64932148D01*
X125126824Y-64911932D01*
X125082308Y-64860557D01*
X125035790Y-64760799D01*
X124906974Y-64576831D01*
X124748169Y-64418026D01*
X124748164Y-64418022D01*
X124748161Y-64418020D01*
X124622396Y-64329957D01*
X124578771Y-64275380D01*
X124571579Y-64205882D01*
X124603102Y-64143527D01*
X124654517Y-64110677D01*
X124764117Y-64074360D01*
X124764130Y-64074354D01*
X124913340Y-63982319D01*
X124913344Y-63982316D01*
X125037316Y-63858344D01*
X125037319Y-63858340D01*
X125129354Y-63709130D01*
X125129360Y-63709117D01*
X125169011Y-63589458D01*
X125208783Y-63532013D01*
X125273299Y-63505189D01*
X125342075Y-63517504D01*
X125388292Y-63557338D01*
X125398923Y-63572521D01*
X125398924Y-63572522D01*
X125976923Y-62994523D01*
X126000507Y-63074844D01*
G37*
%TD.AperFunction*%
%TA.AperFunction,Conductor*%
G36*
X141867703Y-48709151D02*
G01*
X141867704Y-48709150D01*
X141921393Y-48641828D01*
X141921400Y-48641817D01*
X142056287Y-48408187D01*
X142107418Y-48277907D01*
X142150234Y-48222693D01*
X142216104Y-48199392D01*
X142284115Y-48215402D01*
X142310528Y-48235528D01*
X142933681Y-48858681D01*
X142967166Y-48920004D01*
X142970000Y-48946362D01*
X142970000Y-50165000D01*
X150538638Y-50165000D01*
X150605677Y-50184685D01*
X150626319Y-50201319D01*
X155633681Y-55208681D01*
X155667166Y-55270004D01*
X155670000Y-55296362D01*
X155670000Y-62011774D01*
X155650315Y-62078813D01*
X155597511Y-62124568D01*
X155528353Y-62134512D01*
X155468902Y-62107361D01*
X155461074Y-62106676D01*
X154883076Y-62684674D01*
X154859493Y-62604356D01*
X154781761Y-62483402D01*
X154673100Y-62389248D01*
X154542315Y-62329520D01*
X154532533Y-62328113D01*
X155107522Y-61753124D01*
X155107521Y-61753123D01*
X155039937Y-61705801D01*
X155039935Y-61705800D01*
X154837747Y-61611518D01*
X154837736Y-61611514D01*
X154622248Y-61553774D01*
X154622241Y-61553773D01*
X154400002Y-61534330D01*
X154399998Y-61534330D01*
X154177758Y-61553773D01*
X154177751Y-61553774D01*
X153962263Y-61611514D01*
X153962252Y-61611518D01*
X153760066Y-61705798D01*
X153692477Y-61753124D01*
X154267466Y-62328113D01*
X154257685Y-62329520D01*
X154126900Y-62389248D01*
X154018239Y-62483402D01*
X153940507Y-62604356D01*
X153916923Y-62684676D01*
X153338924Y-62106677D01*
X153291600Y-62174265D01*
X153242382Y-62279814D01*
X153196210Y-62332253D01*
X153129016Y-62351405D01*
X153062135Y-62331189D01*
X153017618Y-62279814D01*
X152968397Y-62174261D01*
X152921075Y-62106677D01*
X152921074Y-62106676D01*
X152343076Y-62684674D01*
X152319493Y-62604356D01*
X152241761Y-62483402D01*
X152133100Y-62389248D01*
X152002315Y-62329520D01*
X151992533Y-62328113D01*
X152567522Y-61753124D01*
X152567521Y-61753123D01*
X152499937Y-61705801D01*
X152499935Y-61705800D01*
X152297747Y-61611518D01*
X152297736Y-61611514D01*
X152082248Y-61553774D01*
X152082241Y-61553773D01*
X151860002Y-61534330D01*
X151859998Y-61534330D01*
X151637758Y-61553773D01*
X151637751Y-61553774D01*
X151422263Y-61611514D01*
X151422252Y-61611518D01*
X151220066Y-61705798D01*
X151152477Y-61753124D01*
X151727466Y-62328113D01*
X151717685Y-62329520D01*
X151586900Y-62389248D01*
X151478239Y-62483402D01*
X151400507Y-62604356D01*
X151376923Y-62684676D01*
X150798924Y-62106677D01*
X150751598Y-62174266D01*
X150657318Y-62376452D01*
X150657314Y-62376463D01*
X150599574Y-62591951D01*
X150599573Y-62591958D01*
X150580130Y-62814198D01*
X150580130Y-62814201D01*
X150599573Y-63036441D01*
X150599574Y-63036448D01*
X150657314Y-63251936D01*
X150657318Y-63251947D01*
X150751600Y-63454135D01*
X150751601Y-63454137D01*
X150798923Y-63521721D01*
X150798924Y-63521722D01*
X151376923Y-62943723D01*
X151400507Y-63024044D01*
X151478239Y-63144998D01*
X151586900Y-63239152D01*
X151717685Y-63298880D01*
X151727466Y-63300286D01*
X151152476Y-63875274D01*
X151152477Y-63875275D01*
X151220061Y-63922597D01*
X151325614Y-63971818D01*
X151378053Y-64017990D01*
X151397205Y-64085184D01*
X151376989Y-64152065D01*
X151325614Y-64196582D01*
X151220065Y-64245800D01*
X151152477Y-64293124D01*
X151727466Y-64868113D01*
X151717685Y-64869520D01*
X151586900Y-64929248D01*
X151478239Y-65023402D01*
X151400507Y-65144356D01*
X151376923Y-65224676D01*
X150798924Y-64646677D01*
X150751598Y-64714266D01*
X150657318Y-64916452D01*
X150657314Y-64916463D01*
X150599574Y-65131951D01*
X150598635Y-65137282D01*
X150596171Y-65136847D01*
X150574451Y-65192141D01*
X150517800Y-65233038D01*
X150448033Y-65236815D01*
X150388804Y-65203804D01*
X149320000Y-64135000D01*
X146830461Y-64135000D01*
X146763422Y-64115315D01*
X146717667Y-64062511D01*
X146707723Y-63993353D01*
X146731195Y-63936688D01*
X146753352Y-63907089D01*
X146753354Y-63907086D01*
X146803596Y-63772379D01*
X146803598Y-63772372D01*
X146809999Y-63712844D01*
X146810000Y-63712827D01*
X146810000Y-63115000D01*
X145825686Y-63115000D01*
X145837641Y-63103045D01*
X145895165Y-62990148D01*
X145914986Y-62865000D01*
X145895165Y-62739852D01*
X145837641Y-62626955D01*
X145825686Y-62615000D01*
X146810000Y-62615000D01*
X146810000Y-62017172D01*
X146809999Y-62017155D01*
X146803598Y-61957627D01*
X146803596Y-61957620D01*
X146753354Y-61822913D01*
X146753350Y-61822906D01*
X146667190Y-61707812D01*
X146667187Y-61707809D01*
X146552093Y-61621649D01*
X146552086Y-61621645D01*
X146417379Y-61571403D01*
X146417372Y-61571401D01*
X146357844Y-61565000D01*
X145760000Y-61565000D01*
X145760000Y-62549314D01*
X145748045Y-62537359D01*
X145635148Y-62479835D01*
X145541481Y-62465000D01*
X145478519Y-62465000D01*
X145384852Y-62479835D01*
X145271955Y-62537359D01*
X145260000Y-62549314D01*
X145260000Y-61565000D01*
X144662155Y-61565000D01*
X144602627Y-61571401D01*
X144602620Y-61571403D01*
X144467913Y-61621645D01*
X144467906Y-61621649D01*
X144352812Y-61707809D01*
X144352809Y-61707812D01*
X144266649Y-61822906D01*
X144266645Y-61822913D01*
X144216403Y-61957620D01*
X144216401Y-61957627D01*
X144210000Y-62017155D01*
X144210000Y-62615000D01*
X145194314Y-62615000D01*
X145182359Y-62626955D01*
X145124835Y-62739852D01*
X145105014Y-62865000D01*
X145124835Y-62990148D01*
X145182359Y-63103045D01*
X145194314Y-63115000D01*
X144210000Y-63115000D01*
X144210000Y-63712844D01*
X144216401Y-63772372D01*
X144216403Y-63772379D01*
X144266645Y-63907086D01*
X144266647Y-63907089D01*
X144288805Y-63936688D01*
X144313223Y-64002152D01*
X144298372Y-64070425D01*
X144248967Y-64119831D01*
X144189539Y-64135000D01*
X135097339Y-64135000D01*
X135054005Y-64127181D01*
X134989207Y-64103012D01*
X134989202Y-64103011D01*
X134928654Y-64096500D01*
X134928638Y-64096500D01*
X133231362Y-64096500D01*
X133231345Y-64096500D01*
X133170797Y-64103011D01*
X133170792Y-64103012D01*
X133105995Y-64127181D01*
X133062661Y-64135000D01*
X131912276Y-64135000D01*
X131880183Y-64130775D01*
X131808092Y-64111458D01*
X131808088Y-64111457D01*
X131808087Y-64111457D01*
X131808086Y-64111456D01*
X131808081Y-64111456D01*
X131580002Y-64091502D01*
X131579998Y-64091502D01*
X131351918Y-64111456D01*
X131351907Y-64111458D01*
X131279817Y-64130775D01*
X131247724Y-64135000D01*
X128999999Y-64135000D01*
X127921283Y-65213715D01*
X127859960Y-65247200D01*
X127790268Y-65242216D01*
X127734335Y-65200344D01*
X127713827Y-65158127D01*
X127662686Y-64967266D01*
X127662681Y-64967252D01*
X127568399Y-64765064D01*
X127568398Y-64765062D01*
X127521075Y-64697477D01*
X127521074Y-64697476D01*
X126943076Y-65275474D01*
X126919493Y-65195156D01*
X126841761Y-65074202D01*
X126733100Y-64980048D01*
X126602315Y-64920320D01*
X126592533Y-64918913D01*
X127167522Y-64343924D01*
X127167521Y-64343923D01*
X127099937Y-64296601D01*
X127099935Y-64296600D01*
X126994386Y-64247382D01*
X126941946Y-64201210D01*
X126922794Y-64134017D01*
X126943009Y-64067135D01*
X126994386Y-64022618D01*
X127099931Y-63973401D01*
X127099933Y-63973400D01*
X127167522Y-63926074D01*
X126592533Y-63351086D01*
X126602315Y-63349680D01*
X126733100Y-63289952D01*
X126841761Y-63195798D01*
X126919493Y-63074844D01*
X126943076Y-62994524D01*
X127521074Y-63572522D01*
X127568400Y-63504933D01*
X127568401Y-63504931D01*
X127662681Y-63302747D01*
X127662685Y-63302736D01*
X127720425Y-63087248D01*
X127720426Y-63087241D01*
X127739870Y-62865001D01*
X127739870Y-62864998D01*
X127720426Y-62642758D01*
X127720425Y-62642751D01*
X127662685Y-62427263D01*
X127662681Y-62427252D01*
X127568399Y-62225064D01*
X127568398Y-62225062D01*
X127521075Y-62157477D01*
X127521074Y-62157476D01*
X126943076Y-62735474D01*
X126919493Y-62655156D01*
X126841761Y-62534202D01*
X126733100Y-62440048D01*
X126602315Y-62380320D01*
X126592533Y-62378913D01*
X127167522Y-61803924D01*
X127167521Y-61803923D01*
X127099937Y-61756601D01*
X127099935Y-61756600D01*
X126897747Y-61662318D01*
X126897736Y-61662314D01*
X126682248Y-61604574D01*
X126682241Y-61604573D01*
X126460002Y-61585130D01*
X126459998Y-61585130D01*
X126237758Y-61604573D01*
X126237751Y-61604574D01*
X126022263Y-61662314D01*
X126022252Y-61662318D01*
X125820066Y-61756598D01*
X125752477Y-61803924D01*
X126327466Y-62378913D01*
X126317685Y-62380320D01*
X126186900Y-62440048D01*
X126078239Y-62534202D01*
X126000507Y-62655156D01*
X125976923Y-62735476D01*
X125398923Y-62157476D01*
X125388293Y-62172660D01*
X125333717Y-62216286D01*
X125264218Y-62223480D01*
X125201863Y-62191958D01*
X125169011Y-62140542D01*
X125129359Y-62020880D01*
X125129354Y-62020869D01*
X125037319Y-61871659D01*
X125037316Y-61871655D01*
X124913344Y-61747683D01*
X124913340Y-61747680D01*
X124764130Y-61655645D01*
X124764119Y-61655640D01*
X124597697Y-61600494D01*
X124494986Y-61590000D01*
X124170000Y-61590000D01*
X124170000Y-62429498D01*
X124062315Y-62380320D01*
X123955763Y-62365000D01*
X123884237Y-62365000D01*
X123777685Y-62380320D01*
X123670000Y-62429498D01*
X123670000Y-61590000D01*
X123345028Y-61590000D01*
X123345012Y-61590001D01*
X123242303Y-61600494D01*
X123242301Y-61600494D01*
X123075880Y-61655640D01*
X123075869Y-61655645D01*
X122926659Y-61747680D01*
X122926655Y-61747683D01*
X122802683Y-61871655D01*
X122802680Y-61871659D01*
X122710645Y-62020869D01*
X122710640Y-62020880D01*
X122655494Y-62187302D01*
X122645000Y-62290013D01*
X122645000Y-62615000D01*
X123486314Y-62615000D01*
X123460507Y-62655156D01*
X123420000Y-62793111D01*
X123420000Y-62936889D01*
X123460507Y-63074844D01*
X123486314Y-63115000D01*
X122645001Y-63115000D01*
X122645001Y-63439986D01*
X122655494Y-63542696D01*
X122655494Y-63542698D01*
X122710640Y-63709119D01*
X122710645Y-63709130D01*
X122802680Y-63858340D01*
X122802683Y-63858344D01*
X122867658Y-63923319D01*
X122901143Y-63984642D01*
X122896159Y-64054334D01*
X122854287Y-64110267D01*
X122788823Y-64134684D01*
X122779977Y-64135000D01*
X118890461Y-64135000D01*
X118823422Y-64115315D01*
X118777667Y-64062511D01*
X118767723Y-63993353D01*
X118791195Y-63936688D01*
X118813352Y-63907089D01*
X118813354Y-63907086D01*
X118863596Y-63772379D01*
X118863598Y-63772372D01*
X118869999Y-63712844D01*
X118870000Y-63712827D01*
X118870000Y-63115000D01*
X117885686Y-63115000D01*
X117897641Y-63103045D01*
X117955165Y-62990148D01*
X117974986Y-62865000D01*
X117955165Y-62739852D01*
X117897641Y-62626955D01*
X117885686Y-62615000D01*
X118870000Y-62615000D01*
X118870000Y-62017172D01*
X118869999Y-62017155D01*
X118863598Y-61957627D01*
X118863596Y-61957620D01*
X118813354Y-61822913D01*
X118813350Y-61822906D01*
X118727190Y-61707812D01*
X118727187Y-61707809D01*
X118612093Y-61621649D01*
X118612086Y-61621645D01*
X118477379Y-61571403D01*
X118477372Y-61571401D01*
X118417844Y-61565000D01*
X117820000Y-61565000D01*
X117820000Y-62549314D01*
X117808045Y-62537359D01*
X117695148Y-62479835D01*
X117601481Y-62465000D01*
X117538519Y-62465000D01*
X117444852Y-62479835D01*
X117331955Y-62537359D01*
X117320000Y-62549314D01*
X117320000Y-61565000D01*
X116722155Y-61565000D01*
X116662627Y-61571401D01*
X116662620Y-61571403D01*
X116527913Y-61621645D01*
X116527906Y-61621649D01*
X116412812Y-61707809D01*
X116412809Y-61707812D01*
X116326649Y-61822906D01*
X116326645Y-61822913D01*
X116276403Y-61957620D01*
X116276401Y-61957627D01*
X116270000Y-62017155D01*
X116270000Y-62615000D01*
X117254314Y-62615000D01*
X117242359Y-62626955D01*
X117184835Y-62739852D01*
X117165014Y-62865000D01*
X117184835Y-62990148D01*
X117242359Y-63103045D01*
X117254314Y-63115000D01*
X116270000Y-63115000D01*
X116270000Y-63712844D01*
X116276401Y-63772372D01*
X116276403Y-63772379D01*
X116326645Y-63907086D01*
X116326647Y-63907089D01*
X116348805Y-63936688D01*
X116373223Y-64002152D01*
X116358372Y-64070425D01*
X116308967Y-64119831D01*
X116249539Y-64135000D01*
X108679999Y-64135000D01*
X107601283Y-65213715D01*
X107539960Y-65247200D01*
X107470268Y-65242216D01*
X107414335Y-65200344D01*
X107393827Y-65158127D01*
X107342686Y-64967266D01*
X107342681Y-64967252D01*
X107248399Y-64765064D01*
X107248398Y-64765062D01*
X107201075Y-64697477D01*
X107201074Y-64697476D01*
X106623076Y-65275474D01*
X106599493Y-65195156D01*
X106521761Y-65074202D01*
X106413100Y-64980048D01*
X106282315Y-64920320D01*
X106272533Y-64918913D01*
X106847522Y-64343924D01*
X106847521Y-64343923D01*
X106779937Y-64296601D01*
X106779935Y-64296600D01*
X106674386Y-64247382D01*
X106621946Y-64201210D01*
X106602794Y-64134017D01*
X106623009Y-64067135D01*
X106674386Y-64022618D01*
X106779931Y-63973401D01*
X106779933Y-63973400D01*
X106847522Y-63926074D01*
X106272533Y-63351086D01*
X106282315Y-63349680D01*
X106413100Y-63289952D01*
X106521761Y-63195798D01*
X106599493Y-63074844D01*
X106623076Y-62994524D01*
X107201074Y-63572522D01*
X107248400Y-63504933D01*
X107248401Y-63504931D01*
X107342681Y-63302747D01*
X107342685Y-63302736D01*
X107400425Y-63087248D01*
X107400426Y-63087241D01*
X107419870Y-62865001D01*
X107419870Y-62864998D01*
X107400426Y-62642758D01*
X107400425Y-62642751D01*
X107342685Y-62427263D01*
X107342681Y-62427252D01*
X107248399Y-62225064D01*
X107248398Y-62225062D01*
X107201075Y-62157477D01*
X107201074Y-62157476D01*
X106623076Y-62735474D01*
X106599493Y-62655156D01*
X106521761Y-62534202D01*
X106413100Y-62440048D01*
X106282315Y-62380320D01*
X106272533Y-62378913D01*
X106847522Y-61803924D01*
X106847521Y-61803923D01*
X106779937Y-61756601D01*
X106779935Y-61756600D01*
X106577747Y-61662318D01*
X106577736Y-61662314D01*
X106362248Y-61604574D01*
X106362241Y-61604573D01*
X106140002Y-61585130D01*
X106139998Y-61585130D01*
X105917758Y-61604573D01*
X105917751Y-61604574D01*
X105702263Y-61662314D01*
X105702252Y-61662318D01*
X105500066Y-61756598D01*
X105432477Y-61803924D01*
X106007466Y-62378913D01*
X105997685Y-62380320D01*
X105866900Y-62440048D01*
X105758239Y-62534202D01*
X105680507Y-62655156D01*
X105656923Y-62735476D01*
X105078923Y-62157476D01*
X105068293Y-62172660D01*
X105013717Y-62216286D01*
X104944218Y-62223480D01*
X104881863Y-62191958D01*
X104849011Y-62140542D01*
X104809359Y-62020880D01*
X104809354Y-62020869D01*
X104717319Y-61871659D01*
X104717316Y-61871655D01*
X104593344Y-61747683D01*
X104593340Y-61747680D01*
X104444130Y-61655645D01*
X104444119Y-61655640D01*
X104277697Y-61600494D01*
X104174986Y-61590000D01*
X103850000Y-61590000D01*
X103850000Y-62429498D01*
X103742315Y-62380320D01*
X103635763Y-62365000D01*
X103564237Y-62365000D01*
X103457685Y-62380320D01*
X103350000Y-62429498D01*
X103350000Y-61590000D01*
X103025028Y-61590000D01*
X103025012Y-61590001D01*
X102922303Y-61600494D01*
X102922301Y-61600494D01*
X102755880Y-61655640D01*
X102755869Y-61655645D01*
X102606659Y-61747680D01*
X102606655Y-61747683D01*
X102482683Y-61871655D01*
X102482680Y-61871659D01*
X102390645Y-62020869D01*
X102390640Y-62020880D01*
X102335494Y-62187302D01*
X102325000Y-62290013D01*
X102325000Y-62615000D01*
X103166314Y-62615000D01*
X103140507Y-62655156D01*
X103100000Y-62793111D01*
X103100000Y-62936889D01*
X103140507Y-63074844D01*
X103166314Y-63115000D01*
X102325001Y-63115000D01*
X102325001Y-63439986D01*
X102335494Y-63542696D01*
X102335494Y-63542698D01*
X102390640Y-63709119D01*
X102390645Y-63709130D01*
X102482680Y-63858340D01*
X102482683Y-63858344D01*
X102547658Y-63923319D01*
X102581143Y-63984642D01*
X102576159Y-64054334D01*
X102534287Y-64110267D01*
X102468823Y-64134684D01*
X102459977Y-64135000D01*
X97300461Y-64135000D01*
X97233422Y-64115315D01*
X97187667Y-64062511D01*
X97177723Y-63993353D01*
X97201195Y-63936688D01*
X97223352Y-63907089D01*
X97223354Y-63907086D01*
X97273596Y-63772379D01*
X97273598Y-63772372D01*
X97279999Y-63712844D01*
X97280000Y-63712827D01*
X97280000Y-63115000D01*
X96295686Y-63115000D01*
X96307641Y-63103045D01*
X96365165Y-62990148D01*
X96384986Y-62865000D01*
X96365165Y-62739852D01*
X96307641Y-62626955D01*
X96295686Y-62615000D01*
X97280000Y-62615000D01*
X97280000Y-62017172D01*
X97279999Y-62017155D01*
X97273598Y-61957627D01*
X97273596Y-61957620D01*
X97223354Y-61822913D01*
X97223350Y-61822906D01*
X97137190Y-61707812D01*
X97137187Y-61707809D01*
X97022093Y-61621649D01*
X97022086Y-61621645D01*
X96887379Y-61571403D01*
X96887372Y-61571401D01*
X96827844Y-61565000D01*
X96230000Y-61565000D01*
X96230000Y-62549314D01*
X96218045Y-62537359D01*
X96105148Y-62479835D01*
X96011481Y-62465000D01*
X95948519Y-62465000D01*
X95854852Y-62479835D01*
X95741955Y-62537359D01*
X95730000Y-62549314D01*
X95730000Y-61565000D01*
X95132155Y-61565000D01*
X95072627Y-61571401D01*
X95072620Y-61571403D01*
X94937913Y-61621645D01*
X94937906Y-61621649D01*
X94822812Y-61707809D01*
X94822809Y-61707812D01*
X94736649Y-61822906D01*
X94736645Y-61822913D01*
X94686403Y-61957620D01*
X94686401Y-61957627D01*
X94680000Y-62017155D01*
X94680000Y-62615000D01*
X95664314Y-62615000D01*
X95652359Y-62626955D01*
X95594835Y-62739852D01*
X95575014Y-62865000D01*
X95594835Y-62990148D01*
X95652359Y-63103045D01*
X95664314Y-63115000D01*
X94680000Y-63115000D01*
X94680000Y-63712844D01*
X94686401Y-63772372D01*
X94686403Y-63772379D01*
X94736645Y-63907086D01*
X94736647Y-63907089D01*
X94758805Y-63936688D01*
X94783223Y-64002152D01*
X94768372Y-64070425D01*
X94718967Y-64119831D01*
X94659539Y-64135000D01*
X88360001Y-64135000D01*
X88360000Y-64135000D01*
X88280034Y-64214966D01*
X88071735Y-64423264D01*
X88020050Y-64454242D01*
X87972194Y-64468759D01*
X87797001Y-64562401D01*
X87796994Y-64562405D01*
X87643431Y-64688432D01*
X87613775Y-64724567D01*
X87609687Y-64729077D01*
X87248267Y-65090497D01*
X87186944Y-65123982D01*
X87117252Y-65118998D01*
X87061319Y-65077126D01*
X87040811Y-65034909D01*
X87022686Y-64967266D01*
X87022681Y-64967252D01*
X86928399Y-64765064D01*
X86928398Y-64765062D01*
X86881075Y-64697477D01*
X86881074Y-64697476D01*
X86303076Y-65275474D01*
X86279493Y-65195156D01*
X86201761Y-65074202D01*
X86093100Y-64980048D01*
X85962315Y-64920320D01*
X85952533Y-64918913D01*
X86527522Y-64343924D01*
X86527521Y-64343923D01*
X86459937Y-64296601D01*
X86459935Y-64296600D01*
X86354386Y-64247382D01*
X86301946Y-64201210D01*
X86282794Y-64134017D01*
X86303009Y-64067135D01*
X86354386Y-64022618D01*
X86459931Y-63973401D01*
X86459933Y-63973400D01*
X86527522Y-63926074D01*
X85952533Y-63351086D01*
X85962315Y-63349680D01*
X86093100Y-63289952D01*
X86201761Y-63195798D01*
X86279493Y-63074844D01*
X86303076Y-62994524D01*
X86881074Y-63572522D01*
X86928400Y-63504933D01*
X86928401Y-63504931D01*
X87022681Y-63302747D01*
X87022685Y-63302736D01*
X87080425Y-63087248D01*
X87080426Y-63087241D01*
X87099870Y-62865001D01*
X87099870Y-62864998D01*
X87080426Y-62642758D01*
X87080425Y-62642751D01*
X87022685Y-62427263D01*
X87022681Y-62427252D01*
X86928399Y-62225064D01*
X86928398Y-62225062D01*
X86881075Y-62157477D01*
X86881074Y-62157476D01*
X86303076Y-62735474D01*
X86279493Y-62655156D01*
X86201761Y-62534202D01*
X86093100Y-62440048D01*
X85962315Y-62380320D01*
X85952533Y-62378913D01*
X86527522Y-61803924D01*
X86527521Y-61803923D01*
X86459937Y-61756601D01*
X86459935Y-61756600D01*
X86257747Y-61662318D01*
X86257736Y-61662314D01*
X86042248Y-61604574D01*
X86042241Y-61604573D01*
X85820002Y-61585130D01*
X85819998Y-61585130D01*
X85597758Y-61604573D01*
X85597751Y-61604574D01*
X85382263Y-61662314D01*
X85382252Y-61662318D01*
X85180066Y-61756598D01*
X85112477Y-61803924D01*
X85687466Y-62378913D01*
X85677685Y-62380320D01*
X85546900Y-62440048D01*
X85438239Y-62534202D01*
X85360507Y-62655156D01*
X85336923Y-62735476D01*
X84758923Y-62157476D01*
X84748293Y-62172660D01*
X84693717Y-62216286D01*
X84624218Y-62223480D01*
X84561863Y-62191958D01*
X84529011Y-62140542D01*
X84489359Y-62020880D01*
X84489354Y-62020869D01*
X84397319Y-61871659D01*
X84397316Y-61871655D01*
X84273344Y-61747683D01*
X84273340Y-61747680D01*
X84124130Y-61655645D01*
X84124119Y-61655640D01*
X83957697Y-61600494D01*
X83854986Y-61590000D01*
X83530000Y-61590000D01*
X83530000Y-62429498D01*
X83422315Y-62380320D01*
X83315763Y-62365000D01*
X83244237Y-62365000D01*
X83137685Y-62380320D01*
X83030000Y-62429498D01*
X83030000Y-61590000D01*
X82705028Y-61590000D01*
X82705012Y-61590001D01*
X82602303Y-61600494D01*
X82602301Y-61600494D01*
X82435880Y-61655640D01*
X82435869Y-61655645D01*
X82286659Y-61747680D01*
X82286655Y-61747683D01*
X82221681Y-61812658D01*
X82160358Y-61846143D01*
X82090666Y-61841159D01*
X82034733Y-61799287D01*
X82010316Y-61733823D01*
X82010000Y-61724977D01*
X82010000Y-61646362D01*
X82029685Y-61579323D01*
X82046319Y-61558681D01*
X88323681Y-55281319D01*
X88385004Y-55247834D01*
X88411362Y-55245000D01*
X109950000Y-55245000D01*
X111183681Y-54011319D01*
X111245004Y-53977834D01*
X111271362Y-53975000D01*
X132809999Y-53975000D01*
X132810000Y-53975000D01*
X133098267Y-53686732D01*
X133149944Y-53655759D01*
X133197804Y-53641241D01*
X133373004Y-53547595D01*
X133526568Y-53421568D01*
X133556238Y-53385413D01*
X133560288Y-53380944D01*
X134199915Y-52741319D01*
X134261238Y-52707834D01*
X134287596Y-52705000D01*
X136619999Y-52705000D01*
X136620000Y-52705000D01*
X136908267Y-52416732D01*
X136959944Y-52385759D01*
X137007804Y-52371241D01*
X137085896Y-52329500D01*
X137183004Y-52277595D01*
X137336568Y-52151568D01*
X137366238Y-52115413D01*
X137370288Y-52110944D01*
X138565944Y-50915288D01*
X138570413Y-50911238D01*
X138606568Y-50881568D01*
X138732595Y-50728004D01*
X138826241Y-50552804D01*
X138840758Y-50504945D01*
X138871732Y-50453267D01*
X139160000Y-50165000D01*
X139160000Y-49172294D01*
X139179685Y-49105255D01*
X139232489Y-49059500D01*
X139301647Y-49049556D01*
X139353852Y-49069841D01*
X139527473Y-49188214D01*
X139527485Y-49188221D01*
X139770539Y-49305269D01*
X139770537Y-49305269D01*
X140028337Y-49384790D01*
X140028343Y-49384792D01*
X140295101Y-49424999D01*
X140295110Y-49425000D01*
X140564890Y-49425000D01*
X140564898Y-49424999D01*
X140831656Y-49384792D01*
X140831662Y-49384790D01*
X141089461Y-49305269D01*
X141332521Y-49188218D01*
X141515150Y-49063702D01*
X140677534Y-48226086D01*
X140745629Y-48199126D01*
X140878492Y-48102595D01*
X140983175Y-47976055D01*
X141031631Y-47873079D01*
X141867703Y-48709151D01*
G37*
%TD.AperFunction*%
%TA.AperFunction,Conductor*%
G36*
X153940507Y-63024044D02*
G01*
X154018239Y-63144998D01*
X154126900Y-63239152D01*
X154257685Y-63298880D01*
X154267466Y-63300286D01*
X153692476Y-63875274D01*
X153692477Y-63875275D01*
X153760062Y-63922598D01*
X153760064Y-63922599D01*
X153855556Y-63967128D01*
X153907996Y-64013300D01*
X153927148Y-64080493D01*
X153906933Y-64147375D01*
X153855557Y-64191892D01*
X153755799Y-64238409D01*
X153633064Y-64324349D01*
X153571831Y-64367226D01*
X153571829Y-64367227D01*
X153571826Y-64367230D01*
X153413030Y-64526026D01*
X153413027Y-64526029D01*
X153413026Y-64526031D01*
X153387557Y-64562405D01*
X153284209Y-64709999D01*
X153237692Y-64809757D01*
X153191519Y-64862196D01*
X153124326Y-64881348D01*
X153057445Y-64861132D01*
X153012928Y-64809756D01*
X152968399Y-64714264D01*
X152968398Y-64714262D01*
X152921075Y-64646677D01*
X152921074Y-64646676D01*
X152343076Y-65224674D01*
X152319493Y-65144356D01*
X152241761Y-65023402D01*
X152133100Y-64929248D01*
X152002315Y-64869520D01*
X151992533Y-64868113D01*
X152567522Y-64293124D01*
X152567521Y-64293123D01*
X152499937Y-64245801D01*
X152499935Y-64245800D01*
X152394386Y-64196582D01*
X152341946Y-64150410D01*
X152322794Y-64083217D01*
X152343009Y-64016335D01*
X152394386Y-63971818D01*
X152499931Y-63922601D01*
X152499933Y-63922600D01*
X152567522Y-63875274D01*
X151992533Y-63300286D01*
X152002315Y-63298880D01*
X152133100Y-63239152D01*
X152241761Y-63144998D01*
X152319493Y-63024044D01*
X152343076Y-62943724D01*
X152921074Y-63521722D01*
X152968400Y-63454133D01*
X152968401Y-63454131D01*
X153017618Y-63348586D01*
X153063790Y-63296146D01*
X153130983Y-63276994D01*
X153197865Y-63297209D01*
X153242382Y-63348586D01*
X153291600Y-63454135D01*
X153291601Y-63454137D01*
X153338923Y-63521721D01*
X153338924Y-63521722D01*
X153916923Y-62943723D01*
X153940507Y-63024044D01*
G37*
%TD.AperFunction*%
%TD*%
%TA.AperFunction,Conductor*%
%TO.N,GND*%
G36*
X95090910Y-47355000D02*
G01*
X95243312Y-47355000D01*
X95394937Y-47339581D01*
X95442600Y-47324626D01*
X95442600Y-48592228D01*
X95477961Y-48589699D01*
X95757494Y-48528890D01*
X95873114Y-48485766D01*
X95942805Y-48480782D01*
X96004129Y-48514266D01*
X96037614Y-48575589D01*
X96032630Y-48645281D01*
X96020257Y-48669769D01*
X95926267Y-48813631D01*
X95826412Y-49041282D01*
X95765387Y-49282261D01*
X95765385Y-49282270D01*
X95744859Y-49529994D01*
X95744859Y-49530005D01*
X95765385Y-49777729D01*
X95765387Y-49777738D01*
X95826412Y-50018717D01*
X95926266Y-50246364D01*
X96026564Y-50399882D01*
X96766922Y-49659523D01*
X96790507Y-49739844D01*
X96868239Y-49860798D01*
X96976900Y-49954952D01*
X97107685Y-50014680D01*
X97117466Y-50016086D01*
X96379942Y-50753609D01*
X96426768Y-50790055D01*
X96426770Y-50790056D01*
X96645385Y-50908364D01*
X96645396Y-50908369D01*
X96736714Y-50939719D01*
X96793729Y-50980104D01*
X96819860Y-51044904D01*
X96806809Y-51113544D01*
X96758720Y-51164232D01*
X96696451Y-51181000D01*
X95784078Y-51181000D01*
X95717039Y-51161315D01*
X95688819Y-51136383D01*
X95554997Y-50975797D01*
X94104856Y-49235627D01*
X93214741Y-48167489D01*
X93186945Y-48103386D01*
X93186000Y-48088106D01*
X93186000Y-47589210D01*
X93205685Y-47522171D01*
X93258489Y-47476416D01*
X93327647Y-47466472D01*
X93391203Y-47495497D01*
X93418832Y-47529783D01*
X93505791Y-47689038D01*
X93505792Y-47689039D01*
X93677239Y-47918065D01*
X93677249Y-47918077D01*
X93879522Y-48120350D01*
X93879534Y-48120360D01*
X94108560Y-48291807D01*
X94108561Y-48291808D01*
X94359642Y-48428908D01*
X94359641Y-48428908D01*
X94627704Y-48528890D01*
X94907238Y-48589699D01*
X94942599Y-48592228D01*
X94942600Y-48592228D01*
X94942600Y-47324521D01*
X95090910Y-47355000D01*
G37*
%TD.AperFunction*%
%TA.AperFunction,Conductor*%
G36*
X99330507Y-49739844D02*
G01*
X99408239Y-49860798D01*
X99516900Y-49954952D01*
X99647685Y-50014680D01*
X99657466Y-50016086D01*
X98919942Y-50753609D01*
X98966768Y-50790055D01*
X98966770Y-50790056D01*
X99185385Y-50908364D01*
X99185396Y-50908369D01*
X99276714Y-50939719D01*
X99333729Y-50980104D01*
X99359860Y-51044904D01*
X99346809Y-51113544D01*
X99298720Y-51164232D01*
X99236451Y-51181000D01*
X97803549Y-51181000D01*
X97736510Y-51161315D01*
X97690755Y-51108511D01*
X97680811Y-51039353D01*
X97709836Y-50975797D01*
X97763286Y-50939719D01*
X97854603Y-50908369D01*
X97854614Y-50908364D01*
X98073228Y-50790057D01*
X98073231Y-50790055D01*
X98120056Y-50753609D01*
X97382533Y-50016086D01*
X97392315Y-50014680D01*
X97523100Y-49954952D01*
X97631761Y-49860798D01*
X97709493Y-49739844D01*
X97733076Y-49659524D01*
X98473433Y-50399881D01*
X98507211Y-50396379D01*
X98532794Y-50396380D01*
X98566564Y-50399882D01*
X99306922Y-49659523D01*
X99330507Y-49739844D01*
G37*
%TD.AperFunction*%
%TA.AperFunction,Conductor*%
G36*
X101870507Y-49739844D02*
G01*
X101948239Y-49860798D01*
X102056900Y-49954952D01*
X102187685Y-50014680D01*
X102197466Y-50016086D01*
X101459942Y-50753609D01*
X101506768Y-50790055D01*
X101506770Y-50790056D01*
X101725385Y-50908364D01*
X101725396Y-50908369D01*
X101816714Y-50939719D01*
X101873729Y-50980104D01*
X101899860Y-51044904D01*
X101886809Y-51113544D01*
X101838720Y-51164232D01*
X101776451Y-51181000D01*
X100343549Y-51181000D01*
X100276510Y-51161315D01*
X100230755Y-51108511D01*
X100220811Y-51039353D01*
X100249836Y-50975797D01*
X100303286Y-50939719D01*
X100394603Y-50908369D01*
X100394614Y-50908364D01*
X100613228Y-50790057D01*
X100613231Y-50790055D01*
X100660056Y-50753609D01*
X99922533Y-50016086D01*
X99932315Y-50014680D01*
X100063100Y-49954952D01*
X100171761Y-49860798D01*
X100249493Y-49739844D01*
X100273076Y-49659524D01*
X101013433Y-50399881D01*
X101047211Y-50396379D01*
X101072794Y-50396380D01*
X101106564Y-50399882D01*
X101846923Y-49659523D01*
X101870507Y-49739844D01*
G37*
%TD.AperFunction*%
%TA.AperFunction,Conductor*%
G36*
X104410507Y-49739844D02*
G01*
X104488239Y-49860798D01*
X104596900Y-49954952D01*
X104727685Y-50014680D01*
X104737466Y-50016086D01*
X103999942Y-50753609D01*
X104046768Y-50790055D01*
X104046770Y-50790056D01*
X104265385Y-50908364D01*
X104265396Y-50908369D01*
X104356714Y-50939719D01*
X104413729Y-50980104D01*
X104439860Y-51044904D01*
X104426809Y-51113544D01*
X104378720Y-51164232D01*
X104316451Y-51181000D01*
X102883549Y-51181000D01*
X102816510Y-51161315D01*
X102770755Y-51108511D01*
X102760811Y-51039353D01*
X102789836Y-50975797D01*
X102843286Y-50939719D01*
X102934603Y-50908369D01*
X102934614Y-50908364D01*
X103153228Y-50790057D01*
X103153231Y-50790055D01*
X103200056Y-50753609D01*
X102462533Y-50016086D01*
X102472315Y-50014680D01*
X102603100Y-49954952D01*
X102711761Y-49860798D01*
X102789493Y-49739844D01*
X102813076Y-49659524D01*
X103553433Y-50399881D01*
X103587211Y-50396379D01*
X103612794Y-50396380D01*
X103646564Y-50399882D01*
X104386922Y-49659523D01*
X104410507Y-49739844D01*
G37*
%TD.AperFunction*%
%TA.AperFunction,Conductor*%
G36*
X106825710Y-47355000D02*
G01*
X106978112Y-47355000D01*
X107129737Y-47339581D01*
X107177400Y-47324626D01*
X107177400Y-48592228D01*
X107212761Y-48589699D01*
X107492295Y-48528890D01*
X107760358Y-48428908D01*
X108011438Y-48291808D01*
X108011439Y-48291807D01*
X108240465Y-48120360D01*
X108240477Y-48120350D01*
X108442750Y-47918077D01*
X108442760Y-47918065D01*
X108614207Y-47689039D01*
X108614208Y-47689038D01*
X108701168Y-47529783D01*
X108750573Y-47480378D01*
X108818846Y-47465526D01*
X108884310Y-47489943D01*
X108926182Y-47545876D01*
X108934000Y-47589210D01*
X108934000Y-48589638D01*
X108914315Y-48656677D01*
X108897681Y-48677319D01*
X106430319Y-51144681D01*
X106368996Y-51178166D01*
X106342638Y-51181000D01*
X105423549Y-51181000D01*
X105356510Y-51161315D01*
X105310755Y-51108511D01*
X105300811Y-51039353D01*
X105329836Y-50975797D01*
X105383286Y-50939719D01*
X105474603Y-50908369D01*
X105474614Y-50908364D01*
X105693228Y-50790057D01*
X105693231Y-50790055D01*
X105740056Y-50753609D01*
X105002533Y-50016086D01*
X105012315Y-50014680D01*
X105143100Y-49954952D01*
X105251761Y-49860798D01*
X105329493Y-49739844D01*
X105353076Y-49659524D01*
X106093434Y-50399882D01*
X106193731Y-50246369D01*
X106293587Y-50018717D01*
X106354612Y-49777738D01*
X106354614Y-49777729D01*
X106375141Y-49530005D01*
X106375141Y-49529994D01*
X106354614Y-49282270D01*
X106354612Y-49282261D01*
X106293587Y-49041282D01*
X106193733Y-48813635D01*
X106099742Y-48669770D01*
X106079555Y-48602880D01*
X106098735Y-48535694D01*
X106151193Y-48489544D01*
X106220275Y-48479081D01*
X106246885Y-48485766D01*
X106362504Y-48528890D01*
X106642038Y-48589699D01*
X106677399Y-48592228D01*
X106677400Y-48592228D01*
X106677400Y-47324521D01*
X106825710Y-47355000D01*
G37*
%TD.AperFunction*%
%TA.AperFunction,Conductor*%
G36*
X100945290Y-47787166D02*
G01*
X100977384Y-47842754D01*
X101022050Y-48009453D01*
X101110905Y-48183841D01*
X101234067Y-48335931D01*
X101296015Y-48386095D01*
X101330151Y-48351960D01*
X101391474Y-48318475D01*
X101461166Y-48323459D01*
X101505513Y-48351960D01*
X102197466Y-49043913D01*
X102187685Y-49045320D01*
X102056900Y-49105048D01*
X101948239Y-49199202D01*
X101870507Y-49320156D01*
X101846923Y-49400476D01*
X101106562Y-48660115D01*
X101072794Y-48663618D01*
X101047211Y-48663618D01*
X101013435Y-48660115D01*
X100273076Y-49400475D01*
X100249493Y-49320156D01*
X100171761Y-49199202D01*
X100063100Y-49105048D01*
X99932315Y-49045320D01*
X99922532Y-49043913D01*
X100660057Y-48306389D01*
X100613229Y-48269943D01*
X100568234Y-48245593D01*
X100518643Y-48196373D01*
X100503535Y-48128157D01*
X100527705Y-48062601D01*
X100539570Y-48048856D01*
X100670357Y-47918069D01*
X100670366Y-47918059D01*
X100758342Y-47800537D01*
X100814275Y-47758665D01*
X100883967Y-47753681D01*
X100945290Y-47787166D01*
G37*
%TD.AperFunction*%
%TA.AperFunction,Conductor*%
G36*
X98161434Y-46202791D02*
G01*
X98151133Y-46405910D01*
X98181633Y-46605000D01*
X96160846Y-46605000D01*
X96186166Y-46507209D01*
X96196467Y-46304090D01*
X96165967Y-46105000D01*
X98186754Y-46105000D01*
X98161434Y-46202791D01*
G37*
%TD.AperFunction*%
%TA.AperFunction,Conductor*%
G36*
X101971434Y-46202791D02*
G01*
X101961133Y-46405910D01*
X101991633Y-46605000D01*
X100123246Y-46605000D01*
X100148566Y-46507209D01*
X100158867Y-46304090D01*
X100128367Y-46105000D01*
X101996754Y-46105000D01*
X101971434Y-46202791D01*
G37*
%TD.AperFunction*%
%TA.AperFunction,Conductor*%
G36*
X105933834Y-46202791D02*
G01*
X105923533Y-46405910D01*
X105954033Y-46605000D01*
X103933246Y-46605000D01*
X103958566Y-46507209D01*
X103968867Y-46304090D01*
X103938367Y-46105000D01*
X105959154Y-46105000D01*
X105933834Y-46202791D01*
G37*
%TD.AperFunction*%
%TD*%
%TA.AperFunction,Conductor*%
%TO.N,+5V*%
G36*
X83203710Y-47355000D02*
G01*
X83356112Y-47355000D01*
X83507737Y-47339581D01*
X83555400Y-47324626D01*
X83555400Y-48592228D01*
X83590761Y-48589699D01*
X83870295Y-48528890D01*
X84138357Y-48428908D01*
X84366573Y-48304293D01*
X84434846Y-48289441D01*
X84500310Y-48313858D01*
X84542182Y-48369791D01*
X84550000Y-48413125D01*
X84550000Y-53669638D01*
X84530315Y-53736677D01*
X84513681Y-53757319D01*
X76930000Y-61340999D01*
X76930000Y-62552724D01*
X76925775Y-62584817D01*
X76906458Y-62656907D01*
X76906456Y-62656918D01*
X76886502Y-62884998D01*
X76886502Y-62885001D01*
X76906456Y-63113081D01*
X76906457Y-63113088D01*
X76925775Y-63185181D01*
X76930000Y-63217275D01*
X76930000Y-64135000D01*
X77354163Y-64135000D01*
X77421202Y-64154685D01*
X77466957Y-64207489D01*
X77477691Y-64269808D01*
X77474526Y-64305972D01*
X78155599Y-64987046D01*
X78074852Y-64999835D01*
X77961955Y-65057359D01*
X77872359Y-65146955D01*
X77814835Y-65259852D01*
X77802046Y-65340599D01*
X77120973Y-64659526D01*
X77120972Y-64659527D01*
X77069868Y-64732513D01*
X76973734Y-64938673D01*
X76973730Y-64938682D01*
X76914860Y-65158389D01*
X76914858Y-65158400D01*
X76895034Y-65384997D01*
X76895034Y-65385002D01*
X76914858Y-65611599D01*
X76914860Y-65611610D01*
X76973730Y-65831317D01*
X76973734Y-65831326D01*
X77069865Y-66037481D01*
X77069866Y-66037483D01*
X77120973Y-66110471D01*
X77120974Y-66110472D01*
X77802046Y-65429399D01*
X77814835Y-65510148D01*
X77872359Y-65623045D01*
X77961955Y-65712641D01*
X78074852Y-65770165D01*
X78155599Y-65782953D01*
X77474526Y-66464025D01*
X77474526Y-66464026D01*
X77547512Y-66515131D01*
X77547516Y-66515133D01*
X77753673Y-66611265D01*
X77753682Y-66611269D01*
X77973389Y-66670139D01*
X77973400Y-66670141D01*
X78199998Y-66689966D01*
X78200002Y-66689966D01*
X78426599Y-66670141D01*
X78426610Y-66670139D01*
X78646317Y-66611269D01*
X78646331Y-66611264D01*
X78852478Y-66515136D01*
X78925472Y-66464025D01*
X78244401Y-65782953D01*
X78325148Y-65770165D01*
X78438045Y-65712641D01*
X78527641Y-65623045D01*
X78585165Y-65510148D01*
X78597953Y-65429400D01*
X79279025Y-66110472D01*
X79335192Y-66105558D01*
X79403692Y-66119324D01*
X79453875Y-66167939D01*
X79470000Y-66229086D01*
X79470000Y-67259538D01*
X79450315Y-67326577D01*
X79397511Y-67372332D01*
X79328353Y-67382276D01*
X79271690Y-67358805D01*
X79242093Y-67336649D01*
X79242086Y-67336645D01*
X79107379Y-67286403D01*
X79107372Y-67286401D01*
X79047844Y-67280000D01*
X78450000Y-67280000D01*
X78450000Y-68264314D01*
X78438045Y-68252359D01*
X78325148Y-68194835D01*
X78231481Y-68180000D01*
X78168519Y-68180000D01*
X78074852Y-68194835D01*
X77961955Y-68252359D01*
X77950000Y-68264314D01*
X77950000Y-67280000D01*
X77352155Y-67280000D01*
X77292627Y-67286401D01*
X77292620Y-67286403D01*
X77157913Y-67336645D01*
X77157906Y-67336649D01*
X77042812Y-67422809D01*
X77042809Y-67422812D01*
X76956649Y-67537906D01*
X76956645Y-67537913D01*
X76906403Y-67672620D01*
X76906401Y-67672627D01*
X76900000Y-67732155D01*
X76900000Y-68330000D01*
X77884314Y-68330000D01*
X77872359Y-68341955D01*
X77814835Y-68454852D01*
X77795014Y-68580000D01*
X77814835Y-68705148D01*
X77872359Y-68818045D01*
X77884314Y-68830000D01*
X76900000Y-68830000D01*
X76900000Y-69427844D01*
X76906401Y-69487372D01*
X76906403Y-69487379D01*
X76956645Y-69622086D01*
X76956649Y-69622093D01*
X77042809Y-69737187D01*
X77042812Y-69737190D01*
X77157906Y-69823350D01*
X77157913Y-69823354D01*
X77292620Y-69873596D01*
X77316128Y-69876124D01*
X77380680Y-69902862D01*
X77420528Y-69960254D01*
X77423022Y-70030079D01*
X77387370Y-70090168D01*
X77374001Y-70100986D01*
X77355707Y-70113796D01*
X77355702Y-70113800D01*
X77259002Y-70210499D01*
X77254851Y-70214290D01*
X76930000Y-70484999D01*
X76930000Y-70787724D01*
X76925775Y-70819817D01*
X76906458Y-70891907D01*
X76906456Y-70891918D01*
X76886502Y-71119998D01*
X76886502Y-71120001D01*
X76906456Y-71348081D01*
X76906457Y-71348088D01*
X76925775Y-71420181D01*
X76930000Y-71452275D01*
X76930000Y-73327724D01*
X76925775Y-73359817D01*
X76906458Y-73431907D01*
X76906456Y-73431918D01*
X76886502Y-73659998D01*
X76886502Y-73660001D01*
X76906456Y-73888081D01*
X76906457Y-73888088D01*
X76925775Y-73960181D01*
X76930000Y-73992275D01*
X76930000Y-75867724D01*
X76925775Y-75899817D01*
X76906458Y-75971907D01*
X76906456Y-75971918D01*
X76886502Y-76199998D01*
X76886502Y-76200001D01*
X76905950Y-76422302D01*
X76906457Y-76428087D01*
X76922191Y-76486808D01*
X76925775Y-76500181D01*
X76930000Y-76532275D01*
X76930000Y-78407724D01*
X76925775Y-78439817D01*
X76906458Y-78511907D01*
X76906456Y-78511918D01*
X76886502Y-78739998D01*
X76886502Y-78740001D01*
X76906456Y-78968081D01*
X76906457Y-78968088D01*
X76925775Y-79040181D01*
X76930000Y-79072275D01*
X76930000Y-80947724D01*
X76925775Y-80979817D01*
X76906458Y-81051907D01*
X76906456Y-81051918D01*
X76886502Y-81279998D01*
X76886502Y-81280001D01*
X76906456Y-81508081D01*
X76906457Y-81508088D01*
X76925775Y-81580181D01*
X76930000Y-81612275D01*
X76930000Y-83487724D01*
X76925775Y-83519817D01*
X76906458Y-83591907D01*
X76906456Y-83591918D01*
X76886502Y-83819998D01*
X76886502Y-83820001D01*
X76906456Y-84048081D01*
X76906457Y-84048088D01*
X76925775Y-84120181D01*
X76930000Y-84152275D01*
X76930000Y-86027724D01*
X76925775Y-86059817D01*
X76906458Y-86131907D01*
X76906456Y-86131918D01*
X76886502Y-86359998D01*
X76886502Y-86360001D01*
X76906456Y-86588081D01*
X76906457Y-86588088D01*
X76925775Y-86660181D01*
X76930000Y-86692275D01*
X76930000Y-88567724D01*
X76925775Y-88599817D01*
X76906458Y-88671907D01*
X76906456Y-88671918D01*
X76886502Y-88899998D01*
X76886502Y-88900001D01*
X76906456Y-89128081D01*
X76906457Y-89128088D01*
X76925775Y-89200181D01*
X76930000Y-89232275D01*
X76930000Y-91742724D01*
X76925775Y-91774817D01*
X76906458Y-91846907D01*
X76906456Y-91846918D01*
X76886502Y-92074998D01*
X76886502Y-92075001D01*
X76906456Y-92303081D01*
X76906457Y-92303088D01*
X76925775Y-92375181D01*
X76930000Y-92407275D01*
X76930000Y-94282724D01*
X76925775Y-94314817D01*
X76906458Y-94386907D01*
X76906456Y-94386918D01*
X76886502Y-94614998D01*
X76886502Y-94615001D01*
X76906456Y-94843081D01*
X76906457Y-94843088D01*
X76925775Y-94915181D01*
X76930000Y-94947275D01*
X76930000Y-96822724D01*
X76925775Y-96854817D01*
X76906458Y-96926907D01*
X76906456Y-96926918D01*
X76886502Y-97154998D01*
X76886502Y-97155001D01*
X76906456Y-97383081D01*
X76906457Y-97383088D01*
X76925775Y-97455181D01*
X76930000Y-97487275D01*
X76930000Y-99362724D01*
X76925775Y-99394817D01*
X76906458Y-99466907D01*
X76906456Y-99466918D01*
X76886502Y-99694998D01*
X76886502Y-99695001D01*
X76906456Y-99923081D01*
X76906457Y-99923088D01*
X76925775Y-99995181D01*
X76930000Y-100027275D01*
X76930000Y-101902724D01*
X76925775Y-101934817D01*
X76906458Y-102006907D01*
X76906456Y-102006918D01*
X76886502Y-102234998D01*
X76886502Y-102235001D01*
X76906456Y-102463081D01*
X76906457Y-102463088D01*
X76925775Y-102535181D01*
X76930000Y-102567275D01*
X76930000Y-104442724D01*
X76925775Y-104474817D01*
X76906458Y-104546907D01*
X76906456Y-104546918D01*
X76886502Y-104774998D01*
X76886502Y-104775001D01*
X76906456Y-105003081D01*
X76906457Y-105003088D01*
X76925775Y-105075181D01*
X76930000Y-105107275D01*
X76930000Y-106982724D01*
X76925775Y-107014817D01*
X76906458Y-107086907D01*
X76906456Y-107086918D01*
X76886502Y-107314998D01*
X76886502Y-107315001D01*
X76906456Y-107543081D01*
X76906457Y-107543088D01*
X76925775Y-107615181D01*
X76930000Y-107647275D01*
X76930000Y-109522724D01*
X76925775Y-109554817D01*
X76906458Y-109626907D01*
X76906456Y-109626918D01*
X76886502Y-109854998D01*
X76886502Y-109855001D01*
X76906456Y-110083081D01*
X76906457Y-110083088D01*
X76925775Y-110155181D01*
X76930000Y-110187275D01*
X76930000Y-110490000D01*
X77337384Y-110897384D01*
X77370869Y-110958707D01*
X77365885Y-111028399D01*
X77324013Y-111084332D01*
X77293037Y-111101247D01*
X77157911Y-111151646D01*
X77157906Y-111151649D01*
X77042812Y-111237809D01*
X77042809Y-111237812D01*
X76956649Y-111352906D01*
X76956645Y-111352913D01*
X76906403Y-111487620D01*
X76906401Y-111487627D01*
X76900000Y-111547155D01*
X76900000Y-112145000D01*
X77884314Y-112145000D01*
X77872359Y-112156955D01*
X77814835Y-112269852D01*
X77795014Y-112395000D01*
X77814835Y-112520148D01*
X77872359Y-112633045D01*
X77884314Y-112645000D01*
X76900000Y-112645000D01*
X76900000Y-113242844D01*
X76906401Y-113302372D01*
X76906403Y-113302379D01*
X76956645Y-113437086D01*
X76956649Y-113437093D01*
X77042809Y-113552187D01*
X77042812Y-113552190D01*
X77157906Y-113638350D01*
X77157913Y-113638354D01*
X77292620Y-113688596D01*
X77292627Y-113688598D01*
X77352155Y-113694999D01*
X77352172Y-113695000D01*
X77950000Y-113695000D01*
X77950000Y-112710686D01*
X77961955Y-112722641D01*
X78074852Y-112780165D01*
X78168519Y-112795000D01*
X78231481Y-112795000D01*
X78325148Y-112780165D01*
X78438045Y-112722641D01*
X78450000Y-112710686D01*
X78450000Y-113695000D01*
X79047828Y-113695000D01*
X79047844Y-113694999D01*
X79107372Y-113688598D01*
X79107379Y-113688596D01*
X79242086Y-113638354D01*
X79242089Y-113638352D01*
X79271688Y-113616195D01*
X79337152Y-113591777D01*
X79405425Y-113606628D01*
X79454831Y-113656033D01*
X79470000Y-113715461D01*
X79470000Y-114725912D01*
X79450315Y-114792951D01*
X79397511Y-114838706D01*
X79335193Y-114849440D01*
X79279025Y-114844526D01*
X78597953Y-115525598D01*
X78585165Y-115444852D01*
X78527641Y-115331955D01*
X78438045Y-115242359D01*
X78325148Y-115184835D01*
X78244400Y-115172046D01*
X78925472Y-114490974D01*
X78925471Y-114490973D01*
X78852483Y-114439866D01*
X78852481Y-114439865D01*
X78646326Y-114343734D01*
X78646317Y-114343730D01*
X78426610Y-114284860D01*
X78426599Y-114284858D01*
X78200002Y-114265034D01*
X78199998Y-114265034D01*
X77973400Y-114284858D01*
X77973389Y-114284860D01*
X77753682Y-114343730D01*
X77753673Y-114343734D01*
X77547513Y-114439868D01*
X77474527Y-114490972D01*
X77474526Y-114490973D01*
X78155600Y-115172046D01*
X78074852Y-115184835D01*
X77961955Y-115242359D01*
X77872359Y-115331955D01*
X77814835Y-115444852D01*
X77802046Y-115525599D01*
X77120973Y-114844526D01*
X77120972Y-114844527D01*
X77069868Y-114917513D01*
X76973734Y-115123673D01*
X76973730Y-115123682D01*
X76914860Y-115343389D01*
X76914858Y-115343400D01*
X76895034Y-115569997D01*
X76895034Y-115570002D01*
X76914858Y-115796599D01*
X76914860Y-115796610D01*
X76973730Y-116016317D01*
X76973734Y-116016326D01*
X77069865Y-116222481D01*
X77069866Y-116222483D01*
X77120973Y-116295471D01*
X77120974Y-116295472D01*
X77802046Y-115614399D01*
X77814835Y-115695148D01*
X77872359Y-115808045D01*
X77961955Y-115897641D01*
X78074852Y-115955165D01*
X78155599Y-115967953D01*
X77474526Y-116649025D01*
X77479440Y-116705193D01*
X77465673Y-116773693D01*
X77417058Y-116823876D01*
X77355912Y-116840000D01*
X76930000Y-116840000D01*
X76930000Y-117737724D01*
X76925775Y-117769817D01*
X76906458Y-117841907D01*
X76906456Y-117841918D01*
X76886502Y-118069998D01*
X76886502Y-118070001D01*
X76906456Y-118298081D01*
X76906457Y-118298088D01*
X76925775Y-118370181D01*
X76930000Y-118402275D01*
X76930000Y-120952724D01*
X76925775Y-120984817D01*
X76906458Y-121056907D01*
X76906456Y-121056918D01*
X76886502Y-121284998D01*
X76886502Y-121285001D01*
X76906456Y-121513081D01*
X76906457Y-121513088D01*
X76925775Y-121585181D01*
X76930000Y-121617275D01*
X76930000Y-123492724D01*
X76925775Y-123524817D01*
X76906458Y-123596907D01*
X76906456Y-123596918D01*
X76886502Y-123824998D01*
X76886502Y-123825001D01*
X76906456Y-124053081D01*
X76906457Y-124053088D01*
X76925775Y-124125181D01*
X76930000Y-124157275D01*
X76930000Y-126032724D01*
X76925775Y-126064817D01*
X76906458Y-126136907D01*
X76906456Y-126136918D01*
X76886502Y-126364998D01*
X76886502Y-126365001D01*
X76906456Y-126593081D01*
X76906457Y-126593088D01*
X76925775Y-126665181D01*
X76930000Y-126697275D01*
X76930000Y-128572724D01*
X76925775Y-128604817D01*
X76906458Y-128676907D01*
X76906456Y-128676918D01*
X76886502Y-128904998D01*
X76886502Y-128905001D01*
X76906456Y-129133081D01*
X76906457Y-129133088D01*
X76925775Y-129205181D01*
X76930000Y-129237275D01*
X76930000Y-131112724D01*
X76925775Y-131144817D01*
X76906458Y-131216907D01*
X76906456Y-131216918D01*
X76886502Y-131444998D01*
X76886502Y-131445001D01*
X76906456Y-131673081D01*
X76906457Y-131673088D01*
X76925775Y-131745181D01*
X76930000Y-131777275D01*
X76930000Y-133652724D01*
X76925775Y-133684817D01*
X76906458Y-133756907D01*
X76906456Y-133756918D01*
X76886502Y-133984998D01*
X76886502Y-133985001D01*
X76906456Y-134213081D01*
X76906457Y-134213088D01*
X76925775Y-134285181D01*
X76930000Y-134317275D01*
X76930000Y-136192724D01*
X76925775Y-136224817D01*
X76906458Y-136296907D01*
X76906456Y-136296918D01*
X76886502Y-136524998D01*
X76886502Y-136525001D01*
X76906456Y-136753081D01*
X76906457Y-136753088D01*
X76925775Y-136825181D01*
X76930000Y-136857275D01*
X76930000Y-138732724D01*
X76925775Y-138764817D01*
X76906458Y-138836907D01*
X76906456Y-138836918D01*
X76886502Y-139064998D01*
X76886502Y-139065001D01*
X76906456Y-139293081D01*
X76906457Y-139293088D01*
X76925775Y-139365181D01*
X76930000Y-139397275D01*
X76930000Y-139700000D01*
X77337384Y-140107384D01*
X77370869Y-140168707D01*
X77365885Y-140238399D01*
X77324013Y-140294332D01*
X77293037Y-140311247D01*
X77157911Y-140361646D01*
X77157906Y-140361649D01*
X77042812Y-140447809D01*
X77042809Y-140447812D01*
X76956649Y-140562906D01*
X76956645Y-140562913D01*
X76906403Y-140697620D01*
X76906401Y-140697627D01*
X76900000Y-140757155D01*
X76900000Y-141355000D01*
X77884314Y-141355000D01*
X77872359Y-141366955D01*
X77814835Y-141479852D01*
X77795014Y-141605000D01*
X77814835Y-141730148D01*
X77872359Y-141843045D01*
X77884314Y-141855000D01*
X76900000Y-141855000D01*
X76900000Y-142452844D01*
X76906401Y-142512372D01*
X76906403Y-142512379D01*
X76956645Y-142647086D01*
X76956649Y-142647093D01*
X77042809Y-142762187D01*
X77042812Y-142762190D01*
X77157906Y-142848350D01*
X77157913Y-142848354D01*
X77292620Y-142898596D01*
X77292627Y-142898598D01*
X77352155Y-142904999D01*
X77352172Y-142905000D01*
X77950000Y-142905000D01*
X77950000Y-141920686D01*
X77961955Y-141932641D01*
X78074852Y-141990165D01*
X78168519Y-142005000D01*
X78231481Y-142005000D01*
X78325148Y-141990165D01*
X78438045Y-141932641D01*
X78450000Y-141920686D01*
X78450000Y-142905000D01*
X79047828Y-142905000D01*
X79047844Y-142904999D01*
X79107372Y-142898598D01*
X79107379Y-142898596D01*
X79242086Y-142848354D01*
X79242089Y-142848352D01*
X79271688Y-142826195D01*
X79337152Y-142801777D01*
X79405425Y-142816628D01*
X79454831Y-142866033D01*
X79470000Y-142925461D01*
X79470000Y-143935912D01*
X79450315Y-144002951D01*
X79397511Y-144048706D01*
X79335193Y-144059440D01*
X79279025Y-144054526D01*
X78597953Y-144735598D01*
X78585165Y-144654852D01*
X78527641Y-144541955D01*
X78438045Y-144452359D01*
X78325148Y-144394835D01*
X78244400Y-144382046D01*
X78925472Y-143700974D01*
X78925471Y-143700973D01*
X78852483Y-143649866D01*
X78852481Y-143649865D01*
X78646326Y-143553734D01*
X78646317Y-143553730D01*
X78426610Y-143494860D01*
X78426599Y-143494858D01*
X78200002Y-143475034D01*
X78199998Y-143475034D01*
X77973400Y-143494858D01*
X77973389Y-143494860D01*
X77753682Y-143553730D01*
X77753673Y-143553734D01*
X77547513Y-143649868D01*
X77474527Y-143700972D01*
X77474526Y-143700973D01*
X78155600Y-144382046D01*
X78074852Y-144394835D01*
X77961955Y-144452359D01*
X77872359Y-144541955D01*
X77814835Y-144654852D01*
X77802046Y-144735600D01*
X77120973Y-144054527D01*
X77069868Y-144127513D01*
X76973734Y-144333673D01*
X76973730Y-144333682D01*
X76914860Y-144553389D01*
X76914858Y-144553400D01*
X76904937Y-144666807D01*
X76879485Y-144731876D01*
X76822894Y-144772855D01*
X76781409Y-144780000D01*
X75022000Y-144780000D01*
X74954961Y-144760315D01*
X74909206Y-144707511D01*
X74898000Y-144656000D01*
X74898000Y-60886576D01*
X74917685Y-60819537D01*
X74937011Y-60796283D01*
X81375000Y-54737000D01*
X81375000Y-47728760D01*
X81394685Y-47661721D01*
X81447489Y-47615966D01*
X81516647Y-47606022D01*
X81580203Y-47635047D01*
X81607833Y-47669335D01*
X81618591Y-47689038D01*
X81618592Y-47689039D01*
X81790039Y-47918065D01*
X81790049Y-47918077D01*
X81992322Y-48120350D01*
X81992334Y-48120360D01*
X82221360Y-48291807D01*
X82221361Y-48291808D01*
X82472442Y-48428908D01*
X82472441Y-48428908D01*
X82740504Y-48528890D01*
X83020038Y-48589699D01*
X83055399Y-48592228D01*
X83055400Y-48592228D01*
X83055400Y-47324521D01*
X83203710Y-47355000D01*
G37*
%TD.AperFunction*%
%TA.AperFunction,Conductor*%
G36*
X145779405Y-40659685D02*
G01*
X145800372Y-40676645D01*
X150166975Y-45076080D01*
X150179350Y-45098947D01*
X150220211Y-45139808D01*
X150228515Y-45142247D01*
X150249482Y-45159208D01*
X162528948Y-57531000D01*
X162619009Y-57621738D01*
X162652264Y-57683186D01*
X162655000Y-57709090D01*
X162655000Y-140285489D01*
X162635315Y-140352528D01*
X162620900Y-140370894D01*
X160979503Y-142098679D01*
X160919058Y-142133725D01*
X160849262Y-142130528D01*
X160792273Y-142090104D01*
X160766186Y-142025287D01*
X160766074Y-142024075D01*
X160765139Y-142013391D01*
X160765139Y-142013389D01*
X160706269Y-141793682D01*
X160706265Y-141793673D01*
X160610133Y-141587516D01*
X160610131Y-141587512D01*
X160559025Y-141514526D01*
X159877953Y-142195598D01*
X159865165Y-142114852D01*
X159807641Y-142001955D01*
X159718045Y-141912359D01*
X159605148Y-141854835D01*
X159524400Y-141842046D01*
X160205472Y-141160974D01*
X160205471Y-141160973D01*
X160132483Y-141109866D01*
X160132481Y-141109865D01*
X159926326Y-141013734D01*
X159926317Y-141013730D01*
X159706610Y-140954860D01*
X159706599Y-140954858D01*
X159480002Y-140935034D01*
X159479998Y-140935034D01*
X159253400Y-140954858D01*
X159253389Y-140954860D01*
X159033682Y-141013730D01*
X159033673Y-141013734D01*
X158827513Y-141109868D01*
X158754527Y-141160972D01*
X158754526Y-141160973D01*
X159435600Y-141842046D01*
X159354852Y-141854835D01*
X159241955Y-141912359D01*
X159152359Y-142001955D01*
X159094835Y-142114852D01*
X159082046Y-142195600D01*
X158400973Y-141514527D01*
X158349868Y-141587513D01*
X158253734Y-141793673D01*
X158253730Y-141793682D01*
X158194860Y-142013389D01*
X158194858Y-142013400D01*
X158175034Y-142239997D01*
X158175034Y-142240002D01*
X158194858Y-142466599D01*
X158194860Y-142466610D01*
X158219025Y-142556795D01*
X158217362Y-142626645D01*
X158178199Y-142684507D01*
X158113971Y-142712011D01*
X158045068Y-142700424D01*
X158011569Y-142676569D01*
X157611319Y-142276319D01*
X157577834Y-142214996D01*
X157575000Y-142188638D01*
X157575000Y-137919000D01*
X157594685Y-137851961D01*
X157647489Y-137806206D01*
X157699000Y-137795000D01*
X158159539Y-137795000D01*
X158226578Y-137814685D01*
X158272333Y-137867489D01*
X158282277Y-137936647D01*
X158258805Y-137993312D01*
X158236647Y-138022910D01*
X158236645Y-138022913D01*
X158186403Y-138157620D01*
X158186401Y-138157627D01*
X158180000Y-138217155D01*
X158180000Y-138815000D01*
X159164314Y-138815000D01*
X159152359Y-138826955D01*
X159094835Y-138939852D01*
X159075014Y-139065000D01*
X159094835Y-139190148D01*
X159152359Y-139303045D01*
X159164314Y-139315000D01*
X158180000Y-139315000D01*
X158180000Y-139912844D01*
X158186401Y-139972372D01*
X158186403Y-139972379D01*
X158236645Y-140107086D01*
X158236649Y-140107093D01*
X158322809Y-140222187D01*
X158322812Y-140222190D01*
X158437906Y-140308350D01*
X158437913Y-140308354D01*
X158572620Y-140358596D01*
X158572627Y-140358598D01*
X158632155Y-140364999D01*
X158632172Y-140365000D01*
X159230000Y-140365000D01*
X159230000Y-139380686D01*
X159241955Y-139392641D01*
X159354852Y-139450165D01*
X159448519Y-139465000D01*
X159511481Y-139465000D01*
X159605148Y-139450165D01*
X159718045Y-139392641D01*
X159730000Y-139380686D01*
X159730000Y-140365000D01*
X160327828Y-140365000D01*
X160327844Y-140364999D01*
X160387372Y-140358598D01*
X160387379Y-140358596D01*
X160522086Y-140308354D01*
X160522093Y-140308350D01*
X160637187Y-140222190D01*
X160637190Y-140222187D01*
X160723350Y-140107093D01*
X160723354Y-140107086D01*
X160773596Y-139972379D01*
X160773598Y-139972372D01*
X160779999Y-139912844D01*
X160780000Y-139912827D01*
X160780000Y-139315000D01*
X159795686Y-139315000D01*
X159807641Y-139303045D01*
X159865165Y-139190148D01*
X159884986Y-139065000D01*
X159865165Y-138939852D01*
X159807641Y-138826955D01*
X159795686Y-138815000D01*
X160780000Y-138815000D01*
X160780000Y-138217172D01*
X160779999Y-138217155D01*
X160773598Y-138157627D01*
X160773596Y-138157620D01*
X160723354Y-138022913D01*
X160723350Y-138022906D01*
X160637190Y-137907812D01*
X160533858Y-137830457D01*
X160491988Y-137774523D01*
X160487004Y-137704832D01*
X160520487Y-137643512D01*
X160750000Y-137414000D01*
X160750000Y-136857275D01*
X160754225Y-136825181D01*
X160773543Y-136753087D01*
X160793498Y-136525000D01*
X160773543Y-136296913D01*
X160754225Y-136224817D01*
X160750000Y-136192724D01*
X160750000Y-134317275D01*
X160754225Y-134285181D01*
X160773543Y-134213087D01*
X160793498Y-133985000D01*
X160773543Y-133756913D01*
X160754225Y-133684817D01*
X160750000Y-133652724D01*
X160750000Y-131777275D01*
X160754225Y-131745181D01*
X160773543Y-131673087D01*
X160793498Y-131445000D01*
X160773543Y-131216913D01*
X160754225Y-131144817D01*
X160750000Y-131112724D01*
X160750000Y-129237275D01*
X160754225Y-129205181D01*
X160773543Y-129133087D01*
X160793498Y-128905000D01*
X160773543Y-128676913D01*
X160754225Y-128604817D01*
X160750000Y-128572724D01*
X160750000Y-126697275D01*
X160754225Y-126665181D01*
X160773543Y-126593087D01*
X160793498Y-126365000D01*
X160773543Y-126136913D01*
X160754225Y-126064817D01*
X160750000Y-126032724D01*
X160750000Y-124157275D01*
X160754225Y-124125181D01*
X160773543Y-124053087D01*
X160793498Y-123825000D01*
X160773543Y-123596913D01*
X160754225Y-123524817D01*
X160750000Y-123492724D01*
X160750000Y-121617275D01*
X160754225Y-121585181D01*
X160773543Y-121513087D01*
X160793498Y-121285000D01*
X160773543Y-121056913D01*
X160754225Y-120984817D01*
X160750000Y-120952724D01*
X160750000Y-119077275D01*
X160754225Y-119045181D01*
X160758015Y-119031038D01*
X160773543Y-118973087D01*
X160793498Y-118745000D01*
X160773543Y-118516913D01*
X160754225Y-118444817D01*
X160750000Y-118412724D01*
X160750000Y-115267275D01*
X160754225Y-115235181D01*
X160773543Y-115163087D01*
X160793498Y-114935000D01*
X160773543Y-114706913D01*
X160754225Y-114634817D01*
X160750000Y-114602724D01*
X160750000Y-112727275D01*
X160754225Y-112695181D01*
X160767671Y-112645000D01*
X160773543Y-112623087D01*
X160793498Y-112395000D01*
X160773543Y-112166913D01*
X160754225Y-112094817D01*
X160750000Y-112062724D01*
X160750000Y-110187275D01*
X160754225Y-110155181D01*
X160773543Y-110083087D01*
X160793498Y-109855000D01*
X160773543Y-109626913D01*
X160754225Y-109554817D01*
X160750000Y-109522724D01*
X160750000Y-107647275D01*
X160754225Y-107615181D01*
X160773543Y-107543087D01*
X160793498Y-107315000D01*
X160773543Y-107086913D01*
X160754225Y-107014817D01*
X160750000Y-106982724D01*
X160750000Y-105107275D01*
X160754225Y-105075181D01*
X160773543Y-105003087D01*
X160793498Y-104775000D01*
X160773543Y-104546913D01*
X160754225Y-104474817D01*
X160750000Y-104442724D01*
X160750000Y-102567275D01*
X160754225Y-102535181D01*
X160773543Y-102463087D01*
X160793498Y-102235000D01*
X160773543Y-102006913D01*
X160754225Y-101934817D01*
X160750000Y-101902724D01*
X160750000Y-100027275D01*
X160754225Y-99995181D01*
X160773543Y-99923087D01*
X160793498Y-99695000D01*
X160773543Y-99466913D01*
X160754225Y-99394817D01*
X160750000Y-99362724D01*
X160750000Y-97487275D01*
X160754225Y-97455181D01*
X160773543Y-97383087D01*
X160793498Y-97155000D01*
X160773543Y-96926913D01*
X160754225Y-96854817D01*
X160750000Y-96822724D01*
X160750000Y-96520000D01*
X160342615Y-96112615D01*
X160309130Y-96051292D01*
X160314114Y-95981600D01*
X160355986Y-95925667D01*
X160386963Y-95908752D01*
X160522086Y-95858354D01*
X160522093Y-95858350D01*
X160637187Y-95772190D01*
X160637190Y-95772187D01*
X160723350Y-95657093D01*
X160723354Y-95657086D01*
X160773596Y-95522379D01*
X160773598Y-95522372D01*
X160779999Y-95462844D01*
X160780000Y-95462827D01*
X160780000Y-94865000D01*
X159795686Y-94865000D01*
X159807641Y-94853045D01*
X159865165Y-94740148D01*
X159884986Y-94615000D01*
X159865165Y-94489852D01*
X159807641Y-94376955D01*
X159795686Y-94365000D01*
X160780000Y-94365000D01*
X160780000Y-93767172D01*
X160779999Y-93767155D01*
X160773598Y-93707627D01*
X160773596Y-93707620D01*
X160723354Y-93572913D01*
X160723350Y-93572906D01*
X160637190Y-93457812D01*
X160637187Y-93457809D01*
X160522093Y-93371649D01*
X160522086Y-93371645D01*
X160387379Y-93321403D01*
X160387372Y-93321401D01*
X160327844Y-93315000D01*
X159730000Y-93315000D01*
X159730000Y-94299314D01*
X159718045Y-94287359D01*
X159605148Y-94229835D01*
X159511481Y-94215000D01*
X159448519Y-94215000D01*
X159354852Y-94229835D01*
X159241955Y-94287359D01*
X159230000Y-94299314D01*
X159230000Y-93315000D01*
X158632155Y-93315000D01*
X158572627Y-93321401D01*
X158572620Y-93321403D01*
X158437913Y-93371645D01*
X158437906Y-93371649D01*
X158322812Y-93457809D01*
X158322809Y-93457812D01*
X158236649Y-93572906D01*
X158236645Y-93572913D01*
X158186403Y-93707620D01*
X158186401Y-93707627D01*
X158180000Y-93767155D01*
X158180000Y-94365000D01*
X159164314Y-94365000D01*
X159152359Y-94376955D01*
X159094835Y-94489852D01*
X159075014Y-94615000D01*
X159094835Y-94740148D01*
X159152359Y-94853045D01*
X159164314Y-94865000D01*
X158180000Y-94865000D01*
X158180000Y-95076700D01*
X158160315Y-95143739D01*
X158107511Y-95189494D01*
X158056000Y-95200700D01*
X157064000Y-95200700D01*
X156996961Y-95181015D01*
X156951206Y-95128211D01*
X156940000Y-95076700D01*
X156940000Y-90856362D01*
X156959685Y-90789323D01*
X156976319Y-90768681D01*
X158173681Y-89571319D01*
X158235004Y-89537834D01*
X158261362Y-89535000D01*
X158635913Y-89535000D01*
X158702952Y-89554685D01*
X158748707Y-89607489D01*
X158759441Y-89669808D01*
X158754526Y-89725973D01*
X159435600Y-90407046D01*
X159354852Y-90419835D01*
X159241955Y-90477359D01*
X159152359Y-90566955D01*
X159094835Y-90679852D01*
X159082046Y-90760599D01*
X158400973Y-90079526D01*
X158400972Y-90079527D01*
X158349868Y-90152513D01*
X158253734Y-90358673D01*
X158253730Y-90358682D01*
X158194860Y-90578389D01*
X158194858Y-90578400D01*
X158175034Y-90804997D01*
X158175034Y-90805002D01*
X158194858Y-91031599D01*
X158194860Y-91031610D01*
X158253730Y-91251317D01*
X158253734Y-91251326D01*
X158349865Y-91457481D01*
X158349866Y-91457483D01*
X158400973Y-91530471D01*
X158400974Y-91530472D01*
X159082046Y-90849399D01*
X159094835Y-90930148D01*
X159152359Y-91043045D01*
X159241955Y-91132641D01*
X159354852Y-91190165D01*
X159435599Y-91202953D01*
X158754526Y-91884025D01*
X158754526Y-91884026D01*
X158827512Y-91935131D01*
X158827516Y-91935133D01*
X159033673Y-92031265D01*
X159033682Y-92031269D01*
X159253389Y-92090139D01*
X159253400Y-92090141D01*
X159479998Y-92109966D01*
X159480002Y-92109966D01*
X159706599Y-92090141D01*
X159706610Y-92090139D01*
X159926317Y-92031269D01*
X159926331Y-92031264D01*
X160132478Y-91935136D01*
X160205472Y-91884025D01*
X159524401Y-91202953D01*
X159605148Y-91190165D01*
X159718045Y-91132641D01*
X159807641Y-91043045D01*
X159865165Y-90930148D01*
X159877953Y-90849400D01*
X160559025Y-91530472D01*
X160610136Y-91457478D01*
X160706264Y-91251331D01*
X160706269Y-91251317D01*
X160765139Y-91031610D01*
X160765141Y-91031599D01*
X160784966Y-90805002D01*
X160784966Y-90804997D01*
X160765141Y-90578400D01*
X160765139Y-90578389D01*
X160706269Y-90358682D01*
X160706265Y-90358673D01*
X160610133Y-90152516D01*
X160610131Y-90152512D01*
X160559026Y-90079526D01*
X160559025Y-90079526D01*
X159877953Y-90760598D01*
X159865165Y-90679852D01*
X159807641Y-90566955D01*
X159718045Y-90477359D01*
X159605148Y-90419835D01*
X159524400Y-90407046D01*
X160205472Y-89725973D01*
X160200558Y-89669808D01*
X160214324Y-89601308D01*
X160262939Y-89551125D01*
X160324086Y-89535000D01*
X160750000Y-89535000D01*
X160750000Y-88637275D01*
X160754225Y-88605181D01*
X160773543Y-88533087D01*
X160793498Y-88305000D01*
X160773543Y-88076913D01*
X160754225Y-88004817D01*
X160750000Y-87972724D01*
X160750000Y-84787275D01*
X160754225Y-84755181D01*
X160758822Y-84738026D01*
X160773543Y-84683087D01*
X160793498Y-84455000D01*
X160773543Y-84226913D01*
X160754225Y-84154817D01*
X160750000Y-84122724D01*
X160750000Y-82247275D01*
X160754225Y-82215181D01*
X160773543Y-82143087D01*
X160793498Y-81915000D01*
X160773543Y-81686913D01*
X160754225Y-81614817D01*
X160750000Y-81582724D01*
X160750000Y-79707275D01*
X160754225Y-79675181D01*
X160773543Y-79603087D01*
X160793498Y-79375000D01*
X160773543Y-79146913D01*
X160754225Y-79074817D01*
X160750000Y-79042724D01*
X160750000Y-77167275D01*
X160754225Y-77135181D01*
X160758822Y-77118026D01*
X160773543Y-77063087D01*
X160793498Y-76835000D01*
X160773543Y-76606913D01*
X160754225Y-76534817D01*
X160750000Y-76502724D01*
X160750000Y-74627275D01*
X160754225Y-74595181D01*
X160773543Y-74523087D01*
X160793498Y-74295000D01*
X160773543Y-74066913D01*
X160754225Y-73994817D01*
X160750000Y-73962724D01*
X160750000Y-72087275D01*
X160754225Y-72055181D01*
X160758822Y-72038026D01*
X160773543Y-71983087D01*
X160793498Y-71755000D01*
X160773543Y-71526913D01*
X160754225Y-71454817D01*
X160750000Y-71422724D01*
X160750000Y-69547275D01*
X160754225Y-69515181D01*
X160758822Y-69498026D01*
X160773543Y-69443087D01*
X160793498Y-69215000D01*
X160773543Y-68986913D01*
X160754225Y-68914817D01*
X160750000Y-68882724D01*
X160750000Y-67691000D01*
X160594686Y-67566749D01*
X160554634Y-67509498D01*
X160551891Y-67439683D01*
X160570573Y-67398800D01*
X160617523Y-67331749D01*
X160714284Y-67124243D01*
X160773543Y-66903087D01*
X160793498Y-66675000D01*
X160773543Y-66446913D01*
X160714284Y-66225757D01*
X160617523Y-66018251D01*
X160486198Y-65830700D01*
X160324300Y-65668802D01*
X160305998Y-65655986D01*
X160262375Y-65601410D01*
X160255183Y-65531912D01*
X160286706Y-65469558D01*
X160346937Y-65434145D01*
X160363871Y-65431124D01*
X160387379Y-65428596D01*
X160522086Y-65378354D01*
X160522093Y-65378350D01*
X160637187Y-65292190D01*
X160637190Y-65292187D01*
X160723350Y-65177093D01*
X160723354Y-65177086D01*
X160773596Y-65042379D01*
X160773598Y-65042372D01*
X160779999Y-64982844D01*
X160780000Y-64982827D01*
X160780000Y-64385000D01*
X159795686Y-64385000D01*
X159807641Y-64373045D01*
X159865165Y-64260148D01*
X159884986Y-64135000D01*
X159865165Y-64009852D01*
X159807641Y-63896955D01*
X159795686Y-63885000D01*
X160780000Y-63885000D01*
X160780000Y-63287172D01*
X160779999Y-63287155D01*
X160773598Y-63227627D01*
X160773596Y-63227620D01*
X160723354Y-63092913D01*
X160723350Y-63092906D01*
X160637190Y-62977812D01*
X160637187Y-62977809D01*
X160522093Y-62891649D01*
X160522086Y-62891645D01*
X160387379Y-62841403D01*
X160387372Y-62841401D01*
X160327844Y-62835000D01*
X159730000Y-62835000D01*
X159730000Y-63819314D01*
X159718045Y-63807359D01*
X159605148Y-63749835D01*
X159511481Y-63735000D01*
X159448519Y-63735000D01*
X159354852Y-63749835D01*
X159241955Y-63807359D01*
X159230000Y-63819314D01*
X159230000Y-62835000D01*
X158632155Y-62835000D01*
X158572627Y-62841401D01*
X158572620Y-62841403D01*
X158437913Y-62891645D01*
X158437906Y-62891649D01*
X158322812Y-62977809D01*
X158322809Y-62977812D01*
X158236649Y-63092906D01*
X158236645Y-63092913D01*
X158186403Y-63227620D01*
X158186401Y-63227627D01*
X158180000Y-63287155D01*
X158180000Y-63885000D01*
X159164314Y-63885000D01*
X159152359Y-63896955D01*
X159094835Y-64009852D01*
X159075014Y-64135000D01*
X159094835Y-64260148D01*
X159152359Y-64373045D01*
X159164314Y-64385000D01*
X158180000Y-64385000D01*
X158180000Y-64982844D01*
X158186401Y-65042372D01*
X158186403Y-65042379D01*
X158236645Y-65177086D01*
X158236649Y-65177093D01*
X158322809Y-65292187D01*
X158322812Y-65292190D01*
X158437906Y-65378350D01*
X158437913Y-65378354D01*
X158572620Y-65428596D01*
X158572619Y-65428596D01*
X158596129Y-65431124D01*
X158660680Y-65457862D01*
X158700529Y-65515254D01*
X158703023Y-65585079D01*
X158667372Y-65645168D01*
X158654002Y-65655986D01*
X158635699Y-65668802D01*
X158473806Y-65830695D01*
X158473803Y-65830698D01*
X158473802Y-65830700D01*
X158363220Y-65988625D01*
X158308646Y-66032249D01*
X158261648Y-66041500D01*
X157826000Y-66041500D01*
X157758961Y-66021815D01*
X157713206Y-65969011D01*
X157702000Y-65917500D01*
X157702000Y-59741362D01*
X157721685Y-59674323D01*
X157738319Y-59653681D01*
X158300681Y-59091319D01*
X158362004Y-59057834D01*
X158388362Y-59055000D01*
X158635913Y-59055000D01*
X158702952Y-59074685D01*
X158748707Y-59127489D01*
X158759441Y-59189808D01*
X158754526Y-59245973D01*
X159435600Y-59927046D01*
X159354852Y-59939835D01*
X159241955Y-59997359D01*
X159152359Y-60086955D01*
X159094835Y-60199852D01*
X159082046Y-60280599D01*
X158400973Y-59599526D01*
X158400972Y-59599527D01*
X158349868Y-59672513D01*
X158253734Y-59878673D01*
X158253730Y-59878682D01*
X158194860Y-60098389D01*
X158194858Y-60098400D01*
X158175034Y-60324997D01*
X158175034Y-60325002D01*
X158194858Y-60551599D01*
X158194860Y-60551610D01*
X158253730Y-60771317D01*
X158253734Y-60771326D01*
X158349865Y-60977481D01*
X158349866Y-60977483D01*
X158400973Y-61050471D01*
X158400974Y-61050472D01*
X159082046Y-60369399D01*
X159094835Y-60450148D01*
X159152359Y-60563045D01*
X159241955Y-60652641D01*
X159354852Y-60710165D01*
X159435599Y-60722953D01*
X158754526Y-61404025D01*
X158754526Y-61404026D01*
X158827512Y-61455131D01*
X158827516Y-61455133D01*
X159033673Y-61551265D01*
X159033682Y-61551269D01*
X159253389Y-61610139D01*
X159253400Y-61610141D01*
X159479998Y-61629966D01*
X159480002Y-61629966D01*
X159706599Y-61610141D01*
X159706610Y-61610139D01*
X159926317Y-61551269D01*
X159926331Y-61551264D01*
X160132478Y-61455136D01*
X160205472Y-61404025D01*
X159524401Y-60722953D01*
X159605148Y-60710165D01*
X159718045Y-60652641D01*
X159807641Y-60563045D01*
X159865165Y-60450148D01*
X159877953Y-60369400D01*
X160559025Y-61050472D01*
X160610136Y-60977478D01*
X160706264Y-60771331D01*
X160706269Y-60771317D01*
X160765139Y-60551610D01*
X160765141Y-60551599D01*
X160784966Y-60325002D01*
X160784966Y-60324997D01*
X160765141Y-60098400D01*
X160765139Y-60098389D01*
X160706269Y-59878682D01*
X160706265Y-59878673D01*
X160610133Y-59672516D01*
X160610131Y-59672512D01*
X160559026Y-59599526D01*
X160559025Y-59599526D01*
X159877953Y-60280598D01*
X159865165Y-60199852D01*
X159807641Y-60086955D01*
X159718045Y-59997359D01*
X159605148Y-59939835D01*
X159524400Y-59927046D01*
X160205472Y-59245973D01*
X160200558Y-59189808D01*
X160214324Y-59121308D01*
X160262939Y-59071125D01*
X160324086Y-59055000D01*
X160877000Y-59055000D01*
X160877000Y-57531000D01*
X160723214Y-57377214D01*
X160698514Y-57341939D01*
X160617523Y-57168251D01*
X160486198Y-56980700D01*
X160324300Y-56818802D01*
X160136749Y-56687477D01*
X159963060Y-56606485D01*
X159927784Y-56581784D01*
X157551476Y-54205476D01*
X157529795Y-54176242D01*
X157528595Y-54173996D01*
X157458517Y-54088607D01*
X157434153Y-54058918D01*
X157434151Y-54058916D01*
X157430326Y-54054256D01*
X157402568Y-54020431D01*
X157366436Y-53990779D01*
X157361935Y-53986700D01*
X146514301Y-43139067D01*
X146510222Y-43134566D01*
X146480567Y-43098430D01*
X146327005Y-42972405D01*
X146326998Y-42972401D01*
X146324753Y-42971201D01*
X146295523Y-42949523D01*
X146145000Y-42799000D01*
X134842000Y-42799000D01*
X134841999Y-42799000D01*
X131540000Y-46100999D01*
X131540000Y-48843638D01*
X131520315Y-48910677D01*
X131503681Y-48931319D01*
X130941319Y-49493681D01*
X130879996Y-49527166D01*
X130853638Y-49530000D01*
X129736082Y-49530000D01*
X129669043Y-49510315D01*
X129623288Y-49457511D01*
X129613344Y-49388353D01*
X129642369Y-49324797D01*
X129682281Y-49294280D01*
X129902521Y-49188218D01*
X130085150Y-49063702D01*
X129247534Y-48226086D01*
X129315629Y-48199126D01*
X129448492Y-48102595D01*
X129553175Y-47976055D01*
X129601631Y-47873079D01*
X130437703Y-48709151D01*
X130437704Y-48709150D01*
X130491393Y-48641828D01*
X130491400Y-48641817D01*
X130626290Y-48408181D01*
X130724851Y-48157052D01*
X130724857Y-48157033D01*
X130784886Y-47894028D01*
X130784886Y-47894026D01*
X130805047Y-47625004D01*
X130805047Y-47624995D01*
X130784886Y-47355973D01*
X130784886Y-47355971D01*
X130724857Y-47092966D01*
X130724851Y-47092947D01*
X130626290Y-46841818D01*
X130626291Y-46841818D01*
X130491397Y-46608177D01*
X130437704Y-46540847D01*
X129602546Y-47376004D01*
X129592812Y-47346044D01*
X129504814Y-47207381D01*
X129385097Y-47094960D01*
X129250489Y-47020958D01*
X130085150Y-46186296D01*
X129902517Y-46061779D01*
X129902516Y-46061778D01*
X129659460Y-45944730D01*
X129659462Y-45944730D01*
X129401662Y-45865209D01*
X129401656Y-45865207D01*
X129134898Y-45825000D01*
X128865101Y-45825000D01*
X128598343Y-45865207D01*
X128598337Y-45865209D01*
X128340538Y-45944730D01*
X128097485Y-46061778D01*
X128097476Y-46061783D01*
X127914848Y-46186296D01*
X128752465Y-47023913D01*
X128684371Y-47050874D01*
X128551508Y-47147405D01*
X128446825Y-47273945D01*
X128398368Y-47376921D01*
X127562295Y-46540848D01*
X127508600Y-46608180D01*
X127373709Y-46841818D01*
X127275148Y-47092947D01*
X127275142Y-47092966D01*
X127215113Y-47355971D01*
X127215113Y-47355973D01*
X127194953Y-47624995D01*
X127194953Y-47625004D01*
X127215113Y-47894026D01*
X127215113Y-47894028D01*
X127275142Y-48157033D01*
X127275148Y-48157052D01*
X127373709Y-48408181D01*
X127373708Y-48408181D01*
X127508602Y-48641822D01*
X127562294Y-48709151D01*
X127562295Y-48709151D01*
X128397452Y-47873993D01*
X128407188Y-47903956D01*
X128495186Y-48042619D01*
X128614903Y-48155040D01*
X128749510Y-48229041D01*
X127914848Y-49063702D01*
X128097483Y-49188220D01*
X128097484Y-49188221D01*
X128317719Y-49294280D01*
X128369579Y-49341102D01*
X128387892Y-49408529D01*
X128366844Y-49475153D01*
X128313118Y-49519822D01*
X128263918Y-49530000D01*
X113811362Y-49530000D01*
X113744323Y-49510315D01*
X113723681Y-49493681D01*
X113540714Y-49310714D01*
X113507229Y-49249391D01*
X113512213Y-49179699D01*
X113518606Y-49162841D01*
X113521671Y-49156030D01*
X113527915Y-49144135D01*
X113531130Y-49131088D01*
X113533351Y-49123960D01*
X113556140Y-49063872D01*
X113563886Y-49000072D01*
X113565229Y-48992743D01*
X113568448Y-48979686D01*
X113569052Y-48959636D01*
X113569473Y-48954063D01*
X113576645Y-48895000D01*
X113569473Y-48835939D01*
X113569052Y-48830360D01*
X113568448Y-48810314D01*
X113565232Y-48797266D01*
X113563885Y-48789915D01*
X113556140Y-48726128D01*
X113549701Y-48709150D01*
X113533356Y-48666050D01*
X113531126Y-48658893D01*
X113527915Y-48645867D01*
X113527915Y-48645866D01*
X113527915Y-48645865D01*
X113521667Y-48633961D01*
X113518606Y-48627160D01*
X113495818Y-48567070D01*
X113459311Y-48514181D01*
X113455442Y-48507780D01*
X113449204Y-48495894D01*
X113440302Y-48485846D01*
X113435685Y-48479953D01*
X113430055Y-48471797D01*
X113399183Y-48427071D01*
X113351085Y-48384460D01*
X113345797Y-48379172D01*
X113336890Y-48369118D01*
X113336886Y-48369115D01*
X113336884Y-48369113D01*
X113325839Y-48361490D01*
X113319946Y-48356874D01*
X113291384Y-48331569D01*
X113271856Y-48314269D01*
X113271849Y-48314264D01*
X113214956Y-48284404D01*
X113208545Y-48280528D01*
X113197498Y-48272903D01*
X113191369Y-48269686D01*
X113141159Y-48221098D01*
X113125000Y-48159892D01*
X113125000Y-48005590D01*
X113144685Y-47938551D01*
X113197489Y-47892796D01*
X113266647Y-47882852D01*
X113330203Y-47911877D01*
X113336681Y-47917909D01*
X113539122Y-48120350D01*
X113539134Y-48120360D01*
X113768160Y-48291807D01*
X113768161Y-48291808D01*
X114019242Y-48428908D01*
X114019241Y-48428908D01*
X114287304Y-48528890D01*
X114566838Y-48589699D01*
X114602199Y-48592228D01*
X114602200Y-48592228D01*
X114602200Y-47324521D01*
X114750510Y-47355000D01*
X114902912Y-47355000D01*
X115054537Y-47339581D01*
X115102200Y-47324626D01*
X115102200Y-48592228D01*
X115137561Y-48589699D01*
X115417095Y-48528890D01*
X115685158Y-48428908D01*
X115936238Y-48291808D01*
X115936239Y-48291807D01*
X116165265Y-48120360D01*
X116165277Y-48120350D01*
X116367550Y-47918077D01*
X116367560Y-47918065D01*
X116539007Y-47689039D01*
X116539008Y-47689038D01*
X116676108Y-47437957D01*
X116676110Y-47437953D01*
X116717218Y-47327739D01*
X116759089Y-47271805D01*
X116824554Y-47247388D01*
X116892827Y-47262240D01*
X116942232Y-47311645D01*
X116949582Y-47327739D01*
X116990689Y-47437953D01*
X116990691Y-47437957D01*
X117127791Y-47689038D01*
X117127792Y-47689039D01*
X117299239Y-47918065D01*
X117299249Y-47918077D01*
X117501522Y-48120350D01*
X117501534Y-48120360D01*
X117730560Y-48291807D01*
X117730561Y-48291808D01*
X117981642Y-48428908D01*
X117981641Y-48428908D01*
X118249704Y-48528890D01*
X118529238Y-48589699D01*
X118564599Y-48592228D01*
X118564600Y-48592228D01*
X118564600Y-47324521D01*
X118712910Y-47355000D01*
X118865312Y-47355000D01*
X119016937Y-47339581D01*
X119064600Y-47324626D01*
X119064600Y-48592228D01*
X119099961Y-48589699D01*
X119379495Y-48528890D01*
X119647558Y-48428908D01*
X119898638Y-48291808D01*
X119898639Y-48291807D01*
X120127665Y-48120360D01*
X120127677Y-48120350D01*
X120329950Y-47918077D01*
X120329960Y-47918065D01*
X120501407Y-47689039D01*
X120501408Y-47689038D01*
X120638508Y-47437957D01*
X120638510Y-47437953D01*
X120679618Y-47327739D01*
X120721489Y-47271805D01*
X120786954Y-47247388D01*
X120855227Y-47262240D01*
X120904632Y-47311645D01*
X120911982Y-47327739D01*
X120953089Y-47437953D01*
X120953091Y-47437957D01*
X121090191Y-47689038D01*
X121090192Y-47689039D01*
X121261639Y-47918065D01*
X121261649Y-47918077D01*
X121463922Y-48120350D01*
X121463934Y-48120360D01*
X121692960Y-48291807D01*
X121692961Y-48291808D01*
X121944042Y-48428908D01*
X121944041Y-48428908D01*
X122212104Y-48528890D01*
X122491638Y-48589699D01*
X122526999Y-48592228D01*
X122527000Y-48592228D01*
X122527000Y-47324521D01*
X122675310Y-47355000D01*
X122827712Y-47355000D01*
X122979337Y-47339581D01*
X123027000Y-47324626D01*
X123027000Y-48592228D01*
X123062361Y-48589699D01*
X123341895Y-48528890D01*
X123609958Y-48428908D01*
X123861038Y-48291808D01*
X123861039Y-48291807D01*
X124090065Y-48120360D01*
X124090077Y-48120350D01*
X124292350Y-47918077D01*
X124292360Y-47918065D01*
X124463807Y-47689039D01*
X124463808Y-47689038D01*
X124600908Y-47437958D01*
X124700890Y-47169895D01*
X124761699Y-46890362D01*
X124777000Y-46676434D01*
X124777000Y-46605000D01*
X123745246Y-46605000D01*
X123770566Y-46507209D01*
X123780867Y-46304090D01*
X123750367Y-46105000D01*
X124777000Y-46105000D01*
X124777000Y-46033566D01*
X124761699Y-45819637D01*
X124700890Y-45540104D01*
X124600908Y-45272041D01*
X124463808Y-45020961D01*
X124463807Y-45020960D01*
X124292360Y-44791934D01*
X124292350Y-44791922D01*
X124090077Y-44589649D01*
X124090065Y-44589639D01*
X123861039Y-44418192D01*
X123861038Y-44418191D01*
X123609957Y-44281091D01*
X123609958Y-44281091D01*
X123341895Y-44181109D01*
X123062365Y-44120301D01*
X123062358Y-44120300D01*
X123027000Y-44117771D01*
X123027000Y-45385478D01*
X122878690Y-45355000D01*
X122726288Y-45355000D01*
X122574663Y-45370419D01*
X122527000Y-45385373D01*
X122527000Y-44117771D01*
X122526999Y-44117771D01*
X122491641Y-44120300D01*
X122491634Y-44120301D01*
X122212104Y-44181109D01*
X121944041Y-44281091D01*
X121692961Y-44418191D01*
X121692960Y-44418192D01*
X121463934Y-44589639D01*
X121463922Y-44589649D01*
X121261649Y-44791922D01*
X121261639Y-44791934D01*
X121090192Y-45020960D01*
X121090191Y-45020961D01*
X120953091Y-45272041D01*
X120911982Y-45382261D01*
X120870110Y-45438194D01*
X120804646Y-45462611D01*
X120736373Y-45447759D01*
X120686968Y-45398354D01*
X120679618Y-45382261D01*
X120638508Y-45272041D01*
X120501408Y-45020961D01*
X120501407Y-45020960D01*
X120329960Y-44791934D01*
X120329950Y-44791922D01*
X120127677Y-44589649D01*
X120127665Y-44589639D01*
X119898639Y-44418192D01*
X119898638Y-44418191D01*
X119647557Y-44281091D01*
X119647558Y-44281091D01*
X119379495Y-44181109D01*
X119099965Y-44120301D01*
X119099958Y-44120300D01*
X119064600Y-44117771D01*
X119064600Y-45385478D01*
X118916290Y-45355000D01*
X118763888Y-45355000D01*
X118612263Y-45370419D01*
X118564600Y-45385373D01*
X118564600Y-44117771D01*
X118564599Y-44117771D01*
X118529241Y-44120300D01*
X118529234Y-44120301D01*
X118249704Y-44181109D01*
X117981641Y-44281091D01*
X117730561Y-44418191D01*
X117730560Y-44418192D01*
X117501534Y-44589639D01*
X117501522Y-44589649D01*
X117299249Y-44791922D01*
X117299239Y-44791934D01*
X117127792Y-45020960D01*
X117127791Y-45020961D01*
X116990691Y-45272041D01*
X116949582Y-45382261D01*
X116907710Y-45438194D01*
X116842246Y-45462611D01*
X116773973Y-45447759D01*
X116724568Y-45398354D01*
X116717218Y-45382261D01*
X116676108Y-45272041D01*
X116539008Y-45020961D01*
X116539007Y-45020960D01*
X116367560Y-44791934D01*
X116367550Y-44791922D01*
X116165277Y-44589649D01*
X116165265Y-44589639D01*
X115936239Y-44418192D01*
X115936238Y-44418191D01*
X115685157Y-44281091D01*
X115685158Y-44281091D01*
X115417095Y-44181109D01*
X115137565Y-44120301D01*
X115137558Y-44120300D01*
X115102200Y-44117771D01*
X115102200Y-45385478D01*
X114953890Y-45355000D01*
X114801488Y-45355000D01*
X114649863Y-45370419D01*
X114602200Y-45385373D01*
X114602200Y-44117771D01*
X114602199Y-44117771D01*
X114566841Y-44120300D01*
X114566834Y-44120301D01*
X114287304Y-44181109D01*
X114019241Y-44281091D01*
X113768161Y-44418191D01*
X113768160Y-44418192D01*
X113539134Y-44589639D01*
X113539122Y-44589649D01*
X113336849Y-44791922D01*
X113336839Y-44791934D01*
X113206442Y-44966124D01*
X113150508Y-45007995D01*
X113080817Y-45012979D01*
X113019494Y-44979494D01*
X111855000Y-43815000D01*
X109375976Y-43815000D01*
X109308937Y-43795315D01*
X109282262Y-43772202D01*
X109265115Y-43752413D01*
X109154664Y-43656705D01*
X109154658Y-43656701D01*
X109021716Y-43595987D01*
X109020728Y-43595697D01*
X109008121Y-43591995D01*
X108954679Y-43576302D01*
X108954673Y-43576300D01*
X108866741Y-43563658D01*
X108810000Y-43555500D01*
X107857768Y-43555500D01*
X107766598Y-43563658D01*
X107737708Y-43568870D01*
X107723263Y-43571476D01*
X107634981Y-43595695D01*
X107506699Y-43665744D01*
X107506694Y-43665747D01*
X107450780Y-43707605D01*
X107450759Y-43707623D01*
X107379702Y-43778681D01*
X107318379Y-43812166D01*
X107292021Y-43815000D01*
X106563008Y-43815000D01*
X106495969Y-43795315D01*
X106469294Y-43772202D01*
X106452147Y-43752413D01*
X106341696Y-43656705D01*
X106341690Y-43656701D01*
X106208748Y-43595987D01*
X106207760Y-43595697D01*
X106195153Y-43591995D01*
X106141711Y-43576302D01*
X106141705Y-43576300D01*
X106053773Y-43563658D01*
X105997032Y-43555500D01*
X104658065Y-43555500D01*
X104635474Y-43556495D01*
X104602487Y-43559408D01*
X104594382Y-43560484D01*
X104557687Y-43565359D01*
X104418892Y-43611185D01*
X104418879Y-43611191D01*
X104356347Y-43642306D01*
X104356340Y-43642309D01*
X104236079Y-43725383D01*
X104200729Y-43769037D01*
X104143242Y-43808748D01*
X104104364Y-43815000D01*
X101826605Y-43815000D01*
X101759566Y-43795315D01*
X101732891Y-43772202D01*
X101715744Y-43752413D01*
X101605293Y-43656705D01*
X101605287Y-43656701D01*
X101472345Y-43595987D01*
X101471357Y-43595697D01*
X101458750Y-43591995D01*
X101405308Y-43576302D01*
X101405302Y-43576300D01*
X101317370Y-43563658D01*
X101260629Y-43555500D01*
X100085368Y-43555500D01*
X99994198Y-43563658D01*
X99965308Y-43568870D01*
X99950863Y-43571476D01*
X99862581Y-43595695D01*
X99734299Y-43665744D01*
X99734294Y-43665747D01*
X99678380Y-43707605D01*
X99678359Y-43707623D01*
X99607302Y-43778681D01*
X99545979Y-43812166D01*
X99519621Y-43815000D01*
X98790608Y-43815000D01*
X98723569Y-43795315D01*
X98696894Y-43772202D01*
X98679747Y-43752413D01*
X98569296Y-43656705D01*
X98569290Y-43656701D01*
X98436348Y-43595987D01*
X98435360Y-43595697D01*
X98422753Y-43591995D01*
X98369311Y-43576302D01*
X98369305Y-43576300D01*
X98281373Y-43563658D01*
X98224632Y-43555500D01*
X96122968Y-43555500D01*
X96031798Y-43563658D01*
X96002908Y-43568870D01*
X95988463Y-43571476D01*
X95900181Y-43595695D01*
X95771899Y-43665744D01*
X95771894Y-43665747D01*
X95715980Y-43707605D01*
X95715959Y-43707623D01*
X95644902Y-43778681D01*
X95583579Y-43812166D01*
X95557221Y-43815000D01*
X94828208Y-43815000D01*
X94761169Y-43795315D01*
X94734494Y-43772202D01*
X94717347Y-43752413D01*
X94606896Y-43656705D01*
X94606890Y-43656701D01*
X94473948Y-43595987D01*
X94472960Y-43595697D01*
X94460353Y-43591995D01*
X94406911Y-43576302D01*
X94406905Y-43576300D01*
X94318973Y-43563658D01*
X94262232Y-43555500D01*
X93310000Y-43555500D01*
X93309991Y-43555500D01*
X93309990Y-43555501D01*
X93200848Y-43567235D01*
X93200836Y-43567237D01*
X93149326Y-43578443D01*
X93045179Y-43613106D01*
X93045173Y-43613109D01*
X92922218Y-43692128D01*
X92922211Y-43692134D01*
X92869416Y-43737880D01*
X92839676Y-43772203D01*
X92780897Y-43809977D01*
X92745963Y-43815000D01*
X85819999Y-43815000D01*
X84919594Y-44715404D01*
X84858271Y-44748889D01*
X84788579Y-44743905D01*
X84744232Y-44715404D01*
X84618477Y-44589649D01*
X84618465Y-44589639D01*
X84389439Y-44418192D01*
X84389438Y-44418191D01*
X84138357Y-44281091D01*
X84138358Y-44281091D01*
X83870295Y-44181109D01*
X83590765Y-44120301D01*
X83590758Y-44120300D01*
X83555400Y-44117771D01*
X83555400Y-45385478D01*
X83407090Y-45355000D01*
X83254688Y-45355000D01*
X83103063Y-45370419D01*
X83055400Y-45385373D01*
X83055400Y-44117771D01*
X83055399Y-44117771D01*
X83020041Y-44120300D01*
X83020034Y-44120301D01*
X82740504Y-44181109D01*
X82472441Y-44281091D01*
X82221361Y-44418191D01*
X82221360Y-44418192D01*
X81992334Y-44589639D01*
X81992322Y-44589649D01*
X81790049Y-44791922D01*
X81790039Y-44791934D01*
X81618592Y-45020960D01*
X81618591Y-45020961D01*
X81607832Y-45040666D01*
X81558427Y-45090071D01*
X81490154Y-45104923D01*
X81424689Y-45080506D01*
X81382818Y-45024572D01*
X81375000Y-44981239D01*
X81375000Y-42596362D01*
X81394685Y-42529323D01*
X81411319Y-42508681D01*
X83243681Y-40676319D01*
X83305004Y-40642834D01*
X83331362Y-40640000D01*
X145712366Y-40640000D01*
X145779405Y-40659685D01*
G37*
%TD.AperFunction*%
%TA.AperFunction,Conductor*%
G36*
X117821034Y-46202791D02*
G01*
X117810733Y-46405910D01*
X117841233Y-46605000D01*
X115820446Y-46605000D01*
X115845766Y-46507209D01*
X115856067Y-46304090D01*
X115825567Y-46105000D01*
X117846354Y-46105000D01*
X117821034Y-46202791D01*
G37*
%TD.AperFunction*%
%TA.AperFunction,Conductor*%
G36*
X121783434Y-46202791D02*
G01*
X121773133Y-46405910D01*
X121803633Y-46605000D01*
X119782846Y-46605000D01*
X119808166Y-46507209D01*
X119818467Y-46304090D01*
X119787967Y-46105000D01*
X121808754Y-46105000D01*
X121783434Y-46202791D01*
G37*
%TD.AperFunction*%
%TD*%
%TA.AperFunction,Conductor*%
%TO.N,GND*%
G36*
X93775773Y-140988185D02*
G01*
X93821528Y-141040989D01*
X93831472Y-141110147D01*
X93802447Y-141173703D01*
X93743669Y-141211477D01*
X93738808Y-141212798D01*
X92169999Y-141604999D01*
X91535000Y-144144999D01*
X91535000Y-150370500D01*
X91515315Y-150437539D01*
X91462511Y-150483294D01*
X91411000Y-150494500D01*
X75784000Y-150494500D01*
X75716961Y-150474815D01*
X75671206Y-150422011D01*
X75660000Y-150370500D01*
X75660000Y-145539000D01*
X75679685Y-145471961D01*
X75732489Y-145426206D01*
X75784000Y-145415000D01*
X76243638Y-145415000D01*
X76310677Y-145434685D01*
X76331319Y-145451319D01*
X76930000Y-146050000D01*
X77352413Y-146050000D01*
X77419452Y-146069685D01*
X77465207Y-146122489D01*
X77475941Y-146184808D01*
X77474526Y-146200973D01*
X78155600Y-146882046D01*
X78074852Y-146894835D01*
X77961955Y-146952359D01*
X77872359Y-147041955D01*
X77814835Y-147154852D01*
X77802046Y-147235599D01*
X77120973Y-146554526D01*
X77120972Y-146554527D01*
X77069868Y-146627513D01*
X76973734Y-146833673D01*
X76973730Y-146833682D01*
X76914860Y-147053389D01*
X76914858Y-147053400D01*
X76895034Y-147279997D01*
X76895034Y-147280002D01*
X76914858Y-147506599D01*
X76914860Y-147506610D01*
X76973730Y-147726317D01*
X76973734Y-147726326D01*
X77069865Y-147932481D01*
X77069866Y-147932483D01*
X77120973Y-148005471D01*
X77120974Y-148005472D01*
X77802046Y-147324399D01*
X77814835Y-147405148D01*
X77872359Y-147518045D01*
X77961955Y-147607641D01*
X78074852Y-147665165D01*
X78155599Y-147677953D01*
X77474526Y-148359025D01*
X77474526Y-148359026D01*
X77547512Y-148410131D01*
X77547516Y-148410133D01*
X77753673Y-148506265D01*
X77753682Y-148506269D01*
X77973389Y-148565139D01*
X77973400Y-148565141D01*
X78199998Y-148584966D01*
X78200002Y-148584966D01*
X78426599Y-148565141D01*
X78426610Y-148565139D01*
X78646317Y-148506269D01*
X78646331Y-148506264D01*
X78852478Y-148410136D01*
X78925472Y-148359025D01*
X78244401Y-147677953D01*
X78325148Y-147665165D01*
X78438045Y-147607641D01*
X78527641Y-147518045D01*
X78585165Y-147405148D01*
X78597953Y-147324400D01*
X79279025Y-148005472D01*
X79330136Y-147932478D01*
X79426264Y-147726331D01*
X79426269Y-147726317D01*
X79485139Y-147506610D01*
X79485141Y-147506599D01*
X79504966Y-147280002D01*
X79504966Y-147279997D01*
X79485141Y-147053400D01*
X79485139Y-147053389D01*
X79426269Y-146833682D01*
X79426265Y-146833673D01*
X79330133Y-146627516D01*
X79330131Y-146627512D01*
X79279026Y-146554526D01*
X79279025Y-146554526D01*
X78597953Y-147235598D01*
X78585165Y-147154852D01*
X78527641Y-147041955D01*
X78438045Y-146952359D01*
X78325148Y-146894835D01*
X78244400Y-146882046D01*
X78925472Y-146200973D01*
X78924058Y-146184808D01*
X78937825Y-146116308D01*
X78986440Y-146066124D01*
X79047586Y-146050000D01*
X79470000Y-146050000D01*
X80740000Y-144780000D01*
X80740000Y-142926361D01*
X80759685Y-142859322D01*
X80776314Y-142838685D01*
X81818718Y-141796281D01*
X81880039Y-141762798D01*
X81949731Y-141767782D01*
X82005664Y-141809654D01*
X82026172Y-141851870D01*
X82077314Y-142042736D01*
X82077318Y-142042747D01*
X82171600Y-142244935D01*
X82171601Y-142244937D01*
X82218923Y-142312521D01*
X82218924Y-142312522D01*
X82796922Y-141734523D01*
X82820507Y-141814844D01*
X82898239Y-141935798D01*
X83006900Y-142029952D01*
X83137685Y-142089680D01*
X83147466Y-142091086D01*
X82572476Y-142666074D01*
X82572477Y-142666075D01*
X82640062Y-142713398D01*
X82640064Y-142713399D01*
X82842252Y-142807681D01*
X82842263Y-142807685D01*
X83057751Y-142865425D01*
X83057758Y-142865426D01*
X83279998Y-142884870D01*
X83280002Y-142884870D01*
X83502241Y-142865426D01*
X83502248Y-142865425D01*
X83717736Y-142807685D01*
X83717747Y-142807681D01*
X83919931Y-142713401D01*
X83919933Y-142713400D01*
X83987522Y-142666074D01*
X83412533Y-142091086D01*
X83422315Y-142089680D01*
X83553100Y-142029952D01*
X83661761Y-141935798D01*
X83739493Y-141814844D01*
X83763076Y-141734524D01*
X84341074Y-142312522D01*
X84388400Y-142244933D01*
X84388401Y-142244931D01*
X84437618Y-142139386D01*
X84483790Y-142086946D01*
X84550983Y-142067794D01*
X84617865Y-142088009D01*
X84662382Y-142139386D01*
X84711600Y-142244935D01*
X84711601Y-142244937D01*
X84758923Y-142312521D01*
X84758924Y-142312522D01*
X85336922Y-141734523D01*
X85360507Y-141814844D01*
X85438239Y-141935798D01*
X85546900Y-142029952D01*
X85677685Y-142089680D01*
X85687466Y-142091086D01*
X85112476Y-142666074D01*
X85112477Y-142666075D01*
X85180062Y-142713398D01*
X85180064Y-142713399D01*
X85382252Y-142807681D01*
X85382263Y-142807685D01*
X85597751Y-142865425D01*
X85597758Y-142865426D01*
X85819998Y-142884870D01*
X85820002Y-142884870D01*
X86042241Y-142865426D01*
X86042248Y-142865425D01*
X86257736Y-142807685D01*
X86257747Y-142807681D01*
X86459931Y-142713401D01*
X86459933Y-142713400D01*
X86527522Y-142666074D01*
X85952533Y-142091086D01*
X85962315Y-142089680D01*
X86093100Y-142029952D01*
X86201761Y-141935798D01*
X86279493Y-141814844D01*
X86303076Y-141734524D01*
X86881074Y-142312522D01*
X86928400Y-142244933D01*
X86928401Y-142244931D01*
X87022681Y-142042747D01*
X87022685Y-142042736D01*
X87080425Y-141827248D01*
X87080426Y-141827241D01*
X87099870Y-141605001D01*
X87099870Y-141604998D01*
X87080426Y-141382758D01*
X87080425Y-141382751D01*
X87022685Y-141167263D01*
X87022682Y-141167257D01*
X87012260Y-141144905D01*
X87001768Y-141075827D01*
X87030288Y-141012043D01*
X87088764Y-140973804D01*
X87124642Y-140968500D01*
X93708734Y-140968500D01*
X93775773Y-140988185D01*
G37*
%TD.AperFunction*%
%TA.AperFunction,Conductor*%
G36*
X102864612Y-140354685D02*
G01*
X102910367Y-140407489D01*
X102920311Y-140476647D01*
X102893161Y-140536095D01*
X102892476Y-140543923D01*
X103467466Y-141118913D01*
X103457685Y-141120320D01*
X103326900Y-141180048D01*
X103218239Y-141274202D01*
X103140507Y-141395156D01*
X103116923Y-141475476D01*
X102538924Y-140897477D01*
X102491598Y-140965066D01*
X102397318Y-141167252D01*
X102397314Y-141167263D01*
X102339574Y-141382751D01*
X102339573Y-141382758D01*
X102320130Y-141604998D01*
X102320130Y-141605001D01*
X102339573Y-141827241D01*
X102339574Y-141827248D01*
X102397314Y-142042736D01*
X102397318Y-142042747D01*
X102491600Y-142244935D01*
X102491601Y-142244937D01*
X102538923Y-142312521D01*
X102538924Y-142312522D01*
X103116923Y-141734523D01*
X103140507Y-141814844D01*
X103218239Y-141935798D01*
X103326900Y-142029952D01*
X103457685Y-142089680D01*
X103467466Y-142091086D01*
X102892476Y-142666074D01*
X102892477Y-142666075D01*
X102960062Y-142713398D01*
X102960064Y-142713399D01*
X103162252Y-142807681D01*
X103162263Y-142807685D01*
X103377751Y-142865425D01*
X103377758Y-142865426D01*
X103599998Y-142884870D01*
X103600002Y-142884870D01*
X103822241Y-142865426D01*
X103822248Y-142865425D01*
X104037736Y-142807685D01*
X104037747Y-142807681D01*
X104239931Y-142713401D01*
X104239933Y-142713400D01*
X104307522Y-142666074D01*
X103732533Y-142091086D01*
X103742315Y-142089680D01*
X103873100Y-142029952D01*
X103981761Y-141935798D01*
X104059493Y-141814844D01*
X104083076Y-141734524D01*
X104661074Y-142312522D01*
X104708400Y-142244933D01*
X104708401Y-142244931D01*
X104757618Y-142139386D01*
X104803790Y-142086946D01*
X104870983Y-142067794D01*
X104937865Y-142088009D01*
X104982382Y-142139386D01*
X105031600Y-142244935D01*
X105031601Y-142244937D01*
X105078923Y-142312521D01*
X105078924Y-142312522D01*
X105656922Y-141734523D01*
X105680507Y-141814844D01*
X105758239Y-141935798D01*
X105866900Y-142029952D01*
X105997685Y-142089680D01*
X106007466Y-142091086D01*
X105432476Y-142666074D01*
X105432477Y-142666075D01*
X105500062Y-142713398D01*
X105500064Y-142713399D01*
X105702252Y-142807681D01*
X105702263Y-142807685D01*
X105917751Y-142865425D01*
X105917758Y-142865426D01*
X106139998Y-142884870D01*
X106140002Y-142884870D01*
X106362241Y-142865426D01*
X106362248Y-142865425D01*
X106577736Y-142807685D01*
X106577747Y-142807681D01*
X106779931Y-142713401D01*
X106779933Y-142713400D01*
X106847522Y-142666074D01*
X106272533Y-142091086D01*
X106282315Y-142089680D01*
X106413100Y-142029952D01*
X106521761Y-141935798D01*
X106599493Y-141814844D01*
X106623076Y-141734524D01*
X107201074Y-142312522D01*
X107248400Y-142244933D01*
X107248401Y-142244931D01*
X107342681Y-142042747D01*
X107342685Y-142042736D01*
X107400425Y-141827248D01*
X107400426Y-141827241D01*
X107419870Y-141605001D01*
X107419870Y-141604998D01*
X107400426Y-141382758D01*
X107400425Y-141382751D01*
X107342685Y-141167263D01*
X107342682Y-141167257D01*
X107332260Y-141144905D01*
X107321768Y-141075827D01*
X107350288Y-141012043D01*
X107408764Y-140973804D01*
X107444642Y-140968500D01*
X121296366Y-140968500D01*
X121312113Y-140970238D01*
X121312139Y-140969968D01*
X121319905Y-140970701D01*
X121319909Y-140970702D01*
X121389958Y-140968500D01*
X121419856Y-140968500D01*
X121419857Y-140968500D01*
X121421222Y-140968327D01*
X121426862Y-140967614D01*
X121432685Y-140967156D01*
X121458708Y-140966338D01*
X121479890Y-140965673D01*
X121489681Y-140962827D01*
X121499481Y-140959980D01*
X121518538Y-140956032D01*
X121538797Y-140953474D01*
X121582721Y-140936082D01*
X121588221Y-140934199D01*
X121633593Y-140921018D01*
X121651165Y-140910625D01*
X121668632Y-140902068D01*
X121687617Y-140894552D01*
X121725826Y-140866790D01*
X121730704Y-140863585D01*
X121771362Y-140839542D01*
X121785802Y-140825100D01*
X121800592Y-140812470D01*
X121817107Y-140800472D01*
X121847222Y-140764067D01*
X121851126Y-140759776D01*
X122239584Y-140371319D01*
X122300907Y-140337834D01*
X122327265Y-140335000D01*
X123117573Y-140335000D01*
X123184612Y-140354685D01*
X123230367Y-140407489D01*
X123240311Y-140476647D01*
X123213161Y-140536095D01*
X123212476Y-140543923D01*
X123787466Y-141118913D01*
X123777685Y-141120320D01*
X123646900Y-141180048D01*
X123538239Y-141274202D01*
X123460507Y-141395156D01*
X123436923Y-141475476D01*
X122858924Y-140897477D01*
X122811598Y-140965066D01*
X122717318Y-141167252D01*
X122717314Y-141167263D01*
X122659574Y-141382751D01*
X122659573Y-141382758D01*
X122640130Y-141604998D01*
X122640130Y-141605001D01*
X122659573Y-141827241D01*
X122659574Y-141827248D01*
X122717314Y-142042736D01*
X122717318Y-142042747D01*
X122811600Y-142244935D01*
X122811601Y-142244937D01*
X122858923Y-142312521D01*
X122858924Y-142312522D01*
X123436923Y-141734523D01*
X123460507Y-141814844D01*
X123538239Y-141935798D01*
X123646900Y-142029952D01*
X123777685Y-142089680D01*
X123787466Y-142091086D01*
X123212476Y-142666074D01*
X123212477Y-142666075D01*
X123280062Y-142713398D01*
X123280064Y-142713399D01*
X123482252Y-142807681D01*
X123482263Y-142807685D01*
X123697751Y-142865425D01*
X123697758Y-142865426D01*
X123919998Y-142884870D01*
X123920002Y-142884870D01*
X124142241Y-142865426D01*
X124142248Y-142865425D01*
X124357736Y-142807685D01*
X124357747Y-142807681D01*
X124559931Y-142713401D01*
X124559933Y-142713400D01*
X124627522Y-142666074D01*
X124052533Y-142091086D01*
X124062315Y-142089680D01*
X124193100Y-142029952D01*
X124301761Y-141935798D01*
X124379493Y-141814844D01*
X124403076Y-141734524D01*
X124981074Y-142312522D01*
X125028400Y-142244933D01*
X125028401Y-142244931D01*
X125077618Y-142139386D01*
X125123790Y-142086946D01*
X125190983Y-142067794D01*
X125257865Y-142088009D01*
X125302382Y-142139386D01*
X125351600Y-142244935D01*
X125351601Y-142244937D01*
X125398923Y-142312521D01*
X125398924Y-142312522D01*
X125976922Y-141734523D01*
X126000507Y-141814844D01*
X126078239Y-141935798D01*
X126186900Y-142029952D01*
X126317685Y-142089680D01*
X126327466Y-142091086D01*
X125752476Y-142666074D01*
X125752477Y-142666075D01*
X125820062Y-142713398D01*
X125820064Y-142713399D01*
X126022252Y-142807681D01*
X126022263Y-142807685D01*
X126237751Y-142865425D01*
X126237758Y-142865426D01*
X126459998Y-142884870D01*
X126460002Y-142884870D01*
X126682241Y-142865426D01*
X126682248Y-142865425D01*
X126897736Y-142807685D01*
X126897747Y-142807681D01*
X127099931Y-142713401D01*
X127099933Y-142713400D01*
X127167522Y-142666074D01*
X126592533Y-142091086D01*
X126602315Y-142089680D01*
X126733100Y-142029952D01*
X126841761Y-141935798D01*
X126919493Y-141814844D01*
X126943076Y-141734524D01*
X127521074Y-142312522D01*
X127568400Y-142244933D01*
X127568401Y-142244931D01*
X127662681Y-142042747D01*
X127662685Y-142042736D01*
X127720425Y-141827248D01*
X127720426Y-141827241D01*
X127739870Y-141605001D01*
X127739870Y-141604998D01*
X127720426Y-141382758D01*
X127720425Y-141382751D01*
X127662685Y-141167263D01*
X127662682Y-141167257D01*
X127652260Y-141144905D01*
X127641768Y-141075827D01*
X127670288Y-141012043D01*
X127728764Y-140973804D01*
X127764642Y-140968500D01*
X138158734Y-140968500D01*
X138225773Y-140988185D01*
X138271528Y-141040989D01*
X138281472Y-141110147D01*
X138252447Y-141173703D01*
X138193669Y-141211477D01*
X138188808Y-141212798D01*
X136619999Y-141604999D01*
X135985000Y-144144999D01*
X135985000Y-150370500D01*
X135965315Y-150437539D01*
X135912511Y-150483294D01*
X135861000Y-150494500D01*
X98009000Y-150494500D01*
X97941961Y-150474815D01*
X97896206Y-150422011D01*
X97885000Y-150370500D01*
X97885000Y-144144999D01*
X97250000Y-141604999D01*
X95681192Y-141212798D01*
X95620928Y-141177441D01*
X95589346Y-141115117D01*
X95596473Y-141045612D01*
X95640046Y-140990993D01*
X95706230Y-140968602D01*
X95711266Y-140968500D01*
X100976366Y-140968500D01*
X100992113Y-140970238D01*
X100992139Y-140969968D01*
X100999905Y-140970701D01*
X100999909Y-140970702D01*
X101069958Y-140968500D01*
X101099856Y-140968500D01*
X101099857Y-140968500D01*
X101101222Y-140968327D01*
X101106862Y-140967614D01*
X101112685Y-140967156D01*
X101138708Y-140966338D01*
X101159890Y-140965673D01*
X101169681Y-140962827D01*
X101179481Y-140959980D01*
X101198538Y-140956032D01*
X101218797Y-140953474D01*
X101262721Y-140936082D01*
X101268221Y-140934199D01*
X101313593Y-140921018D01*
X101331165Y-140910625D01*
X101348632Y-140902068D01*
X101367617Y-140894552D01*
X101405826Y-140866790D01*
X101410704Y-140863585D01*
X101451362Y-140839542D01*
X101465802Y-140825100D01*
X101480592Y-140812470D01*
X101497107Y-140800472D01*
X101527222Y-140764067D01*
X101531126Y-140759776D01*
X101919584Y-140371319D01*
X101980907Y-140337834D01*
X102007265Y-140335000D01*
X102797573Y-140335000D01*
X102864612Y-140354685D01*
G37*
%TD.AperFunction*%
%TA.AperFunction,Conductor*%
G36*
X155685677Y-140354685D02*
G01*
X155706319Y-140371319D01*
X156903681Y-141568681D01*
X156937166Y-141630004D01*
X156940000Y-141656362D01*
X156940000Y-142875000D01*
X157575000Y-143510000D01*
X158632413Y-143510000D01*
X158699452Y-143529685D01*
X158745207Y-143582489D01*
X158755941Y-143644808D01*
X158754526Y-143660972D01*
X159435599Y-144342046D01*
X159354852Y-144354835D01*
X159241955Y-144412359D01*
X159152359Y-144501955D01*
X159094835Y-144614852D01*
X159082046Y-144695599D01*
X158400973Y-144014526D01*
X158400972Y-144014527D01*
X158349868Y-144087513D01*
X158253734Y-144293673D01*
X158253730Y-144293682D01*
X158194860Y-144513389D01*
X158194858Y-144513400D01*
X158175034Y-144739997D01*
X158175034Y-144740002D01*
X158194858Y-144966599D01*
X158194860Y-144966610D01*
X158253730Y-145186317D01*
X158253734Y-145186326D01*
X158349865Y-145392481D01*
X158349866Y-145392483D01*
X158400973Y-145465471D01*
X158400974Y-145465472D01*
X159082046Y-144784399D01*
X159094835Y-144865148D01*
X159152359Y-144978045D01*
X159241955Y-145067641D01*
X159354852Y-145125165D01*
X159435599Y-145137953D01*
X158754526Y-145819025D01*
X158754526Y-145819026D01*
X158827512Y-145870131D01*
X158827516Y-145870133D01*
X159033673Y-145966265D01*
X159033682Y-145966269D01*
X159253389Y-146025139D01*
X159253400Y-146025141D01*
X159479998Y-146044966D01*
X159480002Y-146044966D01*
X159706599Y-146025141D01*
X159706610Y-146025139D01*
X159926317Y-145966269D01*
X159926331Y-145966264D01*
X160132478Y-145870136D01*
X160205472Y-145819025D01*
X159524401Y-145137953D01*
X159605148Y-145125165D01*
X159718045Y-145067641D01*
X159807641Y-144978045D01*
X159865165Y-144865148D01*
X159877953Y-144784400D01*
X160559025Y-145465472D01*
X160610136Y-145392478D01*
X160706264Y-145186331D01*
X160706269Y-145186317D01*
X160765139Y-144966610D01*
X160765141Y-144966599D01*
X160784966Y-144740002D01*
X160784966Y-144739999D01*
X160769164Y-144559387D01*
X160782930Y-144490887D01*
X160831546Y-144440704D01*
X160899574Y-144424770D01*
X160965418Y-144448145D01*
X160990572Y-144472450D01*
X161104880Y-144619417D01*
X161130500Y-144684420D01*
X161131000Y-144695546D01*
X161131000Y-150244835D01*
X161111315Y-150311874D01*
X161058511Y-150357629D01*
X161007838Y-150368832D01*
X142459838Y-150494156D01*
X142392667Y-150474925D01*
X142346556Y-150422431D01*
X142335000Y-150370159D01*
X142335000Y-144144999D01*
X141700000Y-141604999D01*
X140131192Y-141212798D01*
X140070928Y-141177441D01*
X140039346Y-141115117D01*
X140046473Y-141045612D01*
X140090046Y-140990993D01*
X140156230Y-140968602D01*
X140161266Y-140968500D01*
X150535361Y-140968500D01*
X150602400Y-140988185D01*
X150648155Y-141040989D01*
X150658099Y-141110147D01*
X150655136Y-141124594D01*
X150599574Y-141331950D01*
X150599573Y-141331958D01*
X150580130Y-141554198D01*
X150580130Y-141554201D01*
X150599573Y-141776441D01*
X150599574Y-141776448D01*
X150657314Y-141991936D01*
X150657318Y-141991947D01*
X150751600Y-142194135D01*
X150751601Y-142194137D01*
X150798923Y-142261721D01*
X150798924Y-142261722D01*
X151376922Y-141683723D01*
X151400507Y-141764044D01*
X151478239Y-141884998D01*
X151586900Y-141979152D01*
X151717685Y-142038880D01*
X151727466Y-142040286D01*
X151152476Y-142615274D01*
X151152477Y-142615275D01*
X151220062Y-142662598D01*
X151220064Y-142662599D01*
X151422252Y-142756881D01*
X151422263Y-142756885D01*
X151637751Y-142814625D01*
X151637758Y-142814626D01*
X151859998Y-142834070D01*
X151860002Y-142834070D01*
X152082241Y-142814626D01*
X152082248Y-142814625D01*
X152297736Y-142756885D01*
X152297747Y-142756881D01*
X152499931Y-142662601D01*
X152499933Y-142662600D01*
X152567522Y-142615274D01*
X151992533Y-142040286D01*
X152002315Y-142038880D01*
X152133100Y-141979152D01*
X152241761Y-141884998D01*
X152319493Y-141764044D01*
X152343076Y-141683724D01*
X152921074Y-142261722D01*
X152931707Y-142246537D01*
X152986283Y-142202912D01*
X153055782Y-142195718D01*
X153118136Y-142227240D01*
X153150988Y-142278656D01*
X153190640Y-142398319D01*
X153190645Y-142398330D01*
X153282680Y-142547540D01*
X153282683Y-142547544D01*
X153406655Y-142671516D01*
X153406659Y-142671519D01*
X153555869Y-142763554D01*
X153555880Y-142763559D01*
X153722302Y-142818705D01*
X153825019Y-142829199D01*
X154149999Y-142829199D01*
X154150000Y-142829198D01*
X154150000Y-141989701D01*
X154257685Y-142038880D01*
X154364237Y-142054200D01*
X154435763Y-142054200D01*
X154542315Y-142038880D01*
X154650000Y-141989701D01*
X154650000Y-142829199D01*
X154974972Y-142829199D01*
X154974986Y-142829198D01*
X155077696Y-142818705D01*
X155077698Y-142818705D01*
X155244119Y-142763559D01*
X155244130Y-142763554D01*
X155393340Y-142671519D01*
X155393344Y-142671516D01*
X155517316Y-142547544D01*
X155517319Y-142547540D01*
X155609354Y-142398330D01*
X155609359Y-142398319D01*
X155664505Y-142231897D01*
X155674999Y-142129186D01*
X155675000Y-142129173D01*
X155675000Y-141804200D01*
X154833686Y-141804200D01*
X154859493Y-141764044D01*
X154900000Y-141626089D01*
X154900000Y-141482311D01*
X154859493Y-141344356D01*
X154833686Y-141304200D01*
X155674999Y-141304200D01*
X155674999Y-140979228D01*
X155674998Y-140979213D01*
X155664505Y-140876503D01*
X155664505Y-140876501D01*
X155609359Y-140710080D01*
X155609354Y-140710069D01*
X155517319Y-140560859D01*
X155517316Y-140560855D01*
X155503142Y-140546681D01*
X155469657Y-140485358D01*
X155474641Y-140415666D01*
X155516513Y-140359733D01*
X155581977Y-140335316D01*
X155590823Y-140335000D01*
X155618638Y-140335000D01*
X155685677Y-140354685D01*
G37*
%TD.AperFunction*%
%TD*%
M02*
